<svg width="15" height="17" viewBox="0 0 15 17" fill="none" xmlns="http://www.w3.org/2000/svg">
<path d="M3.14737 1L1 3.86316V13.8842C1 14.2639 1.15083 14.628 1.4193 14.8965C1.68777 15.165 2.0519 15.3158 2.43158 15.3158H12.4526C12.8323 15.3158 13.1964 15.165 13.4649 14.8965C13.7334 14.628 13.8842 14.2639 13.8842 13.8842V3.86316L11.7368 1H3.14737Z" stroke="#1AC7D6" stroke-width="1.7" stroke-linecap="round" stroke-linejoin="round"/>
<path d="M1 3.86328H13.8842" stroke="#1AC7D6" stroke-width="1.7" stroke-linecap="round" stroke-linejoin="round"/>
<path d="M10.3052 6.72656C10.3052 7.48592 10.0035 8.21417 9.46657 8.75112C8.92963 9.28807 8.20137 9.58972 7.44202 9.58972C6.68266 9.58972 5.9544 9.28807 5.41746 8.75112C4.88051 8.21417 4.57886 7.48592 4.57886 6.72656" stroke="#1AC7D6" stroke-width="1.7" stroke-linecap="round" stroke-linejoin="round"/>
</svg>
