<svg width="15" height="17" viewBox="0 0 15 17" fill="none" xmlns="http://www.w3.org/2000/svg">
<path d="M3.14737 1L1 3.86316V13.8842C1 14.2639 1.15083 14.628 1.4193 14.8965C1.68777 15.165 2.0519 15.3158 2.43158 15.3158H12.4526C12.8323 15.3158 13.1964 15.165 13.4649 14.8965C13.7334 14.628 13.8842 14.2639 13.8842 13.8842V3.86316L11.7368 1H3.14737Z" stroke="#BB1048" stroke-width="1.7" stroke-linecap="round" stroke-linejoin="round"/>
<path d="M1 3.86328H13.8842" stroke="#BB1048" stroke-width="1.7" stroke-linecap="round" stroke-linejoin="round"/>
<path d="M10.3044 6.72607C10.3044 7.48543 10.0028 8.21369 9.46584 8.75063C8.9289 9.28758 8.20064 9.58923 7.44128 9.58923C6.68193 9.58923 5.95367 9.28758 5.41672 8.75063C4.87978 8.21369 4.57813 7.48543 4.57812 6.72607" stroke="#BB1048" stroke-width="1.7" stroke-linecap="round" stroke-linejoin="round"/>
</svg>
