<svg width="51" height="39" viewBox="0 0 51 39" fill="none" xmlns="http://www.w3.org/2000/svg">
<path d="M44.75 1.30566H5.375C2.95875 1.30566 1 3.35702 1 5.8875V33.3785C1 35.909 2.95875 37.9604 5.375 37.9604H44.75C47.1662 37.9604 49.125 35.909 49.125 33.3785V5.8875C49.125 3.35702 47.1662 1.30566 44.75 1.30566Z" stroke="#BB1048" stroke-width="2" stroke-linecap="round" stroke-linejoin="round"/>
<path d="M33 23.4148L33 12.8257" stroke="#BB1048" stroke-width="2" stroke-linecap="round" stroke-linejoin="round"/>
<path d="M37 26.4402L37 12.8257" stroke="#BB1048" stroke-width="2" stroke-linecap="round" stroke-linejoin="round"/>
<path d="M29 26.4402L29 12.8257" stroke="#BB1048" stroke-width="2" stroke-linecap="round" stroke-linejoin="round"/>
<path d="M25 23.4148L25 12.8257" stroke="#BB1048" stroke-width="2" stroke-linecap="round" stroke-linejoin="round"/>
<path d="M17 23.4148L17 12.8257" stroke="#BB1048" stroke-width="2" stroke-linecap="round" stroke-linejoin="round"/>
<path d="M13 26.4402L13 12.8257" stroke="#BB1048" stroke-width="2" stroke-linecap="round" stroke-linejoin="round"/>
<path d="M21 26.4402L21 12.8257" stroke="#BB1048" stroke-width="2" stroke-linecap="round" stroke-linejoin="round"/>
<path d="M25 23.4148L25 12.8257" stroke="#BB1048" stroke-width="2" stroke-linecap="round" stroke-linejoin="round"/>
</svg>
