<svg width="20" height="20" viewBox="0 0 20 20" fill="none" xmlns="http://www.w3.org/2000/svg">
<path d="M14.3584 11.3535L14.3587 11.3537L18.3577 15.3537L18.358 15.3541C18.4044 15.4004 18.4413 15.4555 18.4664 15.516C18.4915 15.5766 18.5045 15.6416 18.5045 15.7072C18.5045 15.7728 18.4915 15.8378 18.4664 15.8984C18.4413 15.959 18.4044 16.014 18.358 16.0604L18.3577 16.0607L15.6457 18.7727C15.3603 19.0581 14.9879 19.2122 14.5943 19.2122H14.5704C13.1879 19.1893 8.40792 18.8177 4.65083 15.0617C0.887158 11.298 0.521485 6.51547 0.500212 5.13948L0.5002 5.13876C0.493534 4.74396 0.653717 4.35036 0.940896 4.06469L0.940897 4.06469L0.94189 4.06369L3.64491 1.35967C3.74274 1.26943 3.87102 1.21924 4.00427 1.21924C4.13753 1.21924 4.26582 1.26943 4.36366 1.3597L8.35772 5.35376L8.35802 5.35406C8.40444 5.4004 8.44128 5.45545 8.46641 5.51605C8.49154 5.57665 8.50447 5.6416 8.50447 5.7072C8.50447 5.77281 8.49154 5.83776 8.46641 5.89836C8.44128 5.95896 8.40444 6.01401 8.35802 6.06035L8.35772 6.06065L6.76372 7.65465L6.55305 7.86532L6.63806 8.15087C6.86082 8.89914 7.38875 10.3847 8.3575 11.3535C9.27372 12.2709 10.7177 12.8254 11.5588 13.0755L11.8441 13.1603L12.0547 12.9499L13.6517 11.3539L13.6521 11.3535C13.6985 11.307 13.7535 11.2702 13.8141 11.2451C13.8747 11.2199 13.9397 11.207 14.0053 11.207C14.0709 11.207 14.1358 11.2199 14.1964 11.2451C14.257 11.2702 14.3121 11.307 14.3584 11.3535ZM14.5769 18.2121L14.7889 18.2157L14.9388 18.0658L16.9438 16.0608L17.2974 15.7072L16.9438 15.3537L14.3578 12.7677L14.0043 12.4141L13.6507 12.7677L12.3577 14.0606L12.3568 14.0615C12.2986 14.1201 12.2266 14.1631 12.1474 14.1866C12.0682 14.2101 11.9844 14.2134 11.9036 14.1962L11.9014 14.1958C11.861 14.1873 11.1801 14.0416 10.3115 13.6982C9.4367 13.3524 8.41164 12.8215 7.65083 12.0607C6.89001 11.2998 6.3591 10.2748 6.01325 9.4C5.66986 8.53142 5.52415 7.85044 5.51573 7.81006L5.51569 7.80987C5.48107 7.64431 5.53264 7.47194 5.65083 7.35376L6.94383 6.06076L7.29738 5.7072L6.94383 5.35365L4.35783 2.76765L4.00418 2.41401L3.65063 2.76774L1.64663 4.77274L1.49704 4.9224L1.50033 5.13398C1.52006 6.4026 1.85224 10.8483 5.35772 14.3538C8.85083 17.8469 13.282 18.1903 14.5769 18.2121Z" fill="#D9A863" stroke="#E0E0E0"/>
<path d="M13.4403 4.85649L13.7938 5.21017L14.1475 4.85655L18.2969 0.707107L19.0038 1.414L14.8544 5.56345L14.5007 5.91706L14.8544 6.27062L16.7915 8.207H11.5039V2.91941L13.4403 4.85649Z" fill="#D9A863" stroke="#E0E0E0"/>
</svg>
