<svg width="22" height="21" viewBox="0 0 22 21" fill="none" xmlns="http://www.w3.org/2000/svg">
<g opacity="0.8">
<path d="M8.12543 19.7123C8.61754 19.7123 9.01648 19.3133 9.01648 18.8212C9.01648 18.3291 8.61754 17.9302 8.12543 17.9302C7.63331 17.9302 7.23438 18.3291 7.23438 18.8212C7.23438 19.3133 7.63331 19.7123 8.12543 19.7123Z" stroke="#BB1048" stroke-width="2" stroke-linecap="round" stroke-linejoin="round"/>
<path d="M17.9223 19.7123C18.4144 19.7123 18.8134 19.3133 18.8134 18.8212C18.8134 18.3291 18.4144 17.9302 17.9223 17.9302C17.4302 17.9302 17.0312 18.3291 17.0312 18.8212C17.0312 19.3133 17.4302 19.7123 17.9223 19.7123Z" stroke="#BB1048" stroke-width="2" stroke-linecap="round" stroke-linejoin="round"/>
<path d="M1 1H4.56237L6.94915 12.9312C7.03059 13.3414 7.25365 13.7099 7.57929 13.9722C7.90492 14.2344 8.31238 14.3738 8.73034 14.3658H17.3869C17.8048 14.3738 18.2123 14.2344 18.5379 13.9722C18.8636 13.7099 19.0866 13.3414 19.1681 12.9312L20.593 5.45525H5.45296" stroke="#BB1048" stroke-width="2" stroke-linecap="round" stroke-linejoin="round"/>
</g>
</svg>
