<svg width="22" height="21" viewBox="0 0 22 21" fill="none" xmlns="http://www.w3.org/2000/svg">
<g opacity="0.8">
<path d="M8.12518 19.7118C8.6173 19.7118 9.01623 19.3129 9.01623 18.8207C9.01623 18.3286 8.6173 17.9297 8.12518 17.9297C7.63307 17.9297 7.23413 18.3286 7.23413 18.8207C7.23413 19.3129 7.63307 19.7118 8.12518 19.7118Z" stroke="#859668" stroke-width="2" stroke-linecap="round" stroke-linejoin="round"/>
<path d="M17.9218 19.7118C18.4139 19.7118 18.8129 19.3129 18.8129 18.8207C18.8129 18.3286 18.4139 17.9297 17.9218 17.9297C17.4297 17.9297 17.0308 18.3286 17.0308 18.8207C17.0308 19.3129 17.4297 19.7118 17.9218 19.7118Z" stroke="#859668" stroke-width="2" stroke-linecap="round" stroke-linejoin="round"/>
<path d="M1 1H4.56237L6.94915 12.9312C7.03059 13.3414 7.25365 13.7099 7.57929 13.9722C7.90492 14.2344 8.31238 14.3738 8.73034 14.3658H17.3869C17.8048 14.3738 18.2123 14.2344 18.5379 13.9722C18.8636 13.7099 19.0866 13.3414 19.1681 12.9312L20.593 5.45525H5.45296" stroke="#859668" stroke-width="2" stroke-linecap="round" stroke-linejoin="round"/>
</g>
</svg>
