<svg width="12" height="13" viewBox="0 0 12 13" fill="none" xmlns="http://www.w3.org/2000/svg">
<g opacity="0.6">
<path d="M7.09973 8.67677L6.80373 8.5846C6.295 8.42619 5.39509 8.06831 4.81424 7.4594L7.09973 8.67677ZM7.09973 8.67677L7.3139 8.45262L8.26277 7.45951L8.26317 7.45909C8.27298 7.44879 8.28338 7.44192 8.29312 7.43769L8.11249 7.02179L8.29313 7.43769C8.30281 7.43348 8.31231 7.43166 8.32132 7.43166C8.33033 7.43166 8.33984 7.43348 8.34951 7.43769L8.5487 6.97908M7.09973 8.67677L8.5487 6.97908M8.5487 6.97908L8.34952 7.43769C8.35926 7.44192 8.36966 7.44879 8.37947 7.45909L8.37972 7.45935M8.5487 6.97908L8.37972 7.45935M8.37972 7.45935L10.7558 9.94834L10.7561 9.94869C10.766 9.95901 10.7749 9.97251 10.7815 9.98897C10.788 10.0055 10.7916 10.0239 10.7916 10.043C10.7916 10.0621 10.788 10.0806 10.7815 10.0971C10.7749 10.1135 10.766 10.127 10.7561 10.1373L10.7558 10.1377L9.14445 11.8252C9.0104 11.9656 8.84297 12.0351 8.67128 12.0351H8.65896C7.85908 12.021 5.09043 11.7938 2.91487 9.51602C0.728411 7.22619 0.512552 4.30771 0.500107 3.46471L0.500096 3.46403C0.496855 3.26299 0.575419 3.06462 0.710242 2.92416L0.711211 2.92315L2.31386 1.24411C2.33535 1.22434 2.35889 1.2168 2.37916 1.2168C2.39945 1.2168 2.42299 1.22434 2.44449 1.24413L4.81424 3.72591L4.81453 3.72622C4.8244 3.73654 4.83338 3.75003 4.83991 3.7665C4.84644 3.783 4.85006 3.80143 4.85006 3.82055C4.85006 3.83966 4.84644 3.85809 4.83991 3.87459C4.83338 3.89106 4.8244 3.90455 4.81453 3.91487L4.81424 3.91518L3.86715 4.90704L3.66961 5.11391M8.37972 7.45935L3.66961 5.11391M3.66961 5.11391L3.74782 5.38905M3.66961 5.11391L3.74782 5.38905M3.74782 5.38905C3.88065 5.85631 4.20367 6.81983 4.81403 7.45918L3.74782 5.38905ZM8.65712 11.7905L8.87622 11.7944L9.02755 11.6359L10.2188 10.3883L10.5485 10.043L10.2188 9.69772L8.68235 8.08859L8.32073 7.70987L7.9591 8.08859L7.19086 8.89315L7.19001 8.89405C7.1779 8.90679 7.16498 8.91408 7.15349 8.91766C7.14214 8.92119 7.13075 8.92159 7.11964 8.91911L7.11738 8.91861C7.1011 8.91506 6.7095 8.82766 6.20868 8.6203C5.70223 8.41061 5.12234 8.09376 4.69734 7.64866C4.27105 7.20221 3.96629 6.59118 3.76432 6.05618C3.56489 5.52789 3.48062 5.11429 3.47675 5.09488L3.47671 5.09471C3.4667 5.04456 3.48346 4.99718 3.50903 4.97041L4.27727 4.16584L4.60698 3.82055L4.27727 3.47525L2.74079 1.86612L2.37907 1.4873L2.01746 1.86621L0.826766 3.11381L0.685491 3.26184L0.688529 3.46644C0.700443 4.26891 0.899174 7.09272 3.03177 9.32614C5.16225 11.5573 7.86384 11.7766 8.65712 11.7905ZM7.01061 9.40708C7.10719 9.42866 7.2074 9.42453 7.30206 9.39507C7.39673 9.36561 7.48282 9.31176 7.55248 9.23845L7.97506 8.79589L7.9591 8.77918L8.32073 8.43389L8.68235 8.77918L7.01061 9.40708Z" fill="#828282" stroke="#BB1048"/>
<path d="M7.83506 3.41674L8.19668 3.7956L8.55837 3.41681L10.8722 0.99355L11.021 1.14939L8.67525 3.60607L8.34549 3.95143L8.67531 4.29673L9.52611 5.18744H7.03906V2.5828L7.83506 3.41674Z" fill="white" stroke="#BB1048"/>
</g>
</svg>
