<svg width="19" height="18" viewBox="0 0 19 18" fill="none" xmlns="http://www.w3.org/2000/svg">
<path d="M3.2 13.8V13.3H2.7H1.8C1.08344 13.3 0.5 12.7166 0.5 12V4.8C0.5 4.08344 1.08344 3.5 1.8 3.5H12.6C13.3166 3.5 13.9 4.08344 13.9 4.8V12C13.9 12.7166 13.3166 13.3 12.6 13.3H8.3493H8.21082L8.09207 13.3712L3.80627 15.9425L3.80625 15.9426L3.2 16.3063V13.8ZM1.8 4.3H1.3V4.8V12V12.5H1.8H4V14.0106V14.8937L4.75726 14.4393L7.9892 12.5H12.6H13.1V12V4.8V4.3H12.6H1.8Z" fill="#828282" stroke="#E0E0E0"/>
<path d="M5.8 0.5H16.6C17.3166 0.5 17.9 1.08344 17.9 1.8V9C17.9 9.5395 17.5693 10.0035 17.1 10.1999V3.6C17.1 2.33116 16.0688 1.3 14.8 1.3H4.60008C4.79646 0.830732 5.2605 0.5 5.8 0.5Z" fill="#828282" stroke="#E0E0E0"/>
</svg>
