<svg width="14" height="17" viewBox="0 0 14 17" fill="none" xmlns="http://www.w3.org/2000/svg">
<path d="M9.58947 2.43164H11.0211C11.4007 2.43164 11.7649 2.58247 12.0333 2.85094C12.3018 3.11941 12.4526 3.48354 12.4526 3.86322V13.8843C12.4526 14.264 12.3018 14.6281 12.0333 14.8966C11.7649 15.165 11.4007 15.3159 11.0211 15.3159H2.43158C2.0519 15.3159 1.68777 15.165 1.4193 14.8966C1.15083 14.6281 1 14.264 1 13.8843V3.86322C1 3.48354 1.15083 3.11941 1.4193 2.85094C1.68777 2.58247 2.0519 2.43164 2.43158 2.43164H3.86316" stroke="#BB1048" stroke-width="1.7" stroke-linecap="round" stroke-linejoin="round"/>
<path d="M8.87381 1H4.57907C4.18375 1 3.86328 1.32047 3.86328 1.71579V3.14737C3.86328 3.54269 4.18375 3.86316 4.57907 3.86316H8.87381C9.26913 3.86316 9.5896 3.54269 9.5896 3.14737V1.71579C9.5896 1.32047 9.26913 1 8.87381 1Z" stroke="#BB1048" stroke-width="1.7" stroke-linecap="round" stroke-linejoin="round"/>
</svg>
