<svg width="17" height="17" viewBox="0 0 17 17" fill="none" xmlns="http://www.w3.org/2000/svg">
<path d="M15.8194 14.8889C15.3055 14.8889 14.8889 14.4723 14.8889 13.9583V1.86111C14.8889 0.8375 14.0514 0 13.0278 0H3.72222C2.69861 0 1.86111 0.8375 1.86111 1.86111V13.9583C1.86111 14.4723 1.44449 14.8889 0.930556 14.8889V14.8889C0.416624 14.8889 0 15.3055 0 15.8194V15.8194C0 16.3334 0.416624 16.75 0.930555 16.75H15.8194C16.3334 16.75 16.75 16.3334 16.75 15.8194V15.8194C16.75 15.3055 16.3334 14.8889 15.8194 14.8889V14.8889ZM13.0278 12.8889C13.0278 13.9935 12.1323 14.8889 11.0278 14.8889H5.72222C4.61765 14.8889 3.72222 13.9935 3.72222 12.8889V3.86111C3.72222 2.75654 4.61765 1.86111 5.72222 1.86111H11.0278C12.1323 1.86111 13.0278 2.75654 13.0278 3.86111V12.8889ZM9.30556 8.375C9.30556 7.86107 9.72218 7.44444 10.2361 7.44444V7.44444C10.75 7.44444 11.1667 7.86107 11.1667 8.375V8.375C11.1667 8.88893 10.75 9.30556 10.2361 9.30556V9.30556C9.72218 9.30556 9.30556 8.88893 9.30556 8.375V8.375Z" fill="#EA7B7C"/>
</svg>
