<svg width="21" height="20" viewBox="0 0 21 20" fill="none" xmlns="http://www.w3.org/2000/svg">
<path d="M19.8576 0H2.07986C1.78518 0 1.50256 0.117063 1.29419 0.325437C1.08581 0.533811 0.96875 0.816426 0.96875 1.11111V18.8889C0.96875 19.1836 1.08581 19.4662 1.29419 19.6746C1.50256 19.8829 1.78518 20 2.07986 20H11.6521V12.2667H9.05431V9.23889H11.6521V7.01667C11.6521 4.43333 13.2299 3.02556 15.541 3.02556C16.3176 3.02333 17.0954 3.06333 17.8687 3.14444V5.83333H16.2743C15.021 5.83333 14.7765 6.43111 14.7765 7.30556V9.23333H17.7732L17.3843 12.2611H14.7754V20H19.8576C20.1523 20 20.4349 19.8829 20.6433 19.6746C20.8517 19.4662 20.9688 19.1836 20.9688 18.8889V1.11111C20.9688 0.816426 20.8517 0.533811 20.6433 0.325437C20.4349 0.117063 20.1523 0 19.8576 0Z" fill="#BB1048"/>
</svg>
