<svg width="24" height="24" viewBox="0 0 24 24" fill="none" xmlns="http://www.w3.org/2000/svg">
<path d="M15.118 6C14.4328 6 13.8064 5.61287 13.5 5V5C13.1936 4.38713 12.5672 4 11.882 4H7C5.89543 4 5 4.89543 5 6V20C5 20.5523 5.44772 21 6 21V21C6.55228 21 7 20.5523 7 20V16C7 14.8954 7.89543 14 9 14H10.882C11.5672 14 12.1936 14.3871 12.5 15V15C12.8064 15.6129 13.4328 16 14.118 16H18C19.1046 16 20 15.1046 20 14V8C20 6.89543 19.1046 6 18 6H15.118ZM18 12C18 13.1046 17.1046 14 16 14H15.118C14.4328 14 13.8064 13.6129 13.5 13V13C13.1936 12.3871 12.5672 12 11.882 12H9C7.89543 12 7 11.1046 7 10V8C7 6.89543 7.89543 6 9 6H10.882C11.5672 6 12.1936 6.38713 12.5 7V7C12.8064 7.61287 13.4328 8 14.118 8H16C17.1046 8 18 8.89543 18 10V12Z" fill="#EA7B7C"/>
</svg>
