<svg width="19" height="21" viewBox="0 0 19 21" fill="none" xmlns="http://www.w3.org/2000/svg">
<path d="M4.45312 10.2477C4.45312 9.26186 4.71247 8.33835 5.16306 7.54759V4.19336H1.96023C0.689046 5.92232 0 8.02946 0 10.2477C0 12.466 0.689046 14.5731 1.96023 16.3021H5.16306V12.9478C4.71247 12.1571 4.45312 11.2336 4.45312 10.2477Z" fill="#FBBD00"/>
<path d="M9.5 15.5329L7.27344 17.8647L9.5 20.1965C11.6182 20.1965 13.6302 19.4749 15.2811 18.1436V14.793H12.0817C11.32 15.2666 10.4345 15.5329 9.5 15.5329Z" fill="#0F9D58"/>
<path d="M5.16377 12.9478L1.96094 16.302C2.21261 16.6443 2.48667 16.9721 2.78321 17.2827C4.57752 19.1618 6.96317 20.1967 9.5007 20.1967V15.5331C7.65919 15.5331 6.04519 14.4946 5.16377 12.9478Z" fill="#31AA52"/>
<path d="M19 10.2477C19 9.64235 18.9477 9.03592 18.8444 8.44527L18.7609 7.96729H9.5V12.6309H14.007C13.5693 13.5427 12.8964 14.2866 12.0816 14.7932L15.281 18.1439C15.6079 17.8803 15.9209 17.5933 16.2175 17.2828C18.0118 15.4036 19 12.9052 19 10.2477Z" fill="#3C79E6"/>
<path d="M13.0687 6.51011L13.4623 6.9223L16.6111 3.6246L16.2175 3.21241C14.4232 1.33325 12.0376 0.29834 9.5 0.29834L7.27344 2.63019L9.5 4.96203C10.848 4.96203 12.1154 5.51181 13.0687 6.51011Z" fill="#CF2D48"/>
<path d="M9.50076 4.96202V0.29834C6.96322 0.29834 4.57756 1.33325 2.78321 3.21236C2.48667 3.52292 2.21261 3.85074 1.96094 4.19309L5.16378 7.54736C6.04524 6.00046 7.65924 4.96202 9.50076 4.96202Z" fill="#EB4132"/>
</svg>
