<svg width="20" height="20" viewBox="0 0 20 20" fill="none" xmlns="http://www.w3.org/2000/svg">
<path d="M9.97518 4.84766C8.61527 4.84766 7.31107 5.38788 6.34947 6.34947C5.38788 7.31107 4.84766 8.61528 4.84766 9.97518C4.84766 11.3351 5.38788 12.6393 6.34947 13.6009C7.31107 14.5625 8.61527 15.1027 9.97518 15.1027C11.3351 15.1027 12.6393 14.5625 13.6009 13.6009C14.5625 12.6393 15.1027 11.3351 15.1027 9.97518C15.1027 8.61528 14.5625 7.31107 13.6009 6.34947C12.6393 5.38788 11.3351 4.84766 9.97518 4.84766ZM9.97518 13.3052C9.09171 13.3052 8.24443 12.9542 7.61972 12.3295C6.99502 11.7048 6.64406 10.8575 6.64406 9.97407C6.64406 9.0906 6.99502 8.24332 7.61972 7.61862C8.24443 6.99391 9.09171 6.64296 9.97518 6.64296C10.8586 6.64296 11.7059 6.99391 12.3306 7.61862C12.9553 8.24332 13.3063 9.0906 13.3063 9.97407C13.3063 10.8575 12.9553 11.7048 12.3306 12.3295C11.7059 12.9542 10.8586 13.3052 9.97518 13.3052Z" fill="#BB1048"/>
<path d="M15.3048 5.85464C15.965 5.85464 16.5002 5.31945 16.5002 4.65925C16.5002 3.99906 15.965 3.46387 15.3048 3.46387C14.6446 3.46387 14.1094 3.99906 14.1094 4.65925C14.1094 5.31945 14.6446 5.85464 15.3048 5.85464Z" fill="#BB1048"/>
<path d="M19.44 3.44422C19.1833 2.7813 18.791 2.17929 18.2882 1.67671C17.7855 1.17414 17.1833 0.78207 16.5203 0.525615C15.7444 0.234372 14.9248 0.0768919 14.0963 0.0598801C13.0284 0.0133066 12.6902 0 9.98226 0C7.27434 0 6.92726 -1.11536e-07 5.86826 0.0598801C5.04035 0.0760221 4.22129 0.233535 3.44644 0.525615C2.78325 0.781771 2.18093 1.17373 1.67813 1.67635C1.17532 2.17896 0.783132 2.78113 0.526724 3.44422C0.235423 4.22002 0.078304 5.03974 0.062098 5.86826C0.0144156 6.93502 0 7.27323 0 9.98226C0 12.6902 -8.2619e-09 13.035 0.062098 14.0963C0.0787314 14.9257 0.235085 15.7441 0.526724 16.5214C0.783852 17.1843 1.17642 17.7862 1.67935 18.2887C2.18228 18.7913 2.7845 19.1834 3.44755 19.44C4.22093 19.743 5.04033 19.9117 5.87048 19.939C6.93834 19.9856 7.27656 20 9.98448 20C12.6924 20 13.0395 20 14.0985 19.939C14.9269 19.9222 15.7465 19.7651 16.5225 19.4744C17.1854 19.2173 17.7873 18.8249 18.2901 18.3222C18.7928 17.8195 19.1852 17.2175 19.4422 16.5547C19.7339 15.7784 19.8902 14.9601 19.9069 14.1306C19.9545 13.0639 19.969 12.7257 19.969 10.0166C19.969 7.30761 19.969 6.96385 19.9069 5.90264C19.8939 5.0624 19.736 4.2307 19.44 3.44422ZM18.0894 14.0142C18.0822 14.6533 17.9656 15.2864 17.7445 15.886C17.578 16.3172 17.323 16.7088 16.9961 17.0356C16.6691 17.3623 16.2774 17.617 15.8461 17.7833C15.2531 18.0034 14.6267 18.12 13.9942 18.1282C12.9408 18.177 12.6436 18.1892 9.94234 18.1892C7.23886 18.1892 6.96274 18.1892 5.88933 18.1282C5.25718 18.1205 4.6311 18.0038 4.03859 17.7833C3.60577 17.6181 3.21247 17.3638 2.88411 17.037C2.55575 16.7102 2.29966 16.318 2.1324 15.886C1.91444 15.2928 1.79786 14.6672 1.78754 14.0353C1.73985 12.9818 1.72876 12.6846 1.72876 9.98337C1.72876 7.28099 1.72876 7.00488 1.78754 5.93036C1.7947 5.29166 1.91135 4.65893 2.1324 4.05966C2.47061 3.18474 3.16367 2.49612 4.03859 2.16123C4.63139 1.94183 5.25729 1.8252 5.88933 1.81637C6.94389 1.76868 7.23996 1.75538 9.94234 1.75538C12.6447 1.75538 12.9219 1.75538 13.9942 1.81637C14.6268 1.82398 15.2532 1.94064 15.8461 2.16123C16.2774 2.32787 16.669 2.58284 16.996 2.90977C17.3229 3.2367 17.5779 3.62838 17.7445 4.05966C17.9625 4.65286 18.0791 5.27851 18.0894 5.9104C18.1371 6.96496 18.1493 7.26103 18.1493 9.96341C18.1493 12.6647 18.1493 12.9552 18.1016 14.0153H18.0894V14.0142Z" fill="#BB1048"/>
</svg>
