<svg width="16" height="18" viewBox="0 0 16 18" fill="none" xmlns="http://www.w3.org/2000/svg">
<path d="M13.4444 8H2.55556C1.69645 8 1 8.69645 1 9.55556V15C1 15.8591 1.69645 16.5556 2.55556 16.5556H13.4444C14.3036 16.5556 15 15.8591 15 15V9.55556C15 8.69645 14.3036 8 13.4444 8Z" stroke="#EB5C5D" stroke-width="1.5" stroke-linecap="round" stroke-linejoin="round"/>
<path d="M4.10938 8V4.88889C4.10938 3.85749 4.5191 2.86834 5.2484 2.13903C5.97771 1.40972 6.96687 1 7.99826 1C9.02966 1 10.0188 1.40972 10.7481 2.13903C11.4774 2.86834 11.8872 3.85749 11.8872 4.88889V8" stroke="#EB5C5D" stroke-width="1.5" stroke-linecap="round" stroke-linejoin="round"/>
</svg>
