<svg width="15" height="17" viewBox="0 0 15 17" fill="none" xmlns="http://www.w3.org/2000/svg">
<path d="M12.5556 7.62842H2.44444C1.6467 7.62842 1 8.3057 1 9.14117V14.4358C1 15.2713 1.6467 15.9485 2.44444 15.9485H12.5556C13.3533 15.9485 14 15.2713 14 14.4358V9.14117C14 8.3057 13.3533 7.62842 12.5556 7.62842Z" stroke="#1AC7D6" stroke-width="1.5" stroke-linecap="round" stroke-linejoin="round"/>
<path d="M3.88867 7.6286V4.60313C3.88867 3.60012 4.26913 2.6382 4.94634 1.92896C5.62356 1.21973 6.54206 0.821289 7.49979 0.821289C8.45751 0.821289 9.37601 1.21973 10.0532 1.92896C10.7304 2.6382 11.1109 3.60012 11.1109 4.60313V7.6286" stroke="#1AC7D6" stroke-width="1.5" stroke-linecap="round" stroke-linejoin="round"/>
</svg>
