<svg width="23" height="25" viewBox="0 0 23 25" fill="none" xmlns="http://www.w3.org/2000/svg">
<path d="M2.55556 24.4102H0V23.147C0.00563326 18.2659 4.0069 14.3105 8.94444 14.3049H14.0556C18.9931 14.3105 22.9944 18.2659 23 23.147V24.4102H20.4444V23.147C20.4402 19.6606 17.5823 16.8354 14.0556 16.8312H8.94444C5.41771 16.8354 2.55978 19.6606 2.55556 23.147V24.4102ZM11.5 13.0417C7.97151 13.0417 5.11111 10.2141 5.11111 6.72595C5.11111 3.23783 7.97151 0.410156 11.5 0.410156C15.0285 0.410156 17.8889 3.23783 17.8889 6.72595C17.8847 10.2123 15.0267 13.0376 11.5 13.0417ZM11.5 2.93647C9.38291 2.93647 7.66667 4.63308 7.66667 6.72595C7.66667 8.81881 9.38291 10.5154 11.5 10.5154C13.6171 10.5154 15.3333 8.81881 15.3333 6.72595C15.3333 4.63308 13.6171 2.93647 11.5 2.93647Z" fill="#686868"/>
</svg>
