<svg width="18" height="20" viewBox="0 0 18 20" fill="none" xmlns="http://www.w3.org/2000/svg">
<path d="M10.7998 1H3.5998C3.12241 1 2.66458 1.18964 2.32701 1.52721C1.98945 1.86477 1.7998 2.32261 1.7998 2.8V17.2C1.7998 17.6774 1.98945 18.1352 2.32701 18.4728C2.66458 18.8104 3.12241 19 3.5998 19H14.3998C14.8772 19 15.335 18.8104 15.6726 18.4728C16.0102 18.1352 16.1998 17.6774 16.1998 17.2V6.4L10.7998 1Z" stroke="#859668" stroke-width="2" stroke-linecap="round" stroke-linejoin="round"/>
<path d="M10.7998 1V6.4H16.1998" stroke="#859668" stroke-width="2" stroke-linecap="round" stroke-linejoin="round"/>
<path d="M12.5994 10.9004H5.39941" stroke="#859668" stroke-width="2" stroke-linecap="round" stroke-linejoin="round"/>
<path d="M12.5994 14.5H5.39941" stroke="#859668" stroke-width="2" stroke-linecap="round" stroke-linejoin="round"/>
<path d="M7.19941 7.2998H6.29941H5.39941" stroke="#859668" stroke-width="2" stroke-linecap="round" stroke-linejoin="round"/>
</svg>
