<svg width="18" height="20" viewBox="0 0 18 20" fill="none" xmlns="http://www.w3.org/2000/svg">
<path d="M10.8008 1H3.60078C3.12339 1 2.66555 1.18964 2.32799 1.52721C1.99042 1.86477 1.80078 2.32261 1.80078 2.8V17.2C1.80078 17.6774 1.99042 18.1352 2.32799 18.4728C2.66555 18.8104 3.12339 19 3.60078 19H14.4008C14.8782 19 15.336 18.8104 15.6736 18.4728C16.0111 18.1352 16.2008 17.6774 16.2008 17.2V6.4L10.8008 1Z" stroke="#BB1048" stroke-width="2" stroke-linecap="round" stroke-linejoin="round"/>
<path d="M10.8008 1V6.4H16.2008" stroke="#BB1048" stroke-width="2" stroke-linecap="round" stroke-linejoin="round"/>
<path d="M12.6023 10.8999H5.40234" stroke="#BB1048" stroke-width="2" stroke-linecap="round" stroke-linejoin="round"/>
<path d="M12.6023 14.5H5.40234" stroke="#BB1048" stroke-width="2" stroke-linecap="round" stroke-linejoin="round"/>
<path d="M7.20234 7.2998H6.30234H5.40234" stroke="#BB1048" stroke-width="2" stroke-linecap="round" stroke-linejoin="round"/>
</svg>
