<svg width="13" height="18" viewBox="0 0 13 18" fill="none" xmlns="http://www.w3.org/2000/svg">
<path d="M6.3 0C2.817 0 0 2.817 0 6.3C0 11.025 6.3 18 6.3 18C6.3 18 12.6 11.025 12.6 6.3C12.6 2.817 9.783 0 6.3 0ZM1.8 6.3C1.8 3.816 3.816 1.8 6.3 1.8C8.784 1.8 10.8 3.816 10.8 6.3C10.8 8.892 8.208 12.771 6.3 15.192C4.428 12.789 1.8 8.865 1.8 6.3Z" fill="#EA7B7C"/>
<path d="M7.05078 6.29999C7.05078 6.7142 6.715 7.04999 6.30078 7.04999C5.88657 7.04999 5.55078 6.7142 5.55078 6.29999C5.55078 5.88577 5.88657 5.54999 6.30078 5.54999C6.715 5.54999 7.05078 5.88577 7.05078 6.29999Z" stroke="#EA7B7C" stroke-width="3"/>
</svg>
