<svg width="63" height="56" viewBox="0 0 63 56" fill="none" xmlns="http://www.w3.org/2000/svg">
<path d="M36.9669 40.5241V37.8756C36.9669 36.4707 36.434 35.1234 35.4855 34.1301C34.537 33.1367 33.2505 32.5786 31.9091 32.5786H23.0578C21.7164 32.5786 20.4299 33.1367 19.4814 34.1301C18.5329 35.1234 18 36.4707 18 37.8756V40.5241" stroke="#BB1048" stroke-width="2" stroke-linecap="round" stroke-linejoin="round"/>
<path d="M27.4836 27.2815C30.277 27.2815 32.5414 24.9099 32.5414 21.9845C32.5414 19.059 30.277 16.6875 27.4836 16.6875C24.6902 16.6875 22.4258 19.059 22.4258 21.9845C22.4258 24.9099 24.6902 27.2815 27.4836 27.2815Z" stroke="#BB1048" stroke-width="2" stroke-linecap="round" stroke-linejoin="round"/>
<path d="M42.0234 23.3086V31.2541" stroke="#BB1048" stroke-width="2" stroke-linecap="round" stroke-linejoin="round"/>
<path d="M45.8172 27.2812H38.2305" stroke="#BB1048" stroke-width="2" stroke-linecap="round" stroke-linejoin="round"/>
<rect x="1" y="1" width="61" height="54" rx="5" stroke="#EB5C5D" stroke-width="2"/>
</svg>
