<svg width="63" height="56" viewBox="0 0 63 56" fill="none" xmlns="http://www.w3.org/2000/svg">
<path d="M36.9669 40.5236V37.8751C36.9669 36.4703 36.434 35.123 35.4855 34.1296C34.537 33.1362 33.2505 32.5781 31.9091 32.5781H23.0578C21.7164 32.5781 20.4299 33.1362 19.4814 34.1296C18.5329 35.123 18 36.4703 18 37.8751V40.5236" stroke="#2C4F71" stroke-width="2" stroke-linecap="round" stroke-linejoin="round"/>
<path d="M27.4836 27.2815C30.277 27.2815 32.5414 24.9099 32.5414 21.9845C32.5414 19.059 30.277 16.6875 27.4836 16.6875C24.6902 16.6875 22.4258 19.059 22.4258 21.9845C22.4258 24.9099 24.6902 27.2815 27.4836 27.2815Z" stroke="#2C4F71" stroke-width="2" stroke-linecap="round" stroke-linejoin="round"/>
<path d="M42.0254 23.3086V31.2541" stroke="#2C4F71" stroke-width="2" stroke-linecap="round" stroke-linejoin="round"/>
<path d="M45.8192 27.2812H38.2324" stroke="#2C4F71" stroke-width="2" stroke-linecap="round" stroke-linejoin="round"/>
<rect x="1" y="1" width="61" height="54" rx="5" stroke="#1AC7D6" stroke-width="2"/>
</svg>
