<svg width="1325" height="1690" viewBox="0 0 1325 1690" fill="none" xmlns="http://www.w3.org/2000/svg">
<path d="M545.875 265.37L545.875 263.588L533.275 268.286L533.275 270.176L545.875 274.874L545.875 273.092L543.049 272.066L543.049 266.396L545.875 265.37ZM541.483 271.49L535.273 269.24L541.483 266.972L541.483 271.49ZM536.875 256.315L544.201 259.141L536.875 261.967L536.875 263.659L545.875 260.059L545.875 258.223L536.875 254.623L536.875 256.315ZM546.073 253.943C546.073 253.277 545.551 252.773 544.903 252.773C544.255 252.773 543.733 253.277 543.733 253.943C543.733 254.591 544.255 255.113 544.903 255.113C545.551 255.113 546.073 254.591 546.073 253.943ZM546.109 241.826C546.109 239.252 544.705 237.47 542.491 237.47C540.061 237.47 539.413 239.54 538.693 241.736C538.135 243.5 537.703 244.382 536.533 244.382C535.381 244.382 534.661 243.446 534.661 242.096C534.661 240.566 535.525 239.684 536.605 239.234L535.795 237.83C534.211 238.532 533.041 240.026 533.041 242.096C533.041 244.202 534.337 246.056 536.605 246.056C538.945 246.056 539.575 244.112 540.223 242.096C540.799 240.242 541.231 239.126 542.527 239.126C543.661 239.126 544.471 240.008 544.471 241.79C544.471 243.626 543.571 244.706 542.185 245.156L543.013 246.596C544.903 245.93 546.109 244.22 546.109 241.826ZM546.109 231.209C546.109 228.581 544.039 226.457 541.375 226.457C538.711 226.457 536.641 228.581 536.641 231.209C536.641 233.837 538.711 235.943 541.375 235.943C544.039 235.943 546.109 233.837 546.109 231.209ZM544.579 231.209C544.579 232.991 543.193 234.377 541.375 234.377C539.557 234.377 538.171 232.991 538.171 231.209C538.171 229.409 539.557 228.023 541.375 228.023C543.193 228.023 544.579 229.409 544.579 231.209ZM536.875 218.401L541.645 218.401C543.769 218.401 544.615 219.571 544.615 221.011C544.615 222.397 543.787 223.243 542.311 223.243L536.875 223.243L536.875 224.809L542.401 224.809C544.705 224.809 546.109 223.423 546.109 221.317C546.109 220.057 545.641 219.067 544.579 218.401L545.875 218.401L545.875 216.835L536.875 216.835L536.875 218.401ZM544.381 212.633L537.919 208.025L536.875 208.025L536.875 214.595L538.369 214.595L538.369 210.185L544.831 214.775L545.875 214.775L545.875 207.845L544.381 207.845L544.381 212.633ZM536.875 199.089L538.423 199.089C537.325 199.809 536.641 200.961 536.641 202.491C536.641 204.993 538.711 207.045 541.375 207.045C544.039 207.045 546.109 204.993 546.109 202.491C546.109 200.961 545.425 199.809 544.327 199.089L545.875 199.089L545.875 197.523L536.875 197.523L536.875 199.089ZM544.597 202.293C544.597 204.093 543.211 205.479 541.375 205.479C539.539 205.479 538.153 204.093 538.153 202.293C538.153 200.475 539.539 199.089 541.375 199.089C543.211 199.089 544.597 200.475 544.597 202.293Z" fill="#32383e"/>
<path d="M545.875 840.928L545.875 839.146L533.275 843.844L533.275 845.734L545.875 850.432L545.875 848.65L543.049 847.624L543.049 841.954L545.875 840.928ZM541.483 847.048L535.273 844.798L541.483 842.53L541.483 847.048ZM536.875 831.873L544.201 834.699L536.875 837.525L536.875 839.217L545.875 835.617L545.875 833.781L536.875 830.181L536.875 831.873ZM546.073 829.502C546.073 828.836 545.551 828.332 544.903 828.332C544.255 828.332 543.733 828.836 543.733 829.502C543.733 830.15 544.255 830.672 544.903 830.672C545.551 830.672 546.073 830.15 546.073 829.502ZM546.109 817.385C546.109 814.811 544.705 813.029 542.491 813.029C540.061 813.029 539.413 815.099 538.693 817.295C538.135 819.059 537.703 819.941 536.533 819.941C535.381 819.941 534.661 819.005 534.661 817.655C534.661 816.125 535.525 815.243 536.605 814.793L535.795 813.389C534.211 814.091 533.041 815.585 533.041 817.655C533.041 819.761 534.337 821.615 536.605 821.615C538.945 821.615 539.575 819.671 540.223 817.655C540.799 815.801 541.231 814.685 542.527 814.685C543.661 814.685 544.471 815.567 544.471 817.349C544.471 819.185 543.571 820.265 542.185 820.715L543.013 822.155C544.903 821.489 546.109 819.779 546.109 817.385ZM546.109 806.768C546.109 804.14 544.039 802.016 541.375 802.016C538.711 802.016 536.641 804.14 536.641 806.768C536.641 809.396 538.711 811.502 541.375 811.502C544.039 811.502 546.109 809.396 546.109 806.768ZM544.579 806.768C544.579 808.55 543.193 809.936 541.375 809.936C539.557 809.936 538.171 808.55 538.171 806.768C538.171 804.968 539.557 803.582 541.375 803.582C543.193 803.582 544.579 804.968 544.579 806.768ZM536.875 793.959L541.645 793.959C543.769 793.959 544.615 795.129 544.615 796.569C544.615 797.955 543.787 798.801 542.311 798.801L536.875 798.801L536.875 800.367L542.401 800.367C544.705 800.367 546.109 798.981 546.109 796.875C546.109 795.615 545.641 794.625 544.579 793.959L545.875 793.959L545.875 792.393L536.875 792.393L536.875 793.959ZM544.381 788.191L537.919 783.583L536.875 783.583L536.875 790.153L538.369 790.153L538.369 785.743L544.831 790.333L545.875 790.333L545.875 783.403L544.381 783.403L544.381 788.191ZM536.875 774.647L538.423 774.647C537.325 775.367 536.641 776.519 536.641 778.049C536.641 780.551 538.711 782.603 541.375 782.603C544.039 782.603 546.109 780.551 546.109 778.049C546.109 776.519 545.425 775.367 544.327 774.647L545.875 774.647L545.875 773.081L536.875 773.081L536.875 774.647ZM544.597 777.851C544.597 779.651 543.211 781.037 541.375 781.037C539.539 781.037 538.153 779.651 538.153 777.851C538.153 776.033 539.539 774.647 541.375 774.647C543.211 774.647 544.597 776.033 544.597 777.851Z" fill="#32383e"/>
<path d="M545.875 1553.95L545.875 1552.16L533.275 1556.86L533.275 1558.75L545.875 1563.45L545.875 1561.67L543.049 1560.64L543.049 1554.97L545.875 1553.95ZM541.483 1560.07L535.273 1557.82L541.483 1555.55L541.483 1560.07ZM536.875 1544.89L544.201 1547.72L536.875 1550.54L536.875 1552.24L545.875 1548.64L545.875 1546.8L536.875 1543.2L536.875 1544.89ZM546.073 1542.52C546.073 1541.85 545.551 1541.35 544.903 1541.35C544.255 1541.35 543.733 1541.85 543.733 1542.52C543.733 1543.17 544.255 1543.69 544.903 1543.69C545.551 1543.69 546.073 1543.17 546.073 1542.52ZM546.109 1530.4C546.109 1527.83 544.705 1526.05 542.491 1526.05C540.061 1526.05 539.413 1528.12 538.693 1530.31C538.135 1532.08 537.703 1532.96 536.533 1532.96C535.381 1532.96 534.661 1532.02 534.661 1530.67C534.661 1529.14 535.525 1528.26 536.605 1527.81L535.795 1526.41C534.211 1527.11 533.041 1528.6 533.041 1530.67C533.041 1532.78 534.337 1534.63 536.605 1534.63C538.945 1534.63 539.575 1532.69 540.223 1530.67C540.799 1528.82 541.231 1527.7 542.527 1527.7C543.661 1527.7 544.471 1528.59 544.471 1530.37C544.471 1532.2 543.571 1533.28 542.185 1533.73L543.013 1535.17C544.903 1534.51 546.109 1532.8 546.109 1530.4ZM546.109 1519.79C546.109 1517.16 544.039 1515.03 541.375 1515.03C538.711 1515.03 536.641 1517.16 536.641 1519.79C536.641 1522.41 538.711 1524.52 541.375 1524.52C544.039 1524.52 546.109 1522.41 546.109 1519.79ZM544.579 1519.79C544.579 1521.57 543.193 1522.95 541.375 1522.95C539.557 1522.95 538.171 1521.57 538.171 1519.79C538.171 1517.99 539.557 1516.6 541.375 1516.6C543.193 1516.6 544.579 1517.99 544.579 1519.79ZM536.875 1506.98L541.645 1506.98C543.769 1506.98 544.615 1508.15 544.615 1509.59C544.615 1510.97 543.787 1511.82 542.311 1511.82L536.875 1511.82L536.875 1513.39L542.401 1513.39C544.705 1513.39 546.109 1512 546.109 1509.89C546.109 1508.63 545.641 1507.64 544.579 1506.98L545.875 1506.98L545.875 1505.41L536.875 1505.41L536.875 1506.98ZM544.381 1501.21L537.919 1496.6L536.875 1496.6L536.875 1503.17L538.369 1503.17L538.369 1498.76L544.831 1503.35L545.875 1503.35L545.875 1496.42L544.381 1496.42L544.381 1501.21ZM536.875 1487.67L538.423 1487.67C537.325 1488.39 536.641 1489.54 536.641 1491.07C536.641 1493.57 538.711 1495.62 541.375 1495.62C544.039 1495.62 546.109 1493.57 546.109 1491.07C546.109 1489.54 545.425 1488.39 544.327 1487.67L545.875 1487.67L545.875 1486.1L536.875 1486.1L536.875 1487.67ZM544.597 1490.87C544.597 1492.67 543.211 1494.06 541.375 1494.06C539.539 1494.06 538.153 1492.67 538.153 1490.87C538.153 1489.05 539.539 1487.67 541.375 1487.67C543.211 1487.67 544.597 1489.05 544.597 1490.87Z" fill="#32383e"/>
<path d="M545.875 1210.52L545.875 1208.74L533.275 1213.44L533.275 1215.33L545.875 1220.03L545.875 1218.24L543.049 1217.22L543.049 1211.55L545.875 1210.52ZM541.483 1216.64L535.273 1214.39L541.483 1212.12L541.483 1216.64ZM536.875 1201.47L544.201 1204.29L536.875 1207.12L536.875 1208.81L545.875 1205.21L545.875 1203.38L536.875 1199.78L536.875 1201.47ZM546.073 1199.1C546.073 1198.43 545.551 1197.93 544.903 1197.93C544.255 1197.93 543.733 1198.43 543.733 1199.1C543.733 1199.74 544.255 1200.27 544.903 1200.27C545.551 1200.27 546.073 1199.74 546.073 1199.1ZM546.109 1186.98C546.109 1184.4 544.705 1182.62 542.491 1182.62C540.061 1182.62 539.413 1184.69 538.693 1186.89C538.135 1188.65 537.703 1189.53 536.533 1189.53C535.381 1189.53 534.661 1188.6 534.661 1187.25C534.661 1185.72 535.525 1184.84 536.605 1184.39L535.795 1182.98C534.211 1183.68 533.041 1185.18 533.041 1187.25C533.041 1189.35 534.337 1191.21 536.605 1191.21C538.945 1191.21 539.575 1189.26 540.223 1187.25C540.799 1185.39 541.231 1184.28 542.527 1184.28C543.661 1184.28 544.471 1185.16 544.471 1186.94C544.471 1188.78 543.571 1189.86 542.185 1190.31L543.013 1191.75C544.903 1191.08 546.109 1189.37 546.109 1186.98ZM546.109 1176.36C546.109 1173.73 544.039 1171.61 541.375 1171.61C538.711 1171.61 536.641 1173.73 536.641 1176.36C536.641 1178.99 538.711 1181.1 541.375 1181.1C544.039 1181.1 546.109 1178.99 546.109 1176.36ZM544.579 1176.36C544.579 1178.14 543.193 1179.53 541.375 1179.53C539.557 1179.53 538.171 1178.14 538.171 1176.36C538.171 1174.56 539.557 1173.18 541.375 1173.18C543.193 1173.18 544.579 1174.56 544.579 1176.36ZM536.875 1163.55L541.645 1163.55C543.769 1163.55 544.615 1164.72 544.615 1166.16C544.615 1167.55 543.787 1168.4 542.311 1168.4L536.875 1168.4L536.875 1169.96L542.401 1169.96C544.705 1169.96 546.109 1168.58 546.109 1166.47C546.109 1165.21 545.641 1164.22 544.579 1163.55L545.875 1163.55L545.875 1161.99L536.875 1161.99L536.875 1163.55ZM544.381 1157.79L537.919 1153.18L536.875 1153.18L536.875 1159.75L538.369 1159.75L538.369 1155.34L544.831 1159.93L545.875 1159.93L545.875 1153L544.381 1153L544.381 1157.79ZM536.875 1144.24L538.423 1144.24C537.325 1144.96 536.641 1146.11 536.641 1147.64C536.641 1150.14 538.711 1152.2 541.375 1152.2C544.039 1152.2 546.109 1150.14 546.109 1147.64C546.109 1146.11 545.425 1144.96 544.327 1144.24L545.875 1144.24L545.875 1142.67L536.875 1142.67L536.875 1144.24ZM544.597 1147.44C544.597 1149.24 543.211 1150.63 541.375 1150.63C539.539 1150.63 538.153 1149.24 538.153 1147.44C538.153 1145.63 539.539 1144.24 541.375 1144.24C543.211 1144.24 544.597 1145.63 544.597 1147.44Z" fill="#32383e"/>
<path d="M273.07 169.629L273.07 167.847L260.47 172.545L260.47 174.435L273.07 179.133L273.07 177.351L270.244 176.325L270.244 170.655L273.07 169.629ZM268.678 175.749L262.468 173.499L268.678 171.231L268.678 175.749ZM264.07 160.574L271.396 163.4L264.07 166.226L264.07 167.918L273.07 164.318L273.07 162.482L264.07 158.882L264.07 160.574ZM273.268 158.203C273.268 157.537 272.746 157.033 272.098 157.033C271.45 157.033 270.928 157.537 270.928 158.203C270.928 158.851 271.45 159.373 272.098 159.373C272.746 159.373 273.268 158.851 273.268 158.203ZM266.824 138.004L266.824 144.304L268.336 144.304L268.336 139.678C270.226 140.002 271.666 141.55 271.666 144.16C271.666 147.166 269.506 149.164 266.77 149.164C264.016 149.164 261.856 147.148 261.856 144.232C261.856 142.45 262.774 140.92 264.124 140.2L263.278 138.76C261.478 139.804 260.236 141.856 260.236 144.214C260.236 148.048 263.152 150.82 266.77 150.82C270.37 150.82 273.304 148.066 273.304 144.178C273.304 140.38 270.784 138.004 267.58 138.004L266.824 138.004ZM269.29 135.032L269.29 127.49C269.056 127.454 268.822 127.436 268.588 127.436C266.068 127.436 263.836 129.2 263.836 131.918C263.836 134.726 265.906 136.634 268.57 136.634C271.27 136.634 273.304 134.708 273.304 131.81C273.304 130.01 272.494 128.642 271.27 127.85L270.514 129.182C271.252 129.632 271.828 130.532 271.828 131.774C271.828 133.448 270.91 134.726 269.29 135.032ZM265.312 131.918C265.312 130.568 266.14 129.29 267.922 129.02L267.922 135.032C266.356 134.78 265.312 133.61 265.312 131.918ZM261.748 121.274L260.236 121.274C260.056 123.848 261.406 125.216 263.8 125.216L264.07 125.216L264.07 126.656L265.582 126.656L265.582 125.216L273.07 125.216L273.07 123.65L265.582 123.65L265.582 121.274L264.07 121.274L264.07 123.65L263.8 123.65C262.234 123.65 261.622 122.84 261.748 121.274ZM265.582 114.852L264.07 114.852L264.07 117.246L261.55 117.246L262.018 118.812L264.07 118.812L264.07 120.594L265.582 120.594L265.582 118.812L270.46 118.812C272.71 118.812 273.43 117.552 273.07 114.852L271.666 114.852C271.738 116.454 271.828 117.246 270.46 117.246L265.582 117.246L265.582 114.852Z" fill="#32383e"/>
<path d="M273.07 721.535L273.07 719.753L260.47 724.451L260.47 726.341L273.07 731.039L273.07 729.257L270.244 728.231L270.244 722.561L273.07 721.535ZM268.678 727.655L262.468 725.405L268.678 723.137L268.678 727.655ZM264.07 712.48L271.396 715.306L264.07 718.132L264.07 719.824L273.07 716.224L273.07 714.388L264.07 710.788L264.07 712.48ZM273.268 710.108C273.268 709.442 272.746 708.938 272.098 708.938C271.45 708.938 270.928 709.442 270.928 710.108C270.928 710.756 271.45 711.278 272.098 711.278C272.746 711.278 273.268 710.756 273.268 710.108ZM266.824 689.909L266.824 696.209L268.336 696.209L268.336 691.583C270.226 691.907 271.666 693.455 271.666 696.065C271.666 699.071 269.506 701.069 266.77 701.069C264.016 701.069 261.856 699.053 261.856 696.137C261.856 694.355 262.774 692.825 264.124 692.105L263.278 690.665C261.478 691.709 260.236 693.761 260.236 696.119C260.236 699.953 263.152 702.725 266.77 702.725C270.37 702.725 273.304 699.971 273.304 696.083C273.304 692.285 270.784 689.909 267.58 689.909L266.824 689.909ZM269.29 686.938L269.29 679.396C269.056 679.36 268.822 679.342 268.588 679.342C266.068 679.342 263.836 681.106 263.836 683.824C263.836 686.632 265.906 688.54 268.57 688.54C271.27 688.54 273.304 686.614 273.304 683.716C273.304 681.916 272.494 680.548 271.27 679.756L270.514 681.088C271.252 681.538 271.828 682.438 271.828 683.68C271.828 685.354 270.91 686.632 269.29 686.938ZM265.312 683.824C265.312 682.474 266.14 681.196 267.922 680.926L267.922 686.938C266.356 686.686 265.312 685.516 265.312 683.824ZM261.748 673.179L260.236 673.179C260.056 675.753 261.406 677.121 263.8 677.121L264.07 677.121L264.07 678.561L265.582 678.561L265.582 677.121L273.07 677.121L273.07 675.555L265.582 675.555L265.582 673.179L264.07 673.179L264.07 675.555L263.8 675.555C262.234 675.555 261.622 674.745 261.748 673.179ZM265.582 666.757L264.07 666.757L264.07 669.151L261.55 669.151L262.018 670.717L264.07 670.717L264.07 672.499L265.582 672.499L265.582 670.717L270.46 670.717C272.71 670.717 273.43 669.457 273.07 666.757L271.666 666.757C271.738 668.359 271.828 669.151 270.46 669.151L265.582 669.151L265.582 666.757Z" fill="#32383e"/>
<path d="M273.07 1120.61L273.07 1118.83L260.47 1123.52L260.47 1125.41L273.07 1130.11L273.07 1128.33L270.244 1127.3L270.244 1121.63L273.07 1120.61ZM268.678 1126.73L262.468 1124.48L268.678 1122.21L268.678 1126.73ZM264.07 1111.55L271.396 1114.38L264.07 1117.21L264.07 1118.9L273.07 1115.3L273.07 1113.46L264.07 1109.86L264.07 1111.55ZM273.268 1109.18C273.268 1108.52 272.746 1108.01 272.098 1108.01C271.45 1108.01 270.928 1108.52 270.928 1109.18C270.928 1109.83 271.45 1110.35 272.098 1110.35C272.746 1110.35 273.268 1109.83 273.268 1109.18ZM266.824 1088.98L266.824 1095.28L268.336 1095.28L268.336 1090.66C270.226 1090.98 271.666 1092.53 271.666 1095.14C271.666 1098.15 269.506 1100.14 266.77 1100.14C264.016 1100.14 261.856 1098.13 261.856 1095.21C261.856 1093.43 262.774 1091.9 264.124 1091.18L263.278 1089.74C261.478 1090.78 260.236 1092.84 260.236 1095.19C260.236 1099.03 263.152 1101.8 266.77 1101.8C270.37 1101.8 273.304 1099.05 273.304 1095.16C273.304 1091.36 270.784 1088.98 267.58 1088.98L266.824 1088.98ZM269.29 1086.01L269.29 1078.47C269.056 1078.43 268.822 1078.42 268.588 1078.42C266.068 1078.42 263.836 1080.18 263.836 1082.9C263.836 1085.71 265.906 1087.61 268.57 1087.61C271.27 1087.61 273.304 1085.69 273.304 1082.79C273.304 1080.99 272.494 1079.62 271.27 1078.83L270.514 1080.16C271.252 1080.61 271.828 1081.51 271.828 1082.75C271.828 1084.43 270.91 1085.71 269.29 1086.01ZM265.312 1082.9C265.312 1081.55 266.14 1080.27 267.922 1080L267.922 1086.01C266.356 1085.76 265.312 1084.59 265.312 1082.9ZM261.748 1072.25L260.236 1072.25C260.056 1074.83 261.406 1076.2 263.8 1076.2L264.07 1076.2L264.07 1077.64L265.582 1077.64L265.582 1076.2L273.07 1076.2L273.07 1074.63L265.582 1074.63L265.582 1072.25L264.07 1072.25L264.07 1074.63L263.8 1074.63C262.234 1074.63 261.622 1073.82 261.748 1072.25ZM265.582 1065.83L264.07 1065.83L264.07 1068.23L261.55 1068.23L262.018 1069.79L264.07 1069.79L264.07 1071.57L265.582 1071.57L265.582 1069.79L270.46 1069.79C272.71 1069.79 273.43 1068.53 273.07 1065.83L271.666 1065.83C271.738 1067.43 271.828 1068.23 270.46 1068.23L265.582 1068.23L265.582 1065.83Z" fill="#32383e"/>
<path d="M273.07 1592.11L273.07 1590.33L260.47 1595.02L260.47 1596.91L273.07 1601.61L273.07 1599.83L270.244 1598.8L270.244 1593.13L273.07 1592.11ZM268.678 1598.23L262.468 1595.98L268.678 1593.71L268.678 1598.23ZM264.07 1583.05L271.396 1585.88L264.07 1588.71L264.07 1590.4L273.07 1586.8L273.07 1584.96L264.07 1581.36L264.07 1583.05ZM273.268 1580.68C273.268 1580.02 272.746 1579.51 272.098 1579.51C271.45 1579.51 270.928 1580.02 270.928 1580.68C270.928 1581.33 271.45 1581.85 272.098 1581.85C272.746 1581.85 273.268 1581.33 273.268 1580.68ZM266.824 1560.48L266.824 1566.78L268.336 1566.78L268.336 1562.16C270.226 1562.48 271.666 1564.03 271.666 1566.64C271.666 1569.65 269.506 1571.64 266.77 1571.64C264.016 1571.64 261.856 1569.63 261.856 1566.71C261.856 1564.93 262.774 1563.4 264.124 1562.68L263.278 1561.24C261.478 1562.28 260.236 1564.34 260.236 1566.69C260.236 1570.53 263.152 1573.3 266.77 1573.3C270.37 1573.3 273.304 1570.55 273.304 1566.66C273.304 1562.86 270.784 1560.48 267.58 1560.48L266.824 1560.48ZM269.29 1557.51L269.29 1549.97C269.056 1549.93 268.822 1549.92 268.588 1549.92C266.068 1549.92 263.836 1551.68 263.836 1554.4C263.836 1557.21 265.906 1559.11 268.57 1559.11C271.27 1559.11 273.304 1557.19 273.304 1554.29C273.304 1552.49 272.494 1551.12 271.27 1550.33L270.514 1551.66C271.252 1552.11 271.828 1553.01 271.828 1554.25C271.828 1555.93 270.91 1557.21 269.29 1557.51ZM265.312 1554.4C265.312 1553.05 266.14 1551.77 267.922 1551.5L267.922 1557.51C266.356 1557.26 265.312 1556.09 265.312 1554.4ZM261.748 1543.75L260.236 1543.75C260.056 1546.33 261.406 1547.7 263.8 1547.7L264.07 1547.7L264.07 1549.14L265.582 1549.14L265.582 1547.7L273.07 1547.7L273.07 1546.13L265.582 1546.13L265.582 1543.75L264.07 1543.75L264.07 1546.13L263.8 1546.13C262.234 1546.13 261.622 1545.32 261.748 1543.75ZM265.582 1537.33L264.07 1537.33L264.07 1539.73L261.55 1539.73L262.018 1541.29L264.07 1541.29L264.07 1543.07L265.582 1543.07L265.582 1541.29L270.46 1541.29C272.71 1541.29 273.43 1540.03 273.07 1537.33L271.666 1537.33C271.738 1538.93 271.828 1539.73 270.46 1539.73L265.582 1539.73L265.582 1537.33Z" fill="#32383e"/>
<path d="M377.91 262.041H379.764L376.794 257.001C378.306 256.461 379.404 255.003 379.404 253.347C379.404 251.187 377.64 249.441 375.48 249.441H370.44V262.041H372.114V257.217H375.084L377.91 262.041ZM372.114 251.007H375.48C376.722 251.007 377.73 252.051 377.73 253.347C377.73 254.643 376.722 255.705 375.48 255.705H372.114V251.007ZM387.298 253.041V257.811C387.298 259.935 386.128 260.781 384.688 260.781C383.302 260.781 382.456 259.953 382.456 258.477V253.041H380.89V258.567C380.89 260.871 382.276 262.275 384.382 262.275C385.642 262.275 386.632 261.807 387.298 260.745V262.041H388.864V253.041H387.298ZM398.701 253.041V254.589C397.981 253.491 396.829 252.807 395.299 252.807C392.797 252.807 390.745 254.877 390.745 257.541C390.745 260.205 392.797 262.275 395.299 262.275C396.829 262.275 397.981 261.591 398.701 260.493V262.041H400.267V253.041H398.701ZM395.497 260.763C393.697 260.763 392.311 259.377 392.311 257.541C392.311 255.705 393.697 254.319 395.497 254.319C397.315 254.319 398.701 255.705 398.701 257.541C398.701 259.377 397.315 260.763 395.497 260.763ZM409.515 249.441L406.203 250.593L406.617 252.033L409.299 251.241V262.041H410.955V249.441H409.515Z" fill="#32383e"/>
<path d="M377.91 811.076H379.764L376.794 806.036C378.306 805.496 379.404 804.038 379.404 802.382C379.404 800.222 377.64 798.476 375.48 798.476H370.44V811.076H372.114V806.252H375.084L377.91 811.076ZM372.114 800.042H375.48C376.722 800.042 377.73 801.086 377.73 802.382C377.73 803.678 376.722 804.74 375.48 804.74H372.114V800.042ZM387.298 802.076V806.846C387.298 808.97 386.128 809.816 384.688 809.816C383.302 809.816 382.456 808.988 382.456 807.512V802.076H380.89V807.602C380.89 809.906 382.276 811.31 384.382 811.31C385.642 811.31 386.632 810.842 387.298 809.78V811.076H388.864V802.076H387.298ZM398.701 802.076V803.624C397.981 802.526 396.829 801.842 395.299 801.842C392.797 801.842 390.745 803.912 390.745 806.576C390.745 809.24 392.797 811.31 395.299 811.31C396.829 811.31 397.981 810.626 398.701 809.528V811.076H400.267V802.076H398.701ZM395.497 809.798C393.697 809.798 392.311 808.412 392.311 806.576C392.311 804.74 393.697 803.354 395.497 803.354C397.315 803.354 398.701 804.74 398.701 806.576C398.701 808.412 397.315 809.798 395.497 809.798ZM405.015 798.476L401.703 799.628L402.117 801.068L404.799 800.276V811.076H406.455V798.476H405.015ZM413.537 811.31C416.669 811.31 418.397 808.664 418.397 804.776C418.397 800.888 416.669 798.242 413.537 798.242C410.423 798.242 408.677 800.888 408.677 804.776C408.677 808.664 410.423 811.31 413.537 811.31ZM413.537 809.672C411.503 809.672 410.351 807.908 410.351 804.776C410.351 801.644 411.503 799.862 413.537 799.862C415.571 799.862 416.741 801.644 416.741 804.776C416.741 807.908 415.571 809.672 413.537 809.672Z" fill="#32383e"/>
<path d="M377.91 1347.91H379.764L376.794 1342.87C378.306 1342.33 379.404 1340.87 379.404 1339.21C379.404 1337.05 377.64 1335.31 375.48 1335.31H370.44V1347.91H372.114V1343.08H375.084L377.91 1347.91ZM372.114 1336.87H375.48C376.722 1336.87 377.73 1337.92 377.73 1339.21C377.73 1340.51 376.722 1341.57 375.48 1341.57H372.114V1336.87ZM387.298 1338.91V1343.68C387.298 1345.8 386.128 1346.65 384.688 1346.65C383.302 1346.65 382.456 1345.82 382.456 1344.34V1338.91H380.89V1344.43C380.89 1346.74 382.276 1348.14 384.382 1348.14C385.642 1348.14 386.632 1347.67 387.298 1346.61V1347.91H388.864V1338.91H387.298ZM398.701 1338.91V1340.45C397.981 1339.36 396.829 1338.67 395.299 1338.67C392.797 1338.67 390.745 1340.74 390.745 1343.41C390.745 1346.07 392.797 1348.14 395.299 1348.14C396.829 1348.14 397.981 1347.46 398.701 1346.36V1347.91H400.267V1338.91H398.701ZM395.497 1346.63C393.697 1346.63 392.311 1345.24 392.311 1343.41C392.311 1341.57 393.697 1340.18 395.497 1340.18C397.315 1340.18 398.701 1341.57 398.701 1343.41C398.701 1345.24 397.315 1346.63 395.497 1346.63ZM409.515 1335.31L406.203 1336.46L406.617 1337.9L409.299 1337.11V1347.91H410.955V1335.31H409.515ZM415.931 1335.31L412.619 1336.46L413.033 1337.9L415.715 1337.11V1347.91H417.371V1335.31H415.931Z" fill="#32383e"/>
<path d="M128.32 1347.91H130.174L127.204 1342.87C128.716 1342.33 129.814 1340.87 129.814 1339.21C129.814 1337.05 128.05 1335.31 125.89 1335.31H120.85V1347.91H122.524V1343.08H125.494L128.32 1347.91ZM122.524 1336.87H125.89C127.132 1336.87 128.14 1337.92 128.14 1339.21C128.14 1340.51 127.132 1341.57 125.89 1341.57H122.524V1336.87ZM137.709 1338.91V1343.68C137.709 1345.8 136.539 1346.65 135.099 1346.65C133.713 1346.65 132.867 1345.82 132.867 1344.34V1338.91H131.301V1344.43C131.301 1346.74 132.687 1348.14 134.793 1348.14C136.053 1348.14 137.043 1347.67 137.709 1346.61V1347.91H139.275V1338.91H137.709ZM149.111 1338.91V1340.45C148.391 1339.36 147.239 1338.67 145.709 1338.67C143.207 1338.67 141.155 1340.74 141.155 1343.41C141.155 1346.07 143.207 1348.14 145.709 1348.14C147.239 1348.14 148.391 1347.46 149.111 1346.36V1347.91H150.677V1338.91H149.111ZM145.907 1346.63C144.107 1346.63 142.721 1345.24 142.721 1343.41C142.721 1341.57 144.107 1340.18 145.907 1340.18C147.725 1340.18 149.111 1341.57 149.111 1343.41C149.111 1345.24 147.725 1346.63 145.907 1346.63ZM159.925 1335.31L156.613 1336.46L157.027 1337.9L159.709 1337.11V1347.91H161.365V1335.31H159.925ZM166.341 1335.31L163.029 1336.46L163.443 1337.9L166.125 1337.11V1347.91H167.781V1335.31H166.341Z" fill="#32383e"/>
<path d="M128.32 1108.01H130.174L127.204 1102.97C128.716 1102.43 129.814 1100.97 129.814 1099.31C129.814 1097.15 128.05 1095.41 125.89 1095.41H120.85V1108.01H122.524V1103.18H125.494L128.32 1108.01ZM122.524 1096.97H125.89C127.132 1096.97 128.14 1098.02 128.14 1099.31C128.14 1100.61 127.132 1101.67 125.89 1101.67H122.524V1096.97ZM137.709 1099.01V1103.78C137.709 1105.9 136.539 1106.75 135.099 1106.75C133.713 1106.75 132.867 1105.92 132.867 1104.44V1099.01H131.301V1104.53C131.301 1106.84 132.687 1108.24 134.793 1108.24C136.053 1108.24 137.043 1107.77 137.709 1106.71V1108.01H139.275V1099.01H137.709ZM149.111 1099.01V1100.55C148.391 1099.46 147.239 1098.77 145.709 1098.77C143.207 1098.77 141.155 1100.84 141.155 1103.51C141.155 1106.17 143.207 1108.24 145.709 1108.24C147.239 1108.24 148.391 1107.56 149.111 1106.46V1108.01H150.677V1099.01H149.111ZM145.907 1106.73C144.107 1106.73 142.721 1105.34 142.721 1103.51C142.721 1101.67 144.107 1100.28 145.907 1100.28C147.725 1100.28 149.111 1101.67 149.111 1103.51C149.111 1105.34 147.725 1106.73 145.907 1106.73ZM159.925 1095.41L156.613 1096.56L157.027 1098L159.709 1097.21V1108.01H161.365V1095.41H159.925ZM163.425 1108.01H171.561V1106.39H165.855L169.077 1103.18C170.319 1101.94 171.327 1100.59 171.327 1099.02C171.327 1096.54 169.365 1095.17 167.403 1095.17C165.765 1095.17 164.235 1095.98 163.425 1097.66L164.829 1098.48C165.369 1097.35 166.269 1096.79 167.421 1096.79C168.591 1096.79 169.653 1097.57 169.653 1099.04C169.653 1100.1 168.861 1101.11 167.871 1102.1L163.425 1106.64V1108.01Z" fill="#32383e"/>
<path d="M128.32 900.021H130.174L127.204 894.981C128.716 894.441 129.814 892.983 129.814 891.327C129.814 889.167 128.05 887.421 125.89 887.421H120.85V900.021H122.524V895.197H125.494L128.32 900.021ZM122.524 888.987H125.89C127.132 888.987 128.14 890.031 128.14 891.327C128.14 892.623 127.132 893.685 125.89 893.685H122.524V888.987ZM137.709 891.021V895.791C137.709 897.915 136.539 898.761 135.099 898.761C133.713 898.761 132.867 897.933 132.867 896.457V891.021H131.301V896.547C131.301 898.851 132.687 900.255 134.793 900.255C136.053 900.255 137.043 899.787 137.709 898.725V900.021H139.275V891.021H137.709ZM149.111 891.021V892.569C148.391 891.471 147.239 890.787 145.709 890.787C143.207 890.787 141.155 892.857 141.155 895.521C141.155 898.185 143.207 900.255 145.709 900.255C147.239 900.255 148.391 899.571 149.111 898.473V900.021H150.677V891.021H149.111ZM145.907 898.743C144.107 898.743 142.721 897.357 142.721 895.521C142.721 893.685 144.107 892.299 145.907 892.299C147.725 892.299 149.111 893.685 149.111 895.521C149.111 897.357 147.725 898.743 145.907 898.743ZM159.925 887.421L156.613 888.573L157.027 890.013L159.709 889.221V900.021H161.365V887.421H159.925ZM168.465 892.587L171.201 888.897V887.421H163.641V888.987H169.239L166.323 892.929L166.989 893.955H167.421C168.933 893.955 170.067 894.783 170.067 896.295C170.067 897.789 168.933 898.617 167.421 898.617C166.053 898.617 165.063 898.041 164.685 896.871L163.281 897.699C163.929 899.391 165.567 900.255 167.421 900.255C169.689 900.255 171.741 898.851 171.741 896.295C171.741 894.207 170.283 892.929 168.465 892.587Z" fill="#32383e"/>
<path d="M128.32 614.633H130.174L127.204 609.593C128.716 609.053 129.814 607.595 129.814 605.939C129.814 603.779 128.05 602.033 125.89 602.033H120.85V614.633H122.524V609.809H125.494L128.32 614.633ZM122.524 603.599H125.89C127.132 603.599 128.14 604.643 128.14 605.939C128.14 607.235 127.132 608.297 125.89 608.297H122.524V603.599ZM137.709 605.633V610.403C137.709 612.527 136.539 613.373 135.099 613.373C133.713 613.373 132.867 612.545 132.867 611.069V605.633H131.301V611.159C131.301 613.463 132.687 614.867 134.793 614.867C136.053 614.867 137.043 614.399 137.709 613.337V614.633H139.275V605.633H137.709ZM149.111 605.633V607.181C148.391 606.083 147.239 605.399 145.709 605.399C143.207 605.399 141.155 607.469 141.155 610.133C141.155 612.797 143.207 614.867 145.709 614.867C147.239 614.867 148.391 614.183 149.111 613.085V614.633H150.677V605.633H149.111ZM145.907 613.355C144.107 613.355 142.721 611.969 142.721 610.133C142.721 608.297 144.107 606.911 145.907 606.911C147.725 606.911 149.111 608.297 149.111 610.133C149.111 611.969 147.725 613.355 145.907 613.355ZM159.925 602.033L156.613 603.185L157.027 604.625L159.709 603.833V614.633H161.365V602.033H159.925ZM172.839 610.673H171.309V607.109H169.635V610.673H165.009L169.527 602.033H167.727L163.209 610.673V612.239H169.635V614.633H171.309V612.239H172.839V610.673Z" fill="#32383e"/>
<path d="M128.32 263.484H130.174L127.204 258.444C128.716 257.904 129.814 256.446 129.814 254.79C129.814 252.63 128.05 250.884 125.89 250.884H120.85V263.484H122.524V258.66H125.494L128.32 263.484ZM122.524 252.45H125.89C127.132 252.45 128.14 253.494 128.14 254.79C128.14 256.086 127.132 257.148 125.89 257.148H122.524V252.45ZM137.709 254.484V259.254C137.709 261.378 136.539 262.224 135.099 262.224C133.713 262.224 132.867 261.396 132.867 259.92V254.484H131.301V260.01C131.301 262.314 132.687 263.718 134.793 263.718C136.053 263.718 137.043 263.25 137.709 262.188V263.484H139.275V254.484H137.709ZM149.111 254.484V256.032C148.391 254.934 147.239 254.25 145.709 254.25C143.207 254.25 141.155 256.32 141.155 258.984C141.155 261.648 143.207 263.718 145.709 263.718C147.239 263.718 148.391 263.034 149.111 261.936V263.484H150.677V254.484H149.111ZM145.907 262.206C144.107 262.206 142.721 260.82 142.721 258.984C142.721 257.148 144.107 255.762 145.907 255.762C147.725 255.762 149.111 257.148 149.111 258.984C149.111 260.82 147.725 262.206 145.907 262.206ZM159.925 250.884L156.613 252.036L157.027 253.476L159.709 252.684V263.484H161.365V250.884H159.925Z" fill="#32383e"/>
<path d="M811.113 265.37L811.113 263.588L798.513 268.286L798.513 270.176L811.113 274.874L811.113 273.092L808.287 272.066L808.287 266.396L811.113 265.37ZM806.721 271.49L800.511 269.24L806.721 266.972L806.721 271.49ZM802.113 256.315L809.439 259.141L802.113 261.967L802.113 263.659L811.113 260.059L811.113 258.223L802.113 254.623L802.113 256.315ZM811.311 253.943C811.311 253.277 810.789 252.773 810.141 252.773C809.493 252.773 808.971 253.277 808.971 253.943C808.971 254.591 809.493 255.113 810.141 255.113C810.789 255.113 811.311 254.591 811.311 253.943ZM804.867 233.744L804.867 240.044L806.379 240.044L806.379 235.418C808.269 235.742 809.709 237.29 809.709 239.9C809.709 242.906 807.549 244.904 804.813 244.904C802.059 244.904 799.899 242.888 799.899 239.972C799.899 238.19 800.817 236.66 802.167 235.94L801.321 234.5C799.521 235.544 798.279 237.596 798.279 239.954C798.279 243.788 801.195 246.56 804.813 246.56C808.413 246.56 811.347 243.806 811.347 239.918C811.347 236.12 808.827 233.744 805.623 233.744L804.867 233.744ZM811.347 227.641C811.347 225.013 809.277 222.889 806.613 222.889C803.949 222.889 801.879 225.013 801.879 227.641C801.879 230.269 803.949 232.375 806.613 232.375C809.277 232.375 811.347 230.269 811.347 227.641ZM809.817 227.641C809.817 229.423 808.431 230.809 806.613 230.809C804.795 230.809 803.409 229.423 803.409 227.641C803.409 225.841 804.795 224.455 806.613 224.455C808.431 224.455 809.817 225.841 809.817 227.641ZM801.879 211.322C801.879 212.492 802.383 213.518 803.409 214.148C802.437 214.67 801.879 215.57 801.879 216.794C801.879 217.892 802.311 218.828 803.319 219.476L802.113 219.476L802.113 221.042L811.113 221.042L811.113 219.476L806.109 219.476C804.165 219.476 803.373 218.378 803.373 217.172C803.373 216.002 804.147 215.264 805.569 215.264L811.113 215.264L811.113 213.698L806.109 213.698C804.165 213.698 803.373 212.744 803.373 211.484C803.373 210.296 804.147 209.504 805.569 209.504L811.113 209.504L811.113 207.938L805.515 207.938C803.265 207.938 801.879 209.324 801.879 211.322ZM807.333 204.669L807.333 197.127C807.099 197.091 806.865 197.073 806.631 197.073C804.111 197.073 801.879 198.837 801.879 201.555C801.879 204.363 803.949 206.271 806.613 206.271C809.313 206.271 811.347 204.345 811.347 201.447C811.347 199.647 810.537 198.279 809.313 197.487L808.557 198.819C809.295 199.269 809.871 200.169 809.871 201.411C809.871 203.085 808.953 204.363 807.333 204.669ZM803.355 201.555C803.355 200.205 804.183 198.927 805.965 198.657L805.965 204.669C804.399 204.417 803.355 203.247 803.355 201.555ZM804.543 194.274C803.733 194.274 803.337 193.482 803.337 192.672C803.337 191.88 803.679 191.088 804.489 190.746L803.751 189.432C802.581 190.008 801.879 191.196 801.879 192.672C801.879 194.49 802.977 195.858 804.561 195.858C807.819 195.858 806.721 190.818 808.647 190.818C809.529 190.818 809.871 191.646 809.871 192.6C809.871 193.716 809.331 194.544 808.467 194.832L809.241 196.182C810.483 195.66 811.347 194.4 811.347 192.6C811.347 190.674 810.321 189.234 808.647 189.234C805.335 189.234 806.469 194.274 804.543 194.274Z" fill="#32383e"/>
<path d="M811.113 866.459L811.113 864.677L798.513 869.375L798.513 871.265L811.113 875.963L811.113 874.181L808.287 873.155L808.287 867.485L811.113 866.459ZM806.721 872.579L800.511 870.329L806.721 868.061L806.721 872.579ZM802.113 857.405L809.439 860.231L802.113 863.057L802.113 864.749L811.113 861.149L811.113 859.313L802.113 855.713L802.113 857.405ZM811.311 855.033C811.311 854.367 810.789 853.863 810.141 853.863C809.493 853.863 808.971 854.367 808.971 855.033C808.971 855.681 809.493 856.203 810.141 856.203C810.789 856.203 811.311 855.681 811.311 855.033ZM804.867 834.834L804.867 841.134L806.379 841.134L806.379 836.508C808.269 836.832 809.709 838.38 809.709 840.99C809.709 843.996 807.549 845.994 804.813 845.994C802.059 845.994 799.899 843.978 799.899 841.062C799.899 839.28 800.817 837.75 802.167 837.03L801.321 835.59C799.521 836.634 798.279 838.686 798.279 841.044C798.279 844.878 801.195 847.65 804.813 847.65C808.413 847.65 811.347 844.896 811.347 841.008C811.347 837.21 808.827 834.834 805.623 834.834L804.867 834.834ZM811.347 828.73C811.347 826.102 809.277 823.978 806.613 823.978C803.949 823.978 801.879 826.102 801.879 828.73C801.879 831.358 803.949 833.464 806.613 833.464C809.277 833.464 811.347 831.358 811.347 828.73ZM809.817 828.73C809.817 830.512 808.431 831.898 806.613 831.898C804.795 831.898 803.409 830.512 803.409 828.73C803.409 826.93 804.795 825.544 806.613 825.544C808.431 825.544 809.817 826.93 809.817 828.73ZM801.879 812.412C801.879 813.582 802.383 814.608 803.409 815.238C802.437 815.76 801.879 816.66 801.879 817.884C801.879 818.982 802.311 819.918 803.319 820.566L802.113 820.566L802.113 822.132L811.113 822.132L811.113 820.566L806.109 820.566C804.165 820.566 803.373 819.468 803.373 818.262C803.373 817.092 804.147 816.354 805.569 816.354L811.113 816.354L811.113 814.788L806.109 814.788C804.165 814.788 803.373 813.834 803.373 812.574C803.373 811.386 804.147 810.594 805.569 810.594L811.113 810.594L811.113 809.028L805.515 809.028C803.265 809.028 801.879 810.414 801.879 812.412ZM807.333 805.759L807.333 798.217C807.099 798.181 806.865 798.163 806.631 798.163C804.111 798.163 801.879 799.927 801.879 802.645C801.879 805.453 803.949 807.361 806.613 807.361C809.313 807.361 811.347 805.435 811.347 802.537C811.347 800.737 810.537 799.369 809.313 798.577L808.557 799.909C809.295 800.359 809.871 801.259 809.871 802.501C809.871 804.175 808.953 805.453 807.333 805.759ZM803.355 802.645C803.355 801.295 804.183 800.017 805.965 799.747L805.965 805.759C804.399 805.507 803.355 804.337 803.355 802.645ZM804.543 795.364C803.733 795.364 803.337 794.572 803.337 793.762C803.337 792.97 803.679 792.178 804.489 791.836L803.751 790.522C802.581 791.098 801.879 792.286 801.879 793.762C801.879 795.58 802.977 796.948 804.561 796.948C807.819 796.948 806.721 791.908 808.647 791.908C809.529 791.908 809.871 792.736 809.871 793.69C809.871 794.806 809.331 795.634 808.467 795.922L809.241 797.272C810.483 796.75 811.347 795.49 811.347 793.69C811.347 791.764 810.321 790.324 808.647 790.324C805.335 790.324 806.469 795.364 804.543 795.364Z" fill="#32383e"/>
<path d="M811.113 1587.29L811.113 1585.51L798.513 1590.21L798.513 1592.1L811.113 1596.8L811.113 1595.02L808.287 1593.99L808.287 1588.32L811.113 1587.29ZM806.721 1593.41L800.511 1591.16L806.721 1588.9L806.721 1593.41ZM802.113 1578.24L809.439 1581.07L802.113 1583.89L802.113 1585.58L811.113 1581.98L811.113 1580.15L802.113 1576.55L802.113 1578.24ZM811.311 1575.87C811.311 1575.2 810.789 1574.7 810.141 1574.7C809.493 1574.7 808.971 1575.2 808.971 1575.87C808.971 1576.52 809.493 1577.04 810.141 1577.04C810.789 1577.04 811.311 1576.52 811.311 1575.87ZM804.867 1555.67L804.867 1561.97L806.379 1561.97L806.379 1557.34C808.269 1557.67 809.709 1559.21 809.709 1561.82C809.709 1564.83 807.549 1566.83 804.813 1566.83C802.059 1566.83 799.899 1564.81 799.899 1561.9C799.899 1560.11 800.817 1558.58 802.167 1557.86L801.321 1556.42C799.521 1557.47 798.279 1559.52 798.279 1561.88C798.279 1565.71 801.195 1568.48 804.813 1568.48C808.413 1568.48 811.347 1565.73 811.347 1561.84C811.347 1558.04 808.827 1555.67 805.623 1555.67L804.867 1555.67ZM811.347 1549.57C811.347 1546.94 809.277 1544.81 806.613 1544.81C803.949 1544.81 801.879 1546.94 801.879 1549.57C801.879 1552.19 803.949 1554.3 806.613 1554.3C809.277 1554.3 811.347 1552.19 811.347 1549.57ZM809.817 1549.57C809.817 1551.35 808.431 1552.73 806.613 1552.73C804.795 1552.73 803.409 1551.35 803.409 1549.57C803.409 1547.77 804.795 1546.38 806.613 1546.38C808.431 1546.38 809.817 1547.77 809.817 1549.57ZM801.879 1533.25C801.879 1534.42 802.383 1535.44 803.409 1536.07C802.437 1536.6 801.879 1537.5 801.879 1538.72C801.879 1539.82 802.311 1540.75 803.319 1541.4L802.113 1541.4L802.113 1542.97L811.113 1542.97L811.113 1541.4L806.109 1541.4C804.165 1541.4 803.373 1540.3 803.373 1539.1C803.373 1537.93 804.147 1537.19 805.569 1537.19L811.113 1537.19L811.113 1535.62L806.109 1535.62C804.165 1535.62 803.373 1534.67 803.373 1533.41C803.373 1532.22 804.147 1531.43 805.569 1531.43L811.113 1531.43L811.113 1529.86L805.515 1529.86C803.265 1529.86 801.879 1531.25 801.879 1533.25ZM807.333 1526.59L807.333 1519.05C807.099 1519.02 806.865 1519 806.631 1519C804.111 1519 801.879 1520.76 801.879 1523.48C801.879 1526.29 803.949 1528.2 806.613 1528.2C809.313 1528.2 811.347 1526.27 811.347 1523.37C811.347 1521.57 810.537 1520.2 809.313 1519.41L808.557 1520.74C809.295 1521.19 809.871 1522.09 809.871 1523.34C809.871 1525.01 808.953 1526.29 807.333 1526.59ZM803.355 1523.48C803.355 1522.13 804.183 1520.85 805.965 1520.58L805.965 1526.59C804.399 1526.34 803.355 1525.17 803.355 1523.48ZM804.543 1516.2C803.733 1516.2 803.337 1515.41 803.337 1514.6C803.337 1513.81 803.679 1513.01 804.489 1512.67L803.751 1511.36C802.581 1511.93 801.879 1513.12 801.879 1514.6C801.879 1516.42 802.977 1517.78 804.561 1517.78C807.819 1517.78 806.721 1512.74 808.647 1512.74C809.529 1512.74 809.871 1513.57 809.871 1514.53C809.871 1515.64 809.331 1516.47 808.467 1516.76L809.241 1518.11C810.483 1517.59 811.347 1516.33 811.347 1514.53C811.347 1512.6 810.321 1511.16 808.647 1511.16C805.335 1511.16 806.469 1516.2 804.543 1516.2Z" fill="#32383e"/>
<path d="M811.113 1227.37L811.113 1225.59L798.513 1230.29L798.513 1232.18L811.113 1236.88L811.113 1235.09L808.287 1234.07L808.287 1228.4L811.113 1227.37ZM806.721 1233.49L800.511 1231.24L806.721 1228.97L806.721 1233.49ZM802.113 1218.32L809.439 1221.14L802.113 1223.97L802.113 1225.66L811.113 1222.06L811.113 1220.23L802.113 1216.63L802.113 1218.32ZM811.311 1215.95C811.311 1215.28 810.789 1214.78 810.141 1214.78C809.493 1214.78 808.971 1215.28 808.971 1215.95C808.971 1216.59 809.493 1217.12 810.141 1217.12C810.789 1217.12 811.311 1216.59 811.311 1215.95ZM804.867 1195.75L804.867 1202.05L806.379 1202.05L806.379 1197.42C808.269 1197.75 809.709 1199.29 809.709 1201.9C809.709 1204.91 807.549 1206.91 804.813 1206.91C802.059 1206.91 799.899 1204.89 799.899 1201.98C799.899 1200.19 800.817 1198.66 802.167 1197.94L801.321 1196.5C799.521 1197.55 798.279 1199.6 798.279 1201.96C798.279 1205.79 801.195 1208.56 804.813 1208.56C808.413 1208.56 811.347 1205.81 811.347 1201.92C811.347 1198.12 808.827 1195.75 805.623 1195.75L804.867 1195.75ZM811.347 1189.64C811.347 1187.02 809.277 1184.89 806.613 1184.89C803.949 1184.89 801.879 1187.02 801.879 1189.64C801.879 1192.27 803.949 1194.38 806.613 1194.38C809.277 1194.38 811.347 1192.27 811.347 1189.64ZM809.817 1189.64C809.817 1191.43 808.431 1192.81 806.613 1192.81C804.795 1192.81 803.409 1191.43 803.409 1189.64C803.409 1187.84 804.795 1186.46 806.613 1186.46C808.431 1186.46 809.817 1187.84 809.817 1189.64ZM801.879 1173.33C801.879 1174.5 802.383 1175.52 803.409 1176.15C802.437 1176.67 801.879 1177.57 801.879 1178.8C801.879 1179.9 802.311 1180.83 803.319 1181.48L802.113 1181.48L802.113 1183.05L811.113 1183.05L811.113 1181.48L806.109 1181.48C804.165 1181.48 803.373 1180.38 803.373 1179.18C803.373 1178.01 804.147 1177.27 805.569 1177.27L811.113 1177.27L811.113 1175.7L806.109 1175.7C804.165 1175.7 803.373 1174.75 803.373 1173.49C803.373 1172.3 804.147 1171.51 805.569 1171.51L811.113 1171.51L811.113 1169.94L805.515 1169.94C803.265 1169.94 801.879 1171.33 801.879 1173.33ZM807.333 1166.67L807.333 1159.13C807.099 1159.09 806.865 1159.08 806.631 1159.08C804.111 1159.08 801.879 1160.84 801.879 1163.56C801.879 1166.37 803.949 1168.27 806.613 1168.27C809.313 1168.27 811.347 1166.35 811.347 1163.45C811.347 1161.65 810.537 1160.28 809.313 1159.49L808.557 1160.82C809.295 1161.27 809.871 1162.17 809.871 1163.41C809.871 1165.09 808.953 1166.37 807.333 1166.67ZM803.355 1163.56C803.355 1162.21 804.183 1160.93 805.965 1160.66L805.965 1166.67C804.399 1166.42 803.355 1165.25 803.355 1163.56ZM804.543 1156.28C803.733 1156.28 803.337 1155.49 803.337 1154.68C803.337 1153.88 803.679 1153.09 804.489 1152.75L803.751 1151.44C802.581 1152.01 801.879 1153.2 801.879 1154.68C801.879 1156.49 802.977 1157.86 804.561 1157.86C807.819 1157.86 806.721 1152.82 808.647 1152.82C809.529 1152.82 809.871 1153.65 809.871 1154.6C809.871 1155.72 809.331 1156.55 808.467 1156.84L809.241 1158.19C810.483 1157.66 811.347 1156.4 811.347 1154.6C811.347 1152.68 810.321 1151.24 808.647 1151.24C805.335 1151.24 806.469 1156.28 804.543 1156.28Z" fill="#32383e"/>
<path d="M925.82 255.541H927.674L924.704 250.501C926.216 249.961 927.314 248.503 927.314 246.847C927.314 244.687 925.55 242.941 923.39 242.941H918.35V255.541H920.024V250.717H922.994L925.82 255.541ZM920.024 244.507H923.39C924.632 244.507 925.64 245.551 925.64 246.847C925.64 248.143 924.632 249.205 923.39 249.205H920.024V244.507ZM935.209 246.541V251.311C935.209 253.435 934.039 254.281 932.599 254.281C931.213 254.281 930.367 253.453 930.367 251.977V246.541H928.801V252.067C928.801 254.371 930.187 255.775 932.293 255.775C933.553 255.775 934.543 255.307 935.209 254.245V255.541H936.775V246.541H935.209ZM946.611 246.541V248.089C945.891 246.991 944.739 246.307 943.209 246.307C940.707 246.307 938.655 248.377 938.655 251.041C938.655 253.705 940.707 255.775 943.209 255.775C944.739 255.775 945.891 255.091 946.611 253.993V255.541H948.177V246.541H946.611ZM943.407 254.263C941.607 254.263 940.221 252.877 940.221 251.041C940.221 249.205 941.607 247.819 943.407 247.819C945.225 247.819 946.611 249.205 946.611 251.041C946.611 252.877 945.225 254.263 943.407 254.263ZM959.549 248.107L962.285 244.417V242.941H954.725V244.507H960.323L957.407 248.449L958.073 249.475H958.505C960.017 249.475 961.151 250.303 961.151 251.815C961.151 253.309 960.017 254.137 958.505 254.137C957.137 254.137 956.147 253.561 955.769 252.391L954.365 253.219C955.013 254.911 956.651 255.775 958.505 255.775C960.773 255.775 962.825 254.371 962.825 251.815C962.825 249.727 961.367 248.449 959.549 248.107Z" fill="#32383e"/>
<path d="M654.418 169.93H656.272L653.302 164.89C654.814 164.35 655.912 162.892 655.912 161.236C655.912 159.076 654.148 157.33 651.988 157.33H646.948V169.93H648.622V165.106H651.592L654.418 169.93ZM648.622 158.896H651.988C653.23 158.896 654.238 159.94 654.238 161.236C654.238 162.532 653.23 163.594 651.988 163.594H648.622V158.896ZM663.806 160.93V165.7C663.806 167.824 662.636 168.67 661.196 168.67C659.81 168.67 658.964 167.842 658.964 166.366V160.93H657.398V166.456C657.398 168.76 658.784 170.164 660.89 170.164C662.15 170.164 663.14 169.696 663.806 168.634V169.93H665.372V160.93H663.806ZM675.208 160.93V162.478C674.488 161.38 673.336 160.696 671.806 160.696C669.304 160.696 667.252 162.766 667.252 165.43C667.252 168.094 669.304 170.164 671.806 170.164C673.336 170.164 674.488 169.48 675.208 168.382V169.93H676.774V160.93H675.208ZM672.004 168.652C670.204 168.652 668.818 167.266 668.818 165.43C668.818 163.594 670.204 162.208 672.004 162.208C673.822 162.208 675.208 163.594 675.208 165.43C675.208 167.266 673.822 168.652 672.004 168.652ZM686.023 157.33L682.711 158.482L683.125 159.922L685.807 159.13V169.93H687.463V157.33H686.023ZM694.545 170.164C697.677 170.164 699.405 167.518 699.405 163.63C699.405 159.742 697.677 157.096 694.545 157.096C691.431 157.096 689.685 159.742 689.685 163.63C689.685 167.518 691.431 170.164 694.545 170.164ZM694.545 168.526C692.511 168.526 691.359 166.762 691.359 163.63C691.359 160.498 692.511 158.716 694.545 158.716C696.579 158.716 697.749 160.498 697.749 163.63C697.749 166.762 696.579 168.526 694.545 168.526Z" fill="#32383e"/>
<path d="M877.82 413.418H879.674L876.704 408.378C878.216 407.838 879.314 406.38 879.314 404.724C879.314 402.564 877.55 400.818 875.39 400.818H870.35V413.418H872.024V408.594H874.994L877.82 413.418ZM872.024 402.384H875.39C876.632 402.384 877.64 403.428 877.64 404.724C877.64 406.02 876.632 407.082 875.39 407.082H872.024V402.384ZM887.209 404.418V409.188C887.209 411.312 886.039 412.158 884.599 412.158C883.213 412.158 882.367 411.33 882.367 409.854V404.418H880.801V409.944C880.801 412.248 882.187 413.652 884.293 413.652C885.553 413.652 886.543 413.184 887.209 412.122V413.418H888.775V404.418H887.209ZM898.611 404.418V405.966C897.891 404.868 896.739 404.184 895.209 404.184C892.707 404.184 890.655 406.254 890.655 408.918C890.655 411.582 892.707 413.652 895.209 413.652C896.739 413.652 897.891 412.968 898.611 411.87V413.418H900.177V404.418H898.611ZM895.407 412.14C893.607 412.14 892.221 410.754 892.221 408.918C892.221 407.082 893.607 405.696 895.407 405.696C897.225 405.696 898.611 407.082 898.611 408.918C898.611 410.754 897.225 412.14 895.407 412.14ZM915.923 409.458H914.393V405.894H912.719V409.458H908.093L912.611 400.818H910.811L906.293 409.458V411.024H912.719V413.418H914.393V411.024H915.923V409.458Z" fill="#32383e"/>
<path d="M1085.86 562.971L1085.86 561.189L1073.26 565.887L1073.26 567.777L1085.86 572.475L1085.86 570.693L1083.04 569.667L1083.04 563.997L1085.86 562.971ZM1081.47 569.091L1075.26 566.841L1081.47 564.573L1081.47 569.091ZM1076.86 553.916L1084.19 556.742L1076.86 559.568L1076.86 561.26L1085.86 557.66L1085.86 555.824L1076.86 552.224L1076.86 553.916ZM1086.06 551.545C1086.06 550.879 1085.54 550.375 1084.89 550.375C1084.24 550.375 1083.72 550.879 1083.72 551.545C1083.72 552.193 1084.24 552.715 1084.89 552.715C1085.54 552.715 1086.06 552.193 1086.06 551.545ZM1073.26 535.666L1082.66 535.666L1073.26 542.146L1073.26 543.496L1085.86 543.496L1085.86 541.822L1076.45 541.822L1085.86 535.342L1085.86 533.992L1073.26 533.992L1073.26 535.666ZM1075.23 530.666C1075.23 530.09 1074.76 529.622 1074.18 529.622C1073.61 529.622 1073.12 530.09 1073.12 530.666C1073.12 531.26 1073.61 531.728 1074.18 531.728C1074.76 531.728 1075.23 531.26 1075.23 530.666ZM1085.86 531.458L1085.86 529.892L1076.86 529.892L1076.86 531.458L1085.86 531.458ZM1085.86 519.889L1081.22 524.335L1076.86 520.033L1076.86 522.049L1080.84 525.937L1073.26 525.937L1073.26 527.503L1085.86 527.503L1085.86 525.937L1081.6 525.937L1085.86 521.833L1085.86 519.889ZM1082.08 518.161L1082.08 510.619C1081.85 510.583 1081.62 510.565 1081.38 510.565C1078.86 510.565 1076.63 512.329 1076.63 515.047C1076.63 517.855 1078.7 519.763 1081.36 519.763C1084.06 519.763 1086.1 517.837 1086.1 514.939C1086.1 513.139 1085.29 511.771 1084.06 510.979L1083.31 512.311C1084.05 512.761 1084.62 513.661 1084.62 514.903C1084.62 516.577 1083.7 517.855 1082.08 518.161ZM1078.11 515.047C1078.11 513.697 1078.93 512.419 1080.72 512.149L1080.72 518.161C1079.15 517.909 1078.11 516.739 1078.11 515.047Z" fill="#32383e"/>
<path d="M1085.86 1201.73L1085.86 1199.95L1073.26 1204.65L1073.26 1206.54L1085.86 1211.24L1085.86 1209.46L1083.04 1208.43L1083.04 1202.76L1085.86 1201.73ZM1081.47 1207.85L1075.26 1205.6L1081.47 1203.34L1081.47 1207.85ZM1076.86 1192.68L1084.19 1195.51L1076.86 1198.33L1076.86 1200.02L1085.86 1196.42L1085.86 1194.59L1076.86 1190.99L1076.86 1192.68ZM1086.06 1190.31C1086.06 1189.64 1085.54 1189.14 1084.89 1189.14C1084.24 1189.14 1083.72 1189.64 1083.72 1190.31C1083.72 1190.96 1084.24 1191.48 1084.89 1191.48C1085.54 1191.48 1086.06 1190.96 1086.06 1190.31ZM1073.26 1174.43L1082.66 1174.43L1073.26 1180.91L1073.26 1182.26L1085.86 1182.26L1085.86 1180.59L1076.45 1180.59L1085.86 1174.11L1085.86 1172.76L1073.26 1172.76L1073.26 1174.43ZM1075.23 1169.43C1075.23 1168.85 1074.76 1168.39 1074.18 1168.39C1073.61 1168.39 1073.12 1168.85 1073.12 1169.43C1073.12 1170.02 1073.61 1170.49 1074.18 1170.49C1074.76 1170.49 1075.23 1170.02 1075.23 1169.43ZM1085.86 1170.22L1085.86 1168.66L1076.86 1168.66L1076.86 1170.22L1085.86 1170.22ZM1085.86 1158.65L1081.22 1163.1L1076.86 1158.8L1076.86 1160.81L1080.84 1164.7L1073.26 1164.7L1073.26 1166.27L1085.86 1166.27L1085.86 1164.7L1081.6 1164.7L1085.86 1160.6L1085.86 1158.65ZM1082.08 1156.92L1082.08 1149.38C1081.85 1149.35 1081.62 1149.33 1081.38 1149.33C1078.86 1149.33 1076.63 1151.09 1076.63 1153.81C1076.63 1156.62 1078.7 1158.53 1081.36 1158.53C1084.06 1158.53 1086.1 1156.6 1086.1 1153.7C1086.1 1151.9 1085.29 1150.53 1084.06 1149.74L1083.31 1151.07C1084.05 1151.52 1084.62 1152.42 1084.62 1153.67C1084.62 1155.34 1083.7 1156.62 1082.08 1156.92ZM1078.11 1153.81C1078.11 1152.46 1078.93 1151.18 1080.72 1150.91L1080.72 1156.92C1079.15 1156.67 1078.11 1155.5 1078.11 1153.81Z" fill="#32383e"/>
<path d="M925.82 649.458H927.674L924.704 644.418C926.216 643.878 927.314 642.42 927.314 640.764C927.314 638.604 925.55 636.858 923.39 636.858H918.35V649.458H920.024V644.634H922.994L925.82 649.458ZM920.024 638.424H923.39C924.632 638.424 925.64 639.468 925.64 640.764C925.64 642.06 924.632 643.122 923.39 643.122H920.024V638.424ZM935.209 640.458V645.228C935.209 647.352 934.039 648.198 932.599 648.198C931.213 648.198 930.367 647.37 930.367 645.894V640.458H928.801V645.984C928.801 648.288 930.187 649.692 932.293 649.692C933.553 649.692 934.543 649.224 935.209 648.162V649.458H936.775V640.458H935.209ZM946.611 640.458V642.006C945.891 640.908 944.739 640.224 943.209 640.224C940.707 640.224 938.655 642.294 938.655 644.958C938.655 647.622 940.707 649.692 943.209 649.692C944.739 649.692 945.891 649.008 946.611 647.91V649.458H948.177V640.458H946.611ZM943.407 648.18C941.607 648.18 940.221 646.794 940.221 644.958C940.221 643.122 941.607 641.736 943.407 641.736C945.225 641.736 946.611 643.122 946.611 644.958C946.611 646.794 945.225 648.18 943.407 648.18ZM958.721 641.772H956.885L957.101 638.424H962.483V636.858H955.589L955.121 643.392H958.685C960.179 643.392 961.313 644.22 961.313 645.732C961.313 647.226 960.179 648.054 958.649 648.054C957.281 648.054 956.255 647.424 955.913 646.182L954.491 646.992C955.103 648.792 956.795 649.692 958.649 649.692C960.917 649.692 962.969 648.288 962.969 645.732C962.969 643.158 960.971 641.772 958.721 641.772Z" fill="#32383e"/>
<path d="M925.82 1006.43H927.674L924.704 1001.39C926.216 1000.85 927.314 999.395 927.314 997.739C927.314 995.579 925.55 993.833 923.39 993.833H918.35V1006.43H920.024V1001.61H922.994L925.82 1006.43ZM920.024 995.399H923.39C924.632 995.399 925.64 996.443 925.64 997.739C925.64 999.035 924.632 1000.1 923.39 1000.1H920.024V995.399ZM935.209 997.433V1002.2C935.209 1004.33 934.039 1005.17 932.599 1005.17C931.213 1005.17 930.367 1004.34 930.367 1002.87V997.433H928.801V1002.96C928.801 1005.26 930.187 1006.67 932.293 1006.67C933.553 1006.67 934.543 1006.2 935.209 1005.14V1006.43H936.775V997.433H935.209ZM946.611 997.433V998.981C945.891 997.883 944.739 997.199 943.209 997.199C940.707 997.199 938.655 999.269 938.655 1001.93C938.655 1004.6 940.707 1006.67 943.209 1006.67C944.739 1006.67 945.891 1005.98 946.611 1004.88V1006.43H948.177V997.433H946.611ZM943.407 1005.15C941.607 1005.15 940.221 1003.77 940.221 1001.93C940.221 1000.1 941.607 998.711 943.407 998.711C945.225 998.711 946.611 1000.1 946.611 1001.93C946.611 1003.77 945.225 1005.15 943.407 1005.15ZM958.703 998.189C958.505 998.189 958.307 998.207 958.109 998.225L961.079 993.833H959.171L955.121 999.899C954.635 1000.58 954.365 1001.45 954.365 1002.42C954.365 1004.92 956.165 1006.67 958.703 1006.67C961.223 1006.67 963.041 1004.92 963.041 1002.42C963.041 999.917 961.223 998.189 958.703 998.189ZM958.703 1005.06C957.119 1005.06 956.021 1004.02 956.021 1002.42C956.021 1000.82 957.119 999.791 958.703 999.791C960.269 999.791 961.385 1000.83 961.385 1002.42C961.385 1004.02 960.269 1005.06 958.703 1005.06Z" fill="#32383e"/>
<path d="M1168.32 1006.43H1170.17L1167.2 1001.39C1168.72 1000.85 1169.81 999.395 1169.81 997.739C1169.81 995.579 1168.05 993.833 1165.89 993.833H1160.85V1006.43H1162.52V1001.61H1165.49L1168.32 1006.43ZM1162.52 995.399H1165.89C1167.13 995.399 1168.14 996.443 1168.14 997.739C1168.14 999.035 1167.13 1000.1 1165.89 1000.1H1162.52V995.399ZM1177.71 997.433V1002.2C1177.71 1004.33 1176.54 1005.17 1175.1 1005.17C1173.71 1005.17 1172.87 1004.34 1172.87 1002.87V997.433H1171.3V1002.96C1171.3 1005.26 1172.69 1006.67 1174.79 1006.67C1176.05 1006.67 1177.04 1006.2 1177.71 1005.14V1006.43H1179.27V997.433H1177.71ZM1189.11 997.433V998.981C1188.39 997.883 1187.24 997.199 1185.71 997.199C1183.21 997.199 1181.15 999.269 1181.15 1001.93C1181.15 1004.6 1183.21 1006.67 1185.71 1006.67C1187.24 1006.67 1188.39 1005.98 1189.11 1004.88V1006.43H1190.68V997.433H1189.11ZM1185.91 1005.15C1184.11 1005.15 1182.72 1003.77 1182.72 1001.93C1182.72 1000.1 1184.11 998.711 1185.91 998.711C1187.72 998.711 1189.11 1000.1 1189.11 1001.93C1189.11 1003.77 1187.72 1005.15 1185.91 1005.15ZM1201.2 998.189C1201.01 998.189 1200.81 998.207 1200.61 998.225L1203.58 993.833H1201.67L1197.62 999.899C1197.14 1000.58 1196.87 1001.45 1196.87 1002.42C1196.87 1004.92 1198.67 1006.67 1201.2 1006.67C1203.72 1006.67 1205.54 1004.92 1205.54 1002.42C1205.54 999.917 1203.72 998.189 1201.2 998.189ZM1201.2 1005.06C1199.62 1005.06 1198.52 1004.02 1198.52 1002.42C1198.52 1000.82 1199.62 999.791 1201.2 999.791C1202.77 999.791 1203.89 1000.83 1203.89 1002.42C1203.89 1004.02 1202.77 1005.06 1201.2 1005.06Z" fill="#32383e"/>
<path d="M1168.32 829.401H1170.17L1167.2 824.361C1168.72 823.821 1169.81 822.363 1169.81 820.707C1169.81 818.547 1168.05 816.801 1165.89 816.801H1160.85V829.401H1162.52V824.577H1165.49L1168.32 829.401ZM1162.52 818.367H1165.89C1167.13 818.367 1168.14 819.411 1168.14 820.707C1168.14 822.003 1167.13 823.065 1165.89 823.065H1162.52V818.367ZM1177.71 820.401V825.171C1177.71 827.295 1176.54 828.141 1175.1 828.141C1173.71 828.141 1172.87 827.313 1172.87 825.837V820.401H1171.3V825.927C1171.3 828.231 1172.69 829.635 1174.79 829.635C1176.05 829.635 1177.04 829.167 1177.71 828.105V829.401H1179.27V820.401H1177.71ZM1189.11 820.401V821.949C1188.39 820.851 1187.24 820.167 1185.71 820.167C1183.21 820.167 1181.15 822.237 1181.15 824.901C1181.15 827.565 1183.21 829.635 1185.71 829.635C1187.24 829.635 1188.39 828.951 1189.11 827.853V829.401H1190.68V820.401H1189.11ZM1185.91 828.123C1184.11 828.123 1182.72 826.737 1182.72 824.901C1182.72 823.065 1184.11 821.679 1185.91 821.679C1187.72 821.679 1189.11 823.065 1189.11 824.901C1189.11 826.737 1187.72 828.123 1185.91 828.123ZM1199.93 816.801L1196.61 817.953L1197.03 819.393L1199.71 818.601V829.401H1201.37V816.801H1199.93ZM1207.64 821.715H1205.8L1206.02 818.367H1211.4V816.801H1204.51L1204.04 823.335H1207.6C1209.1 823.335 1210.23 824.163 1210.23 825.675C1210.23 827.169 1209.1 827.997 1207.57 827.997C1206.2 827.997 1205.17 827.367 1204.83 826.125L1203.41 826.935C1204.02 828.735 1205.71 829.635 1207.57 829.635C1209.83 829.635 1211.89 828.231 1211.89 825.675C1211.89 823.101 1209.89 821.715 1207.64 821.715Z" fill="#32383e"/>
<path d="M684.855 1006.43H686.709L683.739 1001.39C685.251 1000.85 686.349 999.395 686.349 997.739C686.349 995.579 684.585 993.833 682.425 993.833H677.385V1006.43H679.059V1001.61H682.029L684.855 1006.43ZM679.059 995.399H682.425C683.667 995.399 684.675 996.443 684.675 997.739C684.675 999.035 683.667 1000.1 682.425 1000.1H679.059V995.399ZM694.244 997.433V1002.2C694.244 1004.33 693.074 1005.17 691.634 1005.17C690.248 1005.17 689.402 1004.34 689.402 1002.87V997.433H687.836V1002.96C687.836 1005.26 689.222 1006.67 691.328 1006.67C692.588 1006.67 693.578 1006.2 694.244 1005.14V1006.43H695.81V997.433H694.244ZM705.646 997.433V998.981C704.926 997.883 703.774 997.199 702.244 997.199C699.742 997.199 697.69 999.269 697.69 1001.93C697.69 1004.6 699.742 1006.67 702.244 1006.67C703.774 1006.67 704.926 1005.98 705.646 1004.88V1006.43H707.212V997.433H705.646ZM702.442 1005.15C700.642 1005.15 699.256 1003.77 699.256 1001.93C699.256 1000.1 700.642 998.711 702.442 998.711C704.26 998.711 705.646 1000.1 705.646 1001.93C705.646 1003.77 704.26 1005.15 702.442 1005.15ZM717.738 998.189C717.54 998.189 717.342 998.207 717.144 998.225L720.114 993.833H718.206L714.156 999.899C713.67 1000.58 713.4 1001.45 713.4 1002.42C713.4 1004.92 715.2 1006.67 717.738 1006.67C720.258 1006.67 722.076 1004.92 722.076 1002.42C722.076 999.917 720.258 998.189 717.738 998.189ZM717.738 1005.06C716.154 1005.06 715.056 1004.02 715.056 1002.42C715.056 1000.82 716.154 999.791 717.738 999.791C719.304 999.791 720.42 1000.83 720.42 1002.42C720.42 1004.02 719.304 1005.06 717.738 1005.06Z" fill="#32383e"/>
<path d="M925.82 1130.26H927.674L924.704 1125.22C926.216 1124.68 927.314 1123.22 927.314 1121.56C927.314 1119.4 925.55 1117.66 923.39 1117.66H918.35V1130.26H920.024V1125.43H922.994L925.82 1130.26ZM920.024 1119.22H923.39C924.632 1119.22 925.64 1120.27 925.64 1121.56C925.64 1122.86 924.632 1123.92 923.39 1123.92H920.024V1119.22ZM935.209 1121.26V1126.03C935.209 1128.15 934.039 1129 932.599 1129C931.213 1129 930.367 1128.17 930.367 1126.69V1121.26H928.801V1126.78C928.801 1129.09 930.187 1130.49 932.293 1130.49C933.553 1130.49 934.543 1130.02 935.209 1128.96V1130.26H936.775V1121.26H935.209ZM946.611 1121.26V1122.8C945.891 1121.71 944.739 1121.02 943.209 1121.02C940.707 1121.02 938.655 1123.09 938.655 1125.76C938.655 1128.42 940.707 1130.49 943.209 1130.49C944.739 1130.49 945.891 1129.81 946.611 1128.71V1130.26H948.177V1121.26H946.611ZM943.407 1128.98C941.607 1128.98 940.221 1127.59 940.221 1125.76C940.221 1123.92 941.607 1122.53 943.407 1122.53C945.225 1122.53 946.611 1123.92 946.611 1125.76C946.611 1127.59 945.225 1128.98 943.407 1128.98ZM954.185 1117.66V1119.24H960.269L955.715 1130.26H957.461L962.051 1119.15V1117.66H954.185Z" fill="#32383e"/>
<path d="M925.82 1257H927.674L924.704 1251.96C926.216 1251.42 927.314 1249.96 927.314 1248.3C927.314 1246.14 925.55 1244.4 923.39 1244.4H918.35V1257H920.024V1252.17H922.994L925.82 1257ZM920.024 1245.96H923.39C924.632 1245.96 925.64 1247.01 925.64 1248.3C925.64 1249.6 924.632 1250.66 923.39 1250.66H920.024V1245.96ZM935.209 1248V1252.77C935.209 1254.89 934.039 1255.74 932.599 1255.74C931.213 1255.74 930.367 1254.91 930.367 1253.43V1248H928.801V1253.52C928.801 1255.83 930.187 1257.23 932.293 1257.23C933.553 1257.23 934.543 1256.76 935.209 1255.7V1257H936.775V1248H935.209ZM946.611 1248V1249.54C945.891 1248.45 944.739 1247.76 943.209 1247.76C940.707 1247.76 938.655 1249.83 938.655 1252.5C938.655 1255.16 940.707 1257.23 943.209 1257.23C944.739 1257.23 945.891 1256.55 946.611 1255.45V1257H948.177V1248H946.611ZM943.407 1255.72C941.607 1255.72 940.221 1254.33 940.221 1252.5C940.221 1250.66 941.607 1249.27 943.407 1249.27C945.225 1249.27 946.611 1250.66 946.611 1252.5C946.611 1254.33 945.225 1255.72 943.407 1255.72ZM961.205 1250.48C962.123 1249.9 962.753 1248.97 962.753 1247.73C962.753 1245.31 960.845 1244.16 958.847 1244.16C956.867 1244.16 954.959 1245.31 954.959 1247.73C954.959 1248.97 955.589 1249.9 956.507 1250.48C955.301 1251.09 954.545 1252.17 954.545 1253.54C954.545 1255.9 956.399 1257.23 958.847 1257.23C961.313 1257.23 963.167 1255.9 963.167 1253.54C963.167 1252.17 962.411 1251.09 961.205 1250.48ZM958.847 1245.76C960.035 1245.76 961.079 1246.36 961.079 1247.76C961.079 1249.09 960.035 1249.78 958.847 1249.78C957.677 1249.78 956.615 1249.09 956.615 1247.76C956.615 1246.36 957.677 1245.76 958.847 1245.76ZM958.847 1255.63C957.317 1255.63 956.201 1254.89 956.201 1253.43C956.201 1251.99 957.317 1251.25 958.847 1251.25C960.395 1251.25 961.511 1251.99 961.511 1253.43C961.511 1254.89 960.395 1255.63 958.847 1255.63Z" fill="#32383e"/>
<path d="M659.777 1257H661.631L658.661 1251.96C660.173 1251.42 661.271 1249.96 661.271 1248.3C661.271 1246.14 659.507 1244.4 657.347 1244.4H652.307V1257H653.981V1252.17H656.951L659.777 1257ZM653.981 1245.96H657.347C658.589 1245.96 659.597 1247.01 659.597 1248.3C659.597 1249.6 658.589 1250.66 657.347 1250.66H653.981V1245.96ZM669.166 1248V1252.77C669.166 1254.89 667.996 1255.74 666.556 1255.74C665.17 1255.74 664.324 1254.91 664.324 1253.43V1248H662.758V1253.52C662.758 1255.83 664.144 1257.23 666.25 1257.23C667.51 1257.23 668.5 1256.76 669.166 1255.7V1257H670.732V1248H669.166ZM680.568 1248V1249.54C679.848 1248.45 678.696 1247.76 677.166 1247.76C674.664 1247.76 672.612 1249.83 672.612 1252.5C672.612 1255.16 674.664 1257.23 677.166 1257.23C678.696 1257.23 679.848 1256.55 680.568 1255.45V1257H682.134V1248H680.568ZM677.364 1255.72C675.564 1255.72 674.178 1254.33 674.178 1252.5C674.178 1250.66 675.564 1249.27 677.364 1249.27C679.182 1249.27 680.568 1250.66 680.568 1252.5C680.568 1254.33 679.182 1255.72 677.364 1255.72ZM695.162 1250.48C696.08 1249.9 696.71 1248.97 696.71 1247.73C696.71 1245.31 694.802 1244.16 692.804 1244.16C690.824 1244.16 688.916 1245.31 688.916 1247.73C688.916 1248.97 689.546 1249.9 690.464 1250.48C689.258 1251.09 688.502 1252.17 688.502 1253.54C688.502 1255.9 690.356 1257.23 692.804 1257.23C695.27 1257.23 697.124 1255.9 697.124 1253.54C697.124 1252.17 696.368 1251.09 695.162 1250.48ZM692.804 1245.76C693.992 1245.76 695.036 1246.36 695.036 1247.76C695.036 1249.09 693.992 1249.78 692.804 1249.78C691.634 1249.78 690.572 1249.09 690.572 1247.76C690.572 1246.36 691.634 1245.76 692.804 1245.76ZM692.804 1255.63C691.274 1255.63 690.158 1254.89 690.158 1253.43C690.158 1251.99 691.274 1251.25 692.804 1251.25C694.352 1251.25 695.468 1251.99 695.468 1253.43C695.468 1254.89 694.352 1255.63 692.804 1255.63Z" fill="#32383e"/>
<path d="M1168.32 1257H1170.17L1167.2 1251.96C1168.72 1251.42 1169.81 1249.96 1169.81 1248.3C1169.81 1246.14 1168.05 1244.4 1165.89 1244.4H1160.85V1257H1162.52V1252.17H1165.49L1168.32 1257ZM1162.52 1245.96H1165.89C1167.13 1245.96 1168.14 1247.01 1168.14 1248.3C1168.14 1249.6 1167.13 1250.66 1165.89 1250.66H1162.52V1245.96ZM1177.71 1248V1252.77C1177.71 1254.89 1176.54 1255.74 1175.1 1255.74C1173.71 1255.74 1172.87 1254.91 1172.87 1253.43V1248H1171.3V1253.52C1171.3 1255.83 1172.69 1257.23 1174.79 1257.23C1176.05 1257.23 1177.04 1256.76 1177.71 1255.7V1257H1179.27V1248H1177.71ZM1189.11 1248V1249.54C1188.39 1248.45 1187.24 1247.76 1185.71 1247.76C1183.21 1247.76 1181.15 1249.83 1181.15 1252.5C1181.15 1255.16 1183.21 1257.23 1185.71 1257.23C1187.24 1257.23 1188.39 1256.55 1189.11 1255.45V1257H1190.68V1248H1189.11ZM1185.91 1255.72C1184.11 1255.72 1182.72 1254.33 1182.72 1252.5C1182.72 1250.66 1184.11 1249.27 1185.91 1249.27C1187.72 1249.27 1189.11 1250.66 1189.11 1252.5C1189.11 1254.33 1187.72 1255.72 1185.91 1255.72ZM1203.71 1250.48C1204.62 1249.9 1205.25 1248.97 1205.25 1247.73C1205.25 1245.31 1203.35 1244.16 1201.35 1244.16C1199.37 1244.16 1197.46 1245.31 1197.46 1247.73C1197.46 1248.97 1198.09 1249.9 1199.01 1250.48C1197.8 1251.09 1197.05 1252.17 1197.05 1253.54C1197.05 1255.9 1198.9 1257.23 1201.35 1257.23C1203.81 1257.23 1205.67 1255.9 1205.67 1253.54C1205.67 1252.17 1204.91 1251.09 1203.71 1250.48ZM1201.35 1245.76C1202.54 1245.76 1203.58 1246.36 1203.58 1247.76C1203.58 1249.09 1202.54 1249.78 1201.35 1249.78C1200.18 1249.78 1199.12 1249.09 1199.12 1247.76C1199.12 1246.36 1200.18 1245.76 1201.35 1245.76ZM1201.35 1255.63C1199.82 1255.63 1198.7 1254.89 1198.7 1253.43C1198.7 1251.99 1199.82 1251.25 1201.35 1251.25C1202.9 1251.25 1204.01 1251.99 1204.01 1253.43C1204.01 1254.89 1202.9 1255.63 1201.35 1255.63Z" fill="#32383e"/>
<path d="M889.163 1286.75L890.449 1287.98L895.779 1275.63L894.415 1274.33L882.303 1280.17L883.589 1281.4L886.286 1280.07L890.378 1284L889.163 1286.75ZM887.785 1279.34L893.708 1276.42L891.046 1282.47L887.785 1279.34ZM901.927 1286.52L894.817 1289.85L897.848 1282.61L896.627 1281.43L892.996 1290.42L894.321 1291.69L903.149 1287.69L901.927 1286.52ZM897.273 1294.8C897.753 1295.26 898.478 1295.23 898.927 1294.76C899.375 1294.3 899.373 1293.57 898.892 1293.11C898.425 1292.66 897.686 1292.68 897.238 1293.14C896.789 1293.61 896.805 1294.35 897.273 1294.8ZM916.311 1304.13L911.764 1299.77L910.718 1300.86L914.057 1304.06C912.515 1305.2 910.401 1305.17 908.517 1303.36C906.347 1301.28 906.4 1298.34 908.294 1296.36C910.2 1294.38 913.15 1294.21 915.255 1296.23C916.541 1297.46 917.01 1299.19 916.595 1300.66L918.22 1301.04C918.713 1299.02 918.091 1296.71 916.389 1295.07C913.622 1292.42 909.603 1292.61 907.099 1295.22C904.607 1297.82 904.564 1301.84 907.37 1304.53C910.111 1307.16 913.571 1306.99 915.788 1304.67L916.311 1304.13ZM916.232 1313.03C918.128 1314.85 921.094 1314.82 922.938 1312.9C924.782 1310.98 924.682 1308.01 922.785 1306.2C920.888 1304.38 917.935 1304.41 916.091 1306.34C914.248 1308.26 914.335 1311.21 916.232 1313.03ZM917.291 1311.92C916.004 1310.69 915.963 1308.73 917.222 1307.42C918.48 1306.11 920.44 1306.07 921.726 1307.3C923.025 1308.55 923.066 1310.51 921.808 1311.82C920.549 1313.13 918.59 1313.17 917.291 1311.92ZM934.562 1317.49C933.718 1316.68 932.629 1316.33 931.464 1316.64C931.76 1315.58 931.496 1314.55 930.613 1313.7C929.821 1312.94 928.846 1312.61 927.681 1312.89L928.515 1312.02L927.385 1310.93L921.156 1317.43L922.286 1318.51L925.749 1314.9C927.095 1313.5 928.436 1313.68 929.306 1314.52C930.151 1315.33 930.147 1316.4 929.163 1317.42L925.326 1321.43L926.456 1322.51L929.92 1318.9C931.265 1317.5 932.502 1317.58 933.411 1318.46C934.269 1319.28 934.305 1320.39 933.321 1321.41L929.483 1325.41L930.613 1326.5L934.488 1322.46C936.046 1320.83 936.004 1318.87 934.562 1317.49ZM935.59 1326.03L941.033 1331.25C941.221 1331.11 941.396 1330.95 941.558 1330.78C943.302 1328.96 943.574 1326.13 941.612 1324.25C939.585 1322.31 936.776 1322.48 934.932 1324.4C933.063 1326.35 933.045 1329.15 935.137 1331.16C936.436 1332.4 937.984 1332.77 939.403 1332.43L938.965 1330.96C938.129 1331.19 937.081 1330.98 936.184 1330.12C934.976 1328.96 934.689 1327.41 935.59 1326.03ZM940.59 1325.32C941.565 1326.25 941.914 1327.73 940.876 1329.21L936.536 1325.04C937.802 1324.09 939.369 1324.14 940.59 1325.32ZM957.102 1334.44L953.539 1338.16C953.779 1336.87 953.421 1335.58 952.317 1334.52C950.511 1332.78 947.598 1332.86 945.754 1334.78C943.91 1336.7 943.958 1339.62 945.764 1341.35C946.868 1342.41 948.173 1342.71 949.453 1342.42L948.381 1343.54L949.511 1344.62L958.233 1335.53L957.102 1334.44ZM946.953 1340.4C945.654 1339.15 945.613 1337.19 946.884 1335.87C948.155 1334.54 950.114 1334.5 951.414 1335.75C952.726 1337 952.767 1338.96 951.496 1340.29C950.225 1341.61 948.265 1341.65 946.953 1340.4ZM962.832 1344.92L961.76 1346.04C962.001 1344.75 961.643 1343.46 960.538 1342.4C958.733 1340.67 955.819 1340.74 953.975 1342.67C952.131 1344.59 952.179 1347.5 953.985 1349.23C955.089 1350.29 956.394 1350.6 957.674 1350.3L956.602 1351.42L957.733 1352.5L963.962 1346.01L962.832 1344.92ZM955.174 1348.28C953.875 1347.03 953.834 1345.07 955.105 1343.75C956.376 1342.42 958.336 1342.38 959.635 1343.63C960.947 1344.89 960.988 1346.85 959.717 1348.17C958.446 1349.5 956.487 1349.54 955.174 1348.28ZM965.584 1360.36C967.442 1362.14 969.7 1362.36 971.232 1360.76C972.914 1359.01 971.869 1357.11 970.782 1355.07C969.895 1353.44 969.557 1352.52 970.367 1351.68C971.165 1350.85 972.339 1350.97 973.313 1351.91C974.417 1352.97 974.456 1354.2 974.033 1355.29L975.607 1355.68C976.197 1354.05 975.928 1352.17 974.434 1350.74C972.914 1349.28 970.679 1348.93 969.109 1350.57C967.49 1352.26 968.457 1354.06 969.463 1355.92C970.403 1357.62 970.909 1358.71 970.012 1359.64C969.227 1360.46 968.03 1360.43 966.744 1359.2C965.419 1357.93 965.262 1356.53 965.897 1355.22L964.284 1354.82C963.457 1356.65 963.856 1358.7 965.584 1360.36ZM978.138 1357.33C978.554 1357.73 979.216 1357.72 979.615 1357.3C980.013 1356.89 980.012 1356.21 979.596 1355.81C979.167 1355.4 978.493 1355.43 978.095 1355.85C977.696 1356.26 977.71 1356.92 978.138 1357.33ZM970.204 1364.46L971.334 1365.55L977.563 1359.05L976.433 1357.97L970.204 1364.46ZM973.058 1367.2L974.188 1368.29L983.283 1358.8L982.153 1357.72L973.058 1367.2ZM986.689 1367.8L979.579 1371.14L982.61 1363.89L981.389 1362.72L977.758 1371.71L979.083 1372.98L987.91 1368.97L986.689 1367.8ZM993.991 1374.81L992.92 1375.92C993.16 1374.63 992.802 1373.34 991.698 1372.28C989.892 1370.55 986.978 1370.62 985.134 1372.55C983.29 1374.47 983.338 1377.38 985.144 1379.12C986.249 1380.17 987.553 1380.48 988.833 1380.18L987.762 1381.3L988.892 1382.39L995.121 1375.89L993.991 1374.81ZM986.334 1378.16C985.035 1376.92 984.994 1374.96 986.264 1373.63C987.535 1372.31 989.495 1372.26 990.794 1373.51C992.106 1374.77 992.147 1376.73 990.876 1378.05C989.606 1379.38 987.646 1379.42 986.334 1378.16Z" fill="#32383e"/>
<path d="M394.1 466.731L395.222 468.115L402.055 456.533L400.865 455.065L388.117 459.346L389.239 460.731L392.081 459.749L395.65 464.154L394.1 466.731ZM393.66 459.211L399.902 457.05L396.504 462.721L393.66 459.211ZM406.793 468.101L399.322 470.517L403.235 463.709L402.17 462.394L397.443 470.857L398.599 472.284L407.858 469.415L406.793 468.101ZM401.139 475.734C401.558 476.251 402.281 476.314 402.785 475.906C403.288 475.498 403.377 474.778 402.957 474.261C402.55 473.757 401.815 473.68 401.312 474.088C400.808 474.496 400.731 475.23 401.139 475.734ZM411.583 488.311L412.705 489.695L419.538 478.113L418.348 476.645L405.601 480.926L406.722 482.311L409.564 481.329L413.133 485.734L411.583 488.311ZM411.144 480.791L417.385 478.63L413.988 484.301L411.144 480.791ZM427.887 488.419L423.887 491.66C424.287 490.409 424.094 489.083 423.13 487.894C421.555 485.95 418.655 485.659 416.585 487.336C414.515 489.013 414.199 491.911 415.774 493.855C416.737 495.043 417.994 495.508 419.3 495.376L418.097 496.351L419.083 497.567L428.873 489.636L427.887 488.419ZM417.073 493.057C415.94 491.658 416.145 489.709 417.571 488.553C418.998 487.397 420.947 487.602 422.08 489C423.225 490.413 423.02 492.362 421.594 493.518C420.167 494.674 418.218 494.469 417.073 493.057ZM429.341 493.33C429.703 493.777 430.362 493.846 430.809 493.484C431.257 493.121 431.34 492.452 430.977 492.004C430.603 491.542 429.931 491.485 429.484 491.847C429.036 492.21 428.967 492.868 429.341 493.33ZM420.577 499.411L421.562 500.628L428.555 494.962L427.57 493.745L420.577 499.411ZM437.548 500.343L433.548 503.583C433.947 502.333 433.754 501.007 432.791 499.818C431.216 497.874 428.315 497.583 426.246 499.26C424.176 500.937 423.859 503.834 425.434 505.778C426.397 506.967 427.654 507.432 428.96 507.3L427.757 508.274L428.743 509.491L438.533 501.559L437.548 500.343ZM426.733 504.98C425.6 503.582 425.805 501.632 427.231 500.476C428.658 499.321 430.607 499.525 431.74 500.924C432.885 502.336 432.68 504.286 431.254 505.442C429.827 506.597 427.878 506.393 426.733 504.98ZM441.921 511.459L440.718 512.434C441.118 511.183 440.924 509.857 439.961 508.669C438.386 506.725 435.486 506.433 433.416 508.11C431.346 509.787 431.029 512.685 432.604 514.629C433.567 515.818 434.824 516.282 436.131 516.15L434.928 517.125L435.914 518.342L442.907 512.676L441.921 511.459ZM433.904 513.831C432.771 512.432 432.975 510.483 434.402 509.327C435.828 508.171 437.778 508.376 438.911 509.774C440.055 511.187 439.851 513.136 438.424 514.292C436.998 515.448 435.048 515.243 433.904 513.831ZM443.351 517.085C443.98 516.575 444.786 516.941 445.296 517.57C445.795 518.186 446.028 519.016 445.614 519.792L447.014 520.348C447.561 519.164 447.358 517.799 446.429 516.652C445.285 515.24 443.57 514.868 442.34 515.865C439.808 517.916 443.834 521.141 442.337 522.353C441.652 522.909 440.865 522.481 440.265 521.739C439.562 520.872 439.46 519.889 439.951 519.121L438.499 518.559C437.863 519.747 437.985 521.27 439.118 522.668C440.33 524.165 442.034 524.638 443.335 523.584C445.908 521.499 441.854 518.297 443.351 517.085Z" fill="#32383e"/>
<path d="M906.631 520.531L907.652 519.071L894.632 515.706L893.55 517.255L901.188 528.323L902.209 526.862L900.48 524.402L903.727 519.754L906.631 520.531ZM899.526 523.033L895.724 517.632L902.113 519.329L899.526 523.033ZM904.439 507.954L908.826 514.467L901.202 512.588L900.233 513.975L909.673 516.178L910.724 514.673L905.408 506.567L904.439 507.954ZM913.337 511.278C913.719 510.732 913.579 510.02 913.048 509.649C912.517 509.278 911.8 509.392 911.419 509.938C911.048 510.469 911.177 511.196 911.708 511.567C912.239 511.938 912.966 511.809 913.337 511.278ZM911.94 490.931L919.642 496.312L908.229 496.243L907.455 497.35L917.785 504.566L918.743 503.194L911.026 497.802L922.454 497.882L923.227 496.775L912.898 489.559L911.94 490.931ZM916.411 487.957C916.741 487.485 916.625 486.833 916.153 486.503C915.681 486.173 915.015 486.279 914.685 486.751C914.344 487.238 914.475 487.9 914.947 488.23C915.419 488.559 916.071 488.444 916.411 487.957ZM924.678 494.698L925.575 493.415L918.197 488.26L917.3 489.544L924.678 494.698ZM931.304 485.214L924.951 486.2L923.843 480.178L922.689 481.831L923.723 487.296L917.511 482.956L916.614 484.24L926.943 491.456L927.84 490.172L924.343 487.729L930.19 486.808L931.304 485.214ZM929.195 481.633L933.514 475.45C933.343 475.287 933.161 475.138 932.969 475.004C930.904 473.561 928.064 473.729 926.507 475.957C924.899 478.259 925.503 481.008 927.687 482.534C929.9 484.08 932.671 483.666 934.331 481.29C935.361 479.815 935.481 478.23 934.931 476.879L933.548 477.538C933.896 478.33 933.852 479.397 933.141 480.416C932.182 481.788 930.698 482.31 929.195 481.633ZM927.717 476.802C928.49 475.695 929.901 475.122 931.516 475.921L928.073 480.85C926.934 479.746 926.748 478.189 927.717 476.802Z" fill="#32383e"/>
<path d="M1158.04 180.94L1159.06 179.479L1146.04 176.114L1144.96 177.664L1152.6 188.731L1153.62 187.27L1151.89 184.81L1155.14 180.162L1158.04 180.94ZM1150.94 183.441L1147.13 178.041L1153.52 179.738L1150.94 183.441ZM1155.85 168.363L1160.24 174.875L1152.61 172.996L1151.64 174.383L1161.08 176.586L1162.13 175.081L1156.82 166.976L1155.85 168.363ZM1164.75 171.686C1165.13 171.14 1164.99 170.428 1164.46 170.057C1163.93 169.686 1163.21 169.8 1162.83 170.346C1162.46 170.877 1162.59 171.604 1163.12 171.975C1163.65 172.346 1164.38 172.217 1164.75 171.686ZM1163.35 151.34L1171.05 156.721L1159.64 156.652L1158.87 157.758L1169.19 164.974L1170.15 163.602L1162.44 158.211L1173.86 158.29L1174.64 157.183L1164.31 149.967L1163.35 151.34ZM1167.82 148.365C1168.15 147.893 1168.04 147.241 1167.56 146.911C1167.09 146.581 1166.42 146.687 1166.09 147.159C1165.75 147.646 1165.89 148.308 1166.36 148.638C1166.83 148.968 1167.48 148.852 1167.82 148.365ZM1176.09 155.107L1176.99 153.823L1169.61 148.669L1168.71 149.952L1176.09 155.107ZM1182.71 145.623L1176.36 146.608L1175.25 140.586L1174.1 142.239L1175.13 147.705L1168.92 143.365L1168.02 144.648L1178.35 151.864L1179.25 150.581L1175.75 148.137L1181.6 147.216L1182.71 145.623ZM1180.6 142.041L1184.92 135.858C1184.75 135.695 1184.57 135.546 1184.38 135.412C1182.31 133.969 1179.47 134.137 1177.92 136.365C1176.31 138.667 1176.91 141.416 1179.1 142.942C1181.31 144.488 1184.08 144.074 1185.74 141.699C1186.77 140.223 1186.89 138.638 1186.34 137.288L1184.96 137.946C1185.31 138.738 1185.26 139.806 1184.55 140.824C1183.59 142.196 1182.11 142.718 1180.6 142.041ZM1179.13 137.21C1179.9 136.104 1181.31 135.53 1182.93 136.329L1179.48 141.258C1178.34 140.154 1178.16 138.597 1179.13 137.21Z" fill="#32383e"/>
<path d="M401.268 1208.66L402.288 1207.2L389.269 1203.83L388.186 1205.38L395.825 1216.45L396.846 1214.99L395.116 1212.53L398.364 1207.88L401.268 1208.66ZM394.163 1211.16L390.36 1205.76L396.75 1207.45L394.163 1211.16ZM399.076 1196.08L403.463 1202.59L395.839 1200.71L394.87 1202.1L404.309 1204.3L405.361 1202.8L400.045 1194.69L399.076 1196.08ZM407.974 1199.4C408.355 1198.86 408.216 1198.14 407.685 1197.77C407.154 1197.4 406.437 1197.52 406.056 1198.06C405.685 1198.59 405.814 1199.32 406.345 1199.69C406.876 1200.06 407.603 1199.93 407.974 1199.4ZM406.576 1179.06L414.279 1184.44L402.865 1184.37L402.092 1185.48L412.421 1192.69L413.38 1191.32L405.663 1185.93L417.091 1186.01L417.864 1184.9L407.535 1177.68L406.576 1179.06ZM411.048 1176.08C411.378 1175.61 411.262 1174.96 410.79 1174.63C410.318 1174.3 409.651 1174.4 409.321 1174.88C408.981 1175.36 409.112 1176.02 409.584 1176.35C410.056 1176.68 410.708 1176.57 411.048 1176.08ZM419.315 1182.82L420.212 1181.54L412.834 1176.39L411.937 1177.67L419.315 1182.82ZM425.94 1173.34L419.587 1174.32L418.48 1168.3L417.326 1169.96L418.36 1175.42L412.148 1171.08L411.251 1172.37L421.58 1179.58L422.477 1178.3L418.98 1175.85L424.827 1174.93L425.94 1173.34ZM423.831 1169.76L428.151 1163.58C427.98 1163.41 427.798 1163.26 427.606 1163.13C425.54 1161.69 422.7 1161.85 421.144 1164.08C419.536 1166.38 420.14 1169.13 422.324 1170.66C424.537 1172.21 427.308 1171.79 428.967 1169.42C429.998 1167.94 430.118 1166.35 429.568 1165L428.185 1165.66C428.532 1166.45 428.489 1167.52 427.778 1168.54C426.819 1169.91 425.335 1170.43 423.831 1169.76ZM422.354 1164.93C423.127 1163.82 424.538 1163.25 426.153 1164.05L422.71 1168.97C421.571 1167.87 421.385 1166.31 422.354 1164.93Z" fill="#32383e"/>
<path d="M136.389 1562.58L137.409 1561.12L124.39 1557.75L123.307 1559.3L130.946 1570.37L131.967 1568.91L130.238 1566.45L133.485 1561.8L136.389 1562.58ZM129.284 1565.08L125.481 1559.68L131.871 1561.37L129.284 1565.08ZM134.197 1550L138.584 1556.51L130.96 1554.63L129.991 1556.02L139.43 1558.22L140.482 1556.72L135.166 1548.61L134.197 1550ZM143.095 1553.32C143.477 1552.78 143.337 1552.06 142.806 1551.69C142.275 1551.32 141.558 1551.44 141.177 1551.98C140.806 1552.51 140.935 1553.24 141.466 1553.61C141.997 1553.98 142.724 1553.85 143.095 1553.32ZM141.698 1532.98L149.4 1538.36L137.986 1538.29L137.213 1539.4L147.542 1546.61L148.501 1545.24L140.784 1539.85L152.212 1539.93L152.985 1538.82L142.656 1531.6L141.698 1532.98ZM146.169 1530C146.499 1529.53 146.383 1528.88 145.911 1528.55C145.439 1528.22 144.772 1528.32 144.442 1528.8C144.102 1529.28 144.233 1529.94 144.705 1530.27C145.177 1530.6 145.829 1530.49 146.169 1530ZM154.436 1536.74L155.333 1535.46L147.955 1530.31L147.058 1531.59L154.436 1536.74ZM161.062 1527.26L154.708 1528.24L153.601 1522.22L152.447 1523.88L153.481 1529.34L147.269 1525L146.372 1526.29L156.701 1533.5L157.598 1532.22L154.101 1529.77L159.948 1528.85L161.062 1527.26ZM158.953 1523.68L163.272 1517.5C163.101 1517.33 162.919 1517.18 162.727 1517.05C160.661 1515.61 157.821 1515.77 156.265 1518C154.657 1520.3 155.261 1523.05 157.445 1524.58C159.658 1526.13 162.429 1525.71 164.088 1523.34C165.119 1521.86 165.239 1520.27 164.689 1518.92L163.306 1519.58C163.653 1520.37 163.61 1521.44 162.899 1522.46C161.94 1523.83 160.456 1524.35 158.953 1523.68ZM157.475 1518.85C158.248 1517.74 159.659 1517.17 161.274 1517.97L157.831 1522.89C156.692 1521.79 156.506 1520.23 157.475 1518.85Z" fill="#32383e"/>
<path d="M131.792 137.482L132.913 138.866L139.746 127.284L138.556 125.816L125.809 130.097L126.931 131.482L129.772 130.5L133.341 134.905L131.792 137.482ZM131.352 129.962L137.593 127.801L134.196 133.472L131.352 129.962ZM144.485 138.852L137.013 141.268L140.927 134.46L139.862 133.145L135.135 141.608L136.29 143.035L145.55 140.166L144.485 138.852ZM138.831 146.485C139.25 147.002 139.973 147.065 140.476 146.657C140.98 146.249 141.068 145.529 140.649 145.012C140.241 144.508 139.507 144.431 139.003 144.839C138.5 145.247 138.423 145.981 138.831 146.485ZM149.275 159.062L150.397 160.446L157.229 148.864L156.04 147.396L143.292 151.677L144.414 153.062L147.256 152.08L150.825 156.485L149.275 159.062ZM148.835 151.542L155.077 149.381L151.679 155.052L148.835 151.542ZM165.579 159.17L161.579 162.411C161.979 161.16 161.785 159.834 160.822 158.645C159.247 156.701 156.347 156.41 154.277 158.087C152.207 159.764 151.89 162.661 153.465 164.606C154.428 165.794 155.685 166.259 156.991 166.127L155.789 167.102L156.774 168.318L166.565 160.387L165.579 159.17ZM154.765 163.808C153.632 162.409 153.836 160.46 155.263 159.304C156.689 158.148 158.639 158.352 159.772 159.751C160.916 161.164 160.712 163.113 159.285 164.269C157.859 165.425 155.909 165.22 154.765 163.808ZM167.032 164.081C167.395 164.528 168.053 164.597 168.501 164.235C168.948 163.872 169.031 163.203 168.669 162.755C168.295 162.293 167.622 162.236 167.175 162.598C166.727 162.961 166.658 163.619 167.032 164.081ZM158.268 170.162L159.254 171.379L166.247 165.713L165.261 164.496L158.268 170.162ZM175.239 171.094L171.239 174.334C171.639 173.084 171.445 171.758 170.482 170.569C168.907 168.625 166.007 168.334 163.937 170.011C161.867 171.688 161.55 174.585 163.125 176.529C164.088 177.718 165.345 178.183 166.652 178.051L165.449 179.025L166.435 180.242L176.225 172.31L175.239 171.094ZM164.425 175.731C163.292 174.333 163.496 172.383 164.923 171.227C166.349 170.072 168.299 170.276 169.432 171.675C170.576 173.087 170.372 175.037 168.945 176.192C167.519 177.348 165.569 177.144 164.425 175.731ZM179.612 182.21L178.409 183.185C178.809 181.934 178.616 180.608 177.652 179.42C176.077 177.476 173.177 177.184 171.107 178.861C169.037 180.538 168.721 183.436 170.296 185.38C171.259 186.569 172.516 187.033 173.822 186.901L172.619 187.876L173.605 189.093L180.598 183.427L179.612 182.21ZM171.595 184.582C170.462 183.183 170.667 181.234 172.093 180.078C173.52 178.922 175.469 179.127 176.602 180.525C177.747 181.938 177.542 183.887 176.116 185.043C174.689 186.199 172.74 185.994 171.595 184.582ZM181.042 187.836C181.672 187.326 182.478 187.692 182.988 188.321C183.486 188.937 183.719 189.767 183.305 190.543L184.706 191.099C185.252 189.915 185.05 188.55 184.121 187.403C182.976 185.991 181.262 185.619 180.031 186.616C177.5 188.667 181.525 191.892 180.029 193.104C179.344 193.66 178.557 193.231 177.956 192.49C177.254 191.623 177.152 190.64 177.642 189.872L176.191 189.31C175.554 190.498 175.676 192.021 176.809 193.419C178.022 194.916 179.725 195.389 181.026 194.335C183.599 192.25 179.546 189.048 181.042 187.836Z" fill="#32383e"/>
<path d="M925.82 1461.04H927.674L924.704 1456C926.216 1455.46 927.314 1454.01 927.314 1452.35C927.314 1450.19 925.55 1448.44 923.39 1448.44H918.35V1461.04H920.024V1456.22H922.994L925.82 1461.04ZM920.024 1450.01H923.39C924.632 1450.01 925.64 1451.05 925.64 1452.35C925.64 1453.65 924.632 1454.71 923.39 1454.71H920.024V1450.01ZM935.209 1452.04V1456.81C935.209 1458.94 934.039 1459.78 932.599 1459.78C931.213 1459.78 930.367 1458.96 930.367 1457.48V1452.04H928.801V1457.57C928.801 1459.87 930.187 1461.28 932.293 1461.28C933.553 1461.28 934.543 1460.81 935.209 1459.75V1461.04H936.775V1452.04H935.209ZM946.611 1452.04V1453.59C945.891 1452.49 944.739 1451.81 943.209 1451.81C940.707 1451.81 938.655 1453.88 938.655 1456.54C938.655 1459.21 940.707 1461.28 943.209 1461.28C944.739 1461.28 945.891 1460.59 946.611 1459.5V1461.04H948.177V1452.04H946.611ZM943.407 1459.77C941.607 1459.77 940.221 1458.38 940.221 1456.54C940.221 1454.71 941.607 1453.32 943.407 1453.32C945.225 1453.32 946.611 1454.71 946.611 1456.54C946.611 1458.38 945.225 1459.77 943.407 1459.77ZM963.041 1452.44C963.041 1449.94 961.241 1448.21 958.703 1448.21C956.165 1448.21 954.365 1449.94 954.365 1452.44C954.365 1454.94 956.165 1456.67 958.703 1456.67C958.919 1456.67 959.117 1456.65 959.315 1456.63L956.327 1461.04H958.217L962.285 1454.98H962.267C962.771 1454.28 963.041 1453.43 963.041 1452.44ZM956.021 1452.44C956.021 1450.86 957.119 1449.81 958.703 1449.81C960.287 1449.81 961.385 1450.84 961.385 1452.44C961.385 1454.04 960.287 1455.09 958.703 1455.09C957.119 1455.09 956.021 1454.04 956.021 1452.44Z" fill="#32383e"/>
<path d="M1168.32 1461.04H1170.17L1167.2 1456C1168.72 1455.46 1169.81 1454.01 1169.81 1452.35C1169.81 1450.19 1168.05 1448.44 1165.89 1448.44H1160.85V1461.04H1162.52V1456.22H1165.49L1168.32 1461.04ZM1162.52 1450.01H1165.89C1167.13 1450.01 1168.14 1451.05 1168.14 1452.35C1168.14 1453.65 1167.13 1454.71 1165.89 1454.71H1162.52V1450.01ZM1177.71 1452.04V1456.81C1177.71 1458.94 1176.54 1459.78 1175.1 1459.78C1173.71 1459.78 1172.87 1458.96 1172.87 1457.48V1452.04H1171.3V1457.57C1171.3 1459.87 1172.69 1461.28 1174.79 1461.28C1176.05 1461.28 1177.04 1460.81 1177.71 1459.75V1461.04H1179.27V1452.04H1177.71ZM1189.11 1452.04V1453.59C1188.39 1452.49 1187.24 1451.81 1185.71 1451.81C1183.21 1451.81 1181.15 1453.88 1181.15 1456.54C1181.15 1459.21 1183.21 1461.28 1185.71 1461.28C1187.24 1461.28 1188.39 1460.59 1189.11 1459.5V1461.04H1190.68V1452.04H1189.11ZM1185.91 1459.77C1184.11 1459.77 1182.72 1458.38 1182.72 1456.54C1182.72 1454.71 1184.11 1453.32 1185.91 1453.32C1187.72 1453.32 1189.11 1454.71 1189.11 1456.54C1189.11 1458.38 1187.72 1459.77 1185.91 1459.77ZM1205.54 1452.44C1205.54 1449.94 1203.74 1448.21 1201.2 1448.21C1198.67 1448.21 1196.87 1449.94 1196.87 1452.44C1196.87 1454.94 1198.67 1456.67 1201.2 1456.67C1201.42 1456.67 1201.62 1456.65 1201.82 1456.63L1198.83 1461.04H1200.72L1204.79 1454.98H1204.77C1205.27 1454.28 1205.54 1453.43 1205.54 1452.44ZM1198.52 1452.44C1198.52 1450.86 1199.62 1449.81 1201.2 1449.81C1202.79 1449.81 1203.89 1450.84 1203.89 1452.44C1203.89 1454.04 1202.79 1455.09 1201.2 1455.09C1199.62 1455.09 1198.52 1454.04 1198.52 1452.44Z" fill="#32383e"/>
<path d="M1320 824L1298 824" stroke="#E16D7D" stroke-width="2" stroke-linecap="round" stroke-linejoin="round"/>
<path d="M1307 833L1298 824L1307 815" stroke="#E16D7D" stroke-width="2" stroke-linecap="round" stroke-linejoin="round"/>
<path d="M7.4375 609.633H29.4375" stroke="#E16D7D" stroke-width="2" stroke-linecap="round" stroke-linejoin="round"/>
<path d="M20.4375 600.633L29.4375 609.633L20.4375 618.633" stroke="#E16D7D" stroke-width="2" stroke-linecap="round" stroke-linejoin="round"/>
<path d="M1320 647.284L1298 647.284" stroke="#E16D7D" stroke-width="2" stroke-linecap="round" stroke-linejoin="round"/>
<path d="M1307 656.284L1298 647.284L1307 638.284" stroke="#E16D7D" stroke-width="2" stroke-linecap="round" stroke-linejoin="round"/>
<path d="M358.09 16.7168L380.09 16.7168" stroke="#E16D7D" stroke-width="2" stroke-linecap="round" stroke-linejoin="round"/>
<path d="M371.09 7.7168L380.09 16.7168L371.09 25.7168" stroke="#E16D7D" stroke-width="2" stroke-linecap="round" stroke-linejoin="round"/>
<path d="M1296 113.285L1296 135.285" stroke="#E16D7D" stroke-width="2" stroke-linecap="round" stroke-linejoin="round"/>
<path d="M1305 126.285L1296 135.285L1287 126.285" stroke="#E16D7D" stroke-width="2" stroke-linecap="round" stroke-linejoin="round"/>
<path d="M1296 1121.72L1296 1143.72" stroke="#E16D7D" stroke-width="2" stroke-linecap="round" stroke-linejoin="round"/>
<path d="M1305 1134.72L1296 1143.72L1287 1134.72" stroke="#E16D7D" stroke-width="2" stroke-linecap="round" stroke-linejoin="round"/>
<path d="M1296 365.418L1296 387.418" stroke="#E16D7D" stroke-width="2" stroke-linecap="round" stroke-linejoin="round"/>
<path d="M1305 378.418L1296 387.418L1287 378.418" stroke="#E16D7D" stroke-width="2" stroke-linecap="round" stroke-linejoin="round"/>
<path d="M1307 1671.84L1285 1671.84" stroke="#E16D7D" stroke-width="2" stroke-linecap="round" stroke-linejoin="round"/>
<path d="M1294 1680.84L1285 1671.84L1294 1662.84" stroke="#E16D7D" stroke-width="2" stroke-linecap="round" stroke-linejoin="round"/>
<g filter="url(#filter0_d)">
<path d="M551.957 1671.84L529.957 1671.84" stroke="#E16D7D" stroke-width="2" stroke-linecap="round" stroke-linejoin="round"/>
<path d="M538.957 1680.84L529.957 1671.84L538.957 1662.84" stroke="#E16D7D" stroke-width="2" stroke-linecap="round" stroke-linejoin="round"/>
</g>
<path d="M16.4414 1646.19L16.4414 1624.19" stroke="#E16D7D" stroke-width="2" stroke-linecap="round" stroke-linejoin="round"/>
<path d="M7.44141 1633.19L16.4414 1624.19L25.4414 1633.19" stroke="#E16D7D" stroke-width="2" stroke-linecap="round" stroke-linejoin="round"/>
<path d="M16.4414 429.015L16.4414 407.015" stroke="#E16D7D" stroke-width="2" stroke-linecap="round" stroke-linejoin="round"/>
<path d="M7.44141 416.015L16.4414 407.015L25.4414 416.015" stroke="#E16D7D" stroke-width="2" stroke-linecap="round" stroke-linejoin="round"/>
<path d="M16.4414 128.52L16.4414 106.52" stroke="#E16D7D" stroke-width="2" stroke-linecap="round" stroke-linejoin="round"/>
<path d="M7.44141 115.52L16.4414 106.52L25.4414 115.52" stroke="#E16D7D" stroke-width="2" stroke-linecap="round" stroke-linejoin="round"/>
<path d="M953 16.7168L975 16.7168" stroke="#E16D7D" stroke-width="2" stroke-linecap="round" stroke-linejoin="round"/>
<path d="M966 7.7168L975 16.7168L966 25.7168" stroke="#E16D7D" stroke-width="2" stroke-linecap="round" stroke-linejoin="round"/>
<defs>
<filter id="filter0_d" x="520.957" y="1655.84" width="40" height="40" filterUnits="userSpaceOnUse" color-interpolation-filters="sRGB">
<feFlood flood-opacity="0" result="BackgroundImageFix"/>
<feColorMatrix in="SourceAlpha" type="matrix" values="0 0 0 0 0 0 0 0 0 0 0 0 0 0 0 0 0 0 127 0" result="hardAlpha"/>
<feOffset dy="4"/>
<feGaussianBlur stdDeviation="2"/>
<feComposite in2="hardAlpha" operator="out"/>
<feColorMatrix type="matrix" values="0 0 0 0 0 0 0 0 0 0 0 0 0 0 0 0 0 0 0.25 0"/>
<feBlend mode="normal" in2="BackgroundImageFix" result="effect1_dropShadow"/>
<feBlend mode="normal" in="SourceGraphic" in2="effect1_dropShadow" result="shape"/>
</filter>
</defs>
</svg>
