<svg width="1087" height="1419" viewBox="0 0 1087 1419" fill="none" xmlns="http://www.w3.org/2000/svg">
<path d="M449.547 192.309L449.547 190.527L436.947 195.225L436.947 197.115L449.547 201.813L449.547 200.031L446.721 199.005L446.721 193.335L449.547 192.309ZM445.155 198.429L438.945 196.179L445.155 193.911L445.155 198.429ZM440.547 183.254L447.873 186.08L440.547 188.906L440.547 190.598L449.547 186.998L449.547 185.162L440.547 181.562L440.547 183.254ZM449.745 180.883C449.745 180.217 449.223 179.713 448.575 179.713C447.927 179.713 447.405 180.217 447.405 180.883C447.405 181.531 447.927 182.053 448.575 182.053C449.223 182.053 449.745 181.531 449.745 180.883ZM449.781 168.766C449.781 166.192 448.377 164.41 446.163 164.41C443.733 164.41 443.085 166.48 442.365 168.676C441.807 170.44 441.375 171.322 440.205 171.322C439.053 171.322 438.333 170.386 438.333 169.036C438.333 167.506 439.197 166.624 440.277 166.174L439.467 164.77C437.883 165.472 436.713 166.966 436.713 169.036C436.713 171.142 438.009 172.996 440.277 172.996C442.617 172.996 443.247 171.052 443.895 169.036C444.471 167.182 444.903 166.066 446.199 166.066C447.333 166.066 448.143 166.948 448.143 168.73C448.143 170.566 447.243 171.646 445.857 172.096L446.685 173.536C448.575 172.87 449.781 171.16 449.781 168.766ZM449.781 158.148C449.781 155.52 447.711 153.396 445.047 153.396C442.383 153.396 440.313 155.52 440.313 158.148C440.313 160.776 442.383 162.882 445.047 162.882C447.711 162.882 449.781 160.776 449.781 158.148ZM448.251 158.148C448.251 159.93 446.865 161.316 445.047 161.316C443.229 161.316 441.843 159.93 441.843 158.148C441.843 156.348 443.229 154.962 445.047 154.962C446.865 154.962 448.251 156.348 448.251 158.148ZM440.547 145.34L445.317 145.34C447.441 145.34 448.287 146.51 448.287 147.95C448.287 149.336 447.459 150.182 445.983 150.182L440.547 150.182L440.547 151.748L446.073 151.748C448.377 151.748 449.781 150.362 449.781 148.256C449.781 146.996 449.313 146.006 448.251 145.34L449.547 145.34L449.547 143.774L440.547 143.774L440.547 145.34ZM448.053 139.572L441.591 134.964L440.547 134.964L440.547 141.534L442.041 141.534L442.041 137.124L448.503 141.714L449.547 141.714L449.547 134.784L448.053 134.784L448.053 139.572ZM440.547 126.028L442.095 126.028C440.997 126.748 440.313 127.9 440.313 129.43C440.313 131.932 442.383 133.984 445.047 133.984C447.711 133.984 449.781 131.932 449.781 129.43C449.781 127.9 449.097 126.748 447.999 126.028L449.547 126.028L449.547 124.462L440.547 124.462L440.547 126.028ZM448.269 129.232C448.269 131.032 446.883 132.418 445.047 132.418C443.211 132.418 441.825 131.032 441.825 129.232C441.825 127.414 443.211 126.028 445.047 126.028C446.883 126.028 448.269 127.414 448.269 129.232Z" fill="#20356F"/>
<path d="M449.547 708.131L449.547 706.349L436.947 711.047L436.947 712.937L449.547 717.635L449.547 715.853L446.721 714.827L446.721 709.157L449.547 708.131ZM445.155 714.251L438.945 712.001L445.155 709.733L445.155 714.251ZM440.547 699.076L447.873 701.902L440.547 704.728L440.547 706.42L449.547 702.82L449.547 700.984L440.547 697.384L440.547 699.076ZM449.745 696.705C449.745 696.039 449.223 695.535 448.575 695.535C447.927 695.535 447.405 696.039 447.405 696.705C447.405 697.353 447.927 697.875 448.575 697.875C449.223 697.875 449.745 697.353 449.745 696.705ZM449.781 684.588C449.781 682.014 448.377 680.232 446.163 680.232C443.733 680.232 443.085 682.302 442.365 684.498C441.807 686.262 441.375 687.144 440.205 687.144C439.053 687.144 438.333 686.208 438.333 684.858C438.333 683.328 439.197 682.446 440.277 681.996L439.467 680.592C437.883 681.294 436.713 682.788 436.713 684.858C436.713 686.964 438.009 688.818 440.277 688.818C442.617 688.818 443.247 686.874 443.895 684.858C444.471 683.004 444.903 681.888 446.199 681.888C447.333 681.888 448.143 682.77 448.143 684.552C448.143 686.388 447.243 687.468 445.857 687.918L446.685 689.358C448.575 688.692 449.781 686.982 449.781 684.588ZM449.781 673.971C449.781 671.343 447.711 669.219 445.047 669.219C442.383 669.219 440.313 671.343 440.313 673.971C440.313 676.599 442.383 678.705 445.047 678.705C447.711 678.705 449.781 676.599 449.781 673.971ZM448.251 673.971C448.251 675.753 446.865 677.139 445.047 677.139C443.229 677.139 441.843 675.753 441.843 673.971C441.843 672.171 443.229 670.785 445.047 670.785C446.865 670.785 448.251 672.171 448.251 673.971ZM440.547 661.163L445.317 661.163C447.441 661.163 448.287 662.333 448.287 663.773C448.287 665.159 447.459 666.005 445.983 666.005L440.547 666.005L440.547 667.571L446.073 667.571C448.377 667.571 449.781 666.185 449.781 664.079C449.781 662.819 449.313 661.829 448.251 661.163L449.547 661.163L449.547 659.597L440.547 659.597L440.547 661.163ZM448.053 655.394L441.591 650.786L440.547 650.786L440.547 657.356L442.041 657.356L442.041 652.946L448.503 657.536L449.547 657.536L449.547 650.606L448.053 650.606L448.053 655.394ZM440.547 641.85L442.095 641.85C440.997 642.57 440.313 643.722 440.313 645.252C440.313 647.754 442.383 649.806 445.047 649.806C447.711 649.806 449.781 647.754 449.781 645.252C449.781 643.722 449.097 642.57 447.999 641.85L449.547 641.85L449.547 640.284L440.547 640.284L440.547 641.85ZM448.269 645.054C448.269 646.854 446.883 648.24 445.047 648.24C443.211 648.24 441.825 646.854 441.825 645.054C441.825 643.236 443.211 641.85 445.047 641.85C446.883 641.85 448.269 643.236 448.269 645.054Z" fill="#20356F"/>
<path d="M449.547 1347.15L449.547 1345.37L436.947 1350.07L436.947 1351.96L449.547 1356.66L449.547 1354.87L446.721 1353.85L446.721 1348.18L449.547 1347.15ZM445.155 1353.27L438.945 1351.02L445.155 1348.75L445.155 1353.27ZM440.547 1338.1L447.873 1340.92L440.547 1343.75L440.547 1345.44L449.547 1341.84L449.547 1340.01L440.547 1336.41L440.547 1338.1ZM449.745 1335.73C449.745 1335.06 449.223 1334.56 448.575 1334.56C447.927 1334.56 447.405 1335.06 447.405 1335.73C447.405 1336.37 447.927 1336.9 448.575 1336.9C449.223 1336.9 449.745 1336.37 449.745 1335.73ZM449.781 1323.61C449.781 1321.04 448.377 1319.25 446.163 1319.25C443.733 1319.25 443.085 1321.32 442.365 1323.52C441.807 1325.28 441.375 1326.17 440.205 1326.17C439.053 1326.17 438.333 1325.23 438.333 1323.88C438.333 1322.35 439.197 1321.47 440.277 1321.02L439.467 1319.61C437.883 1320.32 436.713 1321.81 436.713 1323.88C436.713 1325.99 438.009 1327.84 440.277 1327.84C442.617 1327.84 443.247 1325.9 443.895 1323.88C444.471 1322.03 444.903 1320.91 446.199 1320.91C447.333 1320.91 448.143 1321.79 448.143 1323.57C448.143 1325.41 447.243 1326.49 445.857 1326.94L446.685 1328.38C448.575 1327.71 449.781 1326 449.781 1323.61ZM449.781 1312.99C449.781 1310.36 447.711 1308.24 445.047 1308.24C442.383 1308.24 440.313 1310.36 440.313 1312.99C440.313 1315.62 442.383 1317.73 445.047 1317.73C447.711 1317.73 449.781 1315.62 449.781 1312.99ZM448.251 1312.99C448.251 1314.77 446.865 1316.16 445.047 1316.16C443.229 1316.16 441.843 1314.77 441.843 1312.99C441.843 1311.19 443.229 1309.81 445.047 1309.81C446.865 1309.81 448.251 1311.19 448.251 1312.99ZM440.547 1300.18L445.317 1300.18C447.441 1300.18 448.287 1301.35 448.287 1302.79C448.287 1304.18 447.459 1305.03 445.983 1305.03L440.547 1305.03L440.547 1306.59L446.073 1306.59C448.377 1306.59 449.781 1305.21 449.781 1303.1C449.781 1301.84 449.313 1300.85 448.251 1300.18L449.547 1300.18L449.547 1298.62L440.547 1298.62L440.547 1300.18ZM448.053 1294.42L441.591 1289.81L440.547 1289.81L440.547 1296.38L442.041 1296.38L442.041 1291.97L448.503 1296.56L449.547 1296.56L449.547 1289.63L448.053 1289.63L448.053 1294.42ZM440.547 1280.87L442.095 1280.87C440.997 1281.59 440.313 1282.74 440.313 1284.27C440.313 1286.78 442.383 1288.83 445.047 1288.83C447.711 1288.83 449.781 1286.78 449.781 1284.27C449.781 1282.74 449.097 1281.59 447.999 1280.87L449.547 1280.87L449.547 1279.31L440.547 1279.31L440.547 1280.87ZM448.269 1284.08C448.269 1285.88 446.883 1287.26 445.047 1287.26C443.211 1287.26 441.825 1285.88 441.825 1284.08C441.825 1282.26 443.211 1280.87 445.047 1280.87C446.883 1280.87 448.269 1282.26 448.269 1284.08Z" fill="#20356F"/>
<path d="M449.547 1039.37L449.547 1037.59L436.947 1042.28L436.947 1044.17L449.547 1048.87L449.547 1047.09L446.721 1046.06L446.721 1040.39L449.547 1039.37ZM445.155 1045.49L438.945 1043.24L445.155 1040.97L445.155 1045.49ZM440.547 1030.31L447.873 1033.14L440.547 1035.96L440.547 1037.66L449.547 1034.06L449.547 1032.22L440.547 1028.62L440.547 1030.31ZM449.745 1027.94C449.745 1027.28 449.223 1026.77 448.575 1026.77C447.927 1026.77 447.405 1027.28 447.405 1027.94C447.405 1028.59 447.927 1029.11 448.575 1029.11C449.223 1029.11 449.745 1028.59 449.745 1027.94ZM449.781 1015.82C449.781 1013.25 448.377 1011.47 446.163 1011.47C443.733 1011.47 443.085 1013.54 442.365 1015.73C441.807 1017.5 441.375 1018.38 440.205 1018.38C439.053 1018.38 438.333 1017.44 438.333 1016.09C438.333 1014.56 439.197 1013.68 440.277 1013.23L439.467 1011.83C437.883 1012.53 436.713 1014.02 436.713 1016.09C436.713 1018.2 438.009 1020.05 440.277 1020.05C442.617 1020.05 443.247 1018.11 443.895 1016.09C444.471 1014.24 444.903 1013.12 446.199 1013.12C447.333 1013.12 448.143 1014.01 448.143 1015.79C448.143 1017.62 447.243 1018.7 445.857 1019.15L446.685 1020.59C448.575 1019.93 449.781 1018.22 449.781 1015.82ZM449.781 1005.21C449.781 1002.58 447.711 1000.45 445.047 1000.45C442.383 1000.45 440.313 1002.58 440.313 1005.21C440.313 1007.83 442.383 1009.94 445.047 1009.94C447.711 1009.94 449.781 1007.83 449.781 1005.21ZM448.251 1005.21C448.251 1006.99 446.865 1008.37 445.047 1008.37C443.229 1008.37 441.843 1006.99 441.843 1005.21C441.843 1003.41 443.229 1002.02 445.047 1002.02C446.865 1002.02 448.251 1003.41 448.251 1005.21ZM440.547 992.399L445.317 992.399C447.441 992.399 448.287 993.569 448.287 995.009C448.287 996.395 447.459 997.241 445.983 997.241L440.547 997.241L440.547 998.807L446.073 998.807C448.377 998.807 449.781 997.421 449.781 995.315C449.781 994.055 449.313 993.065 448.251 992.399L449.547 992.399L449.547 990.833L440.547 990.833L440.547 992.399ZM448.053 986.631L441.591 982.023L440.547 982.023L440.547 988.593L442.041 988.593L442.041 984.183L448.503 988.773L449.547 988.773L449.547 981.843L448.053 981.843L448.053 986.631ZM440.547 973.087L442.095 973.087C440.997 973.807 440.313 974.959 440.313 976.489C440.313 978.991 442.383 981.043 445.047 981.043C447.711 981.043 449.781 978.991 449.781 976.489C449.781 974.959 449.097 973.807 447.999 973.087L449.547 973.087L449.547 971.521L440.547 971.521L440.547 973.087ZM448.269 976.291C448.269 978.091 446.883 979.477 445.047 979.477C443.211 979.477 441.825 978.091 441.825 976.291C441.825 974.473 443.211 973.087 445.047 973.087C446.883 973.087 448.269 974.473 448.269 976.291Z" fill="#20356F"/>
<path d="M205.055 106.502L205.055 104.72L192.455 109.418L192.455 111.308L205.055 116.006L205.055 114.224L202.229 113.198L202.229 107.528L205.055 106.502ZM200.663 112.622L194.453 110.372L200.663 108.104L200.663 112.622ZM196.055 97.4475L203.381 100.274L196.055 103.1L196.055 104.792L205.055 101.192L205.055 99.3555L196.055 95.7555L196.055 97.4475ZM205.253 95.0759C205.253 94.4099 204.731 93.9059 204.083 93.9059C203.435 93.9059 202.913 94.4099 202.913 95.0759C202.913 95.7239 203.435 96.2459 204.083 96.2459C204.731 96.2459 205.253 95.7239 205.253 95.0759ZM198.809 74.877L198.809 81.177L200.321 81.177L200.321 76.551C202.211 76.875 203.651 78.423 203.651 81.033C203.651 84.039 201.491 86.037 198.755 86.037C196.001 86.037 193.841 84.021 193.841 81.105C193.841 79.323 194.759 77.793 196.109 77.073L195.263 75.633C193.463 76.677 192.221 78.729 192.221 81.087C192.221 84.921 195.137 87.693 198.755 87.693C202.355 87.693 205.289 84.939 205.289 81.051C205.289 77.253 202.769 74.877 199.565 74.877L198.809 74.877ZM201.275 71.9054L201.275 64.3634C201.041 64.3274 200.807 64.3094 200.573 64.3094C198.053 64.3094 195.821 66.0734 195.821 68.7914C195.821 71.5994 197.891 73.5074 200.555 73.5074C203.255 73.5074 205.289 71.5814 205.289 68.6834C205.289 66.8834 204.479 65.5154 203.255 64.7234L202.499 66.0554C203.237 66.5054 203.813 67.4054 203.813 68.6474C203.813 70.3214 202.895 71.5994 201.275 71.9054ZM197.297 68.7914C197.297 67.4414 198.125 66.1634 199.907 65.8934L199.907 71.9054C198.341 71.6534 197.297 70.4834 197.297 68.7914ZM193.733 58.1469L192.221 58.1469C192.041 60.7209 193.391 62.0889 195.785 62.0889L196.055 62.0889L196.055 63.5289L197.567 63.5289L197.567 62.0889L205.055 62.0889L205.055 60.5229L197.567 60.5229L197.567 58.1469L196.055 58.1469L196.055 60.5229L195.785 60.5229C194.219 60.5229 193.607 59.7129 193.733 58.1469ZM197.567 51.7246L196.055 51.7246L196.055 54.1186L193.535 54.1186L194.003 55.6846L196.055 55.6846L196.055 57.4666L197.567 57.4666L197.567 55.6846L202.445 55.6846C204.695 55.6846 205.415 54.4246 205.055 51.7246L203.651 51.7246C203.723 53.3266 203.813 54.1186 202.445 54.1186L197.567 54.1186L197.567 51.7246Z" fill="#20356F"/>
<path d="M205.055 601.129L205.055 599.347L192.455 604.045L192.455 605.935L205.055 610.633L205.055 608.851L202.229 607.825L202.229 602.155L205.055 601.129ZM200.663 607.249L194.453 604.999L200.663 602.731L200.663 607.249ZM196.055 592.074L203.381 594.9L196.055 597.726L196.055 599.418L205.055 595.818L205.055 593.982L196.055 590.382L196.055 592.074ZM205.253 589.703C205.253 589.037 204.731 588.533 204.083 588.533C203.435 588.533 202.913 589.037 202.913 589.703C202.913 590.351 203.435 590.873 204.083 590.873C204.731 590.873 205.253 590.351 205.253 589.703ZM198.809 569.504L198.809 575.804L200.321 575.804L200.321 571.178C202.211 571.502 203.651 573.05 203.651 575.66C203.651 578.666 201.491 580.664 198.755 580.664C196.001 580.664 193.841 578.648 193.841 575.732C193.841 573.95 194.759 572.42 196.109 571.7L195.263 570.26C193.463 571.304 192.221 573.356 192.221 575.714C192.221 579.548 195.137 582.32 198.755 582.32C202.355 582.32 205.289 579.566 205.289 575.678C205.289 571.88 202.769 569.504 199.565 569.504L198.809 569.504ZM201.275 566.532L201.275 558.99C201.041 558.954 200.807 558.936 200.573 558.936C198.053 558.936 195.821 560.7 195.821 563.418C195.821 566.226 197.891 568.134 200.555 568.134C203.255 568.134 205.289 566.208 205.289 563.31C205.289 561.51 204.479 560.142 203.255 559.35L202.499 560.682C203.237 561.132 203.813 562.032 203.813 563.274C203.813 564.948 202.895 566.226 201.275 566.532ZM197.297 563.418C197.297 562.068 198.125 560.79 199.907 560.52L199.907 566.532C198.341 566.28 197.297 565.11 197.297 563.418ZM193.733 552.774L192.221 552.774C192.041 555.348 193.391 556.716 195.785 556.716L196.055 556.716L196.055 558.156L197.567 558.156L197.567 556.716L205.055 556.716L205.055 555.15L197.567 555.15L197.567 552.774L196.055 552.774L196.055 555.15L195.785 555.15C194.219 555.15 193.607 554.34 193.733 552.774ZM197.567 546.352L196.055 546.352L196.055 548.746L193.535 548.746L194.003 550.312L196.055 550.312L196.055 552.094L197.567 552.094L197.567 550.312L202.445 550.312C204.695 550.312 205.415 549.052 205.055 546.352L203.651 546.352C203.723 547.954 203.813 548.746 202.445 548.746L197.567 548.746L197.567 546.352Z" fill="#20356F"/>
<path d="M205.055 958.788L205.055 957.006L192.455 961.704L192.455 963.594L205.055 968.292L205.055 966.51L202.229 965.484L202.229 959.814L205.055 958.788ZM200.663 964.908L194.453 962.658L200.663 960.39L200.663 964.908ZM196.055 949.733L203.381 952.559L196.055 955.385L196.055 957.077L205.055 953.477L205.055 951.641L196.055 948.041L196.055 949.733ZM205.253 947.361C205.253 946.695 204.731 946.191 204.083 946.191C203.435 946.191 202.913 946.695 202.913 947.361C202.913 948.009 203.435 948.531 204.083 948.531C204.731 948.531 205.253 948.009 205.253 947.361ZM198.809 927.162L198.809 933.462L200.321 933.462L200.321 928.836C202.211 929.16 203.651 930.708 203.651 933.318C203.651 936.324 201.491 938.322 198.755 938.322C196.001 938.322 193.841 936.306 193.841 933.39C193.841 931.608 194.759 930.078 196.109 929.358L195.263 927.918C193.463 928.962 192.221 931.014 192.221 933.372C192.221 937.206 195.137 939.978 198.755 939.978C202.355 939.978 205.289 937.224 205.289 933.336C205.289 929.538 202.769 927.162 199.565 927.162L198.809 927.162ZM201.275 924.191L201.275 916.649C201.041 916.613 200.807 916.595 200.573 916.595C198.053 916.595 195.821 918.359 195.821 921.077C195.821 923.885 197.891 925.793 200.555 925.793C203.255 925.793 205.289 923.867 205.289 920.969C205.289 919.169 204.479 917.801 203.255 917.009L202.499 918.341C203.237 918.791 203.813 919.691 203.813 920.933C203.813 922.607 202.895 923.885 201.275 924.191ZM197.297 921.077C197.297 919.727 198.125 918.449 199.907 918.179L199.907 924.191C198.341 923.939 197.297 922.769 197.297 921.077ZM193.733 910.432L192.221 910.432C192.041 913.006 193.391 914.374 195.785 914.374L196.055 914.374L196.055 915.814L197.567 915.814L197.567 914.374L205.055 914.374L205.055 912.808L197.567 912.808L197.567 910.432L196.055 910.432L196.055 912.808L195.785 912.808C194.219 912.808 193.607 911.998 193.733 910.432ZM197.567 904.01L196.055 904.01L196.055 906.404L193.535 906.404L194.003 907.97L196.055 907.97L196.055 909.752L197.567 909.752L197.567 907.97L202.445 907.97C204.695 907.97 205.415 906.71 205.055 904.01L203.651 904.01C203.723 905.612 203.813 906.404 202.445 906.404L197.567 906.404L197.567 904.01Z" fill="#20356F"/>
<path d="M205.055 1381.35L205.055 1379.57L192.455 1384.27L192.455 1386.16L205.055 1390.86L205.055 1389.07L202.229 1388.05L202.229 1382.38L205.055 1381.35ZM200.663 1387.47L194.453 1385.22L200.663 1382.95L200.663 1387.47ZM196.055 1372.3L203.381 1375.12L196.055 1377.95L196.055 1379.64L205.055 1376.04L205.055 1374.21L196.055 1370.61L196.055 1372.3ZM205.253 1369.93C205.253 1369.26 204.731 1368.76 204.083 1368.76C203.435 1368.76 202.913 1369.26 202.913 1369.93C202.913 1370.57 203.435 1371.1 204.083 1371.1C204.731 1371.1 205.253 1370.57 205.253 1369.93ZM198.809 1349.73L198.809 1356.03L200.321 1356.03L200.321 1351.4C202.211 1351.72 203.651 1353.27 203.651 1355.88C203.651 1358.89 201.491 1360.89 198.755 1360.89C196.001 1360.89 193.841 1358.87 193.841 1355.95C193.841 1354.17 194.759 1352.64 196.109 1351.92L195.263 1350.48C193.463 1351.53 192.221 1353.58 192.221 1355.94C192.221 1359.77 195.137 1362.54 198.755 1362.54C202.355 1362.54 205.289 1359.79 205.289 1355.9C205.289 1352.1 202.769 1349.73 199.565 1349.73L198.809 1349.73ZM201.275 1346.76L201.275 1339.21C201.041 1339.18 200.807 1339.16 200.573 1339.16C198.053 1339.16 195.821 1340.92 195.821 1343.64C195.821 1346.45 197.891 1348.36 200.555 1348.36C203.255 1348.36 205.289 1346.43 205.289 1343.53C205.289 1341.73 204.479 1340.37 203.255 1339.57L202.499 1340.91C203.237 1341.36 203.813 1342.26 203.813 1343.5C203.813 1345.17 202.895 1346.45 201.275 1346.76ZM197.297 1343.64C197.297 1342.29 198.125 1341.01 199.907 1340.74L199.907 1346.76C198.341 1346.5 197.297 1345.33 197.297 1343.64ZM193.733 1333L192.221 1333C192.041 1335.57 193.391 1336.94 195.785 1336.94L196.055 1336.94L196.055 1338.38L197.567 1338.38L197.567 1336.94L205.055 1336.94L205.055 1335.37L197.567 1335.37L197.567 1333L196.055 1333L196.055 1335.37L195.785 1335.37C194.219 1335.37 193.607 1334.56 193.733 1333ZM197.567 1326.57L196.055 1326.57L196.055 1328.97L193.535 1328.97L194.003 1330.53L196.055 1330.53L196.055 1332.32L197.567 1332.32L197.567 1330.53L202.445 1330.53C204.695 1330.53 205.415 1329.27 205.055 1326.57L203.651 1326.57C203.723 1328.18 203.813 1328.97 202.445 1328.97L197.567 1328.97L197.567 1326.57Z" fill="#20356F"/>
<path d="M297.754 192.506H299.608L296.638 187.466C298.15 186.926 299.248 185.468 299.248 183.812C299.248 181.652 297.484 179.906 295.324 179.906H290.284V192.506H291.958V187.682H294.928L297.754 192.506ZM291.958 181.472H295.324C296.566 181.472 297.574 182.516 297.574 183.812C297.574 185.108 296.566 186.17 295.324 186.17H291.958V181.472ZM307.142 183.506V188.276C307.142 190.4 305.972 191.246 304.532 191.246C303.146 191.246 302.3 190.418 302.3 188.942V183.506H300.734V189.032C300.734 191.336 302.12 192.74 304.226 192.74C305.486 192.74 306.476 192.272 307.142 191.21V192.506H308.708V183.506H307.142ZM318.544 183.506V185.054C317.824 183.956 316.672 183.272 315.142 183.272C312.64 183.272 310.588 185.342 310.588 188.006C310.588 190.67 312.64 192.74 315.142 192.74C316.672 192.74 317.824 192.056 318.544 190.958V192.506H320.11V183.506H318.544ZM315.34 191.228C313.54 191.228 312.154 189.842 312.154 188.006C312.154 186.17 313.54 184.784 315.34 184.784C317.158 184.784 318.544 186.17 318.544 188.006C318.544 189.842 317.158 191.228 315.34 191.228ZM329.359 179.906L326.047 181.058L326.461 182.498L329.143 181.706V192.506H330.799V179.906H329.359Z" fill="#20356F"/>
<path d="M297.754 684.559H299.608L296.638 679.519C298.15 678.979 299.248 677.521 299.248 675.865C299.248 673.705 297.484 671.959 295.324 671.959H290.284V684.559H291.958V679.735H294.928L297.754 684.559ZM291.958 673.525H295.324C296.566 673.525 297.574 674.569 297.574 675.865C297.574 677.161 296.566 678.223 295.324 678.223H291.958V673.525ZM307.142 675.559V680.329C307.142 682.453 305.972 683.299 304.532 683.299C303.146 683.299 302.3 682.471 302.3 680.995V675.559H300.734V681.085C300.734 683.389 302.12 684.793 304.226 684.793C305.486 684.793 306.476 684.325 307.142 683.263V684.559H308.708V675.559H307.142ZM318.544 675.559V677.107C317.824 676.009 316.672 675.325 315.142 675.325C312.64 675.325 310.588 677.395 310.588 680.059C310.588 682.723 312.64 684.793 315.142 684.793C316.672 684.793 317.824 684.109 318.544 683.011V684.559H320.11V675.559H318.544ZM315.34 683.281C313.54 683.281 312.154 681.895 312.154 680.059C312.154 678.223 313.54 676.837 315.34 676.837C317.158 676.837 318.544 678.223 318.544 680.059C318.544 681.895 317.158 683.281 315.34 683.281ZM324.859 671.959L321.547 673.111L321.961 674.551L324.643 673.759V684.559H326.299V671.959H324.859ZM333.381 684.793C336.513 684.793 338.241 682.147 338.241 678.259C338.241 674.371 336.513 671.725 333.381 671.725C330.267 671.725 328.521 674.371 328.521 678.259C328.521 682.147 330.267 684.793 333.381 684.793ZM333.381 683.155C331.347 683.155 330.195 681.391 330.195 678.259C330.195 675.127 331.347 673.345 333.381 673.345C335.415 673.345 336.585 675.127 336.585 678.259C336.585 681.391 335.415 683.155 333.381 683.155Z" fill="#20356F"/>
<path d="M297.754 1165.68H299.608L296.638 1160.64C298.15 1160.1 299.248 1158.64 299.248 1156.98C299.248 1154.82 297.484 1153.08 295.324 1153.08H290.284V1165.68H291.958V1160.85H294.928L297.754 1165.68ZM291.958 1154.64H295.324C296.566 1154.64 297.574 1155.69 297.574 1156.98C297.574 1158.28 296.566 1159.34 295.324 1159.34H291.958V1154.64ZM307.142 1156.68V1161.45C307.142 1163.57 305.972 1164.42 304.532 1164.42C303.146 1164.42 302.3 1163.59 302.3 1162.11V1156.68H300.734V1162.2C300.734 1164.51 302.12 1165.91 304.226 1165.91C305.486 1165.91 306.476 1165.44 307.142 1164.38V1165.68H308.708V1156.68H307.142ZM318.544 1156.68V1158.22C317.824 1157.13 316.672 1156.44 315.142 1156.44C312.64 1156.44 310.588 1158.51 310.588 1161.18C310.588 1163.84 312.64 1165.91 315.142 1165.91C316.672 1165.91 317.824 1165.23 318.544 1164.13V1165.68H320.11V1156.68H318.544ZM315.34 1164.4C313.54 1164.4 312.154 1163.01 312.154 1161.18C312.154 1159.34 313.54 1157.95 315.34 1157.95C317.158 1157.95 318.544 1159.34 318.544 1161.18C318.544 1163.01 317.158 1164.4 315.34 1164.4ZM329.359 1153.08L326.047 1154.23L326.461 1155.67L329.143 1154.88V1165.68H330.799V1153.08H329.359ZM335.775 1153.08L332.463 1154.23L332.877 1155.67L335.559 1154.88V1165.68H337.215V1153.08H335.775Z" fill="#20356F"/>
<path d="M74.0622 1165.68H75.9162L72.9462 1160.64C74.4582 1160.1 75.5562 1158.64 75.5562 1156.98C75.5562 1154.82 73.7922 1153.08 71.6322 1153.08H66.5922V1165.68H68.2662V1160.85H71.2362L74.0622 1165.68ZM68.2662 1154.64H71.6322C72.8742 1154.64 73.8822 1155.69 73.8822 1156.98C73.8822 1158.28 72.8742 1159.34 71.6322 1159.34H68.2662V1154.64ZM83.4507 1156.68V1161.45C83.4507 1163.57 82.2807 1164.42 80.8407 1164.42C79.4547 1164.42 78.6087 1163.59 78.6087 1162.11V1156.68H77.0427V1162.2C77.0427 1164.51 78.4287 1165.91 80.5347 1165.91C81.7947 1165.91 82.7847 1165.44 83.4507 1164.38V1165.68H85.0167V1156.68H83.4507ZM94.8529 1156.68V1158.22C94.1329 1157.13 92.9809 1156.44 91.4509 1156.44C88.9489 1156.44 86.8969 1158.51 86.8969 1161.18C86.8969 1163.84 88.9489 1165.91 91.4509 1165.91C92.9809 1165.91 94.1329 1165.23 94.8529 1164.13V1165.68H96.4189V1156.68H94.8529ZM91.6489 1164.4C89.8489 1164.4 88.4629 1163.01 88.4629 1161.18C88.4629 1159.34 89.8489 1157.95 91.6489 1157.95C93.4669 1157.95 94.8529 1159.34 94.8529 1161.18C94.8529 1163.01 93.4669 1164.4 91.6489 1164.4ZM105.668 1153.08L102.356 1154.23L102.77 1155.67L105.452 1154.88V1165.68H107.108V1153.08H105.668ZM112.084 1153.08L108.772 1154.23L109.186 1155.67L111.868 1154.88V1165.68H113.524V1153.08H112.084Z" fill="#20356F"/>
<path d="M74.0622 950.672H75.9162L72.9462 945.632C74.4582 945.092 75.5562 943.634 75.5562 941.978C75.5562 939.818 73.7922 938.072 71.6322 938.072H66.5922V950.672H68.2662V945.848H71.2362L74.0622 950.672ZM68.2662 939.638H71.6322C72.8742 939.638 73.8822 940.682 73.8822 941.978C73.8822 943.274 72.8742 944.336 71.6322 944.336H68.2662V939.638ZM83.4507 941.672V946.442C83.4507 948.566 82.2807 949.412 80.8407 949.412C79.4547 949.412 78.6087 948.584 78.6087 947.108V941.672H77.0427V947.198C77.0427 949.502 78.4287 950.906 80.5347 950.906C81.7947 950.906 82.7847 950.438 83.4507 949.376V950.672H85.0167V941.672H83.4507ZM94.8529 941.672V943.22C94.1329 942.122 92.9809 941.438 91.4509 941.438C88.9489 941.438 86.8969 943.508 86.8969 946.172C86.8969 948.836 88.9489 950.906 91.4509 950.906C92.9809 950.906 94.1329 950.222 94.8529 949.124V950.672H96.4189V941.672H94.8529ZM91.6489 949.394C89.8489 949.394 88.4629 948.008 88.4629 946.172C88.4629 944.336 89.8489 942.95 91.6489 942.95C93.4669 942.95 94.8529 944.336 94.8529 946.172C94.8529 948.008 93.4669 949.394 91.6489 949.394ZM105.668 938.072L102.356 939.224L102.77 940.664L105.452 939.872V950.672H107.108V938.072H105.668ZM109.168 950.672H117.304V949.052H111.598L114.82 945.848C116.062 944.606 117.07 943.256 117.07 941.69C117.07 939.206 115.108 937.838 113.146 937.838C111.508 937.838 109.978 938.648 109.168 940.322L110.572 941.15C111.112 940.016 112.012 939.458 113.164 939.458C114.334 939.458 115.396 940.232 115.396 941.708C115.396 942.77 114.604 943.778 113.614 944.768L109.168 949.304V950.672Z" fill="#20356F"/>
<path d="M74.0622 764.275H75.9162L72.9462 759.235C74.4582 758.695 75.5562 757.237 75.5562 755.581C75.5562 753.421 73.7922 751.675 71.6322 751.675H66.5922V764.275H68.2662V759.451H71.2362L74.0622 764.275ZM68.2662 753.241H71.6322C72.8742 753.241 73.8822 754.285 73.8822 755.581C73.8822 756.877 72.8742 757.939 71.6322 757.939H68.2662V753.241ZM83.4507 755.275V760.045C83.4507 762.169 82.2807 763.015 80.8407 763.015C79.4547 763.015 78.6087 762.187 78.6087 760.711V755.275H77.0427V760.801C77.0427 763.105 78.4287 764.509 80.5347 764.509C81.7947 764.509 82.7847 764.041 83.4507 762.979V764.275H85.0167V755.275H83.4507ZM94.8529 755.275V756.823C94.1329 755.725 92.9809 755.041 91.4509 755.041C88.9489 755.041 86.8969 757.111 86.8969 759.775C86.8969 762.439 88.9489 764.509 91.4509 764.509C92.9809 764.509 94.1329 763.825 94.8529 762.727V764.275H96.4189V755.275H94.8529ZM91.6489 762.997C89.8489 762.997 88.4629 761.611 88.4629 759.775C88.4629 757.939 89.8489 756.553 91.6489 756.553C93.4669 756.553 94.8529 757.939 94.8529 759.775C94.8529 761.611 93.4669 762.997 91.6489 762.997ZM105.668 751.675L102.356 752.827L102.77 754.267L105.452 753.475V764.275H107.108V751.675H105.668ZM114.208 756.841L116.944 753.151V751.675H109.384V753.241H114.982L112.066 757.183L112.732 758.209H113.164C114.676 758.209 115.81 759.037 115.81 760.549C115.81 762.043 114.676 762.871 113.164 762.871C111.796 762.871 110.806 762.295 110.428 761.125L109.024 761.953C109.672 763.645 111.31 764.509 113.164 764.509C115.432 764.509 117.484 763.105 117.484 760.549C117.484 758.461 116.026 757.183 114.208 756.841Z" fill="#20356F"/>
<path d="M74.0622 508.504H75.9162L72.9462 503.464C74.4582 502.924 75.5562 501.466 75.5562 499.81C75.5562 497.65 73.7922 495.904 71.6322 495.904H66.5922V508.504H68.2662V503.68H71.2362L74.0622 508.504ZM68.2662 497.47H71.6322C72.8742 497.47 73.8822 498.514 73.8822 499.81C73.8822 501.106 72.8742 502.168 71.6322 502.168H68.2662V497.47ZM83.4507 499.504V504.274C83.4507 506.398 82.2807 507.244 80.8407 507.244C79.4547 507.244 78.6087 506.416 78.6087 504.94V499.504H77.0427V505.03C77.0427 507.334 78.4287 508.738 80.5347 508.738C81.7947 508.738 82.7847 508.27 83.4507 507.208V508.504H85.0167V499.504H83.4507ZM94.8529 499.504V501.052C94.1329 499.954 92.9809 499.27 91.4509 499.27C88.9489 499.27 86.8969 501.34 86.8969 504.004C86.8969 506.668 88.9489 508.738 91.4509 508.738C92.9809 508.738 94.1329 508.054 94.8529 506.956V508.504H96.4189V499.504H94.8529ZM91.6489 507.226C89.8489 507.226 88.4629 505.84 88.4629 504.004C88.4629 502.168 89.8489 500.782 91.6489 500.782C93.4669 500.782 94.8529 502.168 94.8529 504.004C94.8529 505.84 93.4669 507.226 91.6489 507.226ZM105.668 495.904L102.356 497.056L102.77 498.496L105.452 497.704V508.504H107.108V495.904H105.668ZM118.582 504.544H117.052V500.98H115.378V504.544H110.752L115.27 495.904H113.47L108.952 504.544V506.11H115.378V508.504H117.052V506.11H118.582V504.544Z" fill="#20356F"/>
<path d="M74.0622 193.801H75.9162L72.9462 188.761C74.4582 188.221 75.5562 186.763 75.5562 185.107C75.5562 182.947 73.7922 181.201 71.6322 181.201H66.5922V193.801H68.2662V188.977H71.2362L74.0622 193.801ZM68.2662 182.767H71.6322C72.8742 182.767 73.8822 183.811 73.8822 185.107C73.8822 186.403 72.8742 187.465 71.6322 187.465H68.2662V182.767ZM83.4507 184.801V189.571C83.4507 191.695 82.2807 192.541 80.8407 192.541C79.4547 192.541 78.6087 191.713 78.6087 190.237V184.801H77.0427V190.327C77.0427 192.631 78.4287 194.035 80.5347 194.035C81.7947 194.035 82.7847 193.567 83.4507 192.505V193.801H85.0167V184.801H83.4507ZM94.8529 184.801V186.349C94.1329 185.251 92.9809 184.567 91.4509 184.567C88.9489 184.567 86.8969 186.637 86.8969 189.301C86.8969 191.965 88.9489 194.035 91.4509 194.035C92.9809 194.035 94.1329 193.351 94.8529 192.253V193.801H96.4189V184.801H94.8529ZM91.6489 192.523C89.8489 192.523 88.4629 191.137 88.4629 189.301C88.4629 187.465 89.8489 186.079 91.6489 186.079C93.4669 186.079 94.8529 187.465 94.8529 189.301C94.8529 191.137 93.4669 192.523 91.6489 192.523ZM105.668 181.201L102.356 182.353L102.77 183.793L105.452 183.001V193.801H107.108V181.201H105.668Z" fill="#20356F"/>
<path d="M687.26 192.309L687.26 190.527L674.66 195.225L674.66 197.115L687.26 201.813L687.26 200.031L684.434 199.005L684.434 193.335L687.26 192.309ZM682.868 198.429L676.658 196.179L682.868 193.911L682.868 198.429ZM678.26 183.254L685.586 186.08L678.26 188.906L678.26 190.598L687.26 186.998L687.26 185.162L678.26 181.562L678.26 183.254ZM687.458 180.883C687.458 180.217 686.936 179.713 686.288 179.713C685.64 179.713 685.118 180.217 685.118 180.883C685.118 181.531 685.64 182.053 686.288 182.053C686.936 182.053 687.458 181.531 687.458 180.883ZM681.014 160.684L681.014 166.984L682.526 166.984L682.526 162.358C684.416 162.682 685.856 164.23 685.856 166.84C685.856 169.846 683.696 171.844 680.96 171.844C678.206 171.844 676.046 169.828 676.046 166.912C676.046 165.13 676.964 163.6 678.314 162.88L677.468 161.44C675.668 162.484 674.426 164.536 674.426 166.894C674.426 170.728 677.342 173.5 680.96 173.5C684.56 173.5 687.494 170.746 687.494 166.858C687.494 163.06 684.974 160.684 681.77 160.684L681.014 160.684ZM687.494 154.58C687.494 151.952 685.424 149.828 682.76 149.828C680.096 149.828 678.026 151.952 678.026 154.58C678.026 157.208 680.096 159.314 682.76 159.314C685.424 159.314 687.494 157.208 687.494 154.58ZM685.964 154.58C685.964 156.362 684.578 157.748 682.76 157.748C680.942 157.748 679.556 156.362 679.556 154.58C679.556 152.78 680.942 151.394 682.76 151.394C684.578 151.394 685.964 152.78 685.964 154.58ZM678.026 138.262C678.026 139.432 678.53 140.458 679.556 141.088C678.584 141.61 678.026 142.51 678.026 143.734C678.026 144.832 678.458 145.768 679.466 146.416L678.26 146.416L678.26 147.982L687.26 147.982L687.26 146.416L682.256 146.416C680.312 146.416 679.52 145.318 679.52 144.112C679.52 142.942 680.294 142.204 681.716 142.204L687.26 142.204L687.26 140.638L682.256 140.638C680.312 140.638 679.52 139.684 679.52 138.424C679.52 137.236 680.294 136.444 681.716 136.444L687.26 136.444L687.26 134.878L681.662 134.878C679.412 134.878 678.026 136.264 678.026 138.262ZM683.48 131.609L683.48 124.067C683.246 124.031 683.012 124.013 682.778 124.013C680.258 124.013 678.026 125.777 678.026 128.495C678.026 131.303 680.096 133.211 682.76 133.211C685.46 133.211 687.494 131.285 687.494 128.387C687.494 126.587 686.684 125.219 685.46 124.427L684.704 125.759C685.442 126.209 686.018 127.109 686.018 128.351C686.018 130.025 685.1 131.303 683.48 131.609ZM679.502 128.495C679.502 127.145 680.33 125.867 682.112 125.597L682.112 131.609C680.546 131.357 679.502 130.187 679.502 128.495ZM680.69 121.214C679.88 121.214 679.484 120.422 679.484 119.612C679.484 118.82 679.826 118.028 680.636 117.686L679.898 116.372C678.728 116.948 678.026 118.136 678.026 119.612C678.026 121.43 679.124 122.798 680.708 122.798C683.966 122.798 682.868 117.758 684.794 117.758C685.676 117.758 686.018 118.586 686.018 119.54C686.018 120.656 685.478 121.484 684.614 121.772L685.388 123.122C686.63 122.6 687.494 121.34 687.494 119.54C687.494 117.614 686.468 116.174 684.794 116.174C681.482 116.174 682.616 121.214 680.69 121.214Z" fill="#20356F"/>
<path d="M687.26 731.014L687.26 729.232L674.66 733.93L674.66 735.82L687.26 740.518L687.26 738.736L684.434 737.71L684.434 732.04L687.26 731.014ZM682.868 737.134L676.658 734.884L682.868 732.616L682.868 737.134ZM678.26 721.959L685.586 724.785L678.26 727.611L678.26 729.303L687.26 725.703L687.26 723.867L678.26 720.267L678.26 721.959ZM687.458 719.588C687.458 718.922 686.936 718.418 686.288 718.418C685.64 718.418 685.118 718.922 685.118 719.588C685.118 720.236 685.64 720.758 686.288 720.758C686.936 720.758 687.458 720.236 687.458 719.588ZM681.014 699.389L681.014 705.689L682.526 705.689L682.526 701.063C684.416 701.387 685.856 702.935 685.856 705.545C685.856 708.551 683.696 710.549 680.96 710.549C678.206 710.549 676.046 708.533 676.046 705.617C676.046 703.835 676.964 702.305 678.314 701.585L677.468 700.145C675.668 701.189 674.426 703.241 674.426 705.599C674.426 709.433 677.342 712.205 680.96 712.205C684.56 712.205 687.494 709.451 687.494 705.563C687.494 701.765 684.974 699.389 681.77 699.389L681.014 699.389ZM687.494 693.285C687.494 690.657 685.424 688.533 682.76 688.533C680.096 688.533 678.026 690.657 678.026 693.285C678.026 695.913 680.096 698.019 682.76 698.019C685.424 698.019 687.494 695.913 687.494 693.285ZM685.964 693.285C685.964 695.067 684.578 696.453 682.76 696.453C680.942 696.453 679.556 695.067 679.556 693.285C679.556 691.485 680.942 690.099 682.76 690.099C684.578 690.099 685.964 691.485 685.964 693.285ZM678.026 676.967C678.026 678.137 678.53 679.163 679.556 679.793C678.584 680.315 678.026 681.215 678.026 682.439C678.026 683.537 678.458 684.473 679.466 685.121L678.26 685.121L678.26 686.687L687.26 686.687L687.26 685.121L682.256 685.121C680.312 685.121 679.52 684.023 679.52 682.817C679.52 681.647 680.294 680.909 681.716 680.909L687.26 680.909L687.26 679.343L682.256 679.343C680.312 679.343 679.52 678.389 679.52 677.129C679.52 675.941 680.294 675.149 681.716 675.149L687.26 675.149L687.26 673.583L681.662 673.583C679.412 673.583 678.026 674.969 678.026 676.967ZM683.48 670.314L683.48 662.772C683.246 662.736 683.012 662.718 682.778 662.718C680.258 662.718 678.026 664.482 678.026 667.2C678.026 670.008 680.096 671.916 682.76 671.916C685.46 671.916 687.494 669.99 687.494 667.092C687.494 665.292 686.684 663.924 685.46 663.132L684.704 664.464C685.442 664.914 686.018 665.814 686.018 667.056C686.018 668.73 685.1 670.008 683.48 670.314ZM679.502 667.2C679.502 665.85 680.33 664.572 682.112 664.302L682.112 670.314C680.546 670.062 679.502 668.892 679.502 667.2ZM680.69 659.919C679.88 659.919 679.484 659.127 679.484 658.317C679.484 657.525 679.826 656.733 680.636 656.391L679.898 655.077C678.728 655.653 678.026 656.841 678.026 658.317C678.026 660.135 679.124 661.503 680.708 661.503C683.966 661.503 682.868 656.463 684.794 656.463C685.676 656.463 686.018 657.291 686.018 658.245C686.018 659.361 685.478 660.189 684.614 660.477L685.388 661.827C686.63 661.305 687.494 660.045 687.494 658.245C687.494 656.319 686.468 654.879 684.794 654.879C681.482 654.879 682.616 659.919 680.69 659.919Z" fill="#20356F"/>
<path d="M687.26 1377.04L687.26 1375.26L674.66 1379.96L674.66 1381.85L687.26 1386.55L687.26 1384.76L684.434 1383.74L684.434 1378.07L687.26 1377.04ZM682.868 1383.16L676.658 1380.91L682.868 1378.64L682.868 1383.16ZM678.26 1367.99L685.586 1370.81L678.26 1373.64L678.26 1375.33L687.26 1371.73L687.26 1369.89L678.26 1366.29L678.26 1367.99ZM687.458 1365.61C687.458 1364.95 686.936 1364.44 686.288 1364.44C685.64 1364.44 685.118 1364.95 685.118 1365.61C685.118 1366.26 685.64 1366.78 686.288 1366.78C686.936 1366.78 687.458 1366.26 687.458 1365.61ZM681.014 1345.42L681.014 1351.72L682.526 1351.72L682.526 1347.09C684.416 1347.41 685.856 1348.96 685.856 1351.57C685.856 1354.58 683.696 1356.58 680.96 1356.58C678.206 1356.58 676.046 1354.56 676.046 1351.64C676.046 1349.86 676.964 1348.33 678.314 1347.61L677.468 1346.17C675.668 1347.22 674.426 1349.27 674.426 1351.63C674.426 1355.46 677.342 1358.23 680.96 1358.23C684.56 1358.23 687.494 1355.48 687.494 1351.59C687.494 1347.79 684.974 1345.42 681.77 1345.42L681.014 1345.42ZM687.494 1339.31C687.494 1336.68 685.424 1334.56 682.76 1334.56C680.096 1334.56 678.026 1336.68 678.026 1339.31C678.026 1341.94 680.096 1344.05 682.76 1344.05C685.424 1344.05 687.494 1341.94 687.494 1339.31ZM685.964 1339.31C685.964 1341.09 684.578 1342.48 682.76 1342.48C680.942 1342.48 679.556 1341.09 679.556 1339.31C679.556 1337.51 680.942 1336.13 682.76 1336.13C684.578 1336.13 685.964 1337.51 685.964 1339.31ZM678.026 1322.99C678.026 1324.16 678.53 1325.19 679.556 1325.82C678.584 1326.34 678.026 1327.24 678.026 1328.47C678.026 1329.56 678.458 1330.5 679.466 1331.15L678.26 1331.15L678.26 1332.71L687.26 1332.71L687.26 1331.15L682.256 1331.15C680.312 1331.15 679.52 1330.05 679.52 1328.84C679.52 1327.67 680.294 1326.94 681.716 1326.94L687.26 1326.94L687.26 1325.37L682.256 1325.37C680.312 1325.37 679.52 1324.42 679.52 1323.16C679.52 1321.97 680.294 1321.18 681.716 1321.18L687.26 1321.18L687.26 1319.61L681.662 1319.61C679.412 1319.61 678.026 1321 678.026 1322.99ZM683.48 1316.34L683.48 1308.8C683.246 1308.76 683.012 1308.74 682.778 1308.74C680.258 1308.74 678.026 1310.51 678.026 1313.23C678.026 1316.03 680.096 1317.94 682.76 1317.94C685.46 1317.94 687.494 1316.02 687.494 1313.12C687.494 1311.32 686.684 1309.95 685.46 1309.16L684.704 1310.49C685.442 1310.94 686.018 1311.84 686.018 1313.08C686.018 1314.76 685.1 1316.03 683.48 1316.34ZM679.502 1313.23C679.502 1311.88 680.33 1310.6 682.112 1310.33L682.112 1316.34C680.546 1316.09 679.502 1314.92 679.502 1313.23ZM680.69 1305.95C679.88 1305.95 679.484 1305.15 679.484 1304.34C679.484 1303.55 679.826 1302.76 680.636 1302.42L679.898 1301.1C678.728 1301.68 678.026 1302.87 678.026 1304.34C678.026 1306.16 679.124 1307.53 680.708 1307.53C683.966 1307.53 682.868 1302.49 684.794 1302.49C685.676 1302.49 686.018 1303.32 686.018 1304.27C686.018 1305.39 685.478 1306.22 684.614 1306.5L685.388 1307.85C686.63 1307.33 687.494 1306.07 687.494 1304.27C687.494 1302.35 686.468 1300.91 684.794 1300.91C681.482 1300.91 682.616 1305.95 680.69 1305.95Z" fill="#20356F"/>
<path d="M687.26 1054.47L687.26 1052.69L674.66 1057.39L674.66 1059.28L687.26 1063.98L687.26 1062.19L684.434 1061.17L684.434 1055.5L687.26 1054.47ZM682.868 1060.59L676.658 1058.34L682.868 1056.07L682.868 1060.59ZM678.26 1045.42L685.586 1048.24L678.26 1051.07L678.26 1052.76L687.26 1049.16L687.26 1047.32L678.26 1043.72L678.26 1045.42ZM687.458 1043.04C687.458 1042.38 686.936 1041.87 686.288 1041.87C685.64 1041.87 685.118 1042.38 685.118 1043.04C685.118 1043.69 685.64 1044.21 686.288 1044.21C686.936 1044.21 687.458 1043.69 687.458 1043.04ZM681.014 1022.85L681.014 1029.15L682.526 1029.15L682.526 1024.52C684.416 1024.84 685.856 1026.39 685.856 1029C685.856 1032.01 683.696 1034.01 680.96 1034.01C678.206 1034.01 676.046 1031.99 676.046 1029.07C676.046 1027.29 676.964 1025.76 678.314 1025.04L677.468 1023.6C675.668 1024.65 674.426 1026.7 674.426 1029.06C674.426 1032.89 677.342 1035.66 680.96 1035.66C684.56 1035.66 687.494 1032.91 687.494 1029.02C687.494 1025.22 684.974 1022.85 681.77 1022.85L681.014 1022.85ZM687.494 1016.74C687.494 1014.11 685.424 1011.99 682.76 1011.99C680.096 1011.99 678.026 1014.11 678.026 1016.74C678.026 1019.37 680.096 1021.48 682.76 1021.48C685.424 1021.48 687.494 1019.37 687.494 1016.74ZM685.964 1016.74C685.964 1018.52 684.578 1019.91 682.76 1019.91C680.942 1019.91 679.556 1018.52 679.556 1016.74C679.556 1014.94 680.942 1013.56 682.76 1013.56C684.578 1013.56 685.964 1014.94 685.964 1016.74ZM678.026 1000.42C678.026 1001.59 678.53 1002.62 679.556 1003.25C678.584 1003.77 678.026 1004.67 678.026 1005.9C678.026 1006.99 678.458 1007.93 679.466 1008.58L678.26 1008.58L678.26 1010.14L687.26 1010.14L687.26 1008.58L682.256 1008.58C680.312 1008.58 679.52 1007.48 679.52 1006.27C679.52 1005.1 680.294 1004.37 681.716 1004.37L687.26 1004.37L687.26 1002.8L682.256 1002.8C680.312 1002.8 679.52 1001.85 679.52 1000.59C679.52 999.398 680.294 998.606 681.716 998.606L687.26 998.606L687.26 997.04L681.662 997.04C679.412 997.04 678.026 998.426 678.026 1000.42ZM683.48 993.771L683.48 986.229C683.246 986.193 683.012 986.175 682.778 986.175C680.258 986.175 678.026 987.939 678.026 990.657C678.026 993.465 680.096 995.373 682.76 995.373C685.46 995.373 687.494 993.447 687.494 990.549C687.494 988.749 686.684 987.381 685.46 986.589L684.704 987.921C685.442 988.371 686.018 989.271 686.018 990.513C686.018 992.187 685.1 993.465 683.48 993.771ZM679.502 990.657C679.502 989.307 680.33 988.029 682.112 987.759L682.112 993.771C680.546 993.519 679.502 992.349 679.502 990.657ZM680.69 983.376C679.88 983.376 679.484 982.584 679.484 981.774C679.484 980.982 679.826 980.19 680.636 979.848L679.898 978.534C678.728 979.11 678.026 980.298 678.026 981.774C678.026 983.592 679.124 984.96 680.708 984.96C683.966 984.96 682.868 979.92 684.794 979.92C685.676 979.92 686.018 980.748 686.018 981.702C686.018 982.818 685.478 983.646 684.614 983.934L685.388 985.284C686.63 984.762 687.494 983.502 687.494 981.702C687.494 979.776 686.468 978.336 684.794 978.336C681.482 978.336 682.616 983.376 680.69 983.376Z" fill="#20356F"/>
<path d="M788.797 186.68H790.651L787.681 181.64C789.193 181.1 790.291 179.642 790.291 177.986C790.291 175.826 788.527 174.08 786.367 174.08H781.327V186.68H783.001V181.856H785.971L788.797 186.68ZM783.001 175.646H786.367C787.609 175.646 788.617 176.69 788.617 177.986C788.617 179.282 787.609 180.344 786.367 180.344H783.001V175.646ZM798.185 177.68V182.45C798.185 184.574 797.015 185.42 795.575 185.42C794.189 185.42 793.343 184.592 793.343 183.116V177.68H791.777V183.206C791.777 185.51 793.163 186.914 795.269 186.914C796.529 186.914 797.519 186.446 798.185 185.384V186.68H799.751V177.68H798.185ZM809.587 177.68V179.228C808.867 178.13 807.715 177.446 806.185 177.446C803.683 177.446 801.631 179.516 801.631 182.18C801.631 184.844 803.683 186.914 806.185 186.914C807.715 186.914 808.867 186.23 809.587 185.132V186.68H811.153V177.68H809.587ZM806.383 185.402C804.583 185.402 803.197 184.016 803.197 182.18C803.197 180.344 804.583 178.958 806.383 178.958C808.201 178.958 809.587 180.344 809.587 182.18C809.587 184.016 808.201 185.402 806.383 185.402ZM822.526 179.246L825.262 175.556V174.08H817.702V175.646H823.3L820.384 179.588L821.05 180.614H821.482C822.994 180.614 824.128 181.442 824.128 182.954C824.128 184.448 822.994 185.276 821.482 185.276C820.114 185.276 819.124 184.7 818.746 183.53L817.342 184.358C817.99 186.05 819.628 186.914 821.482 186.914C823.75 186.914 825.802 185.51 825.802 182.954C825.802 180.866 824.344 179.588 822.526 179.246Z" fill="#20356F"/>
<path d="M545.558 109.953H547.412L544.442 104.913C545.954 104.373 547.052 102.915 547.052 101.259C547.052 99.0991 545.288 97.3531 543.128 97.3531H538.088V109.953H539.762V105.129H542.732L545.558 109.953ZM539.762 98.9191H543.128C544.37 98.9191 545.378 99.9631 545.378 101.259C545.378 102.555 544.37 103.617 543.128 103.617H539.762V98.9191ZM554.947 100.953V105.723C554.947 107.847 553.777 108.693 552.337 108.693C550.951 108.693 550.105 107.865 550.105 106.389V100.953H548.539V106.479C548.539 108.783 549.925 110.187 552.031 110.187C553.291 110.187 554.281 109.719 554.947 108.657V109.953H556.513V100.953H554.947ZM566.349 100.953V102.501C565.629 101.403 564.477 100.719 562.947 100.719C560.445 100.719 558.393 102.789 558.393 105.453C558.393 108.117 560.445 110.187 562.947 110.187C564.477 110.187 565.629 109.503 566.349 108.405V109.953H567.915V100.953H566.349ZM563.145 108.675C561.345 108.675 559.959 107.289 559.959 105.453C559.959 103.617 561.345 102.231 563.145 102.231C564.963 102.231 566.349 103.617 566.349 105.453C566.349 107.289 564.963 108.675 563.145 108.675ZM577.164 97.3531L573.852 98.5051L574.266 99.9451L576.948 99.1531V109.953H578.604V97.3531H577.164ZM585.686 110.187C588.818 110.187 590.546 107.541 590.546 103.653C590.546 99.7651 588.818 97.1191 585.686 97.1191C582.572 97.1191 580.826 99.7651 580.826 103.653C580.826 107.541 582.572 110.187 585.686 110.187ZM585.686 108.549C583.652 108.549 582.5 106.785 582.5 103.653C582.5 100.521 583.652 98.7391 585.686 98.7391C587.72 98.7391 588.89 100.521 588.89 103.653C588.89 106.785 587.72 108.549 585.686 108.549Z" fill="#20356F"/>
<path d="M745.779 328.172H747.633L744.663 323.132C746.175 322.592 747.273 321.134 747.273 319.478C747.273 317.318 745.509 315.572 743.349 315.572H738.309V328.172H739.983V323.348H742.953L745.779 328.172ZM739.983 317.138H743.349C744.591 317.138 745.599 318.182 745.599 319.478C745.599 320.774 744.591 321.836 743.349 321.836H739.983V317.138ZM755.168 319.172V323.942C755.168 326.066 753.998 326.912 752.558 326.912C751.172 326.912 750.326 326.084 750.326 324.608V319.172H748.76V324.698C748.76 327.002 750.146 328.406 752.252 328.406C753.512 328.406 754.502 327.938 755.168 326.876V328.172H756.734V319.172H755.168ZM766.57 319.172V320.72C765.85 319.622 764.698 318.938 763.168 318.938C760.666 318.938 758.614 321.008 758.614 323.672C758.614 326.336 760.666 328.406 763.168 328.406C764.698 328.406 765.85 327.722 766.57 326.624V328.172H768.136V319.172H766.57ZM763.366 326.894C761.566 326.894 760.18 325.508 760.18 323.672C760.18 321.836 761.566 320.45 763.366 320.45C765.184 320.45 766.57 321.836 766.57 323.672C766.57 325.508 765.184 326.894 763.366 326.894ZM783.882 324.212H782.352V320.648H780.678V324.212H776.052L780.57 315.572H778.77L774.252 324.212V325.778H780.678V328.172H782.352V325.778H783.882V324.212Z" fill="#20356F"/>
<path d="M933.494 459.024L933.494 457.242L920.894 461.94L920.894 463.83L933.494 468.528L933.494 466.746L930.668 465.72L930.668 460.05L933.494 459.024ZM929.102 465.144L922.892 462.894L929.102 460.626L929.102 465.144ZM924.494 449.969L931.82 452.795L924.494 455.621L924.494 457.313L933.494 453.713L933.494 451.877L924.494 448.277L924.494 449.969ZM933.692 447.597C933.692 446.931 933.17 446.427 932.522 446.427C931.874 446.427 931.352 446.931 931.352 447.597C931.352 448.245 931.874 448.767 932.522 448.767C933.17 448.767 933.692 448.245 933.692 447.597ZM920.894 431.718L930.29 431.718L920.894 438.198L920.894 439.548L933.494 439.548L933.494 437.874L924.08 437.874L933.494 431.394L933.494 430.044L920.894 430.044L920.894 431.718ZM922.856 426.719C922.856 426.143 922.388 425.675 921.812 425.675C921.236 425.675 920.75 426.143 920.75 426.719C920.75 427.313 921.236 427.781 921.812 427.781C922.388 427.781 922.856 427.313 922.856 426.719ZM933.494 427.511L933.494 425.945L924.494 425.945L924.494 427.511L933.494 427.511ZM933.494 415.942L928.85 420.388L924.494 416.086L924.494 418.102L928.472 421.99L920.894 421.99L920.894 423.556L933.494 423.556L933.494 421.99L929.228 421.99L933.494 417.886L933.494 415.942ZM929.714 414.214L929.714 406.672C929.48 406.636 929.246 406.618 929.012 406.618C926.492 406.618 924.26 408.382 924.26 411.1C924.26 413.908 926.33 415.816 928.994 415.816C931.694 415.816 933.728 413.89 933.728 410.992C933.728 409.192 932.918 407.824 931.694 407.032L930.938 408.364C931.676 408.814 932.252 409.714 932.252 410.956C932.252 412.63 931.334 413.908 929.714 414.214ZM925.736 411.1C925.736 409.75 926.564 408.472 928.346 408.202L928.346 414.214C926.78 413.962 925.736 412.792 925.736 411.1Z" fill="#20356F"/>
<path d="M933.494 1031.49L933.494 1029.71L920.894 1034.41L920.894 1036.3L933.494 1041L933.494 1039.21L930.668 1038.19L930.668 1032.52L933.494 1031.49ZM929.102 1037.61L922.892 1035.36L929.102 1033.09L929.102 1037.61ZM924.494 1022.44L931.82 1025.26L924.494 1028.09L924.494 1029.78L933.494 1026.18L933.494 1024.35L924.494 1020.75L924.494 1022.44ZM933.692 1020.07C933.692 1019.4 933.17 1018.9 932.522 1018.9C931.874 1018.9 931.352 1019.4 931.352 1020.07C931.352 1020.71 931.874 1021.24 932.522 1021.24C933.17 1021.24 933.692 1020.71 933.692 1020.07ZM920.894 1004.19L930.29 1004.19L920.894 1010.67L920.894 1012.02L933.494 1012.02L933.494 1010.34L924.08 1010.34L933.494 1003.86L933.494 1002.51L920.894 1002.51L920.894 1004.19ZM922.856 999.188C922.856 998.612 922.388 998.144 921.812 998.144C921.236 998.144 920.75 998.612 920.75 999.188C920.75 999.782 921.236 1000.25 921.812 1000.25C922.388 1000.25 922.856 999.782 922.856 999.188ZM933.494 999.98L933.494 998.414L924.494 998.414L924.494 999.98L933.494 999.98ZM933.494 988.411L928.85 992.857L924.494 988.555L924.494 990.571L928.472 994.459L920.894 994.459L920.894 996.025L933.494 996.025L933.494 994.459L929.228 994.459L933.494 990.355L933.494 988.411ZM929.714 986.683L929.714 979.141C929.48 979.105 929.246 979.087 929.012 979.087C926.492 979.087 924.26 980.851 924.26 983.569C924.26 986.377 926.33 988.285 928.994 988.285C931.694 988.285 933.728 986.359 933.728 983.461C933.728 981.661 932.918 980.293 931.694 979.501L930.938 980.833C931.676 981.283 932.252 982.183 932.252 983.425C932.252 985.099 931.334 986.377 929.714 986.683ZM925.736 983.569C925.736 982.219 926.564 980.941 928.346 980.671L928.346 986.683C926.78 986.431 925.736 985.261 925.736 983.569Z" fill="#20356F"/>
<path d="M788.797 539.715H790.651L787.681 534.675C789.193 534.135 790.291 532.677 790.291 531.021C790.291 528.861 788.527 527.115 786.367 527.115H781.327V539.715H783.001V534.891H785.971L788.797 539.715ZM783.001 528.681H786.367C787.609 528.681 788.617 529.725 788.617 531.021C788.617 532.317 787.609 533.379 786.367 533.379H783.001V528.681ZM798.185 530.715V535.485C798.185 537.609 797.015 538.455 795.575 538.455C794.189 538.455 793.343 537.627 793.343 536.151V530.715H791.777V536.241C791.777 538.545 793.163 539.949 795.269 539.949C796.529 539.949 797.519 539.481 798.185 538.419V539.715H799.751V530.715H798.185ZM809.587 530.715V532.263C808.867 531.165 807.715 530.481 806.185 530.481C803.683 530.481 801.631 532.551 801.631 535.215C801.631 537.879 803.683 539.949 806.185 539.949C807.715 539.949 808.867 539.265 809.587 538.167V539.715H811.153V530.715H809.587ZM806.383 538.437C804.583 538.437 803.197 537.051 803.197 535.215C803.197 533.379 804.583 531.993 806.383 531.993C808.201 531.993 809.587 533.379 809.587 535.215C809.587 537.051 808.201 538.437 806.383 538.437ZM821.698 532.029H819.862L820.078 528.681H825.46V527.115H818.566L818.098 533.649H821.662C823.156 533.649 824.29 534.477 824.29 535.989C824.29 537.483 823.156 538.311 821.626 538.311C820.258 538.311 819.232 537.681 818.89 536.439L817.468 537.249C818.08 539.049 819.772 539.949 821.626 539.949C823.894 539.949 825.946 538.545 825.946 535.989C825.946 533.415 823.948 532.029 821.698 532.029Z" fill="#20356F"/>
<path d="M788.797 859.643H790.651L787.681 854.603C789.193 854.063 790.291 852.605 790.291 850.949C790.291 848.789 788.527 847.043 786.367 847.043H781.327V859.643H783.001V854.819H785.971L788.797 859.643ZM783.001 848.609H786.367C787.609 848.609 788.617 849.653 788.617 850.949C788.617 852.245 787.609 853.307 786.367 853.307H783.001V848.609ZM798.185 850.643V855.413C798.185 857.537 797.015 858.383 795.575 858.383C794.189 858.383 793.343 857.555 793.343 856.079V850.643H791.777V856.169C791.777 858.473 793.163 859.877 795.269 859.877C796.529 859.877 797.519 859.409 798.185 858.347V859.643H799.751V850.643H798.185ZM809.587 850.643V852.191C808.867 851.093 807.715 850.409 806.185 850.409C803.683 850.409 801.631 852.479 801.631 855.143C801.631 857.807 803.683 859.877 806.185 859.877C807.715 859.877 808.867 859.193 809.587 858.095V859.643H811.153V850.643H809.587ZM806.383 858.365C804.583 858.365 803.197 856.979 803.197 855.143C803.197 853.307 804.583 851.921 806.383 851.921C808.201 851.921 809.587 853.307 809.587 855.143C809.587 856.979 808.201 858.365 806.383 858.365ZM821.68 851.399C821.482 851.399 821.284 851.417 821.086 851.435L824.056 847.043H822.148L818.098 853.109C817.612 853.793 817.342 854.657 817.342 855.629C817.342 858.131 819.142 859.877 821.68 859.877C824.2 859.877 826.018 858.131 826.018 855.629C826.018 853.127 824.2 851.399 821.68 851.399ZM821.68 858.275C820.096 858.275 818.998 857.231 818.998 855.629C818.998 854.027 820.096 853.001 821.68 853.001C823.246 853.001 824.362 854.045 824.362 855.629C824.362 857.231 823.246 858.275 821.68 858.275Z" fill="#20356F"/>
<path d="M1006.13 859.643H1007.98L1005.01 854.603C1006.53 854.063 1007.62 852.605 1007.62 850.949C1007.62 848.789 1005.86 847.043 1003.7 847.043H998.661V859.643H1000.33V854.819H1003.3L1006.13 859.643ZM1000.33 848.609H1003.7C1004.94 848.609 1005.95 849.653 1005.95 850.949C1005.95 852.245 1004.94 853.307 1003.7 853.307H1000.33V848.609ZM1015.52 850.643V855.413C1015.52 857.537 1014.35 858.383 1012.91 858.383C1011.52 858.383 1010.68 857.555 1010.68 856.079V850.643H1009.11V856.169C1009.11 858.473 1010.5 859.877 1012.6 859.877C1013.86 859.877 1014.85 859.409 1015.52 858.347V859.643H1017.09V850.643H1015.52ZM1026.92 850.643V852.191C1026.2 851.093 1025.05 850.409 1023.52 850.409C1021.02 850.409 1018.97 852.479 1018.97 855.143C1018.97 857.807 1021.02 859.877 1023.52 859.877C1025.05 859.877 1026.2 859.193 1026.92 858.095V859.643H1028.49V850.643H1026.92ZM1023.72 858.365C1021.92 858.365 1020.53 856.979 1020.53 855.143C1020.53 853.307 1021.92 851.921 1023.72 851.921C1025.54 851.921 1026.92 853.307 1026.92 855.143C1026.92 856.979 1025.54 858.365 1023.72 858.365ZM1039.01 851.399C1038.82 851.399 1038.62 851.417 1038.42 851.435L1041.39 847.043H1039.48L1035.43 853.109C1034.95 853.793 1034.68 854.657 1034.68 855.629C1034.68 858.131 1036.48 859.877 1039.01 859.877C1041.53 859.877 1043.35 858.131 1043.35 855.629C1043.35 853.127 1041.53 851.399 1039.01 851.399ZM1039.01 858.275C1037.43 858.275 1036.33 857.231 1036.33 855.629C1036.33 854.027 1037.43 853.001 1039.01 853.001C1040.58 853.001 1041.7 854.045 1041.7 855.629C1041.7 857.231 1040.58 858.275 1039.01 858.275Z" fill="#20356F"/>
<path d="M1006.13 700.982H1007.98L1005.01 695.942C1006.53 695.402 1007.62 693.944 1007.62 692.288C1007.62 690.128 1005.86 688.382 1003.7 688.382H998.661V700.982H1000.33V696.158H1003.3L1006.13 700.982ZM1000.33 689.948H1003.7C1004.94 689.948 1005.95 690.992 1005.95 692.288C1005.95 693.584 1004.94 694.646 1003.7 694.646H1000.33V689.948ZM1015.52 691.982V696.752C1015.52 698.876 1014.35 699.722 1012.91 699.722C1011.52 699.722 1010.68 698.894 1010.68 697.418V691.982H1009.11V697.508C1009.11 699.812 1010.5 701.216 1012.6 701.216C1013.86 701.216 1014.85 700.748 1015.52 699.686V700.982H1017.09V691.982H1015.52ZM1026.92 691.982V693.53C1026.2 692.432 1025.05 691.748 1023.52 691.748C1021.02 691.748 1018.97 693.818 1018.97 696.482C1018.97 699.146 1021.02 701.216 1023.52 701.216C1025.05 701.216 1026.2 700.532 1026.92 699.434V700.982H1028.49V691.982H1026.92ZM1023.72 699.704C1021.92 699.704 1020.53 698.318 1020.53 696.482C1020.53 694.646 1021.92 693.26 1023.72 693.26C1025.54 693.26 1026.92 694.646 1026.92 696.482C1026.92 698.318 1025.54 699.704 1023.72 699.704ZM1037.74 688.382L1034.42 689.534L1034.84 690.974L1037.52 690.182V700.982H1039.18V688.382H1037.74ZM1045.45 693.296H1043.61L1043.83 689.948H1049.21V688.382H1042.32L1041.85 694.916H1045.41C1046.91 694.916 1048.04 695.744 1048.04 697.256C1048.04 698.75 1046.91 699.578 1045.38 699.578C1044.01 699.578 1042.98 698.948 1042.64 697.706L1041.22 698.516C1041.83 700.316 1043.52 701.216 1045.38 701.216C1047.64 701.216 1049.7 699.812 1049.7 697.256C1049.7 694.682 1047.7 693.296 1045.45 693.296Z" fill="#20356F"/>
<path d="M572.843 859.643H574.697L571.727 854.603C573.239 854.063 574.337 852.605 574.337 850.949C574.337 848.789 572.573 847.043 570.413 847.043H565.373V859.643H567.047V854.819H570.017L572.843 859.643ZM567.047 848.609H570.413C571.655 848.609 572.663 849.653 572.663 850.949C572.663 852.245 571.655 853.307 570.413 853.307H567.047V848.609ZM582.232 850.643V855.413C582.232 857.537 581.062 858.383 579.622 858.383C578.236 858.383 577.39 857.555 577.39 856.079V850.643H575.824V856.169C575.824 858.473 577.21 859.877 579.316 859.877C580.576 859.877 581.566 859.409 582.232 858.347V859.643H583.798V850.643H582.232ZM593.634 850.643V852.191C592.914 851.093 591.762 850.409 590.232 850.409C587.73 850.409 585.678 852.479 585.678 855.143C585.678 857.807 587.73 859.877 590.232 859.877C591.762 859.877 592.914 859.193 593.634 858.095V859.643H595.2V850.643H593.634ZM590.43 858.365C588.63 858.365 587.244 856.979 587.244 855.143C587.244 853.307 588.63 851.921 590.43 851.921C592.248 851.921 593.634 853.307 593.634 855.143C593.634 856.979 592.248 858.365 590.43 858.365ZM605.727 851.399C605.529 851.399 605.331 851.417 605.133 851.435L608.103 847.043H606.195L602.145 853.109C601.659 853.793 601.389 854.657 601.389 855.629C601.389 858.131 603.189 859.877 605.727 859.877C608.247 859.877 610.065 858.131 610.065 855.629C610.065 853.127 608.247 851.399 605.727 851.399ZM605.727 858.275C604.143 858.275 603.045 857.231 603.045 855.629C603.045 854.027 604.143 853.001 605.727 853.001C607.293 853.001 608.409 854.045 608.409 855.629C608.409 857.231 607.293 858.275 605.727 858.275Z" fill="#20356F"/>
<path d="M788.797 970.613H790.651L787.681 965.573C789.193 965.033 790.291 963.575 790.291 961.919C790.291 959.759 788.527 958.013 786.367 958.013H781.327V970.613H783.001V965.789H785.971L788.797 970.613ZM783.001 959.579H786.367C787.609 959.579 788.617 960.623 788.617 961.919C788.617 963.215 787.609 964.277 786.367 964.277H783.001V959.579ZM798.185 961.613V966.383C798.185 968.507 797.015 969.353 795.575 969.353C794.189 969.353 793.343 968.525 793.343 967.049V961.613H791.777V967.139C791.777 969.443 793.163 970.847 795.269 970.847C796.529 970.847 797.519 970.379 798.185 969.317V970.613H799.751V961.613H798.185ZM809.587 961.613V963.161C808.867 962.063 807.715 961.379 806.185 961.379C803.683 961.379 801.631 963.449 801.631 966.113C801.631 968.777 803.683 970.847 806.185 970.847C807.715 970.847 808.867 970.163 809.587 969.065V970.613H811.153V961.613H809.587ZM806.383 969.335C804.583 969.335 803.197 967.949 803.197 966.113C803.197 964.277 804.583 962.891 806.383 962.891C808.201 962.891 809.587 964.277 809.587 966.113C809.587 967.949 808.201 969.335 806.383 969.335ZM817.162 958.013V959.597H823.246L818.692 970.613H820.438L825.028 959.507V958.013H817.162Z" fill="#20356F"/>
<path d="M788.797 1084.2H790.651L787.681 1079.16C789.193 1078.62 790.291 1077.16 790.291 1075.51C790.291 1073.35 788.527 1071.6 786.367 1071.6H781.327V1084.2H783.001V1079.38H785.971L788.797 1084.2ZM783.001 1073.17H786.367C787.609 1073.17 788.617 1074.21 788.617 1075.51C788.617 1076.8 787.609 1077.86 786.367 1077.86H783.001V1073.17ZM798.185 1075.2V1079.97C798.185 1082.09 797.015 1082.94 795.575 1082.94C794.189 1082.94 793.343 1082.11 793.343 1080.64V1075.2H791.777V1080.73C791.777 1083.03 793.163 1084.43 795.269 1084.43C796.529 1084.43 797.519 1083.97 798.185 1082.9V1084.2H799.751V1075.2H798.185ZM809.587 1075.2V1076.75C808.867 1075.65 807.715 1074.97 806.185 1074.97C803.683 1074.97 801.631 1077.04 801.631 1079.7C801.631 1082.36 803.683 1084.43 806.185 1084.43C807.715 1084.43 808.867 1083.75 809.587 1082.65V1084.2H811.153V1075.2H809.587ZM806.383 1082.92C804.583 1082.92 803.197 1081.54 803.197 1079.7C803.197 1077.86 804.583 1076.48 806.383 1076.48C808.201 1076.48 809.587 1077.86 809.587 1079.7C809.587 1081.54 808.201 1082.92 806.383 1082.92ZM824.182 1077.68C825.1 1077.11 825.73 1076.17 825.73 1074.93C825.73 1072.52 823.822 1071.37 821.824 1071.37C819.844 1071.37 817.936 1072.52 817.936 1074.93C817.936 1076.17 818.566 1077.11 819.484 1077.68C818.278 1078.3 817.522 1079.38 817.522 1080.74C817.522 1083.1 819.376 1084.43 821.824 1084.43C824.29 1084.43 826.144 1083.1 826.144 1080.74C826.144 1079.38 825.388 1078.3 824.182 1077.68ZM821.824 1072.97C823.012 1072.97 824.056 1073.56 824.056 1074.97C824.056 1076.3 823.012 1076.98 821.824 1076.98C820.654 1076.98 819.592 1076.3 819.592 1074.97C819.592 1073.56 820.654 1072.97 821.824 1072.97ZM821.824 1082.83C820.294 1082.83 819.178 1082.09 819.178 1080.64C819.178 1079.2 820.294 1078.46 821.824 1078.46C823.372 1078.46 824.488 1079.2 824.488 1080.64C824.488 1082.09 823.372 1082.83 821.824 1082.83Z" fill="#20356F"/>
<path d="M550.363 1084.2H552.217L549.247 1079.16C550.759 1078.62 551.857 1077.16 551.857 1075.51C551.857 1073.35 550.093 1071.6 547.933 1071.6H542.893V1084.2H544.567V1079.38H547.537L550.363 1084.2ZM544.567 1073.17H547.933C549.175 1073.17 550.183 1074.21 550.183 1075.51C550.183 1076.8 549.175 1077.86 547.933 1077.86H544.567V1073.17ZM559.752 1075.2V1079.97C559.752 1082.09 558.582 1082.94 557.142 1082.94C555.756 1082.94 554.91 1082.11 554.91 1080.64V1075.2H553.344V1080.73C553.344 1083.03 554.73 1084.43 556.836 1084.43C558.096 1084.43 559.086 1083.97 559.752 1082.9V1084.2H561.318V1075.2H559.752ZM571.154 1075.2V1076.75C570.434 1075.65 569.282 1074.97 567.752 1074.97C565.25 1074.97 563.198 1077.04 563.198 1079.7C563.198 1082.36 565.25 1084.43 567.752 1084.43C569.282 1084.43 570.434 1083.75 571.154 1082.65V1084.2H572.72V1075.2H571.154ZM567.95 1082.92C566.15 1082.92 564.764 1081.54 564.764 1079.7C564.764 1077.86 566.15 1076.48 567.95 1076.48C569.768 1076.48 571.154 1077.86 571.154 1079.7C571.154 1081.54 569.768 1082.92 567.95 1082.92ZM585.748 1077.68C586.666 1077.11 587.296 1076.17 587.296 1074.93C587.296 1072.52 585.388 1071.37 583.39 1071.37C581.41 1071.37 579.502 1072.52 579.502 1074.93C579.502 1076.17 580.132 1077.11 581.05 1077.68C579.844 1078.3 579.088 1079.38 579.088 1080.74C579.088 1083.1 580.942 1084.43 583.39 1084.43C585.856 1084.43 587.71 1083.1 587.71 1080.74C587.71 1079.38 586.954 1078.3 585.748 1077.68ZM583.39 1072.97C584.578 1072.97 585.622 1073.56 585.622 1074.97C585.622 1076.3 584.578 1076.98 583.39 1076.98C582.22 1076.98 581.158 1076.3 581.158 1074.97C581.158 1073.56 582.22 1072.97 583.39 1072.97ZM583.39 1082.83C581.86 1082.83 580.744 1082.09 580.744 1080.64C580.744 1079.2 581.86 1078.46 583.39 1078.46C584.938 1078.46 586.054 1079.2 586.054 1080.64C586.054 1082.09 584.938 1082.83 583.39 1082.83Z" fill="#20356F"/>
<path d="M1006.13 1084.2H1007.98L1005.01 1079.16C1006.53 1078.62 1007.62 1077.16 1007.62 1075.51C1007.62 1073.35 1005.86 1071.6 1003.7 1071.6H998.661V1084.2H1000.33V1079.38H1003.3L1006.13 1084.2ZM1000.33 1073.17H1003.7C1004.94 1073.17 1005.95 1074.21 1005.95 1075.51C1005.95 1076.8 1004.94 1077.86 1003.7 1077.86H1000.33V1073.17ZM1015.52 1075.2V1079.97C1015.52 1082.09 1014.35 1082.94 1012.91 1082.94C1011.52 1082.94 1010.68 1082.11 1010.68 1080.64V1075.2H1009.11V1080.73C1009.11 1083.03 1010.5 1084.43 1012.6 1084.43C1013.86 1084.43 1014.85 1083.97 1015.52 1082.9V1084.2H1017.09V1075.2H1015.52ZM1026.92 1075.2V1076.75C1026.2 1075.65 1025.05 1074.97 1023.52 1074.97C1021.02 1074.97 1018.97 1077.04 1018.97 1079.7C1018.97 1082.36 1021.02 1084.43 1023.52 1084.43C1025.05 1084.43 1026.2 1083.75 1026.92 1082.65V1084.2H1028.49V1075.2H1026.92ZM1023.72 1082.92C1021.92 1082.92 1020.53 1081.54 1020.53 1079.7C1020.53 1077.86 1021.92 1076.48 1023.72 1076.48C1025.54 1076.48 1026.92 1077.86 1026.92 1079.7C1026.92 1081.54 1025.54 1082.92 1023.72 1082.92ZM1041.52 1077.68C1042.43 1077.11 1043.06 1076.17 1043.06 1074.93C1043.06 1072.52 1041.16 1071.37 1039.16 1071.37C1037.18 1071.37 1035.27 1072.52 1035.27 1074.93C1035.27 1076.17 1035.9 1077.11 1036.82 1077.68C1035.61 1078.3 1034.86 1079.38 1034.86 1080.74C1034.86 1083.1 1036.71 1084.43 1039.16 1084.43C1041.62 1084.43 1043.48 1083.1 1043.48 1080.74C1043.48 1079.38 1042.72 1078.3 1041.52 1077.68ZM1039.16 1072.97C1040.35 1072.97 1041.39 1073.56 1041.39 1074.97C1041.39 1076.3 1040.35 1076.98 1039.16 1076.98C1037.99 1076.98 1036.93 1076.3 1036.93 1074.97C1036.93 1073.56 1037.99 1072.97 1039.16 1072.97ZM1039.16 1082.83C1037.63 1082.83 1036.51 1082.09 1036.51 1080.64C1036.51 1079.2 1037.63 1078.46 1039.16 1078.46C1040.71 1078.46 1041.82 1079.2 1041.82 1080.64C1041.82 1082.09 1040.71 1082.83 1039.16 1082.83Z" fill="#20356F"/>
<path d="M754.243 1110.95L755.529 1112.19L760.859 1099.84L759.495 1098.53L747.383 1104.37L748.669 1105.61L751.366 1104.28L755.458 1108.2L754.243 1110.95ZM752.865 1103.55L758.788 1100.62L756.126 1106.67L752.865 1103.55ZM767.007 1110.72L759.897 1114.05L762.928 1106.81L761.707 1105.64L758.076 1114.63L759.401 1115.9L768.229 1111.89L767.007 1110.72ZM762.353 1119C762.833 1119.46 763.558 1119.44 764.007 1118.97C764.455 1118.5 764.453 1117.78 763.972 1117.31C763.505 1116.87 762.767 1116.88 762.318 1117.35C761.87 1117.82 761.885 1118.56 762.353 1119ZM781.392 1128.33L776.844 1123.97L775.798 1125.06L779.137 1128.27C777.595 1129.41 775.481 1129.37 773.597 1127.57C771.427 1125.49 771.48 1122.54 773.374 1120.57C775.28 1118.58 778.23 1118.42 780.335 1120.44C781.621 1121.67 782.09 1123.39 781.675 1124.86L783.3 1125.25C783.793 1123.23 783.171 1120.91 781.469 1119.28C778.702 1116.63 774.683 1116.81 772.179 1119.42C769.687 1122.02 769.644 1126.05 772.45 1128.74C775.191 1131.37 778.651 1131.19 780.868 1128.88L781.392 1128.33ZM781.312 1137.23C783.208 1139.05 786.174 1139.03 788.018 1137.11C789.862 1135.18 789.762 1132.22 787.865 1130.4C785.968 1128.58 783.015 1128.62 781.171 1130.54C779.328 1132.46 779.415 1135.42 781.312 1137.23ZM782.371 1136.13C781.084 1134.9 781.043 1132.94 782.302 1131.63C783.56 1130.31 785.52 1130.27 786.806 1131.51C788.105 1132.75 788.146 1134.71 786.888 1136.02C785.629 1137.34 783.67 1137.38 782.371 1136.13ZM799.643 1141.7C798.798 1140.89 797.709 1140.54 796.544 1140.84C796.84 1139.78 796.577 1138.76 795.693 1137.91C794.901 1137.15 793.926 1136.81 792.761 1137.09L793.595 1136.22L792.465 1135.14L786.236 1141.63L787.366 1142.72L790.83 1139.11C792.175 1137.7 793.516 1137.89 794.386 1138.73C795.231 1139.54 795.228 1140.6 794.243 1141.63L790.406 1145.63L791.536 1146.72L795 1143.1C796.345 1141.7 797.582 1141.79 798.492 1142.66C799.349 1143.48 799.385 1144.59 798.401 1145.62L794.563 1149.62L795.694 1150.7L799.568 1146.66C801.126 1145.04 801.085 1143.08 799.643 1141.7ZM800.67 1150.24L806.113 1155.46C806.301 1155.31 806.476 1155.16 806.638 1154.99C808.382 1153.17 808.654 1150.34 806.692 1148.46C804.665 1146.51 801.856 1146.69 800.012 1148.61C798.143 1150.56 798.125 1153.36 800.217 1155.36C801.516 1156.61 803.064 1156.97 804.483 1156.64L804.045 1155.17C803.209 1155.39 802.161 1155.18 801.264 1154.32C800.056 1153.17 799.769 1151.62 800.67 1150.24ZM805.671 1149.52C806.645 1150.46 806.994 1151.94 805.956 1153.41L801.616 1149.25C802.882 1148.29 804.449 1148.35 805.671 1149.52ZM822.182 1158.65L818.619 1162.36C818.86 1161.07 818.501 1159.78 817.397 1158.72C815.591 1156.99 812.678 1157.06 810.834 1158.99C808.99 1160.91 809.038 1163.82 810.844 1165.56C811.948 1166.62 813.253 1166.92 814.533 1166.62L813.461 1167.74L814.592 1168.83L823.313 1159.73L822.182 1158.65ZM812.033 1164.6C810.734 1163.36 810.693 1161.4 811.964 1160.07C813.235 1158.75 815.194 1158.71 816.494 1159.95C817.806 1161.21 817.847 1163.17 816.576 1164.49C815.305 1165.82 813.345 1165.86 812.033 1164.6ZM827.912 1169.13L826.84 1170.25C827.081 1168.96 826.723 1167.67 825.618 1166.61C823.813 1164.88 820.899 1164.95 819.055 1166.87C817.211 1168.79 817.259 1171.71 819.065 1173.44C820.169 1174.5 821.474 1174.8 822.754 1174.51L821.682 1175.63L822.813 1176.71L829.042 1170.21L827.912 1169.13ZM820.255 1172.49C818.955 1171.24 818.914 1169.28 820.185 1167.96C821.456 1166.63 823.416 1166.59 824.715 1167.84C826.027 1169.09 826.068 1171.05 824.797 1172.38C823.526 1173.7 821.567 1173.74 820.255 1172.49ZM830.664 1184.56C832.522 1186.35 834.78 1186.57 836.312 1184.97C837.994 1183.21 836.949 1181.31 835.862 1179.27C834.975 1177.65 834.638 1176.73 835.447 1175.88C836.245 1175.05 837.419 1175.18 838.393 1176.11C839.497 1177.17 839.536 1178.41 839.113 1179.5L840.687 1179.89C841.277 1178.26 841.008 1176.38 839.514 1174.95C837.994 1173.49 835.759 1173.14 834.189 1174.78C832.57 1176.47 833.537 1178.27 834.543 1180.13C835.483 1181.83 835.989 1182.91 835.092 1183.85C834.307 1184.67 833.11 1184.64 831.824 1183.41C830.499 1182.14 830.342 1180.74 830.977 1179.43L829.364 1179.03C828.537 1180.85 828.936 1182.91 830.664 1184.56ZM843.218 1181.54C843.634 1181.94 844.296 1181.92 844.695 1181.51C845.093 1181.09 845.092 1180.42 844.676 1180.02C844.247 1179.61 843.573 1179.64 843.175 1180.05C842.776 1180.47 842.79 1181.13 843.218 1181.54ZM835.284 1188.67L836.414 1189.75L842.643 1183.26L841.513 1182.17L835.284 1188.67ZM838.138 1191.41L839.269 1192.49L848.363 1183.01L847.233 1181.92L838.138 1191.41ZM851.769 1192.01L844.659 1195.34L847.69 1188.1L846.469 1186.93L842.838 1195.91L844.163 1197.18L852.99 1193.18L851.769 1192.01ZM859.071 1199.01L858 1200.13C858.24 1198.84 857.882 1197.55 856.778 1196.49C854.972 1194.76 852.058 1194.83 850.214 1196.75C848.37 1198.68 848.419 1201.59 850.224 1203.32C851.329 1204.38 852.634 1204.68 853.913 1204.39L852.842 1205.51L853.972 1206.59L860.201 1200.1L859.071 1199.01ZM851.414 1202.37C850.115 1201.12 850.074 1199.16 851.344 1197.84C852.615 1196.51 854.575 1196.47 855.874 1197.72C857.186 1198.98 857.227 1200.93 855.956 1202.26C854.686 1203.59 852.726 1203.63 851.414 1202.37Z" fill="#20356F"/>
<path d="M310.28 375.919L311.402 377.304L318.234 365.722L317.045 364.253L304.297 368.534L305.419 369.919L308.261 368.937L311.83 373.343L310.28 375.919ZM309.84 368.399L316.081 366.238L312.684 371.91L309.84 368.399ZM322.973 377.289L315.502 379.705L319.415 372.898L318.35 371.583L313.623 380.046L314.779 381.472L324.038 378.604L322.973 377.289ZM317.319 384.922C317.738 385.44 318.461 385.503 318.965 385.095C319.468 384.687 319.556 383.967 319.137 383.449C318.729 382.946 317.995 382.869 317.492 383.277C316.988 383.684 316.911 384.419 317.319 384.922ZM327.763 397.499L328.885 398.884L335.718 387.302L334.528 385.833L321.78 390.114L322.902 391.499L325.744 390.517L329.313 394.923L327.763 397.499ZM327.323 389.979L333.565 387.818L330.167 393.49L327.323 389.979ZM344.067 397.607L340.067 400.848C340.467 399.597 340.273 398.272 339.31 397.083C337.735 395.139 334.835 394.848 332.765 396.525C330.695 398.202 330.379 401.099 331.954 403.043C332.917 404.232 334.173 404.696 335.48 404.565L334.277 405.539L335.263 406.756L345.053 398.824L344.067 397.607ZM333.253 402.245C332.12 400.846 332.324 398.897 333.751 397.741C335.177 396.586 337.127 396.79 338.26 398.189C339.404 399.601 339.2 401.551 337.773 402.706C336.347 403.862 334.397 403.658 333.253 402.245ZM345.521 402.518C345.883 402.966 346.541 403.035 346.989 402.672C347.437 402.31 347.52 401.64 347.157 401.192C346.783 400.731 346.111 400.673 345.663 401.036C345.216 401.398 345.147 402.057 345.521 402.518ZM336.756 408.599L337.742 409.816L344.735 404.151L343.749 402.934L336.756 408.599ZM353.727 409.531L349.727 412.772C350.127 411.521 349.933 410.195 348.97 409.007C347.395 407.063 344.495 406.771 342.425 408.448C340.355 410.125 340.039 413.023 341.614 414.967C342.577 416.155 343.833 416.62 345.14 416.488L343.937 417.463L344.923 418.68L354.713 410.748L353.727 409.531ZM342.913 414.169C341.78 412.77 341.984 410.821 343.411 409.665C344.838 408.509 346.787 408.714 347.92 410.112C349.065 411.525 348.86 413.474 347.434 414.63C346.007 415.786 344.058 415.581 342.913 414.169ZM358.1 420.648L356.898 421.622C357.298 420.372 357.104 419.046 356.141 417.857C354.566 415.913 351.666 415.622 349.596 417.299C347.526 418.976 347.209 421.873 348.784 423.817C349.747 425.006 351.004 425.471 352.31 425.339L351.107 426.313L352.093 427.53L359.086 421.865L358.1 420.648ZM350.083 423.019C348.95 421.621 349.155 419.671 350.581 418.515C352.008 417.36 353.957 417.564 355.09 418.963C356.235 420.375 356.03 422.325 354.604 423.481C353.177 424.636 351.228 424.432 350.083 423.019ZM359.53 426.273C360.16 425.763 360.966 426.129 361.476 426.759C361.975 427.374 362.207 428.205 361.793 428.98L363.194 429.537C363.74 428.353 363.538 426.988 362.609 425.841C361.464 424.428 359.75 424.056 358.519 425.054C355.988 427.105 360.014 430.329 358.517 431.542C357.832 432.097 357.045 431.669 356.444 430.928C355.742 430.061 355.64 429.077 356.13 428.31L354.679 427.748C354.043 428.935 354.164 430.458 355.297 431.857C356.51 433.353 358.214 433.826 359.514 432.773C362.088 430.688 358.034 427.485 359.53 426.273Z" fill="#20356F"/>
<path d="M773.045 422.416L774.066 420.955L761.046 417.591L759.964 419.14L767.602 430.207L768.623 428.747L766.894 426.287L770.141 421.639L773.045 422.416ZM765.94 424.918L762.138 419.517L768.527 421.214L765.94 424.918ZM770.853 409.839L775.24 416.351L767.616 414.472L766.647 415.86L776.087 418.063L777.138 416.557L771.822 408.452L770.853 409.839ZM779.751 413.163C780.133 412.617 779.994 411.904 779.462 411.533C778.931 411.162 778.215 411.277 777.833 411.822C777.462 412.354 777.591 413.081 778.122 413.452C778.653 413.823 779.38 413.694 779.751 413.163ZM778.354 392.816L786.056 398.197L774.643 398.128L773.87 399.235L784.199 406.451L785.157 405.079L777.44 399.687L788.868 399.766L789.642 398.66L779.312 391.444L778.354 392.816ZM782.825 389.842C783.155 389.369 783.039 388.718 782.567 388.388C782.095 388.058 781.429 388.163 781.099 388.635C780.759 389.122 780.889 389.784 781.361 390.114C781.833 390.444 782.485 390.329 782.825 389.842ZM791.092 396.583L791.989 395.299L784.611 390.145L783.714 391.429L791.092 396.583ZM797.718 387.099L791.365 388.084L790.257 382.063L789.103 383.716L790.137 389.181L783.925 384.841L783.028 386.125L793.357 393.341L794.254 392.057L790.757 389.614L796.605 388.693L797.718 387.099ZM795.609 383.518L799.928 377.335C799.757 377.171 799.575 377.023 799.384 376.889C797.318 375.446 794.478 375.613 792.921 377.841C791.313 380.143 791.917 382.893 794.101 384.419C796.314 385.965 799.085 385.551 800.745 383.175C801.775 381.7 801.895 380.114 801.345 378.764L799.962 379.423C800.31 380.215 800.267 381.282 799.555 382.3C798.597 383.673 797.112 384.195 795.609 383.518ZM794.131 378.687C794.904 377.58 796.315 377.007 797.93 377.806L794.487 382.734C793.348 381.631 793.162 380.074 794.131 378.687Z" fill="#20356F"/>
<path d="M998.362 118.069L999.382 116.608L986.363 113.243L985.28 114.792L992.919 125.86L993.939 124.399L992.21 121.939L995.457 117.291L998.362 118.069ZM991.256 120.57L987.454 115.169L993.844 116.867L991.256 120.57ZM996.169 105.491L1000.56 112.004L992.932 110.125L991.963 111.512L1001.4 113.715L1002.45 112.21L997.138 104.104L996.169 105.491ZM1005.07 108.815C1005.45 108.269 1005.31 107.557 1004.78 107.186C1004.25 106.815 1003.53 106.929 1003.15 107.475C1002.78 108.006 1002.91 108.733 1003.44 109.104C1003.97 109.475 1004.7 109.346 1005.07 108.815ZM1003.67 88.4685L1011.37 93.8495L999.959 93.7806L999.186 94.8873L1009.52 102.103L1010.47 100.731L1002.76 95.3396L1014.18 95.4188L1014.96 94.3122L1004.63 87.0962L1003.67 88.4685ZM1008.14 85.4939C1008.47 85.0217 1008.36 84.3701 1007.88 84.0402C1007.41 83.7103 1006.75 83.8156 1006.42 84.2878C1006.07 84.7748 1006.21 85.4368 1006.68 85.7666C1007.15 86.0965 1007.8 85.9809 1008.14 85.4939ZM1016.41 92.2355L1017.31 90.9517L1009.93 85.7975L1009.03 87.0813L1016.41 92.2355ZM1023.03 82.7515L1016.68 83.7366L1015.57 77.7153L1014.42 79.368L1015.45 84.8334L1009.24 80.4935L1008.34 81.7773L1018.67 88.9932L1019.57 87.7095L1016.07 85.2664L1021.92 84.3452L1023.03 82.7515ZM1020.93 79.1701L1025.24 72.9874C1025.07 72.8238 1024.89 72.6751 1024.7 72.5411C1022.63 71.0979 1019.79 71.2657 1018.24 73.4938C1016.63 75.7957 1017.23 78.5453 1019.42 80.071C1021.63 81.6173 1024.4 81.2032 1026.06 78.8276C1027.09 77.352 1027.21 75.7666 1026.66 74.4164L1025.28 75.0754C1025.63 75.8669 1025.58 76.9346 1024.87 77.9527C1023.91 79.325 1022.43 79.847 1020.93 79.1701ZM1019.45 74.3391C1020.22 73.2324 1021.63 72.659 1023.25 73.4582L1019.8 78.3866C1018.66 77.2832 1018.48 75.7262 1019.45 74.3391Z" fill="#20356F"/>
<path d="M320.127 1039.13L321.148 1037.66L308.128 1034.3L307.046 1035.85L314.684 1046.92L315.705 1045.46L313.976 1043L317.223 1038.35L320.127 1039.13ZM313.022 1041.63L309.22 1036.23L315.609 1037.92L313.022 1041.63ZM317.935 1026.55L322.322 1033.06L314.698 1031.18L313.729 1032.57L323.169 1034.77L324.22 1033.27L318.904 1025.16L317.935 1026.55ZM326.833 1029.87C327.215 1029.33 327.076 1028.61 326.544 1028.24C326.013 1027.87 325.297 1027.99 324.915 1028.53C324.544 1029.06 324.673 1029.79 325.204 1030.16C325.735 1030.53 326.462 1030.4 326.833 1029.87ZM325.436 1009.53L333.138 1014.91L321.725 1014.84L320.952 1015.94L331.281 1023.16L332.239 1021.79L324.522 1016.4L335.95 1016.48L336.724 1015.37L326.394 1008.15L325.436 1009.53ZM329.907 1006.55C330.237 1006.08 330.121 1005.43 329.649 1005.1C329.177 1004.77 328.511 1004.87 328.181 1005.34C327.841 1005.83 327.971 1006.49 328.443 1006.82C328.915 1007.15 329.567 1007.04 329.907 1006.55ZM338.174 1013.29L339.071 1012.01L331.693 1006.85L330.796 1008.14L338.174 1013.29ZM344.8 1003.81L338.447 1004.79L337.339 998.772L336.185 1000.42L337.219 1005.89L331.007 1001.55L330.11 1002.83L340.439 1010.05L341.336 1008.77L337.839 1006.32L343.687 1005.4L344.8 1003.81ZM342.691 1000.23L347.01 994.044C346.839 993.88 346.657 993.732 346.466 993.598C344.4 992.155 341.56 992.322 340.003 994.55C338.395 996.852 338.999 999.602 341.183 1001.13C343.397 1002.67 346.167 1002.26 347.827 999.884C348.857 998.409 348.977 996.823 348.427 995.473L347.044 996.132C347.392 996.924 347.349 997.991 346.637 999.009C345.679 1000.38 344.194 1000.9 342.691 1000.23ZM341.213 995.396C341.986 994.289 343.397 993.716 345.012 994.515L341.569 999.443C340.43 998.34 340.244 996.783 341.213 995.396Z" fill="#20356F"/>
<path d="M82.7405 1356.31L83.761 1354.85L70.7414 1351.49L69.659 1353.04L77.2976 1364.11L78.3182 1362.64L76.5891 1360.19L79.8363 1355.54L82.7405 1356.31ZM75.6352 1358.82L71.833 1353.42L78.2226 1355.11L75.6352 1358.82ZM80.5482 1343.74L84.9354 1350.25L77.3114 1348.37L76.3424 1349.76L85.782 1351.96L86.8335 1350.46L81.5172 1342.35L80.5482 1343.74ZM89.4467 1347.06C89.8281 1346.52 89.6888 1345.8 89.1576 1345.43C88.6264 1345.06 87.9099 1345.17 87.5284 1345.72C87.1573 1346.25 87.2863 1346.98 87.8175 1347.35C88.3487 1347.72 89.0756 1347.59 89.4467 1347.06ZM88.0491 1326.71L95.7516 1332.1L84.338 1332.03L83.5649 1333.13L93.894 1340.35L94.8527 1338.98L87.1354 1333.59L98.5637 1333.66L99.3369 1332.56L89.0078 1325.34L88.0491 1326.71ZM92.5205 1323.74C92.8503 1323.27 92.7347 1322.62 92.2625 1322.29C91.7903 1321.96 91.1239 1322.06 90.794 1322.53C90.4539 1323.02 90.5842 1323.68 91.0564 1324.01C91.5286 1324.34 92.1803 1324.23 92.5205 1323.74ZM100.788 1330.48L101.684 1329.2L94.3065 1324.04L93.4097 1325.33L100.788 1330.48ZM107.413 1321L101.06 1321.98L99.9528 1315.96L98.7982 1317.61L99.8326 1323.08L93.6204 1318.74L92.7236 1320.02L103.053 1327.24L103.949 1325.96L100.452 1323.51L106.3 1322.59L107.413 1321ZM105.304 1317.42L109.623 1311.23C109.452 1311.07 109.271 1310.92 109.079 1310.79C107.013 1309.34 104.173 1309.51 102.616 1311.74C101.008 1314.04 101.613 1316.79 103.796 1318.32C106.01 1319.86 108.78 1319.45 110.44 1317.07C111.471 1315.6 111.59 1314.01 111.04 1312.66L109.658 1313.32C110.005 1314.11 109.962 1315.18 109.251 1316.2C108.292 1317.57 106.807 1318.09 105.304 1317.42ZM103.826 1312.59C104.6 1311.48 106.01 1310.91 107.626 1311.7L104.183 1316.63C103.043 1315.53 102.857 1313.97 103.826 1312.59Z" fill="#20356F"/>
<path d="M75.1939 80.8429L76.3157 82.2276L83.1485 70.6455L81.9587 69.177L69.2111 73.4583L70.3329 74.8429L73.1746 73.8612L76.7438 78.2668L75.1939 80.8429ZM74.7539 73.3229L80.9955 71.162L77.598 76.8334L74.7539 73.3229ZM87.8869 82.2131L80.4156 84.629L84.329 77.8215L83.2639 76.5068L78.5371 84.9695L79.6928 86.396L88.952 83.5278L87.8869 82.2131ZM82.233 89.846C82.6522 90.3635 83.3751 90.4265 83.8786 90.0186C84.3821 89.6106 84.4704 88.8904 84.0512 88.3729C83.6433 87.8695 82.9091 87.7925 82.4056 88.2004C81.9021 88.6083 81.8251 89.3425 82.233 89.846ZM92.6772 102.423L93.799 103.808L100.632 92.2255L99.4421 90.757L86.6945 95.0383L87.8162 96.4229L90.6579 95.4412L94.2272 99.8468L92.6772 102.423ZM92.2373 94.9029L98.4788 92.742L95.0814 98.4134L92.2373 94.9029ZM108.981 102.531L104.981 105.772C105.381 104.521 105.187 103.196 104.224 102.007C102.649 100.063 99.7491 99.7714 97.6792 101.448C95.6092 103.125 95.2926 106.023 96.8676 107.967C97.8307 109.156 99.0874 109.62 100.394 109.488L99.191 110.463L100.177 111.68L109.967 103.748L108.981 102.531ZM98.1671 107.169C97.034 105.77 97.2384 103.821 98.665 102.665C100.092 101.509 102.041 101.714 103.174 103.112C104.318 104.525 104.114 106.474 102.687 107.63C101.261 108.786 99.3115 108.582 98.1671 107.169ZM110.435 107.442C110.797 107.89 111.455 107.959 111.903 107.596C112.351 107.233 112.434 106.564 112.071 106.116C111.697 105.655 111.025 105.597 110.577 105.96C110.13 106.322 110.061 106.98 110.435 107.442ZM101.67 113.523L102.656 114.74L109.649 109.075L108.663 107.858L101.67 113.523ZM118.641 114.455L114.641 117.696C115.041 116.445 114.847 115.119 113.884 113.93C112.309 111.986 109.409 111.695 107.339 113.372C105.269 115.049 104.953 117.946 106.528 119.891C107.491 121.079 108.747 121.544 110.054 121.412L108.851 122.387L109.837 123.603L119.627 115.672L118.641 114.455ZM107.827 119.093C106.694 117.694 106.899 115.745 108.325 114.589C109.752 113.433 111.701 113.637 112.834 115.036C113.979 116.449 113.774 118.398 112.348 119.554C110.921 120.71 108.972 120.505 107.827 119.093ZM123.014 125.572L121.812 126.546C122.212 125.295 122.018 123.97 121.055 122.781C119.48 120.837 116.58 120.546 114.51 122.223C112.44 123.9 112.123 126.797 113.698 128.741C114.661 129.93 115.918 130.394 117.224 130.263L116.021 131.237L117.007 132.454L124 126.788L123.014 125.572ZM114.998 127.943C113.864 126.544 114.069 124.595 115.495 123.439C116.922 122.284 118.871 122.488 120.005 123.887C121.149 125.299 120.945 127.249 119.518 128.404C118.091 129.56 116.142 129.356 114.998 127.943ZM124.444 131.197C125.074 130.687 125.88 131.053 126.39 131.682C126.889 132.298 127.121 133.129 126.707 133.904L128.108 134.461C128.654 133.276 128.452 131.912 127.523 130.765C126.378 129.352 124.664 128.98 123.433 129.977C120.902 132.028 124.928 135.253 123.431 136.466C122.746 137.021 121.959 136.593 121.358 135.852C120.656 134.984 120.554 134.001 121.044 133.233L119.593 132.672C118.957 133.859 119.078 135.382 120.212 136.781C121.424 138.277 123.128 138.75 124.428 137.696C127.002 135.612 122.948 132.409 124.444 131.197Z" fill="#20356F"/>
<path d="M788.797 1267.07H790.651L787.681 1262.03C789.193 1261.49 790.291 1260.03 790.291 1258.38C790.291 1256.22 788.527 1254.47 786.367 1254.47H781.327V1267.07H783.001V1262.25H785.971L788.797 1267.07ZM783.001 1256.04H786.367C787.609 1256.04 788.617 1257.08 788.617 1258.38C788.617 1259.67 787.609 1260.74 786.367 1260.74H783.001V1256.04ZM798.185 1258.07V1262.84C798.185 1264.97 797.015 1265.81 795.575 1265.81C794.189 1265.81 793.343 1264.98 793.343 1263.51V1258.07H791.777V1263.6C791.777 1265.9 793.163 1267.31 795.269 1267.31C796.529 1267.31 797.519 1266.84 798.185 1265.78V1267.07H799.751V1258.07H798.185ZM809.587 1258.07V1259.62C808.867 1258.52 807.715 1257.84 806.185 1257.84C803.683 1257.84 801.631 1259.91 801.631 1262.57C801.631 1265.24 803.683 1267.31 806.185 1267.31C807.715 1267.31 808.867 1266.62 809.587 1265.52V1267.07H811.153V1258.07H809.587ZM806.383 1265.79C804.583 1265.79 803.197 1264.41 803.197 1262.57C803.197 1260.74 804.583 1259.35 806.383 1259.35C808.201 1259.35 809.587 1260.74 809.587 1262.57C809.587 1264.41 808.201 1265.79 806.383 1265.79ZM826.018 1258.47C826.018 1255.97 824.218 1254.24 821.68 1254.24C819.142 1254.24 817.342 1255.97 817.342 1258.47C817.342 1260.97 819.142 1262.7 821.68 1262.7C821.896 1262.7 822.094 1262.68 822.292 1262.66L819.304 1267.07H821.194L825.262 1261.01H825.244C825.748 1260.3 826.018 1259.46 826.018 1258.47ZM818.998 1258.47C818.998 1256.88 820.096 1255.84 821.68 1255.84C823.264 1255.84 824.362 1256.87 824.362 1258.47C824.362 1260.07 823.264 1261.11 821.68 1261.11C820.096 1261.11 818.998 1260.07 818.998 1258.47Z" fill="#20356F"/>
<path d="M1006.13 1267.07H1007.98L1005.01 1262.03C1006.53 1261.49 1007.62 1260.03 1007.62 1258.38C1007.62 1256.22 1005.86 1254.47 1003.7 1254.47H998.661V1267.07H1000.33V1262.25H1003.3L1006.13 1267.07ZM1000.33 1256.04H1003.7C1004.94 1256.04 1005.95 1257.08 1005.95 1258.38C1005.95 1259.67 1004.94 1260.74 1003.7 1260.74H1000.33V1256.04ZM1015.52 1258.07V1262.84C1015.52 1264.97 1014.35 1265.81 1012.91 1265.81C1011.52 1265.81 1010.68 1264.98 1010.68 1263.51V1258.07H1009.11V1263.6C1009.11 1265.9 1010.5 1267.31 1012.6 1267.31C1013.86 1267.31 1014.85 1266.84 1015.52 1265.78V1267.07H1017.09V1258.07H1015.52ZM1026.92 1258.07V1259.62C1026.2 1258.52 1025.05 1257.84 1023.52 1257.84C1021.02 1257.84 1018.97 1259.91 1018.97 1262.57C1018.97 1265.24 1021.02 1267.31 1023.52 1267.31C1025.05 1267.31 1026.2 1266.62 1026.92 1265.52V1267.07H1028.49V1258.07H1026.92ZM1023.72 1265.79C1021.92 1265.79 1020.53 1264.41 1020.53 1262.57C1020.53 1260.74 1021.92 1259.35 1023.72 1259.35C1025.54 1259.35 1026.92 1260.74 1026.92 1262.57C1026.92 1264.41 1025.54 1265.79 1023.72 1265.79ZM1043.35 1258.47C1043.35 1255.97 1041.55 1254.24 1039.01 1254.24C1036.48 1254.24 1034.68 1255.97 1034.68 1258.47C1034.68 1260.97 1036.48 1262.7 1039.01 1262.7C1039.23 1262.7 1039.43 1262.68 1039.63 1262.66L1036.64 1267.07H1038.53L1042.6 1261.01H1042.58C1043.08 1260.3 1043.35 1259.46 1043.35 1258.47ZM1036.33 1258.47C1036.33 1256.88 1037.43 1255.84 1039.01 1255.84C1040.6 1255.84 1041.7 1256.87 1041.7 1258.47C1041.7 1260.07 1040.6 1261.11 1039.01 1261.11C1037.43 1261.11 1036.33 1260.07 1036.33 1258.47Z" fill="#20356F"/>
</svg>
