<svg width="337" height="1119" viewBox="0 0 337 1119" fill="none" xmlns="http://www.w3.org/2000/svg">
<path d="M222.145 103.711L222.145 102.917L216.535 105.009L216.535 105.85L222.145 107.942L222.145 107.148L220.886 106.692L220.886 104.167L222.145 103.711ZM220.189 106.435L217.425 105.434L220.189 104.424L220.189 106.435ZM218.138 99.6794L221.399 100.938L218.138 102.196L218.138 102.949L222.145 101.346L222.145 100.529L218.138 98.9261L218.138 99.6794ZM222.233 98.6235C222.233 98.327 222 98.1026 221.712 98.1026C221.423 98.1026 221.191 98.327 221.191 98.6235C221.191 98.912 221.423 99.1444 221.712 99.1444C222 99.1444 222.233 98.912 222.233 98.6235ZM222.249 93.2291C222.249 92.0831 221.624 91.2898 220.638 91.2898C219.556 91.2898 219.268 92.2114 218.947 93.189C218.699 93.9743 218.506 94.367 217.985 94.367C217.473 94.367 217.152 93.9503 217.152 93.3493C217.152 92.6681 217.537 92.2755 218.018 92.0751L217.657 91.4501C216.952 91.7626 216.431 92.4277 216.431 93.3493C216.431 94.2869 217.008 95.1123 218.018 95.1123C219.059 95.1123 219.34 94.2468 219.628 93.3493C219.885 92.5239 220.077 92.027 220.654 92.027C221.159 92.027 221.519 92.4197 221.519 93.2131C221.519 94.0304 221.119 94.5113 220.502 94.7116L220.87 95.3527C221.712 95.0562 222.249 94.2949 222.249 93.2291ZM222.249 88.5023C222.249 87.3323 221.327 86.3867 220.141 86.3867C218.955 86.3867 218.034 87.3323 218.034 88.5023C218.034 89.6723 218.955 90.6099 220.141 90.6099C221.327 90.6099 222.249 89.6723 222.249 88.5023ZM221.568 88.5023C221.568 89.2957 220.951 89.9127 220.141 89.9127C219.332 89.9127 218.715 89.2957 218.715 88.5023C218.715 87.701 219.332 87.0839 220.141 87.0839C220.951 87.0839 221.568 87.701 221.568 88.5023ZM218.138 82.8002L220.261 82.8002C221.207 82.8002 221.584 83.321 221.584 83.9621C221.584 84.5792 221.215 84.9558 220.558 84.9558L218.138 84.9558L218.138 85.653L220.598 85.653C221.624 85.653 222.249 85.036 222.249 84.0984C222.249 83.5374 222.04 83.0967 221.568 82.8002L222.145 82.8002L222.145 82.103L218.138 82.103L218.138 82.8002ZM221.479 80.2322L218.603 78.1807L218.138 78.1807L218.138 81.1057L218.803 81.1057L218.803 79.1423L221.68 81.1858L222.145 81.1858L222.145 78.1006L221.479 78.1006L221.479 80.2322ZM218.138 74.2024L218.827 74.2024C218.338 74.5229 218.034 75.0358 218.034 75.7169C218.034 76.8308 218.955 77.7444 220.141 77.7444C221.327 77.7444 222.249 76.8308 222.249 75.7169C222.249 75.0358 221.944 74.5229 221.455 74.2024L222.145 74.2024L222.145 73.5052L218.138 73.5052L218.138 74.2024ZM221.576 75.6288C221.576 76.4301 220.959 77.0472 220.141 77.0472C219.324 77.0472 218.707 76.4301 218.707 75.6288C218.707 74.8194 219.324 74.2024 220.141 74.2024C220.959 74.2024 221.576 74.8194 221.576 75.6288Z" fill="#20356F"/>
<path d="M222.145 359.949L222.145 359.156L216.535 361.247L216.535 362.088L222.145 364.18L222.145 363.387L220.886 362.93L220.886 360.406L222.145 359.949ZM220.189 362.673L217.425 361.672L220.189 360.662L220.189 362.673ZM218.138 355.918L221.399 357.176L218.138 358.434L218.138 359.187L222.145 357.584L222.145 356.767L218.138 355.164L218.138 355.918ZM222.233 354.862C222.233 354.565 222 354.341 221.712 354.341C221.423 354.341 221.191 354.565 221.191 354.862C221.191 355.15 221.423 355.383 221.712 355.383C222 355.383 222.233 355.15 222.233 354.862ZM222.249 349.467C222.249 348.321 221.624 347.528 220.638 347.528C219.556 347.528 219.268 348.45 218.947 349.427C218.699 350.213 218.506 350.605 217.985 350.605C217.473 350.605 217.152 350.189 217.152 349.588C217.152 348.906 217.537 348.514 218.018 348.313L217.657 347.688C216.952 348.001 216.431 348.666 216.431 349.588C216.431 350.525 217.008 351.351 218.018 351.351C219.059 351.351 219.34 350.485 219.628 349.588C219.885 348.762 220.077 348.265 220.654 348.265C221.159 348.265 221.519 348.658 221.519 349.451C221.519 350.269 221.119 350.75 220.502 350.95L220.87 351.591C221.712 351.294 222.249 350.533 222.249 349.467ZM222.249 344.741C222.249 343.571 221.327 342.625 220.141 342.625C218.955 342.625 218.034 343.571 218.034 344.741C218.034 345.911 218.955 346.848 220.141 346.848C221.327 346.848 222.249 345.911 222.249 344.741ZM221.568 344.741C221.568 345.534 220.951 346.151 220.141 346.151C219.332 346.151 218.715 345.534 218.715 344.741C218.715 343.939 219.332 343.322 220.141 343.322C220.951 343.322 221.568 343.939 221.568 344.741ZM218.138 339.038L220.261 339.038C221.207 339.038 221.584 339.559 221.584 340.2C221.584 340.817 221.215 341.194 220.558 341.194L218.138 341.194L218.138 341.891L220.598 341.891C221.624 341.891 222.249 341.274 222.249 340.337C222.249 339.776 222.04 339.335 221.568 339.038L222.145 339.038L222.145 338.341L218.138 338.341L218.138 339.038ZM221.479 336.47L218.603 334.419L218.138 334.419L218.138 337.344L218.803 337.344L218.803 335.381L221.68 337.424L222.145 337.424L222.145 334.339L221.479 334.339L221.479 336.47ZM218.138 330.441L218.827 330.441C218.338 330.761 218.034 331.274 218.034 331.955C218.034 333.069 218.955 333.983 220.141 333.983C221.327 333.983 222.249 333.069 222.249 331.955C222.249 331.274 221.944 330.761 221.455 330.441L222.145 330.441L222.145 329.743L218.138 329.743L218.138 330.441ZM221.576 331.867C221.576 332.668 220.959 333.285 220.141 333.285C219.324 333.285 218.707 332.668 218.707 331.867C218.707 331.058 219.324 330.441 220.141 330.441C220.959 330.441 221.576 331.058 221.576 331.867Z" fill="#20356F"/>
<path d="M222.145 677.383L222.145 676.59L216.535 678.682L216.535 679.523L222.145 681.615L222.145 680.821L220.886 680.364L220.886 677.84L222.145 677.383ZM220.189 680.108L217.425 679.106L220.189 678.097L220.189 680.108ZM218.138 673.352L221.399 674.61L218.138 675.868L218.138 676.622L222.145 675.019L222.145 674.202L218.138 672.599L218.138 673.352ZM222.233 672.296C222.233 672 222 671.775 221.712 671.775C221.423 671.775 221.191 672 221.191 672.296C221.191 672.585 221.423 672.817 221.712 672.817C222 672.817 222.233 672.585 222.233 672.296ZM222.249 666.902C222.249 665.756 221.624 664.963 220.638 664.963C219.556 664.963 219.268 665.884 218.947 666.862C218.699 667.647 218.506 668.04 217.985 668.04C217.473 668.04 217.152 667.623 217.152 667.022C217.152 666.341 217.537 665.948 218.018 665.748L217.657 665.123C216.952 665.435 216.431 666.101 216.431 667.022C216.431 667.96 217.008 668.785 218.018 668.785C219.059 668.785 219.34 667.92 219.628 667.022C219.885 666.197 220.077 665.7 220.654 665.7C221.159 665.7 221.519 666.093 221.519 666.886C221.519 667.703 221.119 668.184 220.502 668.384L220.87 669.026C221.712 668.729 222.249 667.968 222.249 666.902ZM222.249 662.175C222.249 661.005 221.327 660.06 220.141 660.06C218.955 660.06 218.034 661.005 218.034 662.175C218.034 663.345 218.955 664.283 220.141 664.283C221.327 664.283 222.249 663.345 222.249 662.175ZM221.568 662.175C221.568 662.969 220.951 663.586 220.141 663.586C219.332 663.586 218.715 662.969 218.715 662.175C218.715 661.374 219.332 660.757 220.141 660.757C220.951 660.757 221.568 661.374 221.568 662.175ZM218.138 656.473L220.261 656.473C221.207 656.473 221.584 656.994 221.584 657.635C221.584 658.252 221.215 658.629 220.558 658.629L218.138 658.629L218.138 659.326L220.598 659.326C221.624 659.326 222.249 658.709 222.249 657.771C222.249 657.21 222.04 656.77 221.568 656.473L222.145 656.473L222.145 655.776L218.138 655.776L218.138 656.473ZM221.479 653.905L218.603 651.854L218.138 651.854L218.138 654.779L218.803 654.779L218.803 652.815L221.68 654.859L222.145 654.859L222.145 651.773L221.479 651.773L221.479 653.905ZM218.138 647.875L218.827 647.875C218.338 648.196 218.034 648.709 218.034 649.39C218.034 650.504 218.955 651.417 220.141 651.417C221.327 651.417 222.249 650.504 222.249 649.39C222.249 648.709 221.944 648.196 221.455 647.875L222.145 647.875L222.145 647.178L218.138 647.178L218.138 647.875ZM221.576 649.302C221.576 650.103 220.959 650.72 220.141 650.72C219.324 650.72 218.707 650.103 218.707 649.302C218.707 648.492 219.324 647.875 220.141 647.875C220.959 647.875 221.576 648.492 221.576 649.302Z" fill="#20356F"/>
<path d="M133.057 730.455H133.85L131.759 724.846H130.917L128.826 730.455H129.619L130.076 729.197L132.6 729.197L133.057 730.455ZM130.332 728.5L131.334 725.735L132.344 728.5H130.332ZM137.088 726.448L135.83 729.71L134.572 726.448H133.819L135.421 730.455H136.239L137.841 726.448H137.088ZM138.144 730.543C138.441 730.543 138.665 730.311 138.665 730.022C138.665 729.734 138.441 729.501 138.144 729.501C137.856 729.501 137.623 729.734 137.623 730.022C137.623 730.311 137.856 730.543 138.144 730.543ZM143.538 730.559C144.684 730.559 145.478 729.934 145.478 728.949C145.478 727.867 144.556 727.578 143.579 727.258C142.793 727.009 142.401 726.817 142.401 726.296C142.401 725.783 142.817 725.463 143.418 725.463C144.099 725.463 144.492 725.847 144.692 726.328L145.318 725.967C145.005 725.262 144.34 724.741 143.418 724.741C142.481 724.741 141.655 725.318 141.655 726.328C141.655 727.37 142.521 727.65 143.418 727.939C144.244 728.195 144.741 728.388 144.741 728.965C144.741 729.469 144.348 729.83 143.555 729.83C142.737 729.83 142.256 729.429 142.056 728.812L141.415 729.181C141.711 730.022 142.473 730.559 143.538 730.559ZM148.265 730.559C149.435 730.559 150.381 729.638 150.381 728.452C150.381 727.266 149.435 726.344 148.265 726.344C147.095 726.344 146.158 727.266 146.158 728.452C146.158 729.638 147.095 730.559 148.265 730.559ZM148.265 729.878C147.472 729.878 146.855 729.261 146.855 728.452C146.855 727.642 147.472 727.025 148.265 727.025C149.067 727.025 149.684 727.642 149.684 728.452C149.684 729.261 149.067 729.878 148.265 729.878ZM153.967 726.448V728.572C153.967 729.517 153.447 729.894 152.805 729.894C152.188 729.894 151.812 729.526 151.812 728.868V726.448H151.115V728.908C151.115 729.934 151.732 730.559 152.669 730.559C153.23 730.559 153.671 730.351 153.967 729.878V730.455H154.665V726.448H153.967ZM156.535 729.79L158.587 726.913V726.448H155.662V727.113H157.625L155.582 729.99V730.455H158.667V729.79H156.535ZM162.565 726.448V727.137C162.245 726.649 161.732 726.344 161.051 726.344C159.937 726.344 159.023 727.266 159.023 728.452C159.023 729.638 159.937 730.559 161.051 730.559C161.732 730.559 162.245 730.255 162.565 729.766V730.455H163.262V726.448H162.565ZM161.139 729.886C160.337 729.886 159.72 729.269 159.72 728.452C159.72 727.634 160.337 727.017 161.139 727.017C161.948 727.017 162.565 727.634 162.565 728.452C162.565 729.269 161.948 729.886 161.139 729.886Z" fill="#20356F"/>
<path d="M100.691 61.0875L100.691 60.2942L95.0819 62.3857L95.0819 63.2272L100.691 65.3187L100.691 64.5254L99.4333 64.0686L99.4333 61.5443L100.691 61.0875ZM98.7361 63.8122L95.9714 62.8105L98.7361 61.8007L98.7361 63.8122ZM96.6846 57.0563L99.9461 58.3145L96.6846 59.5726L96.6846 60.3259L100.691 58.7232L100.691 57.9058L96.6846 56.3031L96.6846 57.0563ZM100.78 56.0005C100.78 55.704 100.547 55.4796 100.259 55.4796C99.9702 55.4796 99.7378 55.704 99.7378 56.0005C99.7378 56.289 99.9702 56.5214 100.259 56.5214C100.547 56.5214 100.78 56.289 100.78 56.0005ZM97.9107 47.0079L97.9107 49.8127L98.5838 49.8127L98.5838 47.7532C99.4253 47.8974 100.066 48.5866 100.066 49.7486C100.066 51.0868 99.1047 51.9764 97.8867 51.9764C96.6606 51.9764 95.6989 51.0788 95.6989 49.7806C95.6989 48.9873 96.1076 48.3061 96.7087 47.9856L96.332 47.3445C95.5307 47.8093 94.9777 48.7228 94.9777 49.7726C94.9777 51.4795 96.2759 52.7136 97.8867 52.7136C99.4894 52.7136 100.796 51.4875 100.796 49.7566C100.796 48.0657 99.6737 47.0079 98.2473 47.0079L97.9107 47.0079ZM99.0086 45.685L99.0086 42.3273C98.9044 42.3113 98.8002 42.3033 98.696 42.3033C97.5741 42.3033 96.5804 43.0886 96.5804 44.2987C96.5804 45.5488 97.502 46.3982 98.688 46.3982C99.89 46.3982 100.796 45.5408 100.796 44.2506C100.796 43.4492 100.435 42.8402 99.89 42.4876L99.5535 43.0806C99.882 43.2809 100.138 43.6816 100.138 44.2346C100.138 44.9798 99.7298 45.5488 99.0086 45.685ZM97.2376 44.2987C97.2376 43.6976 97.6062 43.1287 98.3995 43.0085L98.3995 45.685C97.7023 45.5728 97.2376 45.0519 97.2376 44.2987ZM95.6509 39.5598L94.9777 39.5598C94.8976 40.7057 95.4986 41.3147 96.5644 41.3147L96.6846 41.3147L96.6846 41.9558L97.3578 41.9558L97.3578 41.3147L100.691 41.3147L100.691 40.6176L97.3578 40.6176L97.3578 39.5598L96.6846 39.5598L96.6846 40.6176L96.5644 40.6176C95.8672 40.6176 95.5948 40.2569 95.6509 39.5598ZM97.3578 36.7005L96.6846 36.7005L96.6846 37.7663L95.5627 37.7663L95.7711 38.4635L96.6846 38.4635L96.6846 39.2569L97.3578 39.2569L97.3578 38.4635L99.5294 38.4635C100.531 38.4635 100.852 37.9026 100.691 36.7005L100.066 36.7005C100.098 37.4137 100.138 37.7663 99.5294 37.7663L97.3578 37.7663L97.3578 36.7005Z" fill="#20356F"/>
<path d="M100.691 306.794L100.691 306L95.0819 308.092L95.0819 308.933L100.691 311.025L100.691 310.231L99.4333 309.775L99.4333 307.25L100.691 306.794ZM98.7361 309.518L95.9714 308.517L98.7361 307.507L98.7361 309.518ZM96.6846 302.762L99.9461 304.021L96.6846 305.279L96.6846 306.032L100.691 304.429L100.691 303.612L96.6846 302.009L96.6846 302.762ZM100.78 301.707C100.78 301.41 100.547 301.186 100.259 301.186C99.9702 301.186 99.7378 301.41 99.7378 301.707C99.7378 301.995 99.9702 302.227 100.259 302.227C100.547 302.227 100.78 301.995 100.78 301.707ZM97.9107 292.714L97.9107 295.519L98.5838 295.519L98.5838 293.459C99.4253 293.603 100.066 294.293 100.066 295.455C100.066 296.793 99.1047 297.682 97.8867 297.682C96.6606 297.682 95.6989 296.785 95.6989 295.487C95.6989 294.693 96.1076 294.012 96.7087 293.692L96.332 293.051C95.5307 293.515 94.9777 294.429 94.9777 295.479C94.9777 297.186 96.2759 298.42 97.8867 298.42C99.4894 298.42 100.796 297.194 100.796 295.463C100.796 293.772 99.6737 292.714 98.2473 292.714L97.9107 292.714ZM99.0086 291.391L99.0086 288.033C98.9044 288.017 98.8002 288.009 98.696 288.009C97.5741 288.009 96.5804 288.795 96.5804 290.005C96.5804 291.255 97.502 292.104 98.688 292.104C99.89 292.104 100.796 291.247 100.796 289.957C100.796 289.155 100.435 288.546 99.89 288.194L99.5535 288.787C99.882 288.987 100.138 289.388 100.138 289.941C100.138 290.686 99.7298 291.255 99.0086 291.391ZM97.2376 290.005C97.2376 289.404 97.6062 288.835 98.3995 288.715L98.3995 291.391C97.7023 291.279 97.2376 290.758 97.2376 290.005ZM95.6509 285.266L94.9777 285.266C94.8976 286.412 95.4986 287.021 96.5644 287.021L96.6846 287.021L96.6846 287.662L97.3578 287.662L97.3578 287.021L100.691 287.021L100.691 286.324L97.3578 286.324L97.3578 285.266L96.6846 285.266L96.6846 286.324L96.5644 286.324C95.8672 286.324 95.5948 285.963 95.6509 285.266ZM97.3578 282.407L96.6846 282.407L96.6846 283.472L95.5627 283.472L95.7711 284.17L96.6846 284.17L96.6846 284.963L97.3578 284.963L97.3578 284.17L99.5294 284.17C100.531 284.17 100.852 283.609 100.691 282.407L100.066 282.407C100.098 283.12 100.138 283.472 99.5294 283.472L97.3578 283.472L97.3578 282.407Z" fill="#20356F"/>
<path d="M100.691 484.463L100.691 483.669L95.0819 485.761L95.0819 486.602L100.691 488.694L100.691 487.9L99.4333 487.444L99.4333 484.919L100.691 484.463ZM98.7361 487.187L95.9714 486.185L98.7361 485.176L98.7361 487.187ZM96.6846 480.431L99.9461 481.689L96.6846 482.948L96.6846 483.701L100.691 482.098L100.691 481.281L96.6846 479.678L96.6846 480.431ZM100.78 479.375C100.78 479.079 100.547 478.855 100.259 478.855C99.9702 478.855 99.7378 479.079 99.7378 479.375C99.7378 479.664 99.9702 479.896 100.259 479.896C100.547 479.896 100.78 479.664 100.78 479.375ZM97.9107 470.383L97.9107 473.188L98.5838 473.188L98.5838 471.128C99.4253 471.272 100.066 471.962 100.066 473.124C100.066 474.462 99.1047 475.351 97.8867 475.351C96.6606 475.351 95.6989 474.454 95.6989 473.156C95.6989 472.362 96.1076 471.681 96.7087 471.361L96.332 470.72C95.5307 471.184 94.9777 472.098 94.9777 473.148C94.9777 474.855 96.2759 476.089 97.8867 476.089C99.4894 476.089 100.796 474.863 100.796 473.132C100.796 471.441 99.6737 470.383 98.2473 470.383L97.9107 470.383ZM99.0086 469.06L99.0086 465.702C98.9044 465.686 98.8002 465.678 98.696 465.678C97.5741 465.678 96.5804 466.464 96.5804 467.674C96.5804 468.924 97.502 469.773 98.688 469.773C99.89 469.773 100.796 468.916 100.796 467.626C100.796 466.824 100.435 466.215 99.89 465.863L99.5535 466.456C99.882 466.656 100.138 467.057 100.138 467.61C100.138 468.355 99.7298 468.924 99.0086 469.06ZM97.2376 467.674C97.2376 467.073 97.6062 466.504 98.3995 466.383L98.3995 469.06C97.7023 468.948 97.2376 468.427 97.2376 467.674ZM95.6509 462.935L94.9777 462.935C94.8976 464.081 95.4986 464.69 96.5644 464.69L96.6846 464.69L96.6846 465.331L97.3578 465.331L97.3578 464.69L100.691 464.69L100.691 463.993L97.3578 463.993L97.3578 462.935L96.6846 462.935L96.6846 463.993L96.5644 463.993C95.8672 463.993 95.5948 463.632 95.6509 462.935ZM97.3578 460.076L96.6846 460.076L96.6846 461.141L95.5627 461.141L95.7711 461.839L96.6846 461.839L96.6846 462.632L97.3578 462.632L97.3578 461.839L99.5294 461.839C100.531 461.839 100.852 461.278 100.691 460.076L100.066 460.076C100.098 460.789 100.138 461.141 99.5294 461.141L97.3578 461.141L97.3578 460.076Z" fill="#20356F"/>
<path d="M100.691 694.374L100.691 693.58L95.0819 695.672L95.0819 696.513L100.691 698.605L100.691 697.811L99.4333 697.355L99.4333 694.83L100.691 694.374ZM98.7361 697.098L95.9714 696.097L98.7361 695.087L98.7361 697.098ZM96.6846 690.342L99.9461 691.601L96.6846 692.859L96.6846 693.612L100.691 692.009L100.691 691.192L96.6846 689.589L96.6846 690.342ZM100.78 689.287C100.78 688.99 100.547 688.766 100.259 688.766C99.9702 688.766 99.7378 688.99 99.7378 689.287C99.7378 689.575 99.9702 689.807 100.259 689.807C100.547 689.807 100.78 689.575 100.78 689.287ZM97.9107 680.294L97.9107 683.099L98.5838 683.099L98.5838 681.039C99.4253 681.184 100.066 681.873 100.066 683.035C100.066 684.373 99.1047 685.262 97.8867 685.262C96.6606 685.262 95.6989 684.365 95.6989 683.067C95.6989 682.273 96.1076 681.592 96.7087 681.272L96.332 680.631C95.5307 681.095 94.9777 682.009 94.9777 683.059C94.9777 684.766 96.2759 686 97.8867 686C99.4894 686 100.796 684.774 100.796 683.043C100.796 681.352 99.6737 680.294 98.2473 680.294L97.9107 680.294ZM99.0086 678.971L99.0086 675.613C98.9044 675.597 98.8002 675.589 98.696 675.589C97.5741 675.589 96.5804 676.375 96.5804 677.585C96.5804 678.835 97.502 679.684 98.688 679.684C99.89 679.684 100.796 678.827 100.796 677.537C100.796 676.735 100.435 676.126 99.89 675.774L99.5535 676.367C99.882 676.567 100.138 676.968 100.138 677.521C100.138 678.266 99.7298 678.835 99.0086 678.971ZM97.2376 677.585C97.2376 676.984 97.6062 676.415 98.3995 676.295L98.3995 678.971C97.7023 678.859 97.2376 678.338 97.2376 677.585ZM95.6509 672.846L94.9777 672.846C94.8976 673.992 95.4986 674.601 96.5644 674.601L96.6846 674.601L96.6846 675.242L97.3578 675.242L97.3578 674.601L100.691 674.601L100.691 673.904L97.3578 673.904L97.3578 672.846L96.6846 672.846L96.6846 673.904L96.5644 673.904C95.8672 673.904 95.5948 673.543 95.6509 672.846ZM97.3578 669.987L96.6846 669.987L96.6846 671.052L95.5627 671.052L95.7711 671.75L96.6846 671.75L96.6846 672.543L97.3578 672.543L97.3578 671.75L99.5294 671.75C100.531 671.75 100.852 671.189 100.691 669.987L100.066 669.987C100.098 670.7 100.138 671.052 99.5294 671.052L97.3578 671.052L97.3578 669.987Z" fill="#20356F"/>
<path d="M147.716 101.879H148.541L147.219 99.6351C147.892 99.3947 148.381 98.7456 148.381 98.0084C148.381 97.0467 147.596 96.2694 146.634 96.2694H144.39V101.879H145.135V99.7313H146.458L147.716 101.879ZM145.135 96.9666H146.634C147.187 96.9666 147.636 97.4314 147.636 98.0084C147.636 98.5853 147.187 99.0581 146.634 99.0581H145.135V96.9666ZM151.895 97.8721V99.9957C151.895 100.941 151.375 101.318 150.734 101.318C150.116 101.318 149.74 100.949 149.74 100.292V97.8721H149.043V100.332C149.043 101.358 149.66 101.983 150.597 101.983C151.158 101.983 151.599 101.775 151.895 101.302V101.879H152.593V97.8721H151.895ZM156.972 97.8721V98.5613C156.651 98.0725 156.138 97.7679 155.457 97.7679C154.343 97.7679 153.43 98.6895 153.43 99.8755C153.43 101.062 154.343 101.983 155.457 101.983C156.138 101.983 156.651 101.679 156.972 101.19V101.879H157.669V97.8721H156.972ZM155.545 101.31C154.744 101.31 154.127 100.693 154.127 99.8755C154.127 99.0581 154.744 98.4411 155.545 98.4411C156.355 98.4411 156.972 99.0581 156.972 99.8755C156.972 100.693 156.355 101.31 155.545 101.31ZM161.786 96.2694L160.312 96.7823L160.496 97.4234L161.69 97.0708V101.879H162.427V96.2694H161.786Z" fill="#20356F"/>
<path d="M147.716 346.309H148.541L147.219 344.065C147.892 343.824 148.381 343.175 148.381 342.438C148.381 341.476 147.596 340.699 146.634 340.699H144.39V346.309H145.135V344.161H146.458L147.716 346.309ZM145.135 341.396H146.634C147.187 341.396 147.636 341.861 147.636 342.438C147.636 343.015 147.187 343.488 146.634 343.488H145.135V341.396ZM151.895 342.302V344.425C151.895 345.371 151.375 345.748 150.734 345.748C150.116 345.748 149.74 345.379 149.74 344.722V342.302H149.043V344.762C149.043 345.788 149.66 346.413 150.597 346.413C151.158 346.413 151.599 346.204 151.895 345.732V346.309H152.593V342.302H151.895ZM156.972 342.302V342.991C156.651 342.502 156.138 342.198 155.457 342.198C154.343 342.198 153.43 343.119 153.43 344.305C153.43 345.491 154.343 346.413 155.457 346.413C156.138 346.413 156.651 346.108 156.972 345.619V346.309H157.669V342.302H156.972ZM155.545 345.74C154.744 345.74 154.127 345.123 154.127 344.305C154.127 343.488 154.744 342.871 155.545 342.871C156.355 342.871 156.972 343.488 156.972 344.305C156.972 345.123 156.355 345.74 155.545 345.74ZM159.783 340.699L158.308 341.212L158.493 341.853L159.687 341.5V346.309H160.424V340.699H159.783ZM163.577 346.413C164.971 346.413 165.741 345.235 165.741 343.504C165.741 341.773 164.971 340.595 163.577 340.595C162.191 340.595 161.413 341.773 161.413 343.504C161.413 345.235 162.191 346.413 163.577 346.413ZM163.577 345.684C162.671 345.684 162.159 344.898 162.159 343.504C162.159 342.109 162.671 341.316 163.577 341.316C164.482 341.316 165.003 342.109 165.003 343.504C165.003 344.898 164.482 345.684 163.577 345.684Z" fill="#20356F"/>
<path d="M147.716 585.305H148.541L147.219 583.061C147.892 582.82 148.381 582.171 148.381 581.434C148.381 580.473 147.596 579.695 146.634 579.695H144.39V585.305H145.135V583.157H146.458L147.716 585.305ZM145.135 580.392H146.634C147.187 580.392 147.636 580.857 147.636 581.434C147.636 582.011 147.187 582.484 146.634 582.484H145.135V580.392ZM151.895 581.298V583.421C151.895 584.367 151.375 584.744 150.734 584.744C150.116 584.744 149.74 584.375 149.74 583.718V581.298H149.043V583.758C149.043 584.784 149.66 585.409 150.597 585.409C151.158 585.409 151.599 585.201 151.895 584.728V585.305H152.593V581.298H151.895ZM156.972 581.298V581.987C156.651 581.498 156.138 581.194 155.457 581.194C154.343 581.194 153.43 582.115 153.43 583.301C153.43 584.487 154.343 585.409 155.457 585.409C156.138 585.409 156.651 585.104 156.972 584.616V585.305H157.669V581.298H156.972ZM155.545 584.736C154.744 584.736 154.127 584.119 154.127 583.301C154.127 582.484 154.744 581.867 155.545 581.867C156.355 581.867 156.972 582.484 156.972 583.301C156.972 584.119 156.355 584.736 155.545 584.736ZM161.786 579.695L160.312 580.208L160.496 580.849L161.69 580.497V585.305H162.427V579.695H161.786ZM164.643 579.695L163.168 580.208L163.353 580.849L164.547 580.497V585.305H165.284V579.695H164.643Z" fill="#20356F"/>
<path d="M36.6024 585.305H37.4278L36.1056 583.061C36.7787 582.82 37.2676 582.171 37.2676 581.434C37.2676 580.473 36.4822 579.695 35.5206 579.695H33.2768V585.305H34.0221V583.157H35.3443L36.6024 585.305ZM34.0221 580.392H35.5206C36.0735 580.392 36.5223 580.857 36.5223 581.434C36.5223 582.011 36.0735 582.484 35.5206 582.484H34.0221V580.392ZM40.7822 581.298V583.421C40.7822 584.367 40.2613 584.744 39.6202 584.744C39.0032 584.744 38.6265 584.375 38.6265 583.718V581.298H37.9294V583.758C37.9294 584.784 38.5464 585.409 39.484 585.409C40.045 585.409 40.4857 585.201 40.7822 584.728V585.305H41.4794V581.298H40.7822ZM45.8584 581.298V581.987C45.5379 581.498 45.025 581.194 44.3439 581.194C43.23 581.194 42.3164 582.115 42.3164 583.301C42.3164 584.487 43.23 585.409 44.3439 585.409C45.025 585.409 45.5379 585.104 45.8584 584.616V585.305H46.5556V581.298H45.8584ZM44.432 584.736C43.6306 584.736 43.0136 584.119 43.0136 583.301C43.0136 582.484 43.6306 581.867 44.432 581.867C45.2414 581.867 45.8584 582.484 45.8584 583.301C45.8584 584.119 45.2414 584.736 44.432 584.736ZM50.6731 579.695L49.1986 580.208L49.3829 580.849L50.5769 580.497V585.305H51.3142V579.695H50.6731ZM53.5295 579.695L52.055 580.208L52.2393 580.849L53.4333 580.497V585.305H54.1706V579.695H53.5295Z" fill="#20356F"/>
<path d="M36.6024 478.502H37.4278L36.1056 476.258C36.7787 476.018 37.2676 475.369 37.2676 474.631C37.2676 473.67 36.4822 472.892 35.5206 472.892H33.2768V478.502H34.0221V476.354H35.3443L36.6024 478.502ZM34.0221 473.59H35.5206C36.0735 473.59 36.5223 474.054 36.5223 474.631C36.5223 475.208 36.0735 475.681 35.5206 475.681H34.0221V473.59ZM40.7822 474.495V476.619C40.7822 477.564 40.2613 477.941 39.6202 477.941C39.0032 477.941 38.6265 477.572 38.6265 476.915V474.495H37.9294V476.955C37.9294 477.981 38.5464 478.606 39.484 478.606C40.045 478.606 40.4857 478.398 40.7822 477.925V478.502H41.4794V474.495H40.7822ZM45.8584 474.495V475.184C45.5379 474.696 45.025 474.391 44.3439 474.391C43.23 474.391 42.3164 475.313 42.3164 476.499C42.3164 477.685 43.23 478.606 44.3439 478.606C45.025 478.606 45.5379 478.302 45.8584 477.813V478.502H46.5556V474.495H45.8584ZM44.432 477.933C43.6306 477.933 43.0136 477.316 43.0136 476.499C43.0136 475.681 43.6306 475.064 44.432 475.064C45.2414 475.064 45.8584 475.681 45.8584 476.499C45.8584 477.316 45.2414 477.933 44.432 477.933ZM50.6731 472.892L49.1986 473.405L49.3829 474.046L50.5769 473.694V478.502H51.3142V472.892H50.6731ZM52.2313 478.502H55.8534V477.781H53.3131L54.7475 476.354C55.3005 475.801 55.7492 475.2 55.7492 474.503C55.7492 473.397 54.8758 472.788 54.0023 472.788C53.273 472.788 52.5919 473.149 52.2313 473.894L52.8563 474.263C53.0967 473.758 53.4974 473.509 54.0103 473.509C54.5312 473.509 55.004 473.854 55.004 474.511C55.004 474.984 54.6514 475.433 54.2106 475.874L52.2313 477.893V478.502Z" fill="#20356F"/>
<path d="M36.6024 385.907H37.4278L36.1056 383.663C36.7787 383.423 37.2676 382.774 37.2676 382.037C37.2676 381.075 36.4822 380.298 35.5206 380.298H33.2768V385.907H34.0221V383.76H35.3443L36.6024 385.907ZM34.0221 380.995H35.5206C36.0735 380.995 36.5223 381.46 36.5223 382.037C36.5223 382.614 36.0735 383.086 35.5206 383.086H34.0221V380.995ZM40.7822 381.9V384.024C40.7822 384.97 40.2613 385.346 39.6202 385.346C39.0032 385.346 38.6265 384.978 38.6265 384.321V381.9H37.9294V384.361C37.9294 385.386 38.5464 386.011 39.484 386.011C40.045 386.011 40.4857 385.803 40.7822 385.33V385.907H41.4794V381.9H40.7822ZM45.8584 381.9V382.59C45.5379 382.101 45.025 381.796 44.3439 381.796C43.23 381.796 42.3164 382.718 42.3164 383.904C42.3164 385.09 43.23 386.011 44.3439 386.011C45.025 386.011 45.5379 385.707 45.8584 385.218V385.907H46.5556V381.9H45.8584ZM44.432 385.338C43.6306 385.338 43.0136 384.721 43.0136 383.904C43.0136 383.086 43.6306 382.469 44.432 382.469C45.2414 382.469 45.8584 383.086 45.8584 383.904C45.8584 384.721 45.2414 385.338 44.432 385.338ZM50.6731 380.298L49.1986 380.811L49.3829 381.452L50.5769 381.099V385.907H51.3142V380.298H50.6731ZM54.4751 382.598L55.6931 380.955V380.298H52.3274V380.995H54.8197L53.5215 382.75L53.818 383.207H54.0103C54.6834 383.207 55.1883 383.575 55.1883 384.248C55.1883 384.914 54.6834 385.282 54.0103 385.282C53.4013 385.282 52.9605 385.026 52.7922 384.505L52.1672 384.873C52.4557 385.627 53.1849 386.011 54.0103 386.011C55.02 386.011 55.9336 385.386 55.9336 384.248C55.9336 383.319 55.2845 382.75 54.4751 382.598Z" fill="#20356F"/>
<path d="M36.6024 258.853H37.4278L36.1056 256.609C36.7787 256.368 37.2676 255.719 37.2676 254.982C37.2676 254.02 36.4822 253.243 35.5206 253.243H33.2768V258.853H34.0221V256.705H35.3443L36.6024 258.853ZM34.0221 253.94H35.5206C36.0735 253.94 36.5223 254.405 36.5223 254.982C36.5223 255.559 36.0735 256.032 35.5206 256.032H34.0221V253.94ZM40.7822 254.846V256.969C40.7822 257.915 40.2613 258.292 39.6202 258.292C39.0032 258.292 38.6265 257.923 38.6265 257.266V254.846H37.9294V257.306C37.9294 258.332 38.5464 258.957 39.484 258.957C40.045 258.957 40.4857 258.748 40.7822 258.276V258.853H41.4794V254.846H40.7822ZM45.8584 254.846V255.535C45.5379 255.046 45.025 254.742 44.3439 254.742C43.23 254.742 42.3164 255.663 42.3164 256.849C42.3164 258.035 43.23 258.957 44.3439 258.957C45.025 258.957 45.5379 258.652 45.8584 258.163V258.853H46.5556V254.846H45.8584ZM44.432 258.284C43.6306 258.284 43.0136 257.667 43.0136 256.849C43.0136 256.032 43.6306 255.415 44.432 255.415C45.2414 255.415 45.8584 256.032 45.8584 256.849C45.8584 257.667 45.2414 258.284 44.432 258.284ZM50.6731 253.243L49.1986 253.756L49.3829 254.397L50.5769 254.044V258.853H51.3142V253.243H50.6731ZM56.4224 257.09H55.7412V255.503H54.996V257.09H52.9365L54.9479 253.243H54.1465L52.1351 257.09V257.787H54.996V258.853H55.7412V257.787H56.4224V257.09Z" fill="#20356F"/>
<path d="M36.6024 102.522H37.4278L36.1056 100.279C36.7787 100.038 37.2676 99.3892 37.2676 98.6519C37.2676 97.6903 36.4822 96.913 35.5206 96.913H33.2768V102.522H34.0221V100.375H35.3443L36.6024 102.522ZM34.0221 97.6101H35.5206C36.0735 97.6101 36.5223 98.0749 36.5223 98.6519C36.5223 99.2289 36.0735 99.7017 35.5206 99.7017H34.0221V97.6101ZM40.7822 98.5157V100.639C40.7822 101.585 40.2613 101.962 39.6202 101.962C39.0032 101.962 38.6265 101.593 38.6265 100.936V98.5157H37.9294V100.976C37.9294 102.002 38.5464 102.627 39.484 102.627C40.045 102.627 40.4857 102.418 40.7822 101.945V102.522H41.4794V98.5157H40.7822ZM45.8584 98.5157V99.2048C45.5379 98.716 45.025 98.4115 44.3439 98.4115C43.23 98.4115 42.3164 99.3331 42.3164 100.519C42.3164 101.705 43.23 102.627 44.3439 102.627C45.025 102.627 45.5379 102.322 45.8584 101.833V102.522H46.5556V98.5157H45.8584ZM44.432 101.953C43.6306 101.953 43.0136 101.336 43.0136 100.519C43.0136 99.7017 43.6306 99.0846 44.432 99.0846C45.2414 99.0846 45.8584 99.7017 45.8584 100.519C45.8584 101.336 45.2414 101.953 44.432 101.953ZM50.6731 96.913L49.1986 97.4258L49.3829 98.0669L50.5769 97.7143V102.522H51.3142V96.913H50.6731Z" fill="#20356F"/>
<path d="M270.817 60.873H271.643L270.32 58.6292C270.994 58.3888 271.482 57.7397 271.482 57.0025C271.482 56.0409 270.697 55.2635 269.735 55.2635H267.492V60.873H268.237V58.7254H269.559L270.817 60.873ZM268.237 55.9607H269.735C270.288 55.9607 270.737 56.4255 270.737 57.0025C270.737 57.5795 270.288 58.0523 269.735 58.0523H268.237V55.9607ZM274.997 56.8663V58.9899C274.997 59.9355 274.476 60.3121 273.835 60.3121C273.218 60.3121 272.841 59.9435 272.841 59.2864V56.8663H272.144V59.3264C272.144 60.3522 272.761 60.9772 273.699 60.9772C274.26 60.9772 274.701 60.7689 274.997 60.2961V60.873H275.694V56.8663H274.997ZM280.073 56.8663V57.5554C279.753 57.0666 279.24 56.7621 278.559 56.7621C277.445 56.7621 276.531 57.6836 276.531 58.8697C276.531 60.0557 277.445 60.9772 278.559 60.9772C279.24 60.9772 279.753 60.6727 280.073 60.1839V60.873H280.77V56.8663H280.073ZM278.647 60.3041C277.845 60.3041 277.228 59.687 277.228 58.8697C277.228 58.0523 277.845 57.4352 278.647 57.4352C279.456 57.4352 280.073 58.0523 280.073 58.8697C280.073 59.687 279.456 60.3041 278.647 60.3041ZM284.888 55.2635L283.413 55.7764L283.598 56.4175L284.792 56.0649V60.873H285.529V55.2635H284.888ZM288.682 60.9772C290.076 60.9772 290.846 59.7992 290.846 58.0683C290.846 56.3374 290.076 55.1594 288.682 55.1594C287.296 55.1594 286.518 56.3374 286.518 58.0683C286.518 59.7992 287.296 60.9772 288.682 60.9772ZM288.682 60.248C287.776 60.248 287.264 59.4627 287.264 58.0683C287.264 56.6739 287.776 55.8806 288.682 55.8806C289.587 55.8806 290.108 56.6739 290.108 58.0683C290.108 59.4627 289.587 60.248 288.682 60.248Z" fill="#20356F"/>
<path d="M270.817 274.357H271.643L270.32 272.114C270.994 271.873 271.482 271.224 271.482 270.487C271.482 269.525 270.697 268.748 269.735 268.748H267.492V274.357H268.237V272.21H269.559L270.817 274.357ZM268.237 269.445H269.735C270.288 269.445 270.737 269.91 270.737 270.487C270.737 271.064 270.288 271.537 269.735 271.537H268.237V269.445ZM274.997 270.351V272.474C274.997 273.42 274.476 273.796 273.835 273.796C273.218 273.796 272.841 273.428 272.841 272.771V270.351H272.144V272.811C272.144 273.837 272.761 274.462 273.699 274.462C274.26 274.462 274.701 274.253 274.997 273.78V274.357H275.694V270.351H274.997ZM280.073 270.351V271.04C279.753 270.551 279.24 270.246 278.559 270.246C277.445 270.246 276.531 271.168 276.531 272.354C276.531 273.54 277.445 274.462 278.559 274.462C279.24 274.462 279.753 274.157 280.073 273.668V274.357H280.77V270.351H280.073ZM278.647 273.788C277.845 273.788 277.228 273.171 277.228 272.354C277.228 271.537 277.845 270.92 278.647 270.92C279.456 270.92 280.073 271.537 280.073 272.354C280.073 273.171 279.456 273.788 278.647 273.788ZM285.465 270.936H284.648L284.744 269.445H287.14V268.748H284.071L283.862 271.657H285.449C286.114 271.657 286.619 272.025 286.619 272.699C286.619 273.364 286.114 273.732 285.433 273.732C284.824 273.732 284.367 273.452 284.215 272.899L283.582 273.26C283.854 274.061 284.607 274.462 285.433 274.462C286.443 274.462 287.356 273.837 287.356 272.699C287.356 271.553 286.467 270.936 285.465 270.936Z" fill="#20356F"/>
<path d="M284.364 433.282H285.19L283.867 431.038C284.54 430.798 285.029 430.149 285.029 429.412C285.029 428.45 284.244 427.673 283.282 427.673H281.039V433.282H281.784V431.135H283.106L284.364 433.282ZM281.784 428.37H283.282C283.835 428.37 284.284 428.835 284.284 429.412C284.284 429.989 283.835 430.461 283.282 430.461H281.784V428.37ZM288.544 429.275V431.399C288.544 432.345 288.023 432.721 287.382 432.721C286.765 432.721 286.388 432.353 286.388 431.696V429.275H285.691V431.736C285.691 432.761 286.308 433.386 287.246 433.386C287.807 433.386 288.247 433.178 288.544 432.705V433.282H289.241V429.275H288.544ZM293.62 429.275V429.965C293.3 429.476 292.787 429.171 292.106 429.171C290.992 429.171 290.078 430.093 290.078 431.279C290.078 432.465 290.992 433.386 292.106 433.386C292.787 433.386 293.3 433.082 293.62 432.593V433.282H294.317V429.275H293.62ZM292.194 432.713C291.392 432.713 290.775 432.096 290.775 431.279C290.775 430.461 291.392 429.844 292.194 429.844C293.003 429.844 293.62 430.461 293.62 431.279C293.62 432.096 293.003 432.713 292.194 432.713ZM299.004 429.612C298.916 429.612 298.827 429.62 298.739 429.628L300.062 427.673H299.212L297.409 430.373C297.193 430.678 297.072 431.062 297.072 431.495C297.072 432.609 297.874 433.386 299.004 433.386C300.126 433.386 300.935 432.609 300.935 431.495C300.935 430.381 300.126 429.612 299.004 429.612ZM299.004 432.673C298.299 432.673 297.81 432.208 297.81 431.495C297.81 430.782 298.299 430.325 299.004 430.325C299.701 430.325 300.198 430.79 300.198 431.495C300.198 432.208 299.701 432.673 299.004 432.673Z" fill="#20356F"/>
<path d="M273.2 544.832H274.025L272.703 542.588C273.376 542.348 273.865 541.699 273.865 540.961C273.865 540 273.08 539.223 272.118 539.223H269.874V544.832H270.62V542.684H271.942L273.2 544.832ZM270.62 539.92H272.118C272.671 539.92 273.12 540.384 273.12 540.961C273.12 541.538 272.671 542.011 272.118 542.011H270.62V539.92ZM277.38 540.825V542.949C277.38 543.894 276.859 544.271 276.218 544.271C275.601 544.271 275.224 543.902 275.224 543.245V540.825H274.527V543.285C274.527 544.311 275.144 544.936 276.082 544.936C276.643 544.936 277.083 544.728 277.38 544.255V544.832H278.077V540.825H277.38ZM282.456 540.825V541.514C282.136 541.026 281.623 540.721 280.942 540.721C279.828 540.721 278.914 541.643 278.914 542.829C278.914 544.015 279.828 544.936 280.942 544.936C281.623 544.936 282.136 544.632 282.456 544.143V544.832H283.153V540.825H282.456ZM281.03 544.263C280.228 544.263 279.611 543.646 279.611 542.829C279.611 542.011 280.228 541.394 281.03 541.394C281.839 541.394 282.456 542.011 282.456 542.829C282.456 543.646 281.839 544.263 281.03 544.263ZM288.954 541.931C289.362 541.675 289.643 541.258 289.643 540.705C289.643 539.631 288.793 539.118 287.904 539.118C287.022 539.118 286.173 539.631 286.173 540.705C286.173 541.258 286.453 541.675 286.862 541.931C286.325 542.204 285.989 542.684 285.989 543.293C285.989 544.343 286.814 544.936 287.904 544.936C289.002 544.936 289.827 544.343 289.827 543.293C289.827 542.684 289.49 542.204 288.954 541.931ZM287.904 539.832C288.433 539.832 288.897 540.096 288.897 540.721C288.897 541.314 288.433 541.619 287.904 541.619C287.383 541.619 286.91 541.314 286.91 540.721C286.91 540.096 287.383 539.832 287.904 539.832ZM287.904 544.223C287.223 544.223 286.726 543.894 286.726 543.245C286.726 542.604 287.223 542.276 287.904 542.276C288.593 542.276 289.09 542.604 289.09 543.245C289.09 543.894 288.593 544.223 287.904 544.223Z" fill="#20356F"/>
<path d="M155.195 193.137L155.695 193.753L158.737 188.597L158.207 187.943L152.532 189.849L153.031 190.466L154.296 190.028L155.885 191.99L155.195 193.137ZM154.999 189.789L157.778 188.827L156.266 191.352L154.999 189.789ZM160.846 193.747L157.52 194.822L159.262 191.792L158.788 191.206L156.684 194.974L157.198 195.609L161.32 194.332L160.846 193.747ZM158.329 197.145C158.516 197.375 158.838 197.403 159.062 197.222C159.286 197.04 159.325 196.719 159.138 196.489C158.957 196.265 158.63 196.231 158.406 196.412C158.182 196.594 158.147 196.921 158.329 197.145ZM162.979 202.744L163.478 203.361L166.52 198.204L165.99 197.55L160.315 199.456L160.815 200.073L162.08 199.636L163.669 201.597L162.979 202.744ZM162.783 199.396L165.562 198.434L164.049 200.959L162.783 199.396ZM170.237 202.792L168.456 204.235C168.635 203.678 168.548 203.088 168.12 202.559C167.418 201.693 166.127 201.564 165.206 202.31C164.284 203.057 164.143 204.347 164.844 205.212C165.273 205.742 165.833 205.948 166.414 205.89L165.879 206.323L166.318 206.865L170.676 203.334L170.237 202.792ZM165.423 204.857C164.918 204.234 165.009 203.366 165.645 202.852C166.28 202.337 167.148 202.428 167.652 203.051C168.161 203.68 168.07 204.548 167.435 205.062C166.8 205.577 165.932 205.486 165.423 204.857ZM170.884 204.979C171.046 205.178 171.339 205.209 171.538 205.047C171.737 204.886 171.774 204.588 171.613 204.388C171.446 204.183 171.147 204.157 170.948 204.319C170.749 204.48 170.718 204.773 170.884 204.979ZM166.983 207.686L167.421 208.228L170.535 205.705L170.096 205.164L166.983 207.686ZM174.538 208.101L172.757 209.543C172.935 208.987 172.849 208.396 172.42 207.867C171.719 207.002 170.428 206.872 169.506 207.619C168.585 208.365 168.444 209.655 169.145 210.521C169.574 211.05 170.133 211.257 170.715 211.198L170.179 211.632L170.618 212.174L174.977 208.642L174.538 208.101ZM169.724 210.165C169.219 209.543 169.31 208.675 169.945 208.16C170.58 207.646 171.448 207.737 171.953 208.359C172.462 208.988 172.371 209.856 171.736 210.371C171.101 210.885 170.233 210.794 169.724 210.165ZM176.485 213.05L175.949 213.484C176.127 212.927 176.041 212.337 175.612 211.807C174.911 210.942 173.62 210.812 172.699 211.559C171.777 212.305 171.636 213.595 172.337 214.461C172.766 214.99 173.325 215.197 173.907 215.138L173.372 215.572L173.81 216.114L176.924 213.592L176.485 213.05ZM172.916 214.106C172.411 213.483 172.502 212.615 173.137 212.101C173.773 211.586 174.64 211.677 175.145 212.3C175.654 212.929 175.563 213.796 174.928 214.311C174.293 214.826 173.425 214.735 172.916 214.106ZM177.122 215.554C177.402 215.327 177.761 215.49 177.988 215.77C178.21 216.044 178.313 216.414 178.129 216.759L178.752 217.007C178.996 216.48 178.906 215.872 178.492 215.362C177.983 214.733 177.219 214.567 176.671 215.011C175.544 215.924 177.337 217.36 176.67 217.9C176.365 218.147 176.015 217.956 175.748 217.626C175.435 217.24 175.39 216.803 175.608 216.461L174.962 216.211C174.678 216.739 174.733 217.417 175.237 218.04C175.777 218.706 176.535 218.917 177.114 218.448C178.26 217.52 176.455 216.094 177.122 215.554Z" fill="#20356F"/>
<path d="M281.127 356.45L281.581 355.799L275.785 354.301L275.303 354.991L278.704 359.918L279.158 359.268L278.388 358.173L279.834 356.103L281.127 356.45ZM277.964 357.563L276.271 355.159L279.116 355.914L277.964 357.563ZM280.151 350.85L282.104 353.749L278.71 352.913L278.278 353.53L282.481 354.511L282.949 353.841L280.582 350.233L280.151 350.85ZM284.112 352.33C284.282 352.087 284.22 351.77 283.984 351.604C283.747 351.439 283.428 351.49 283.258 351.733C283.093 351.97 283.151 352.293 283.387 352.458C283.624 352.624 283.947 352.566 284.112 352.33ZM283.49 343.272L286.919 345.667L281.838 345.637L281.494 346.129L286.092 349.342L286.519 348.731L283.083 346.331L288.171 346.366L288.516 345.873L283.917 342.661L283.49 343.272ZM285.481 341.947C285.628 341.737 285.576 341.447 285.366 341.3C285.156 341.153 284.859 341.2 284.712 341.41C284.561 341.627 284.619 341.922 284.829 342.069C285.039 342.216 285.329 342.164 285.481 341.947ZM289.161 344.949L289.561 344.377L286.276 342.082L285.877 342.654L289.161 344.949ZM292.111 340.726L289.283 341.165L288.79 338.484L288.276 339.22L288.736 341.653L285.971 339.721L285.571 340.293L290.17 343.505L290.569 342.934L289.012 341.846L291.615 341.436L292.111 340.726ZM291.172 339.132L293.095 336.379C293.019 336.307 292.938 336.24 292.853 336.181C291.933 335.538 290.669 335.613 289.976 336.605C289.26 337.63 289.529 338.854 290.501 339.533C291.486 340.221 292.72 340.037 293.459 338.979C293.918 338.323 293.971 337.617 293.726 337.016L293.11 337.309C293.265 337.661 293.246 338.137 292.929 338.59C292.502 339.201 291.841 339.433 291.172 339.132ZM290.514 336.981C290.858 336.489 291.487 336.233 292.206 336.589L290.673 338.783C290.166 338.292 290.083 337.599 290.514 336.981Z" fill="#20356F"/>
<path d="M157.826 523.46L158.28 522.81L152.484 521.312L152.002 522.002L155.403 526.929L155.857 526.278L155.087 525.184L156.533 523.114L157.826 523.46ZM154.663 524.574L152.97 522.17L155.815 522.925L154.663 524.574ZM156.85 517.861L158.803 520.76L155.409 519.924L154.978 520.541L159.18 521.522L159.648 520.852L157.281 517.243L156.85 517.861ZM160.812 519.341C160.981 519.097 160.919 518.78 160.683 518.615C160.446 518.45 160.127 518.501 159.958 518.744C159.792 518.98 159.85 519.304 160.086 519.469C160.323 519.634 160.646 519.577 160.812 519.341ZM160.189 510.282L163.619 512.678L158.537 512.647L158.193 513.14L162.792 516.352L163.218 515.742L159.783 513.341L164.871 513.377L165.215 512.884L160.616 509.671L160.189 510.282ZM162.18 508.958C162.327 508.748 162.275 508.458 162.065 508.311C161.855 508.164 161.558 508.211 161.412 508.421C161.26 508.638 161.318 508.933 161.528 509.079C161.739 509.226 162.029 509.175 162.18 508.958ZM165.861 511.959L166.26 511.388L162.975 509.093L162.576 509.665L165.861 511.959ZM168.81 507.737L165.982 508.176L165.489 505.495L164.975 506.231L165.435 508.664L162.67 506.732L162.271 507.303L166.869 510.516L167.268 509.944L165.711 508.857L168.315 508.447L168.81 507.737ZM167.871 506.143L169.794 503.39C169.718 503.317 169.637 503.251 169.552 503.191C168.632 502.549 167.368 502.624 166.675 503.616C165.959 504.64 166.228 505.865 167.2 506.544C168.186 507.232 169.419 507.048 170.158 505.99C170.617 505.333 170.67 504.627 170.425 504.026L169.81 504.32C169.964 504.672 169.945 505.147 169.628 505.601C169.201 506.212 168.541 506.444 167.871 506.143ZM167.214 503.992C167.558 503.499 168.186 503.244 168.905 503.6L167.372 505.794C166.865 505.303 166.782 504.609 167.214 503.992Z" fill="#20356F"/>
<path d="M39.9042 681.026L40.3586 680.375L34.5622 678.877L34.0804 679.567L37.481 684.494L37.9354 683.844L37.1656 682.749L38.6112 680.68L39.9042 681.026ZM36.7409 682.139L35.0482 679.735L37.8929 680.491L36.7409 682.139ZM38.9282 675.426L40.8814 678.326L37.4872 677.489L37.0558 678.107L41.2583 679.087L41.7264 678.417L39.3596 674.809L38.9282 675.426ZM42.8898 676.906C43.0596 676.663 42.9976 676.346 42.7611 676.181C42.5246 676.015 42.2056 676.066 42.0358 676.309C41.8706 676.546 41.928 676.869 42.1645 677.035C42.401 677.2 42.7246 677.142 42.8898 676.906ZM42.2676 667.848L45.6967 670.243L40.6154 670.213L40.2712 670.705L44.8697 673.918L45.2965 673.307L41.8608 670.907L46.9487 670.942L47.2929 670.449L42.6944 667.237L42.2676 667.848ZM44.2582 666.523C44.4051 666.313 44.3536 666.023 44.1434 665.876C43.9332 665.729 43.6365 665.776 43.4896 665.987C43.3382 666.203 43.3962 666.498 43.6064 666.645C43.8167 666.792 44.1068 666.74 44.2582 666.523ZM47.9388 669.525L48.338 668.953L45.0534 666.659L44.6541 667.23L47.9388 669.525ZM50.8884 665.303L48.06 665.741L47.5671 663.06L47.0531 663.796L47.5136 666.229L44.7479 664.297L44.3487 664.869L48.9471 668.081L49.3464 667.51L47.7895 666.422L50.3928 666.012L50.8884 665.303ZM49.9495 663.708L51.8724 660.956C51.7962 660.883 51.7154 660.817 51.63 660.757C50.7103 660.114 49.4459 660.189 48.753 661.181C48.037 662.206 48.306 663.43 49.2783 664.109C50.2637 664.798 51.4971 664.613 52.2359 663.556C52.6949 662.899 52.748 662.193 52.5033 661.592L51.8877 661.885C52.0423 662.238 52.0231 662.713 51.7064 663.166C51.2796 663.777 50.6187 664.009 49.9495 663.708ZM49.2916 661.557C49.6358 661.065 50.2639 660.809 50.9831 661.165L49.4502 663.359C48.943 662.868 48.8602 662.175 49.2916 661.557Z" fill="#20356F"/>
<path d="M38.414 46.5547L38.9134 47.1711L41.9554 42.0148L41.4257 41.361L35.7505 43.2671L36.2499 43.8835L37.515 43.4464L39.104 45.4078L38.414 46.5547ZM38.2181 43.2068L40.9969 42.2447L39.4843 44.7697L38.2181 43.2068ZM44.0649 47.1647L40.7387 48.2402L42.4809 45.2095L42.0067 44.6242L39.9024 48.3918L40.4169 49.0269L44.5391 47.75L44.0649 47.1647ZM41.5478 50.5628C41.7344 50.7932 42.0563 50.8213 42.2804 50.6397C42.5046 50.458 42.5439 50.1374 42.3572 49.907C42.1756 49.6829 41.8488 49.6486 41.6246 49.8302C41.4005 50.0118 41.3662 50.3387 41.5478 50.5628ZM46.1976 56.1621L46.697 56.7785L49.7389 51.6222L49.2092 50.9684L43.534 52.8744L44.0334 53.4909L45.2986 53.0538L46.8876 55.0152L46.1976 56.1621ZM46.0017 52.8142L48.7804 51.8521L47.2679 54.377L46.0017 52.8142ZM53.456 56.2103L51.6752 57.653C51.8533 57.0962 51.767 56.506 51.3383 55.9768C50.6371 55.1113 49.3459 54.9816 48.4244 55.7282C47.5029 56.4748 47.3619 57.7647 48.0631 58.6302C48.4919 59.1595 49.0513 59.3663 49.6329 59.3076L49.0975 59.7415L49.5363 60.2832L53.8949 56.752L53.456 56.2103ZM48.6416 58.275C48.1372 57.6523 48.2282 56.7844 48.8633 56.2699C49.4984 55.7554 50.3663 55.8464 50.8707 56.469C51.3802 57.0979 51.2892 57.9658 50.6541 58.4803C50.019 58.9949 49.1511 58.9039 48.6416 58.275ZM54.1031 58.3966C54.2645 58.5958 54.5576 58.6265 54.7568 58.4651C54.9561 58.3037 54.993 58.0056 54.8316 57.8063C54.6652 57.6009 54.3659 57.5752 54.1666 57.7366C53.9674 57.898 53.9366 58.1911 54.1031 58.3966ZM50.2013 61.1039L50.6401 61.6456L53.7534 59.1234L53.3145 58.5816L50.2013 61.1039ZM57.7567 61.5187L55.9759 62.9614C56.154 62.4046 56.0677 61.8144 55.6389 61.2852C54.9377 60.4197 53.6466 60.29 52.7251 61.0366C51.8035 61.7832 51.6626 63.0731 52.3638 63.9386C52.7925 64.4679 53.352 64.6747 53.9336 64.616L53.3981 65.0498L53.837 65.5916L58.1956 62.0604L57.7567 61.5187ZM52.9423 63.5834C52.4378 62.9607 52.5288 62.0928 53.1639 61.5783C53.7991 61.0637 54.6669 61.1548 55.1714 61.7774C55.6809 62.4063 55.5899 63.2742 54.9548 63.7887C54.3196 64.3033 53.4518 64.2122 52.9423 63.5834ZM59.7036 66.4678L59.1682 66.9016C59.3462 66.3449 59.26 65.7547 58.8312 65.2254C58.13 64.3599 56.8388 64.2302 55.9173 64.9768C54.9958 65.7234 54.8548 67.0134 55.556 67.8788C55.9848 68.4081 56.5442 68.6149 57.1258 68.5563L56.5904 68.9901L57.0292 69.5318L60.1425 67.0095L59.7036 66.4678ZM56.1345 67.5236C55.6301 66.9009 55.7211 66.0331 56.3562 65.5185C56.9913 65.004 57.8592 65.095 58.3636 65.7177C58.8731 66.3465 58.7821 67.2144 58.147 67.729C57.5119 68.2435 56.644 68.1525 56.1345 67.5236ZM60.3403 68.9722C60.6205 68.7452 60.9794 68.9082 61.2064 69.1884C61.4284 69.4623 61.532 69.8322 61.3477 70.1775L61.9712 70.4252C62.2145 69.898 62.1244 69.2903 61.7108 68.7798C61.2013 68.1509 60.4381 67.9854 59.8901 68.4293C58.7631 69.3424 60.5554 70.7781 59.8892 71.3178C59.5841 71.565 59.2337 71.3744 58.9664 71.0444C58.6536 70.6584 58.6083 70.2206 58.8265 69.8789L58.1804 69.6288C57.8971 70.1574 57.9513 70.8354 58.4558 71.4581C58.9956 72.1243 59.754 72.3349 60.3331 71.8658C61.4788 70.9376 59.674 69.512 60.3403 68.9722Z" fill="#20356F"/>
<path d="M39.0331 823.215H39.752L38.6004 821.261C39.1867 821.051 39.6124 820.486 39.6124 819.844C39.6124 819.006 38.9284 818.329 38.0909 818.329H36.1367V823.215H36.7858V821.344H37.9374L39.0331 823.215ZM36.7858 818.937L38.0909 818.937C38.5725 818.937 38.9633 819.341 38.9633 819.844C38.9633 820.346 38.5725 820.758 38.0909 820.758H36.7858V818.937ZM42.6734 819.725V821.575C42.6734 822.398 42.2197 822.726 41.6614 822.726C41.124 822.726 40.796 822.405 40.796 821.833V819.725H40.1888V821.868C40.1888 822.761 40.7262 823.306 41.5428 823.306C42.0313 823.306 42.4152 823.124 42.6734 822.712V823.215H43.2806V819.725H42.6734ZM47.0944 819.725V820.325C46.8152 819.9 46.3686 819.634 45.7753 819.634C44.8052 819.634 44.0096 820.437 44.0096 821.47C44.0096 822.503 44.8052 823.306 45.7753 823.306C46.3686 823.306 46.8152 823.04 47.0944 822.615V823.215H47.7016V819.725H47.0944ZM45.8521 822.719C45.1542 822.719 44.6168 822.182 44.6168 821.47C44.6168 820.758 45.1542 820.221 45.8521 820.221C46.557 820.221 47.0944 820.758 47.0944 821.47C47.0944 822.182 46.557 822.719 45.8521 822.719ZM52.1112 820.332L53.172 818.902V818.329H50.2408V818.937H52.4113L51.2807 820.465L51.5389 820.863H51.7064C52.2927 820.863 52.7323 821.184 52.7323 821.77C52.7323 822.349 52.2927 822.67 51.7064 822.67C51.176 822.67 50.7921 822.447 50.6455 821.993L50.1012 822.315C50.3524 822.971 50.9875 823.306 51.7064 823.306C52.5858 823.306 53.3814 822.761 53.3814 821.77C53.3814 820.961 52.8161 820.465 52.1112 820.332Z" fill="#20356F"/>
<path d="M20.4198 884.429H21.1387L19.9871 882.475C20.5734 882.265 20.9991 881.7 20.9991 881.058C20.9991 880.22 20.3151 879.543 19.4776 879.543H17.5234V884.429H18.1725V882.558H19.3241L20.4198 884.429ZM18.1725 880.15L19.4776 880.15C19.9592 880.15 20.35 880.555 20.35 881.058C20.35 881.56 19.9592 881.972 19.4776 881.972H18.1725V880.15ZM24.0601 880.939V882.789C24.0601 883.612 23.6065 883.94 23.0481 883.94C22.5107 883.94 22.1827 883.619 22.1827 883.047V880.939H21.5755V883.082C21.5755 883.975 22.1129 884.519 22.9295 884.519C23.418 884.519 23.8019 884.338 24.0601 883.926V884.429H24.6673V880.939H24.0601ZM28.4811 880.939V881.539C28.202 881.114 27.7553 880.848 27.1621 880.848C26.1919 880.848 25.3963 881.651 25.3963 882.684C25.3963 883.717 26.1919 884.519 27.1621 884.519C27.7553 884.519 28.202 884.254 28.4811 883.828V884.429H29.0883V880.939H28.4811ZM27.2388 883.933C26.5409 883.933 26.0035 883.396 26.0035 882.684C26.0035 881.972 26.5409 881.435 27.2388 881.435C27.9437 881.435 28.4811 881.972 28.4811 882.684C28.4811 883.396 27.9437 883.933 27.2388 883.933ZM35.1939 882.893H34.6006V881.511H33.9516V882.893H32.1579L33.9097 879.543H33.2118L31.46 882.893V883.5H33.9516V884.429H34.6006V883.5H35.1939V882.893Z" fill="#20356F"/>
<path d="M102.824 942.559L102.824 941.868L97.9387 943.69L97.9387 944.422L102.824 946.244L102.824 945.553L101.728 945.155L101.728 942.957L102.824 942.559ZM101.121 944.932L98.7134 944.059L101.121 943.18L101.121 944.932ZM99.3346 939.048L102.175 940.144L99.3346 941.24L99.3346 941.896L102.824 940.5L102.824 939.788L99.3346 938.392L99.3346 939.048ZM102.901 938.128C102.901 937.87 102.699 937.675 102.447 937.675C102.196 937.675 101.994 937.87 101.994 938.128C101.994 938.38 102.196 938.582 102.447 938.582C102.699 938.582 102.901 938.38 102.901 938.128ZM97.9387 931.972L101.582 931.972L97.9387 934.484L97.9387 935.008L102.824 935.008L102.824 934.359L99.1741 934.359L102.824 931.846L102.824 931.323L97.9387 931.323L97.9387 931.972ZM98.6995 930.033C98.6995 929.81 98.518 929.628 98.2947 929.628C98.0713 929.628 97.8829 929.81 97.8829 930.033C97.8829 930.264 98.0713 930.445 98.2947 930.445C98.518 930.445 98.6995 930.264 98.6995 930.033ZM102.824 930.34L102.824 929.733L99.3346 929.733L99.3346 930.34L102.824 930.34ZM102.824 925.855L101.024 927.578L99.3346 925.91L99.3346 926.692L100.877 928.2L97.9387 928.2L97.9387 928.807L102.824 928.807L102.824 928.2L101.17 928.2L102.824 926.608L102.824 925.855ZM101.359 925.185L101.359 922.26C101.268 922.246 101.177 922.239 101.086 922.239C100.109 922.239 99.2439 922.923 99.2439 923.977C99.2439 925.066 100.046 925.806 101.079 925.806C102.126 925.806 102.915 925.059 102.915 923.935C102.915 923.237 102.601 922.707 102.126 922.4L101.833 922.916C102.119 923.091 102.343 923.44 102.343 923.921C102.343 924.57 101.987 925.066 101.359 925.185ZM99.8162 923.977C99.8162 923.454 100.137 922.958 100.828 922.853L100.828 925.185C100.221 925.087 99.8162 924.633 99.8162 923.977Z" fill="#20356F"/>
<path d="M182.535 942.559L182.535 941.868L177.65 943.69L177.65 944.422L182.535 946.244L182.535 945.553L181.439 945.155L181.439 942.957L182.535 942.559ZM180.832 944.932L178.424 944.059L180.832 943.18L180.832 944.932ZM179.046 939.048L181.886 940.144L179.046 941.24L179.046 941.896L182.535 940.5L182.535 939.788L179.046 938.392L179.046 939.048ZM182.612 938.128C182.612 937.87 182.41 937.675 182.158 937.675C181.907 937.675 181.705 937.87 181.705 938.128C181.705 938.38 181.907 938.582 182.158 938.582C182.41 938.582 182.612 938.38 182.612 938.128ZM177.65 931.972L181.293 931.972L177.65 934.484L177.65 935.008L182.535 935.008L182.535 934.359L178.885 934.359L182.535 931.846L182.535 931.323L177.65 931.323L177.65 931.972ZM178.41 930.033C178.41 929.81 178.229 929.628 178.006 929.628C177.782 929.628 177.594 929.81 177.594 930.033C177.594 930.264 177.782 930.445 178.006 930.445C178.229 930.445 178.41 930.264 178.41 930.033ZM182.535 930.34L182.535 929.733L179.046 929.733L179.046 930.34L182.535 930.34ZM182.535 925.855L180.735 927.578L179.046 925.91L179.046 926.692L180.588 928.2L177.65 928.2L177.65 928.807L182.535 928.807L182.535 928.2L180.881 928.2L182.535 926.608L182.535 925.855ZM181.07 925.185L181.07 922.26C180.979 922.246 180.888 922.239 180.797 922.239C179.82 922.239 178.955 922.923 178.955 923.977C178.955 925.066 179.757 925.806 180.79 925.806C181.837 925.806 182.626 925.059 182.626 923.935C182.626 923.237 182.312 922.707 181.837 922.4L181.544 922.916C181.83 923.091 182.054 923.44 182.054 923.921C182.054 924.57 181.698 925.066 181.07 925.185ZM179.527 923.977C179.527 923.454 179.848 922.958 180.539 922.853L180.539 925.185C179.932 925.087 179.527 924.633 179.527 923.977Z" fill="#20356F"/>
<path d="M262.227 942.559L262.227 941.868L257.341 943.69L257.341 944.422L262.227 946.244L262.227 945.553L261.131 945.155L261.131 942.957L262.227 942.559ZM260.524 944.932L258.116 944.059L260.524 943.18L260.524 944.932ZM258.737 939.048L261.577 940.144L258.737 941.24L258.737 941.896L262.227 940.5L262.227 939.788L258.737 938.392L258.737 939.048ZM262.303 938.128C262.303 937.87 262.101 937.675 261.85 937.675C261.598 937.675 261.396 937.87 261.396 938.128C261.396 938.38 261.598 938.582 261.85 938.582C262.101 938.582 262.303 938.38 262.303 938.128ZM257.341 931.972L260.984 931.972L257.341 934.484L257.341 935.008L262.227 935.008L262.227 934.359L258.576 934.359L262.227 931.846L262.227 931.323L257.341 931.323L257.341 931.972ZM258.102 930.033C258.102 929.81 257.92 929.628 257.697 929.628C257.474 929.628 257.285 929.81 257.285 930.033C257.285 930.264 257.474 930.445 257.697 930.445C257.92 930.445 258.102 930.264 258.102 930.033ZM262.227 930.34L262.227 929.733L258.737 929.733L258.737 930.34L262.227 930.34ZM262.227 925.855L260.426 927.578L258.737 925.91L258.737 926.692L260.279 928.2L257.341 928.2L257.341 928.807L262.227 928.807L262.227 928.2L260.572 928.2L262.227 926.608L262.227 925.855ZM260.761 925.185L260.761 922.26C260.67 922.246 260.579 922.239 260.489 922.239C259.512 922.239 258.646 922.923 258.646 923.977C258.646 925.066 259.449 925.806 260.482 925.806C261.529 925.806 262.317 925.059 262.317 923.935C262.317 923.237 262.003 922.707 261.529 922.4L261.236 922.916C261.522 923.091 261.745 923.44 261.745 923.921C261.745 924.57 261.389 925.066 260.761 925.185ZM259.219 923.977C259.219 923.454 259.54 922.958 260.23 922.853L260.23 925.185C259.623 925.087 259.219 924.633 259.219 923.977Z" fill="#20356F"/>
<path d="M300.205 838.102H300.924L299.772 836.147C300.359 835.938 300.784 835.373 300.784 834.731C300.784 833.893 300.1 833.216 299.263 833.216H297.309V838.102H297.958V836.231H299.109L300.205 838.102ZM297.958 833.823L299.263 833.823C299.744 833.823 300.135 834.228 300.135 834.731C300.135 835.233 299.744 835.645 299.263 835.645H297.958V833.823ZM303.845 834.612V836.461C303.845 837.285 303.392 837.613 302.833 837.613C302.296 837.613 301.968 837.292 301.968 836.72V834.612H301.361V836.755C301.361 837.648 301.898 838.192 302.715 838.192C303.203 838.192 303.587 838.011 303.845 837.599V838.102H304.452V834.612H303.845ZM308.266 834.612V835.212C307.987 834.786 307.54 834.521 306.947 834.521C305.977 834.521 305.181 835.324 305.181 836.357C305.181 837.39 305.977 838.192 306.947 838.192C307.54 838.192 307.987 837.927 308.266 837.501V838.102H308.873V834.612H308.266ZM307.024 837.606C306.326 837.606 305.789 837.069 305.789 836.357C305.789 835.645 306.326 835.107 307.024 835.107C307.729 835.107 308.266 835.645 308.266 836.357C308.266 837.069 307.729 837.606 307.024 837.606ZM312.955 834.905C312.878 834.905 312.801 834.912 312.725 834.919L313.876 833.216H313.137L311.566 835.568C311.378 835.833 311.273 836.168 311.273 836.545C311.273 837.515 311.971 838.192 312.955 838.192C313.932 838.192 314.637 837.515 314.637 836.545C314.637 835.575 313.932 834.905 312.955 834.905ZM312.955 837.571C312.341 837.571 311.915 837.166 311.915 836.545C311.915 835.924 312.341 835.526 312.955 835.526C313.562 835.526 313.995 835.931 313.995 836.545C313.995 837.166 313.562 837.571 312.955 837.571Z" fill="#20356F"/>
<path d="M31.474 926.023L31.8697 925.456L26.8215 924.152L26.4018 924.752L29.3636 929.044L29.7593 928.477L29.0888 927.524L30.3479 925.721L31.474 926.023ZM28.719 926.993L27.2447 924.899L29.7222 925.557L28.719 926.993ZM30.6239 921.146L32.325 923.671L29.3689 922.943L28.9932 923.48L32.6533 924.335L33.061 923.751L30.9997 920.608L30.6239 921.146ZM34.0742 922.435C34.2221 922.223 34.1681 921.947 33.9621 921.803C33.7561 921.659 33.4783 921.703 33.3304 921.915C33.1865 922.121 33.2365 922.403 33.4425 922.547C33.6485 922.691 33.9303 922.641 34.0742 922.435ZM33.5323 914.546L36.5188 916.632L32.0934 916.605L31.7936 917.034L35.7986 919.832L36.1703 919.3L33.178 917.21L37.6092 917.241L37.909 916.811L33.904 914.014L33.5323 914.546ZM35.266 913.392C35.3939 913.209 35.3491 912.957 35.166 912.829C34.9829 912.701 34.7245 912.742 34.5966 912.925C34.4647 913.113 34.5153 913.37 34.6984 913.498C34.8814 913.626 35.1341 913.581 35.266 913.392ZM38.4715 916.006L38.8192 915.509L35.9585 913.51L35.6108 914.008L38.4715 916.006ZM41.0404 912.329L38.5771 912.711L38.1478 910.376L37.7001 911.017L38.1012 913.136L35.6925 911.453L35.3448 911.951L39.3497 914.749L39.6975 914.251L38.3415 913.304L40.6088 912.947L41.0404 912.329ZM40.2227 910.94L41.8974 908.543C41.831 908.48 41.7607 908.422 41.6863 908.37C40.8853 907.81 39.7841 907.876 39.1806 908.739C38.5571 909.632 38.7913 910.698 39.6381 911.29C40.4963 911.889 41.5705 911.729 42.214 910.808C42.6137 910.235 42.66 909.621 42.4468 909.097L41.9108 909.353C42.0454 909.66 42.0287 910.074 41.7529 910.468C41.3811 911 40.8056 911.203 40.2227 910.94ZM39.6497 909.067C39.9495 908.638 40.4965 908.416 41.1229 908.726L39.7879 910.637C39.3461 910.209 39.274 909.605 39.6497 909.067Z" fill="#20356F"/>
<path d="M130.833 794.35L131.229 793.783L126.181 792.479L125.761 793.08L128.723 797.371L129.119 796.804L128.448 795.851L129.707 794.048L130.833 794.35ZM128.078 795.32L126.604 793.226L129.082 793.884L128.078 795.32ZM129.983 789.473L131.684 791.998L128.728 791.27L128.353 791.808L132.013 792.662L132.42 792.078L130.359 788.935L129.983 789.473ZM133.434 790.762C133.581 790.55 133.527 790.274 133.321 790.13C133.116 789.986 132.838 790.031 132.69 790.242C132.546 790.448 132.596 790.73 132.802 790.874C133.008 791.018 133.29 790.968 133.434 790.762ZM132.892 782.873L135.878 784.959L131.453 784.933L131.153 785.362L135.158 788.16L135.53 787.627L132.537 785.537L136.969 785.568L137.268 785.139L133.263 782.341L132.892 782.873ZM134.625 781.719C134.753 781.536 134.708 781.284 134.525 781.156C134.342 781.028 134.084 781.069 133.956 781.252C133.824 781.441 133.875 781.697 134.058 781.825C134.241 781.953 134.493 781.908 134.625 781.719ZM137.831 784.333L138.179 783.836L135.318 781.837L134.97 782.335L137.831 784.333ZM140.4 780.656L137.936 781.038L137.507 778.703L137.059 779.344L137.461 781.463L135.052 779.781L134.704 780.278L138.709 783.076L139.057 782.579L137.701 781.631L139.968 781.274L140.4 780.656ZM139.582 779.267L141.257 776.87C141.19 776.807 141.12 776.749 141.046 776.697C140.245 776.138 139.144 776.203 138.54 777.067C137.916 777.959 138.151 779.025 138.997 779.617C139.856 780.216 140.93 780.056 141.573 779.135C141.973 778.563 142.019 777.948 141.806 777.424L141.27 777.68C141.405 777.987 141.388 778.401 141.112 778.795C140.741 779.328 140.165 779.53 139.582 779.267ZM139.009 777.394C139.309 776.965 139.856 776.743 140.482 777.053L139.147 778.964C138.705 778.536 138.633 777.932 139.009 777.394Z" fill="#20356F"/>
<path d="M216.275 906.44H216.994L215.843 904.486C216.429 904.277 216.855 903.712 216.855 903.069C216.855 902.232 216.171 901.555 215.333 901.555H213.379V906.44H214.028V904.57H215.18L216.275 906.44ZM214.028 902.162L215.333 902.162C215.815 902.162 216.206 902.567 216.206 903.069C216.206 903.572 215.815 903.984 215.333 903.984H214.028V902.162ZM219.916 902.951V904.8C219.916 905.624 219.462 905.952 218.904 905.952C218.366 905.952 218.038 905.631 218.038 905.059V902.951H217.431V905.093C217.431 905.987 217.968 906.531 218.785 906.531C219.273 906.531 219.657 906.35 219.916 905.938V906.44H220.523V902.951H219.916ZM224.337 902.951V903.551C224.057 903.125 223.611 902.86 223.018 902.86C222.047 902.86 221.252 903.663 221.252 904.696C221.252 905.729 222.047 906.531 223.018 906.531C223.611 906.531 224.057 906.266 224.337 905.84V906.44H224.944V902.951H224.337ZM223.094 905.945C222.396 905.945 221.859 905.408 221.859 904.696C221.859 903.984 222.396 903.446 223.094 903.446C223.799 903.446 224.337 903.984 224.337 904.696C224.337 905.408 223.799 905.945 223.094 905.945ZM228.53 901.555L227.246 902.002L227.406 902.56L228.446 902.253V906.44H229.088V901.555H228.53ZM231.52 903.46H230.808L230.892 902.162H232.979V901.555H230.306L230.124 904.088H231.506C232.085 904.088 232.525 904.409 232.525 904.996C232.525 905.575 232.085 905.896 231.492 905.896C230.962 905.896 230.564 905.652 230.431 905.17L229.88 905.484C230.117 906.182 230.773 906.531 231.492 906.531C232.372 906.531 233.167 905.987 233.167 904.996C233.167 903.998 232.392 903.46 231.52 903.46Z" fill="#20356F"/>
<path d="M216.275 977.258H216.994L215.843 975.304C216.429 975.094 216.855 974.529 216.855 973.887C216.855 973.049 216.171 972.372 215.333 972.372H213.379V977.258H214.028V975.387H215.18L216.275 977.258ZM214.028 972.98L215.333 972.98C215.815 972.98 216.206 973.384 216.206 973.887C216.206 974.389 215.815 974.801 215.333 974.801H214.028V972.98ZM219.916 973.768V975.618C219.916 976.441 219.462 976.769 218.904 976.769C218.366 976.769 218.038 976.448 218.038 975.876V973.768H217.431V975.911C217.431 976.804 217.968 977.349 218.785 977.349C219.273 977.349 219.657 977.167 219.916 976.755V977.258H220.523V973.768H219.916ZM224.337 973.768V974.368C224.057 973.943 223.611 973.677 223.018 973.677C222.047 973.677 221.252 974.48 221.252 975.513C221.252 976.546 222.047 977.349 223.018 977.349C223.611 977.349 224.057 977.083 224.337 976.658V977.258H224.944V973.768H224.337ZM223.094 976.762C222.396 976.762 221.859 976.225 221.859 975.513C221.859 974.801 222.396 974.264 223.094 974.264C223.799 974.264 224.337 974.801 224.337 975.513C224.337 976.225 223.799 976.762 223.094 976.762ZM228.53 972.372L227.246 972.819L227.406 973.377L228.446 973.07V977.258H229.088V972.372H228.53ZM231.52 974.278H230.808L230.892 972.98H232.979V972.372H230.306L230.124 974.906H231.506C232.085 974.906 232.525 975.227 232.525 975.813C232.525 976.392 232.085 976.713 231.492 976.713C230.962 976.713 230.564 976.469 230.431 975.988L229.88 976.302C230.117 977 230.773 977.349 231.492 977.349C232.372 977.349 233.167 976.804 233.167 975.813C233.167 974.815 232.392 974.278 231.52 974.278Z" fill="#20356F"/>
<path d="M216.275 1046.95H216.994L215.843 1044.99C216.429 1044.78 216.855 1044.22 216.855 1043.58C216.855 1042.74 216.171 1042.06 215.333 1042.06L213.379 1042.06V1046.95H214.028V1045.08H215.18L216.275 1046.95ZM214.028 1042.67H215.333C215.815 1042.67 216.206 1043.07 216.206 1043.58C216.206 1044.08 215.815 1044.49 215.333 1044.49H214.028V1042.67ZM219.916 1043.46V1045.31C219.916 1046.13 219.462 1046.46 218.904 1046.46C218.366 1046.46 218.038 1046.14 218.038 1045.57V1043.46H217.431V1045.6C217.431 1046.49 217.968 1047.04 218.785 1047.04C219.273 1047.04 219.657 1046.86 219.916 1046.44V1046.95H220.523V1043.46H219.916ZM224.337 1043.46V1044.06C224.057 1043.63 223.611 1043.37 223.018 1043.37C222.047 1043.37 221.252 1044.17 221.252 1045.2C221.252 1046.24 222.047 1047.04 223.018 1047.04C223.611 1047.04 224.057 1046.77 224.337 1046.35V1046.95H224.944V1043.46H224.337ZM223.094 1046.45C222.396 1046.45 221.859 1045.91 221.859 1045.2C221.859 1044.49 222.396 1043.95 223.094 1043.95C223.799 1043.95 224.337 1044.49 224.337 1045.2C224.337 1045.91 223.799 1046.45 223.094 1046.45ZM228.53 1042.06L227.246 1042.51L227.406 1043.07L228.446 1042.76V1046.95H229.088V1042.06H228.53ZM231.52 1043.97H230.808L230.892 1042.67H232.979V1042.06H230.306L230.124 1044.6H231.506C232.085 1044.6 232.525 1044.92 232.525 1045.5C232.525 1046.08 232.085 1046.4 231.492 1046.4C230.962 1046.4 230.564 1046.16 230.431 1045.68L229.88 1045.99C230.117 1046.69 230.773 1047.04 231.492 1047.04C232.372 1047.04 233.167 1046.49 233.167 1045.5C233.167 1044.5 232.392 1043.97 231.52 1043.97Z" fill="#20356F"/>
</svg>
