<svg width="33" height="33" viewBox="0 0 33 33" fill="none" xmlns="http://www.w3.org/2000/svg">
<path d="M22.8809 25.1687C24.8139 25.1687 26.3809 23.6017 26.3809 21.6687C26.3809 19.7357 24.8139 18.1687 22.8809 18.1687C20.9479 18.1687 19.3809 19.7357 19.3809 21.6687C19.3809 23.6017 20.9479 25.1687 22.8809 25.1687Z" stroke="white" stroke-width="2" stroke-linecap="round" stroke-linejoin="round"/>
<path d="M6.88086 29.1687C8.81386 29.1687 10.3809 27.6017 10.3809 25.6687C10.3809 23.7357 8.81386 22.1687 6.88086 22.1687C4.94786 22.1687 3.38086 23.7357 3.38086 25.6687C3.38086 27.6017 4.94786 29.1687 6.88086 29.1687Z" stroke="white" stroke-width="2" stroke-linecap="round" stroke-linejoin="round"/>
<path d="M26.3809 10.1687L10.3809 14.1687" stroke="white" stroke-width="2" stroke-linecap="round" stroke-linejoin="round"/>
<path d="M10.3809 25.6687V8.1687L26.3809 4.1687V21.6687" stroke="white" stroke-width="2" stroke-linecap="round" stroke-linejoin="round"/>
</svg>
