<svg width="28" height="28" viewBox="0 0 28 28" fill="none" xmlns="http://www.w3.org/2000/svg">
<path d="M20.7485 10.3067C20.7485 11.4717 21.6929 12.4161 22.8579 12.4161C24.0229 12.4161 24.9673 11.4717 24.9673 10.3067C24.9673 9.14173 24.0229 8.19733 22.8579 8.19733C21.6929 8.19733 20.7485 9.14173 20.7485 10.3067Z" stroke="white" stroke-width="2" stroke-linecap="round" stroke-linejoin="round"/>
<path d="M20.7485 10.3067L13.1548 10.3067L13.1548 19.588L6.40478 22.963L7.24853 25.4942" stroke="white" stroke-width="2" stroke-linecap="round" stroke-linejoin="round"/>
<path d="M9.77977 17.8875C8.46527 17.8052 7.20356 17.3402 6.15011 16.5497C5.09665 15.7592 4.29748 14.6777 3.85104 13.4386C3.40461 12.1995 3.33043 10.8569 3.63764 9.57614C3.94486 8.29539 4.62004 7.1325 5.58 6.23075C6.53995 5.329 7.74275 4.72778 9.04018 4.50117C10.3376 4.27457 11.673 4.43248 12.8818 4.95544C14.0906 5.47841 15.12 6.34358 15.8431 7.44436C16.5663 8.54514 16.9516 9.83343 16.9517 11.1505L16.9517 17.0568" stroke="white" stroke-width="2" stroke-linecap="round" stroke-linejoin="round"/>
</svg>
