<svg width="33" height="33" viewBox="0 0 33 33" fill="none" xmlns="http://www.w3.org/2000/svg">
<path d="M23.4186 5.0585L18.1734 10.3037L18.8805 13.8393L22.416 14.5464L27.6612 9.30114L27.6618 9.30093C28.311 10.8335 28.4663 12.5303 28.106 14.1552C27.7457 15.7801 26.8877 17.2523 25.6516 18.3668C24.4154 19.4812 22.8625 20.1826 21.2091 20.3732C19.5556 20.5638 17.8839 20.2341 16.4266 19.4301L16.4268 19.4299L9.41601 27.5464C8.85329 28.1085 8.0904 28.4241 7.29505 28.4238C6.49969 28.4236 5.73698 28.1076 5.17458 27.5452C4.61218 26.9828 4.29612 26.2201 4.2959 25.4247C4.29567 24.6294 4.61129 23.8665 5.17337 23.3037L13.2898 16.2931L13.2896 16.2931C12.4856 14.8358 12.156 13.1641 12.3466 11.5107C12.5371 9.85724 13.2385 8.30436 14.353 7.06819C15.4675 5.83203 16.9396 4.97408 18.5645 4.61379C20.1895 4.25349 21.8863 4.40876 23.4188 5.05799L23.4186 5.0585Z" stroke="white" stroke-width="2" stroke-linecap="round" stroke-linejoin="round"/>
</svg>
