<svg width="37" height="40" viewBox="0 0 37 40" fill="none" xmlns="http://www.w3.org/2000/svg">
<path fill-rule="evenodd" clip-rule="evenodd" d="M12.8469 7.7181C14.9633 7.7181 16.6898 5.98572 16.6898 3.85595C16.6898 1.73238 14.9633 0 12.8469 0C10.7304 0 9.00391 1.73238 9.00391 3.85595C9.00391 5.98572 10.7304 7.7181 12.8469 7.7181Z" fill="#FAFAFA"/>
<path d="M14.5054 25.2655C14.5054 26.1844 13.7628 26.9295 12.8469 26.9295C11.9311 26.9295 11.1885 26.1844 11.1885 25.2655V11.158C11.1885 10.2391 11.9311 9.49396 12.8469 9.49396C13.7628 9.49396 14.5054 10.2391 14.5054 11.158V25.2655Z" fill="#FAFAFA"/>
<path d="M12.8469 26.9233C11.9311 26.9233 11.1885 26.1782 11.1885 25.2592C11.1885 24.3403 11.9311 23.5952 12.8469 23.5952H26.9068C27.8227 23.5952 28.5653 24.3403 28.5653 25.2592C28.5653 26.1782 27.8227 26.9233 26.9068 26.9233H12.8469Z" fill="#FAFAFA"/>
<path d="M12.8469 18.5719C11.9311 18.5719 11.1885 17.8268 11.1885 16.9078C11.1885 15.9888 11.9311 15.2437 12.8469 15.2437H24.9637C25.8796 15.2437 26.6222 15.9888 26.6222 16.9078C26.6222 17.8268 25.8796 18.5719 24.9637 18.5719H12.8469Z" fill="#FAFAFA"/>
<path d="M33.6461 34.1633C34.0855 34.9705 33.7946 35.9764 32.9902 36.4173C32.1857 36.8581 31.1832 36.5663 30.7438 35.7591L25.5147 26.1844C25.0753 25.3772 25.3661 24.3713 26.1706 23.9305C26.9751 23.4896 27.9776 23.7814 28.417 24.5886L33.6461 34.1633Z" fill="#FAFAFA"/>
<path d="M34.5492 31.7727C35.3537 31.3319 36.3562 31.6237 36.7956 32.4309C37.2349 33.2381 36.9441 34.244 36.1396 34.6849L32.9897 36.4173C32.1853 36.8581 31.1828 36.5663 30.7434 35.7591C30.304 34.9519 30.6011 33.946 31.3993 33.5051L34.5492 31.7727Z" fill="#FAFAFA"/>
<path fill-rule="evenodd" clip-rule="evenodd" d="M9.61047 18.5284C5.7799 19.7268 3.00134 23.3095 3.00134 27.5442C3.00134 32.76 7.21559 36.9885 12.4138 36.9885C17.284 36.9885 21.294 33.2754 21.7767 28.5129H24.7904C24.3016 34.9395 18.9425 40 12.4138 40C5.55712 40 0 34.4241 0 27.5442C0 21.633 4.10286 16.6843 9.61047 15.4052V18.5284Z" fill="#FAFAFA"/>
</svg>
