<svg width="33" height="33" viewBox="0 0 33 33" fill="none" xmlns="http://www.w3.org/2000/svg">
<path d="M9.04883 24.9187C9.87726 24.9187 10.5488 24.2471 10.5488 23.4187C10.5488 22.5903 9.87726 21.9187 9.04883 21.9187C8.2204 21.9187 7.54883 22.5903 7.54883 23.4187C7.54883 24.2471 8.2204 24.9187 9.04883 24.9187Z" fill="white"/>
<path d="M4.63242 22.5497L7.65583 5.40314C7.70189 5.14195 7.84981 4.90976 8.06706 4.75763C8.28432 4.60551 8.5531 4.54592 8.81429 4.59198L15.7079 5.80752C15.9691 5.85357 16.2013 6.00149 16.3534 6.21875C16.5056 6.436 16.5652 6.70479 16.5191 6.96597L13.4803 24.2001C13.2756 25.3605 12.6241 26.3943 11.6655 27.0795C10.707 27.7647 9.51791 28.0467 8.35377 27.8647C5.86093 27.4742 4.19426 25.0347 4.63242 22.5497Z" stroke="white" stroke-width="2" stroke-linecap="round" stroke-linejoin="round"/>
<path d="M14.8339 16.5243L23.9543 13.2047C24.2036 13.114 24.4786 13.126 24.719 13.2381C24.9593 13.3502 25.1453 13.5532 25.236 13.8024L27.6302 20.3802C27.6751 20.5036 27.6953 20.6347 27.6895 20.7659C27.6838 20.8971 27.6523 21.0259 27.5968 21.1449C27.5413 21.2639 27.4629 21.3708 27.3661 21.4595C27.2693 21.5483 27.1559 21.617 27.0325 21.662L10.5879 27.6473" stroke="white" stroke-width="2" stroke-linecap="round" stroke-linejoin="round"/>
<path d="M27.5488 21.2354V26.9187C27.5488 27.1839 27.4435 27.4383 27.2559 27.6258C27.0684 27.8134 26.814 27.9187 26.5488 27.9187H9.04883" stroke="white" stroke-width="2" stroke-linecap="round" stroke-linejoin="round"/>
</svg>
