<svg width="33" height="33" viewBox="0 0 33 33" fill="none" xmlns="http://www.w3.org/2000/svg">
<path d="M16.4873 9.94067C18.4203 9.94067 19.9873 8.37367 19.9873 6.44067C19.9873 4.50768 18.4203 2.94067 16.4873 2.94067C14.5543 2.94067 12.9873 4.50768 12.9873 6.44067C12.9873 8.37367 14.5543 9.94067 16.4873 9.94067Z" stroke="#DD0000" stroke-width="2" stroke-linecap="round" stroke-linejoin="round"/>
<path d="M19.7403 17.7801L24.0836 21.1582C24.3649 21.4395 24.7465 21.5975 25.1443 21.5975C25.5421 21.5975 25.9236 21.4395 26.2049 21.1582C26.4862 20.8769 26.6443 20.4954 26.6443 20.0975C26.6443 19.6997 26.4862 19.3182 26.2049 19.0369L21.2552 12.6729C21.0233 12.4404 20.7477 12.256 20.4444 12.1304C20.141 12.0047 19.8158 11.9402 19.4874 11.9407H13.4874C13.1591 11.9402 12.8338 12.0047 12.5305 12.1304C12.2271 12.256 11.9515 12.4404 11.7197 12.6729L6.76991 19.0369C6.63062 19.1762 6.52013 19.3415 6.44475 19.5235C6.36936 19.7055 6.33057 19.9005 6.33057 20.0975C6.33057 20.2945 6.36936 20.4896 6.44475 20.6716C6.52013 20.8535 6.63062 21.0189 6.76991 21.1582C6.90919 21.2975 7.07455 21.408 7.25654 21.4834C7.43853 21.5587 7.63358 21.5975 7.83057 21.5975C8.02755 21.5975 8.2226 21.5587 8.40459 21.4834C8.58658 21.408 8.75194 21.2975 8.89123 21.1582L13.2345 17.7801L9.76785 28.7293C9.59972 29.0898 9.58171 29.5024 9.71777 29.8762C9.85384 30.2501 10.1328 30.5545 10.4934 30.7227C10.8539 30.8908 11.2665 30.9088 11.6403 30.7728C12.0142 30.6367 12.3186 30.3577 12.4868 29.9971L16.4874 23.7008L20.4881 29.9971C20.6567 30.3569 20.9612 30.635 21.3346 30.7705C21.7081 30.906 22.1201 30.8878 22.4802 30.7199C22.8402 30.552 23.119 30.2481 23.2552 29.8749C23.3915 29.5017 23.3742 29.0897 23.207 28.7293L19.7403 17.7801Z" stroke="#DD0000" stroke-width="2" stroke-linecap="round" stroke-linejoin="round"/>
</svg>
