<svg width="26" height="26" viewBox="0 0 26 26" fill="none" xmlns="http://www.w3.org/2000/svg">
<path d="M9.66211 15.6399H4.19336C3.98616 15.6399 3.78745 15.5576 3.64093 15.4111C3.49442 15.2646 3.41211 15.0658 3.41211 14.8586V10.1711C3.41211 9.96394 3.49442 9.76523 3.64093 9.61872C3.78745 9.4722 3.98616 9.38989 4.19336 9.38989H9.66211V3.92114C9.66211 3.71394 9.74442 3.51523 9.89093 3.36872C10.0374 3.2222 10.2362 3.13989 10.4434 3.13989H15.1309C15.3381 3.13989 15.5368 3.2222 15.6833 3.36872C15.8298 3.51523 15.9121 3.71394 15.9121 3.92114V9.38989H21.3809C21.5881 9.38989 21.7868 9.4722 21.9333 9.61872C22.0798 9.76523 22.1621 9.96394 22.1621 10.1711V14.8586C22.1621 15.0658 22.0798 15.2646 21.9333 15.4111C21.7868 15.5576 21.5881 15.6399 21.3809 15.6399H15.9121V21.1086C15.9121 21.3158 15.8298 21.5146 15.6833 21.6611C15.5368 21.8076 15.3381 21.8899 15.1309 21.8899H10.4434C10.2362 21.8899 10.0374 21.8076 9.89093 21.6611C9.74442 21.5146 9.66211 21.3158 9.66211 21.1086V15.6399Z" stroke="white" stroke-width="2" stroke-linecap="round" stroke-linejoin="round"/>
</svg>
