<svg width="33" height="33" viewBox="0 0 33 33" fill="none" xmlns="http://www.w3.org/2000/svg">
<path d="M17.0009 16.1785L16.8682 29.0298" stroke="white" stroke-width="2" stroke-linecap="round" stroke-linejoin="round"/>
<path d="M28.3682 22.095V10.2619C28.3682 10.0848 28.3211 9.91093 28.2319 9.75798C28.1426 9.60502 28.0144 9.47851 27.8602 9.39137L17.3602 3.45659C17.2101 3.37174 17.0406 3.32715 16.8682 3.32715C16.6957 3.32715 16.5262 3.37174 16.3761 3.45659L5.87611 9.39137C5.72194 9.47851 5.59368 9.60502 5.50443 9.75798C5.41519 9.91093 5.36816 10.0848 5.36816 10.2619V22.095C5.36816 22.2721 5.41519 22.446 5.50443 22.599C5.59368 22.7519 5.72194 22.8784 5.87611 22.9656L16.3761 28.9003C16.5262 28.9852 16.6957 29.0298 16.8682 29.0298C17.0406 29.0298 17.2101 28.9852 17.3602 28.9003L27.8602 22.9656C28.0144 22.8784 28.1426 22.7519 28.2319 22.599C28.3211 22.446 28.3682 22.2721 28.3682 22.095V22.095Z" stroke="white" stroke-width="2" stroke-linecap="round" stroke-linejoin="round"/>
<path d="M28.2311 9.75687L17.0007 16.1785L5.50586 9.75549" stroke="white" stroke-width="2" stroke-linecap="round" stroke-linejoin="round"/>
<path d="M23.0095 18.7423V12.7423L11.4121 6.26208" stroke="white" stroke-width="2" stroke-linecap="round" stroke-linejoin="round"/>
</svg>
