<svg width="24" height="21" viewBox="0 0 24 21" fill="none" xmlns="http://www.w3.org/2000/svg">
<path d="M20.9378 3.13917C20.427 2.62817 19.8206 2.22282 19.1531 1.94625C18.4857 1.66969 17.7703 1.52734 17.0478 1.52734C16.3253 1.52734 15.6099 1.66969 14.9424 1.94625C14.275 2.22282 13.6685 2.62817 13.1578 3.13917L12.0978 4.19917L11.0378 3.13917C10.0061 2.10748 8.60681 1.52788 7.14778 1.52788C5.68874 1.52788 4.28947 2.10748 3.25778 3.13917C2.22608 4.17086 1.64648 5.57014 1.64648 7.02917C1.64648 8.4882 2.22608 9.88748 3.25778 10.9192L4.31777 11.9792L12.0978 19.7592L19.8778 11.9792L20.9378 10.9192C21.4488 10.4084 21.8541 9.80198 22.1307 9.13452C22.4073 8.46707 22.5496 7.75166 22.5496 7.02917C22.5496 6.30668 22.4073 5.59127 22.1307 4.92381C21.8541 4.25636 21.4488 3.64993 20.9378 3.13917V3.13917Z" stroke="white" stroke-width="2" stroke-linecap="round" stroke-linejoin="round"/>
</svg>
