<svg width="28" height="28" viewBox="0 0 28 28" fill="none" xmlns="http://www.w3.org/2000/svg">
<path d="M10.5815 7.31665C11.7465 7.31665 12.6909 6.37225 12.6909 5.20728C12.6909 4.0423 11.7465 3.0979 10.5815 3.0979C9.41657 3.0979 8.47217 4.0423 8.47217 5.20728C8.47217 6.37225 9.41657 7.31665 10.5815 7.31665Z" stroke="white" stroke-width="2" stroke-linecap="round" stroke-linejoin="round"/>
<path d="M10.5815 7.31665L10.5815 14.9104L19.8628 14.9104L23.2378 21.6604L25.769 20.8167" stroke="white" stroke-width="2" stroke-linecap="round" stroke-linejoin="round"/>
<path d="M18.1623 18.2854C18.08 19.5999 17.615 20.8616 16.8244 21.9151C16.0339 22.9685 14.9525 23.7677 13.7134 24.2141C12.4743 24.6606 11.1317 24.7348 9.85091 24.4275C8.57017 24.1203 7.40728 23.4451 6.50553 22.4852C5.60378 21.5252 5.00256 20.3224 4.77595 19.025C4.54935 17.7276 4.70726 16.3922 5.23022 15.1834C5.75319 13.9746 6.61836 12.9452 7.71914 12.222C8.81992 11.4989 10.1082 11.1135 11.4253 11.1135L17.3315 11.1135" stroke="white" stroke-width="2" stroke-linecap="round" stroke-linejoin="round"/>
</svg>
