<svg width="33" height="33" viewBox="0 0 33 33" fill="none" xmlns="http://www.w3.org/2000/svg">
<path d="M8.28715 27.9324C8.15583 27.9324 8.02579 27.9065 7.90446 27.8563C7.78314 27.806 7.6729 27.7324 7.58004 27.6395C7.48718 27.5466 7.41352 27.4364 7.36327 27.3151C7.31301 27.1937 7.28715 27.0637 7.28715 26.9324L7.28722 21.5956C6.75375 21.8482 6.16504 21.9619 5.57586 21.9259C4.98667 21.8899 4.41616 21.7056 3.91737 21.3899C3.41859 21.0742 3.00774 20.6375 2.72305 20.1205C2.43835 19.6034 2.28906 19.0227 2.28906 18.4324C2.28906 17.8421 2.43835 17.2614 2.72305 16.7443C3.00774 16.2273 3.41859 15.7906 3.91737 15.4749C4.41616 15.1592 4.98667 14.9749 5.57586 14.9389C6.16504 14.9029 6.75375 15.0166 7.28722 15.2693L7.28715 9.93241C7.28715 9.80109 7.31302 9.67105 7.36327 9.54972C7.41353 9.4284 7.48719 9.31815 7.58005 9.22529C7.67291 9.13243 7.78315 9.05877 7.90448 9.00852C8.02581 8.95827 8.15584 8.9324 8.28717 8.9324L14.124 8.93247C13.8713 8.399 13.7577 7.81029 13.7936 7.22111C13.8296 6.63193 14.014 6.06141 14.3296 5.56263C14.6453 5.06385 15.082 4.653 15.5991 4.36831C16.1162 4.08362 16.6969 3.93433 17.2871 3.93433C17.8774 3.93433 18.4581 4.08362 18.9752 4.36831C19.4923 4.653 19.929 5.06385 20.2446 5.56263C20.5603 6.06141 20.7447 6.63193 20.7806 7.22111C20.8166 7.81029 20.7029 8.399 20.4503 8.93247L26.2871 8.9324C26.5523 8.9324 26.8067 9.03775 26.9942 9.22529C27.1817 9.41282 27.2871 9.66717 27.2871 9.93239L27.2872 15.2692C26.7537 15.0166 26.165 14.9029 25.5758 14.9389C24.9866 14.9749 24.4161 15.1592 23.9173 15.4749C23.4185 15.7906 23.0077 16.2273 22.723 16.7443C22.4383 17.2614 22.289 17.8421 22.289 18.4324C22.289 19.0227 22.4383 19.6034 22.723 20.1205C23.0077 20.6375 23.4185 21.0742 23.9173 21.3899C24.4161 21.7056 24.9866 21.8899 25.5758 21.9259C26.165 21.9619 26.7537 21.8482 27.2872 21.5956L27.2871 26.9324C27.2871 27.1976 27.1817 27.452 26.9942 27.6395C26.8067 27.827 26.5523 27.9324 26.2871 27.9324L8.28715 27.9324Z" stroke="white" stroke-width="2" stroke-linecap="round" stroke-linejoin="round"/>
</svg>
