<svg width="33" height="33" viewBox="0 0 33 33" fill="none" xmlns="http://www.w3.org/2000/svg">
<path d="M9.14648 27.0303C11.0795 27.0303 12.6465 25.4633 12.6465 23.5303C12.6465 21.5973 11.0795 20.0303 9.14648 20.0303C7.21349 20.0303 5.64648 21.5973 5.64648 23.5303C5.64648 25.4633 7.21349 27.0303 9.14648 27.0303Z" stroke="white" stroke-width="2" stroke-linecap="round" stroke-linejoin="round"/>
<path d="M9.14648 12.0303C11.0795 12.0303 12.6465 10.4633 12.6465 8.53027C12.6465 6.59728 11.0795 5.03027 9.14648 5.03027C7.21349 5.03027 5.64648 6.59728 5.64648 8.53027C5.64648 10.4633 7.21349 12.0303 9.14648 12.0303Z" stroke="white" stroke-width="2" stroke-linecap="round" stroke-linejoin="round"/>
<path d="M24.1465 21.0303C26.0795 21.0303 27.6465 19.4633 27.6465 17.5303C27.6465 15.5973 26.0795 14.0303 24.1465 14.0303C22.2135 14.0303 20.6465 15.5973 20.6465 17.5303C20.6465 19.4633 22.2135 21.0303 24.1465 21.0303Z" stroke="white" stroke-width="2" stroke-linecap="round" stroke-linejoin="round"/>
<path d="M20.6468 18.0303H16.9567C16.0772 18.0303 15.2083 17.8369 14.4118 17.4638C13.6153 17.0907 12.9105 16.5471 12.3474 15.8714L9.14648 12.0303V20.0303" stroke="white" stroke-width="2" stroke-linecap="round" stroke-linejoin="round"/>
</svg>
