<svg width="33" height="33" viewBox="0 0 33 33" fill="none" xmlns="http://www.w3.org/2000/svg">
<path d="M9.57227 4.66724H26.5723C26.8375 4.66724 27.0918 4.77259 27.2794 4.96013C27.4669 5.14767 27.5723 5.40202 27.5723 5.66724V18.6672C27.5723 18.9325 27.4669 19.1868 27.2794 19.3743C27.0918 19.5619 26.8375 19.6672 26.5723 19.6672H6.57227C6.30705 19.6672 6.0527 19.5619 5.86516 19.3743C5.67762 19.1868 5.57227 18.9325 5.57227 18.6672V8.66724C5.57227 7.60637 5.99369 6.58895 6.74384 5.83881C7.49398 5.08866 8.5114 4.66724 9.57227 4.66724V4.66724Z" stroke="white" stroke-width="2" stroke-linecap="round" stroke-linejoin="round"/>
<path d="M14.5723 19.6672L13.5723 26.6672C13.5723 27.4629 13.8883 28.2259 14.4509 28.7886C15.0136 29.3512 15.7766 29.6672 16.5723 29.6672C17.3679 29.6672 18.131 29.3512 18.6936 28.7886C19.2562 28.2259 19.5723 27.4629 19.5723 26.6672L18.5723 19.6672" stroke="white" stroke-width="2" stroke-linecap="round" stroke-linejoin="round"/>
<path d="M5.57227 14.6672H27.5723" stroke="white" stroke-width="2" stroke-linecap="round" stroke-linejoin="round"/>
<path d="M21.5723 4.66724V9.66724" stroke="white" stroke-width="2" stroke-linecap="round" stroke-linejoin="round"/>
</svg>
