<svg width="21" height="17" viewBox="0 0 21 17" fill="none" xmlns="http://www.w3.org/2000/svg">
<path d="M10.5377 8.8609C11.0234 8.44045 11.413 7.92043 11.68 7.33613C11.947 6.75182 12.0852 6.11691 12.0852 5.47449C12.0852 4.26732 11.6057 3.10959 10.7521 2.25599C9.89849 1.4024 8.74076 0.922852 7.53359 0.922852C6.32642 0.922852 5.1687 1.4024 4.3151 2.25599C3.4615 3.10959 2.98196 4.26732 2.98196 5.47449C2.98195 6.11691 3.12015 6.75182 3.38717 7.33613C3.65419 7.92043 4.04378 8.44045 4.52951 8.8609C3.25518 9.43795 2.17401 10.3698 1.41527 11.545C0.656523 12.7203 0.252316 14.0892 0.250977 15.4881C0.250977 15.7295 0.346886 15.9611 0.517605 16.1318C0.688325 16.3025 0.91987 16.3984 1.1613 16.3984C1.40274 16.3984 1.63428 16.3025 1.805 16.1318C1.97572 15.9611 2.07163 15.7295 2.07163 15.4881C2.07163 14.0395 2.64709 12.6502 3.6714 11.6259C4.69572 10.6016 6.08499 10.0261 7.53359 10.0261C8.9822 10.0261 10.3715 10.6016 11.3958 11.6259C12.4201 12.6502 12.9956 14.0395 12.9956 15.4881C12.9956 15.7295 13.0915 15.9611 13.2622 16.1318C13.4329 16.3025 13.6644 16.3984 13.9059 16.3984C14.1473 16.3984 14.3789 16.3025 14.5496 16.1318C14.7203 15.9611 14.8162 15.7295 14.8162 15.4881C14.8149 14.0892 14.4107 12.7203 13.6519 11.545C12.8932 10.3698 11.812 9.43795 10.5377 8.8609ZM7.53359 8.20547C6.99346 8.20547 6.46545 8.0453 6.01634 7.74521C5.56723 7.44513 5.2172 7.01861 5.0105 6.51959C4.80379 6.02057 4.74971 5.47146 4.85509 4.9417C4.96046 4.41194 5.22056 3.92533 5.6025 3.54339C5.98443 3.16146 6.47105 2.90136 7.00081 2.79598C7.53056 2.69061 8.07967 2.74469 8.57869 2.95139C9.07772 3.15809 9.50424 3.50813 9.80432 3.95723C10.1044 4.40634 10.2646 4.93435 10.2646 5.47449C10.2646 6.19879 9.97685 6.89342 9.46469 7.40558C8.95253 7.91774 8.25789 8.20547 7.53359 8.20547ZM16.4002 8.49677C16.9828 7.84073 17.3633 7.03029 17.496 6.163C17.6288 5.29572 17.508 4.40856 17.1483 3.60832C16.7885 2.80807 16.2052 2.12885 15.4684 1.65241C14.7317 1.17597 13.8729 0.922617 12.9956 0.922852C12.7541 0.922852 12.5226 1.01876 12.3519 1.18948C12.1811 1.3602 12.0852 1.59175 12.0852 1.83318C12.0852 2.07461 12.1811 2.30616 12.3519 2.47688C12.5226 2.6476 12.7541 2.74351 12.9956 2.74351C13.7199 2.74351 14.4145 3.03123 14.9267 3.54339C15.4388 4.05555 15.7265 4.75019 15.7265 5.47449C15.7252 5.95263 15.5984 6.42205 15.3588 6.83581C15.1192 7.24957 14.7751 7.59316 14.361 7.83223C14.2261 7.91009 14.1134 8.02128 14.0337 8.15516C13.954 8.28905 13.91 8.44115 13.9059 8.59691C13.9021 8.75145 13.9377 8.90441 14.0094 9.04138C14.081 9.17835 14.1864 9.29481 14.3155 9.37979L14.6706 9.61647L14.7889 9.6802C15.8862 10.2006 16.8119 11.0238 17.457 12.0528C18.1022 13.0818 18.4398 14.2736 18.4302 15.4881C18.4302 15.7295 18.5261 15.9611 18.6968 16.1318C18.8676 16.3025 19.0991 16.3984 19.3405 16.3984C19.582 16.3984 19.8135 16.3025 19.9842 16.1318C20.155 15.9611 20.2509 15.7295 20.2509 15.4881C20.2583 14.0911 19.9084 12.7155 19.2345 11.4918C18.5605 10.2682 17.5848 9.23715 16.4002 8.49677Z" fill="#1AC7D6"/>
</svg>
