<svg width="33" height="33" viewBox="0 0 33 33" fill="none" xmlns="http://www.w3.org/2000/svg">
<path d="M4.99609 16.5413H9.99609L11.9961 13.5413L15.9961 19.5413L17.9961 16.5413H20.9961" stroke="white" stroke-width="2" stroke-linecap="round" stroke-linejoin="round"/>
<path d="M4.51038 12.5405C4.50092 12.3747 4.49616 12.2083 4.49609 12.0413C4.49635 10.5389 5.01691 9.08306 5.96927 7.92116C6.92164 6.75927 8.24702 5.96307 9.72008 5.66795C11.1931 5.37282 12.7229 5.59698 14.0494 6.30231C15.3759 7.00764 16.4171 8.15061 16.9961 9.53689L16.9961 9.53691C17.5751 8.15062 18.6163 7.00765 19.9428 6.30232C21.2692 5.59698 22.799 5.37282 24.2721 5.66795C25.7452 5.96307 27.0705 6.75927 28.0229 7.92116C28.9753 9.08306 29.4958 10.5389 29.4961 12.0413C29.4961 20.5413 16.9961 27.5413 16.9961 27.5413C16.9961 27.5413 12.003 24.7451 8.32828 20.5414" stroke="white" stroke-width="2" stroke-linecap="round" stroke-linejoin="round"/>
</svg>
