<svg width="26" height="26" viewBox="0 0 26 26" fill="none" xmlns="http://www.w3.org/2000/svg">
<path d="M15.4643 20.9066V16.219C15.4643 16.0118 15.382 15.8131 15.2354 15.6666C15.0889 15.5201 14.8902 15.4378 14.683 15.4378H11.558C11.3508 15.4378 11.1521 15.5201 11.0056 15.6666C10.8591 15.8131 10.7768 16.0118 10.7768 16.219V20.9066C10.7768 21.1138 10.6945 21.3125 10.548 21.459C10.4015 21.6055 10.2028 21.6879 9.99562 21.6879L5.30869 21.6885C5.20609 21.6885 5.10449 21.6683 5.00969 21.6291C4.91489 21.5898 4.82876 21.5323 4.7562 21.4597C4.68364 21.3872 4.62609 21.301 4.58682 21.2062C4.54755 21.1114 4.52734 21.0098 4.52734 20.9072V11.8779C4.52734 11.7691 4.55009 11.6614 4.59412 11.5619C4.63814 11.4623 4.70249 11.3731 4.78302 11.2999L12.595 4.19687C12.7388 4.06611 12.9262 3.99366 13.1205 3.99365C13.3149 3.99365 13.5023 4.06609 13.6461 4.19683L21.4591 11.2999C21.5397 11.3731 21.604 11.4623 21.6481 11.5619C21.6921 11.6614 21.7148 11.7691 21.7148 11.8779V20.9072C21.7148 21.0099 21.6946 21.1115 21.6554 21.2062C21.6161 21.301 21.5585 21.3872 21.486 21.4597C21.4134 21.5323 21.3273 21.5898 21.2325 21.6291C21.1377 21.6683 21.0361 21.6885 20.9335 21.6885L16.2454 21.6879C16.0382 21.6879 15.8395 21.6055 15.6931 21.459C15.5466 21.3125 15.4643 21.1138 15.4643 20.9066V20.9066Z" stroke="white" stroke-width="2" stroke-linecap="round" stroke-linejoin="round"/>
</svg>
