<svg width="33" height="33" viewBox="0 0 33 33" fill="none" xmlns="http://www.w3.org/2000/svg">
<path d="M16.3643 22.3771C21.8871 22.3771 26.3643 17.8999 26.3643 12.3771C26.3643 6.85423 21.8871 2.37708 16.3643 2.37708C10.8414 2.37708 6.36426 6.85423 6.36426 12.3771C6.36426 17.8999 10.8414 22.3771 16.3643 22.3771Z" stroke="white" stroke-width="2" stroke-linecap="round" stroke-linejoin="round"/>
<path d="M16.3643 18.3771C19.678 18.3771 22.3643 15.6908 22.3643 12.3771C22.3643 9.06337 19.678 6.37708 16.3643 6.37708C13.0505 6.37708 10.3643 9.06337 10.3643 12.3771C10.3643 15.6908 13.0505 18.3771 16.3643 18.3771Z" stroke="white" stroke-width="2" stroke-linecap="round" stroke-linejoin="round"/>
<path d="M22.3652 20.3765V30.3771L16.3644 27.3771L10.3652 30.3771V20.3773" stroke="white" stroke-width="2" stroke-linecap="round" stroke-linejoin="round"/>
</svg>
