<svg width="22" height="23" viewBox="0 0 22 23" fill="none" xmlns="http://www.w3.org/2000/svg">
<path d="M12.375 19.8969V4.08435C12.375 3.90201 12.3026 3.72715 12.1736 3.59821C12.0447 3.46928 11.8698 3.39685 11.6875 3.39685H3.4375C3.25516 3.39685 3.0803 3.46928 2.95136 3.59821C2.82243 3.72715 2.75 3.90201 2.75 4.08435V19.8969" stroke="#859668" stroke-width="2" stroke-linecap="round" stroke-linejoin="round"/>
<path d="M19.25 19.8968V9.58435C19.25 9.40201 19.1776 9.22715 19.0486 9.09821C18.9197 8.96928 18.7448 8.89685 18.5625 8.89685H12.375" stroke="#859668" stroke-width="2" stroke-linecap="round" stroke-linejoin="round"/>
<path d="M5.5 6.83435H8.25" stroke="#859668" stroke-width="2" stroke-linecap="round" stroke-linejoin="round"/>
<path d="M6.875 13.7094H9.625" stroke="#859668" stroke-width="2" stroke-linecap="round" stroke-linejoin="round"/>
<path d="M5.5 17.1469H8.25" stroke="#859668" stroke-width="2" stroke-linecap="round" stroke-linejoin="round"/>
<path d="M15.125 15.7719H16.5" stroke="#859668" stroke-width="2" stroke-linecap="round" stroke-linejoin="round"/>
<path d="M15.125 12.3344H16.5" stroke="#859668" stroke-width="2" stroke-linecap="round" stroke-linejoin="round"/>
</svg>
