<svg width="26" height="26" viewBox="0 0 26 26" fill="none" xmlns="http://www.w3.org/2000/svg">
<path d="M15.8502 21.614H5.23633C5.02913 21.614 4.83041 21.5317 4.6839 21.3852C4.53739 21.2387 4.45508 21.04 4.45508 20.8328V5.20776C4.45508 5.00056 4.53739 4.80185 4.6839 4.65534C4.83041 4.50882 5.02913 4.42651 5.23633 4.42651H20.8613C21.0685 4.42651 21.2672 4.50882 21.4138 4.65534C21.5603 4.80185 21.6426 5.00056 21.6426 5.20776V15.8217C21.6426 15.9243 21.6224 16.0258 21.5831 16.1206C21.5438 16.2154 21.4863 16.3015 21.4138 16.3741L16.4027 21.3852C16.3301 21.4577 16.244 21.5153 16.1492 21.5545C16.0544 21.5938 15.9528 21.614 15.8502 21.614V21.614Z" stroke="white" stroke-width="2" stroke-linecap="round" stroke-linejoin="round"/>
<path d="M21.5724 16.1445H16.1738V21.543" stroke="white" stroke-width="2" stroke-linecap="round" stroke-linejoin="round"/>
</svg>
