<svg width="24" height="24" viewBox="0 0 24 24" fill="none" xmlns="http://www.w3.org/2000/svg">
<path d="M8.00195 15.6656H1.87695C1.64489 15.6656 1.42233 15.5735 1.25823 15.4094C1.09414 15.2453 1.00195 15.0227 1.00195 14.7906V9.54065C1.00195 9.30858 1.09414 9.08603 1.25823 8.92193C1.42233 8.75784 1.64489 8.66565 1.87695 8.66565H8.00195V2.54065C8.00195 2.30858 8.09414 2.08603 8.25823 1.92193C8.42233 1.75784 8.64489 1.66565 8.87695 1.66565H14.127C14.359 1.66565 14.5816 1.75784 14.7457 1.92193C14.9098 2.08603 15.002 2.30858 15.002 2.54065V8.66565H21.127C21.359 8.66565 21.5816 8.75784 21.7457 8.92193C21.9098 9.08603 22.002 9.30858 22.002 9.54065V14.7906C22.002 15.0227 21.9098 15.2453 21.7457 15.4094C21.5816 15.5735 21.359 15.6656 21.127 15.6656H15.002V21.7906C15.002 22.0227 14.9098 22.2453 14.7457 22.4094C14.5816 22.5735 14.359 22.6656 14.127 22.6656H8.87695C8.64489 22.6656 8.42233 22.5735 8.25823 22.4094C8.09414 22.2453 8.00195 22.0227 8.00195 21.7906V15.6656Z" stroke="#FF0000" stroke-width="2" stroke-linecap="round" stroke-linejoin="round"/>
</svg>
