<svg width="33" height="33" viewBox="0 0 33 33" fill="none" xmlns="http://www.w3.org/2000/svg">
<path d="M16.3965 9.94067C18.3295 9.94067 19.8965 8.37367 19.8965 6.44067C19.8965 4.50768 18.3295 2.94067 16.3965 2.94067C14.4635 2.94067 12.8965 4.50768 12.8965 6.44067C12.8965 8.37367 14.4635 9.94067 16.3965 9.94067Z" stroke="#1AC7D6" stroke-width="2" stroke-linecap="round" stroke-linejoin="round"/>
<path d="M19.649 17.7801L23.9923 21.1582C24.2736 21.4395 24.6551 21.5975 25.053 21.5975C25.4508 21.5975 25.8323 21.4395 26.1136 21.1582C26.3949 20.8769 26.553 20.4954 26.553 20.0975C26.553 19.6997 26.3949 19.3182 26.1136 19.0369L21.1639 12.6729C20.932 12.4404 20.6564 12.256 20.3531 12.1304C20.0497 12.0047 19.7245 11.9402 19.3961 11.9407H13.3961C13.0677 11.9402 12.7425 12.0047 12.4392 12.1304C12.1358 12.256 11.8602 12.4404 11.6283 12.6729L6.6786 19.0369C6.53931 19.1762 6.42882 19.3415 6.35344 19.5235C6.27806 19.7055 6.23926 19.9005 6.23926 20.0975C6.23926 20.2945 6.27806 20.4896 6.35344 20.6716C6.42882 20.8535 6.53931 21.0189 6.6786 21.1582C6.81789 21.2975 6.98324 21.408 7.16523 21.4834C7.34722 21.5587 7.54228 21.5975 7.73926 21.5975C7.93624 21.5975 8.1313 21.5587 8.31328 21.4834C8.49527 21.408 8.66063 21.2975 8.79992 21.1582L13.1432 17.7801L9.67654 28.7293C9.50841 29.0898 9.4904 29.5024 9.62646 29.8762C9.76253 30.2501 10.0415 30.5545 10.4021 30.7227C10.7626 30.8908 11.1752 30.9088 11.549 30.7728C11.9229 30.6367 12.2273 30.3577 12.3955 29.9971L16.3961 23.7008L20.3968 29.9971C20.5654 30.3569 20.8699 30.635 21.2433 30.7705C21.6168 30.906 22.0288 30.8878 22.3888 30.7199C22.7489 30.552 23.0277 30.2481 23.1639 29.8749C23.3002 29.5017 23.2828 29.0897 23.1157 28.7293L19.649 17.7801Z" stroke="#1AC7D6" stroke-width="2" stroke-linecap="round" stroke-linejoin="round"/>
</svg>
