<svg width="33" height="33" viewBox="0 0 33 33" fill="none" xmlns="http://www.w3.org/2000/svg">
<path d="M3.59766 7.67358H19.5977C20.6585 7.67358 21.6759 8.09501 22.4261 8.84516C23.1762 9.5953 23.5977 10.6127 23.5977 11.6736V23.6736C23.5977 23.9388 23.4923 24.1932 23.3048 24.3807C23.1172 24.5682 22.8629 24.6736 22.5977 24.6736H6.59766C5.53679 24.6736 4.51937 24.2522 3.76923 23.502C3.01908 22.7519 2.59766 21.7344 2.59766 20.6736V8.67358C2.59766 8.40837 2.70301 8.15401 2.89055 7.96648C3.07809 7.77894 3.33244 7.67358 3.59766 7.67358V7.67358Z" stroke="white" stroke-width="2" stroke-linecap="round" stroke-linejoin="round"/>
<path d="M23.5977 14.1736L30.5977 10.1736V22.1736L23.5977 18.1736" stroke="white" stroke-width="2" stroke-linecap="round" stroke-linejoin="round"/>
</svg>
