<svg width="23" height="55" viewBox="0 0 23 55" fill="none" xmlns="http://www.w3.org/2000/svg">
<path fill-rule="evenodd" clip-rule="evenodd" d="M11.8092 9.32678C14.1538 9.32678 16.0666 7.39301 16.0666 5.02258C16.0666 2.65215 14.1538 0.718384 11.8092 0.718384C9.46452 0.718384 7.55178 2.65215 7.55178 5.02258C7.54492 7.39301 9.45766 9.32678 11.8092 9.32678Z" fill="#FAFAFA"/>
<path d="M11.233 51.8351C11.233 53.4223 10.2047 54.7115 8.9295 54.7115C7.65433 54.7115 6.62598 53.4223 6.62598 51.8351V27.5694C6.62598 25.9822 7.65433 24.693 8.9295 24.693C10.2047 24.693 11.233 25.9822 11.233 27.5694V51.8351Z" fill="#FAFAFA"/>
<path d="M16.985 51.8351C16.985 53.4223 15.9566 54.7115 14.6815 54.7115C13.4063 54.7115 12.3779 53.4223 12.3779 51.8351V27.5694C12.3779 25.9822 13.4063 24.693 14.6815 24.693C15.9566 24.693 16.985 25.9822 16.985 27.5694V51.8351Z" fill="#FAFAFA"/>
<path fill-rule="evenodd" clip-rule="evenodd" d="M4.76807 35.2906H18.8429L15.3876 13.028H8.22335L4.76807 35.2906Z" fill="#FAFAFA"/>
<path fill-rule="evenodd" clip-rule="evenodd" d="M6.59176 10.7061H17.0262C18.7881 10.7061 20.2278 12.2032 20.2278 14.033V17.0618H3.39014V14.033C3.39014 12.2032 4.82984 10.7061 6.59176 10.7061Z" fill="#FAFAFA"/>
<path d="M4.45271 30.0506C4.28817 31.0626 3.34208 31.7418 2.34115 31.5755C1.34021 31.4091 0.66835 30.4526 0.832887 29.4407L3.38321 13.9082C3.54775 12.8962 4.49384 12.217 5.49478 12.3833C6.49571 12.5497 7.16757 13.5062 7.00303 14.5181L4.45271 30.0506Z" fill="#FAFAFA"/>
<path d="M19.1581 30.0506C19.3227 31.0626 20.2687 31.7418 21.2697 31.5755C22.2706 31.4091 22.9425 30.4526 22.7779 29.4407L20.2276 13.9082C20.0631 12.8962 19.117 12.217 18.116 12.3833C17.1151 12.5497 16.4433 13.5062 16.6078 14.5181L19.1581 30.0506Z" fill="#FAFAFA"/>
</svg>
