<svg width="31" height="31" viewBox="0 0 31 31" fill="none" xmlns="http://www.w3.org/2000/svg">
<path d="M18.1016 13.636H21.8516" stroke="white" stroke-width="2" stroke-linecap="round" stroke-linejoin="round"/>
<path d="M8.72656 13.636H12.4766" stroke="white" stroke-width="2" stroke-linecap="round" stroke-linejoin="round"/>
<path d="M10.6016 11.761V15.511" stroke="white" stroke-width="2" stroke-linecap="round" stroke-linejoin="round"/>
<path d="M20.4479 7.51172L10.1337 7.54221C8.70102 7.54232 7.31414 8.04708 6.21653 8.9679C5.11892 9.88872 4.38073 11.1667 4.13156 12.5776L4.13256 12.5778L2.21486 22.4406C2.09373 23.1279 2.19484 23.8358 2.50349 24.4617C2.81215 25.0875 3.31229 25.5987 3.93126 25.9209C4.55024 26.2431 5.25582 26.3597 5.94553 26.2535C6.63524 26.1474 7.27316 25.8242 7.76664 25.3308L7.76645 25.3306L12.8331 19.7297L20.4479 19.6992C22.064 19.6992 23.614 19.0572 24.7568 17.9144C25.8996 16.7716 26.5416 15.2216 26.5416 13.6055C26.5416 11.9893 25.8996 10.4393 24.7568 9.29654C23.614 8.15374 22.064 7.51172 20.4479 7.51172V7.51172Z" stroke="white" stroke-width="2" stroke-linecap="round" stroke-linejoin="round"/>
<path d="M26.4486 12.5474L28.3648 22.4407C28.4859 23.1279 28.3848 23.8359 28.0761 24.4617C27.7675 25.0876 27.2673 25.5987 26.6484 25.921C26.0294 26.2432 25.3238 26.3597 24.6341 26.2536C23.9444 26.1475 23.3065 25.8243 22.813 25.3309L22.8132 25.3307L17.75 19.7101" stroke="white" stroke-width="2" stroke-linecap="round" stroke-linejoin="round"/>
</svg>
