<svg width="33" height="33" viewBox="0 0 33 33" fill="none" xmlns="http://www.w3.org/2000/svg">
<path d="M6.32031 17.8887V26.4402C6.32031 26.7054 6.42567 26.9597 6.61321 27.1473C6.80074 27.3348 7.0551 27.4402 7.32031 27.4402H25.3203C25.5855 27.4402 25.8399 27.3348 26.0274 27.1473C26.215 26.9597 26.3203 26.7054 26.3203 26.4402V17.8889" stroke="white" stroke-width="2" stroke-linecap="round" stroke-linejoin="round"/>
<path d="M7.07461 5.44019H25.566C25.7833 5.44019 25.9947 5.51097 26.1682 5.64184C26.3417 5.7727 26.4678 5.95652 26.5275 6.16546L28.3203 12.4402H4.32031L6.11309 6.16546C6.17279 5.95652 6.29893 5.7727 6.47242 5.64184C6.64591 5.51097 6.8573 5.44019 7.07461 5.44019Z" stroke="white" stroke-width="2" stroke-linecap="round" stroke-linejoin="round"/>
<path d="M12.3203 12.4402V14.4402C12.3203 15.5011 11.8989 16.5185 11.1487 17.2686C10.3986 18.0188 9.38118 18.4402 8.32031 18.4402C7.25945 18.4402 6.24203 18.0188 5.49189 17.2686C4.74174 16.5185 4.32031 15.5011 4.32031 14.4402V12.4402" stroke="white" stroke-width="2" stroke-linecap="round" stroke-linejoin="round"/>
<path d="M20.3203 12.4402V14.4402C20.3203 15.5011 19.8989 16.5185 19.1487 17.2686C18.3986 18.0188 17.3812 18.4402 16.3203 18.4402C15.2594 18.4402 14.242 18.0188 13.4919 17.2686C12.7417 16.5185 12.3203 15.5011 12.3203 14.4402V12.4402" stroke="white" stroke-width="2" stroke-linecap="round" stroke-linejoin="round"/>
<path d="M28.3203 12.4402V14.4402C28.3203 15.5011 27.8989 16.5185 27.1487 17.2686C26.3986 18.0188 25.3812 18.4402 24.3203 18.4402C23.2594 18.4402 22.242 18.0188 21.4919 17.2686C20.7417 16.5185 20.3203 15.5011 20.3203 14.4402V12.4402" stroke="white" stroke-width="2" stroke-linecap="round" stroke-linejoin="round"/>
</svg>
