<svg width="21" height="55" viewBox="0 0 21 55" fill="none" xmlns="http://www.w3.org/2000/svg">
<path fill-rule="evenodd" clip-rule="evenodd" d="M11.04 8.62459C13.4105 8.62459 15.3442 6.69082 15.3442 4.32039C15.3442 1.94996 13.4105 0.0161929 11.04 0.0161929C8.66961 0.00926182 6.73584 1.94303 6.73584 4.31346C6.73584 6.69082 8.66961 8.62459 11.04 8.62459Z" fill="#FAFAFA"/>
<path d="M4.54553 29.0158C4.54553 30.0416 3.7138 30.8733 2.688 30.8733C1.66913 30.8733 0.837402 30.0416 0.837402 29.0158V13.2684C0.837402 12.2426 1.66913 11.4109 2.69493 11.4109C3.72073 11.4109 4.55246 12.2426 4.55246 13.2684V29.0158H4.54553Z" fill="#FAFAFA"/>
<path d="M20.8059 29.0158C20.8059 30.0416 19.9741 30.8733 18.9483 30.8733C17.9225 30.8733 17.0908 30.0416 17.0908 29.0158V13.2684C17.0908 12.2426 17.9225 11.4109 18.9483 11.4109C19.9741 11.4109 20.8059 12.2426 20.8059 13.2684V29.0158Z" fill="#FAFAFA"/>
<path d="M10.2426 51.1329C10.2426 52.7201 9.20298 54.0093 7.9138 54.0093C6.62462 54.0093 5.58496 52.7201 5.58496 51.1329V26.8672C5.58496 25.28 6.62462 23.9908 7.9138 23.9908C9.20298 23.9908 10.2426 25.28 10.2426 26.8672V51.1329Z" fill="#FAFAFA"/>
<path d="M16.0581 51.1329C16.0581 52.7201 15.0184 54.0093 13.7292 54.0093C12.4401 54.0093 11.4004 52.7201 11.4004 51.1329V26.8672C11.4004 25.28 12.4401 23.9908 13.7292 23.9908C15.0184 23.9908 16.0581 25.28 16.0581 26.8672V51.1329Z" fill="#FAFAFA"/>
<path d="M16.0578 14.9596H5.58496V30.5407H16.0578V14.9596Z" fill="#FAFAFA"/>
<path fill-rule="evenodd" clip-rule="evenodd" d="M4.07421 10.0038H17.569C19.3503 10.0038 20.8058 11.501 20.8058 13.3308V16.3596H0.837402V13.3308C0.837402 11.501 2.29293 10.0038 4.07421 10.0038Z" fill="#FAFAFA"/>
</svg>
