<svg width="26" height="26" viewBox="0 0 26 26" fill="none" xmlns="http://www.w3.org/2000/svg">
<path d="M21.3555 5.92407L4.16797 5.92408" stroke="white" stroke-width="2" stroke-linecap="round" stroke-linejoin="round"/>
<path d="M10.418 10.6116V16.8616" stroke="white" stroke-width="2" stroke-linecap="round" stroke-linejoin="round"/>
<path d="M15.1055 10.6116V16.8616" stroke="white" stroke-width="2" stroke-linecap="round" stroke-linejoin="round"/>
<path d="M19.793 5.92408V20.7678C19.793 20.975 19.7107 21.1737 19.5641 21.3203C19.4176 21.4668 19.2189 21.5491 19.0117 21.5491H6.51172C6.30452 21.5491 6.1058 21.4668 5.95929 21.3203C5.81278 21.1737 5.73047 20.975 5.73047 20.7678V5.92407" stroke="white" stroke-width="2" stroke-linecap="round" stroke-linejoin="round"/>
<path d="M16.668 5.92407V4.36157C16.668 3.94717 16.5033 3.54974 16.2103 3.25672C15.9173 2.96369 15.5199 2.79907 15.1055 2.79907H10.418C10.0036 2.79907 9.60614 2.96369 9.31311 3.25672C9.02009 3.54974 8.85547 3.94717 8.85547 4.36157V5.92407" stroke="white" stroke-width="2" stroke-linecap="round" stroke-linejoin="round"/>
</svg>
