<svg width="33" height="33" viewBox="0 0 33 33" fill="none" xmlns="http://www.w3.org/2000/svg">
<path d="M10.748 7.73706H7.74805C7.19576 7.73706 6.74805 8.18478 6.74805 8.73706V24.7371C6.74805 25.2893 7.19576 25.7371 7.74805 25.7371H10.748C11.3003 25.7371 11.748 25.2893 11.748 24.7371V8.73706C11.748 8.18478 11.3003 7.73706 10.748 7.73706Z" stroke="white" stroke-width="2" stroke-linecap="round" stroke-linejoin="round"/>
<path d="M25.748 7.73706H22.748C22.1958 7.73706 21.748 8.18478 21.748 8.73706V24.7371C21.748 25.2893 22.1958 25.7371 22.748 25.7371H25.748C26.3003 25.7371 26.748 25.2893 26.748 24.7371V8.73706C26.748 8.18478 26.3003 7.73706 25.748 7.73706Z" stroke="white" stroke-width="2" stroke-linecap="round" stroke-linejoin="round"/>
<path d="M26.748 10.7371H29.748C30.0133 10.7371 30.2676 10.8424 30.4552 11.03C30.6427 11.2175 30.748 11.4718 30.748 11.7371V21.7371C30.748 22.0023 30.6427 22.2566 30.4552 22.4442C30.2676 22.6317 30.0133 22.7371 29.748 22.7371H26.748" stroke="white" stroke-width="2" stroke-linecap="round" stroke-linejoin="round"/>
<path d="M6.74805 22.7371H3.74805C3.48283 22.7371 3.22848 22.6317 3.04094 22.4442C2.8534 22.2566 2.74805 22.0023 2.74805 21.7371V11.7371C2.74805 11.4718 2.8534 11.2175 3.04094 11.03C3.22848 10.8424 3.48283 10.7371 3.74805 10.7371H6.74805" stroke="white" stroke-width="2" stroke-linecap="round" stroke-linejoin="round"/>
<path d="M11.748 16.7371H21.748" stroke="white" stroke-width="2" stroke-linecap="round" stroke-linejoin="round"/>
</svg>
