<svg width="26" height="26" viewBox="0 0 26 26" fill="none" xmlns="http://www.w3.org/2000/svg">
<path d="M14.8935 19.6886L13.4473 22.099C13.3778 22.2147 13.2797 22.3104 13.1623 22.3769C13.0449 22.4434 12.9123 22.4783 12.7773 22.4783C12.6424 22.4783 12.5098 22.4434 12.3924 22.3769C12.275 22.3104 12.1768 22.2147 12.1074 22.099L10.6612 19.6886C10.5918 19.5729 10.4936 19.4772 10.3762 19.4107C10.2588 19.3442 10.1262 19.3093 9.99126 19.3093H4.18359C3.97639 19.3093 3.77768 19.227 3.63117 19.0805C3.48465 18.9339 3.40234 18.7352 3.40234 18.528V6.02808C3.40234 5.82088 3.48465 5.62216 3.63117 5.47565C3.77768 5.32914 3.97639 5.24683 4.18359 5.24683H21.3711C21.5783 5.24683 21.777 5.32914 21.9235 5.47565C22.07 5.62216 22.1523 5.82088 22.1523 6.02808V18.5281C22.1523 18.6307 22.1321 18.7323 22.0929 18.827C22.0536 18.9218 21.9961 19.008 21.9235 19.0805C21.851 19.1531 21.7648 19.2106 21.6701 19.2499C21.5753 19.2891 21.4737 19.3093 21.3711 19.3093L15.5634 19.3093C15.4285 19.3093 15.2959 19.3442 15.1785 19.4107C15.0611 19.4772 14.9629 19.5729 14.8935 19.6886Z" stroke="white" stroke-width="2" stroke-linecap="round" stroke-linejoin="round"/>
<path d="M8.08984 13.45C8.73705 13.45 9.26172 12.9253 9.26172 12.2781C9.26172 11.6309 8.73705 11.1062 8.08984 11.1062C7.44263 11.1062 6.91797 11.6309 6.91797 12.2781C6.91797 12.9253 7.44263 13.45 8.08984 13.45Z" fill="white"/>
<path d="M12.7773 13.45C13.4246 13.45 13.9492 12.9253 13.9492 12.2781C13.9492 11.6309 13.4246 11.1062 12.7773 11.1062C12.1301 11.1062 11.6055 11.6309 11.6055 12.2781C11.6055 12.9253 12.1301 13.45 12.7773 13.45Z" fill="white"/>
<path d="M17.4648 13.45C18.1121 13.45 18.6367 12.9253 18.6367 12.2781C18.6367 11.6309 18.1121 11.1062 17.4648 11.1062C16.8176 11.1062 16.293 11.6309 16.293 12.2781C16.293 12.9253 16.8176 13.45 17.4648 13.45Z" fill="white"/>
</svg>
