<svg width="1720" height="1857" viewBox="0 0 1720 1857" fill="none" xmlns="http://www.w3.org/2000/svg">
<line x1="1702.96" y1="1853.7" x2="1702.96" y2="1131.52" stroke="black"/>
<line x1="1702.96" y1="1059.04" x2="1702.96" y2="956.302" stroke="black"/>
<line x1="1663.07" y1="955.802" x2="1703.47" y2="955.802" stroke="black"/>
<line x1="1663.57" y1="947.761" x2="1663.57" y2="956.302" stroke="black"/>
<line x1="1663.07" y1="581.991" x2="1713.86" y2="581.991" stroke="black"/>
<line x1="1663.57" y1="582.491" x2="1663.57" y2="947.76" stroke="black"/>
<line x1="16.6836" y1="475.339" x2="74.2163" y2="475.339" stroke="black"/>
<line x1="16.6836" y1="840.608" x2="74.2163" y2="840.608" stroke="black"/>
<line x1="74.3867" y1="474.847" x2="74.3867" y2="841.108" stroke="black"/>
<line x1="1714.36" y1="0.851562" x2="1714.36" y2="582.492" stroke="black"/>
<line x1="17.1836" y1="0.851562" x2="17.1836" y2="301.042" stroke="black"/>
<line x1="2.16605" y1="285.814" x2="17.0391" y2="300.687" stroke="black"/>
<line x1="0.420443" y1="383.645" x2="17.4609" y2="373.098" stroke="black"/>
<line x1="17.1836" y1="373.523" x2="17.1836" y2="475.21" stroke="black"/>
<line x1="1713.86" y1="1.35156" x2="1044.11" y2="1.3515" stroke="black"/>
<line x1="644.668" y1="1.35156" x2="16.686" y2="1.35156" stroke="black"/>
<line x1="1703.46" y1="1855.06" x2="16.6836" y2="1855.06" stroke="black"/>
<line x1="17.1836" y1="840.144" x2="17.1836" y2="1648.81" stroke="black"/>
<line x1="17.1836" y1="1704.94" x2="17.1836" y2="1856.47" stroke="black"/>
<line x1="2.16605" y1="1633.46" x2="17.0391" y2="1648.33" stroke="black"/>
<line x1="1717.93" y1="1146.75" x2="1703.05" y2="1131.87" stroke="black"/>
<line x1="1719.67" y1="1048.92" x2="1702.63" y2="1059.46" stroke="black"/>
<rect x="16.9727" y="1.00977" width="234" height="101.718" stroke="black"/>
<rect x="306.609" y="1.00977" width="234" height="101.718" stroke="black"/>
<rect x="1238.34" y="1.00977" width="234" height="101.718" stroke="black"/>
<rect x="1530.07" y="182.213" width="183.283" height="247.835" stroke="black"/>
<rect x="17.1836" y="983.123" width="209.519" height="379.09" stroke="black"/>
<rect x="17.1836" y="1362.21" width="209.519" height="251.301" stroke="black"/>
<rect x="252.344" y="46.666" width="6.16206" height="31.1005" transform="rotate(-180 252.344 46.666)" fill="white"/>
<rect x="1473.71" y="46.666" width="6.16206" height="31.1005" transform="rotate(-180 1473.71 46.666)" fill="white"/>
<rect x="1546.5" y="184.793" width="6.16206" height="31.1005" transform="rotate(-90 1546.5 184.793)" fill="white"/>
<line x1="251.273" y1="16.0664" x2="224.476" y2="16.0664" stroke="black"/>
<line x1="540.91" y1="16.0664" x2="514.113" y2="16.0664" stroke="black"/>
<line x1="1472.64" y1="16.0664" x2="1445.85" y2="16.0664" stroke="black"/>
<line x1="1546.98" y1="181.846" x2="1539.87" y2="207.682" stroke="black"/>
<rect x="1601.79" y="1426" width="234" height="101.718" transform="rotate(-90 1601.79 1426)" stroke="black"/>
<rect x="1657.85" y="1197.66" width="6.16206" height="31.1005" transform="rotate(-90 1657.85 1197.66)" fill="white"/>
<rect x="183.984" y="984.564" width="6.16206" height="31.1005" transform="rotate(-90 183.984 984.564)" fill="white"/>
<rect x="225.328" y="1557.15" width="6.16206" height="31.1005" fill="white"/>
<line x1="215.568" y1="982.756" x2="208.456" y2="1008.59" stroke="black"/>
<line x1="227.137" y1="1602.28" x2="201.3" y2="1595.17" stroke="black"/>
<line x1="0.3931" y1="1715.04" x2="17.4336" y2="1704.5" stroke="black"/>
<rect x="544" y="48" width="6" height="32" transform="rotate(-180 544 48)" fill="white"/>
</svg>
