<svg width="28" height="28" viewBox="0 0 28 28" fill="none" xmlns="http://www.w3.org/2000/svg">
<path fill-rule="evenodd" clip-rule="evenodd" d="M14 0.25C6.40625 0.25 0.25 6.40625 0.25 14C0.25 21.5937 6.40625 27.75 14 27.75C21.5937 27.75 27.75 21.5937 27.75 14C27.75 6.40625 21.5937 0.25 14 0.25ZM9.88375 16.7587C9.648 16.9864 9.33224 17.1124 9.0045 17.1096C8.67675 17.1067 8.36324 16.9753 8.13148 16.7435C7.89972 16.5118 7.76826 16.1982 7.76541 15.8705C7.76256 15.5428 7.88855 15.227 8.11625 14.9913L13.1163 9.99125C13.3507 9.75691 13.6685 9.62527 14 9.62527C14.3315 9.62527 14.6493 9.75691 14.8837 9.99125L19.8838 14.9913C20.1114 15.227 20.2374 15.5428 20.2346 15.8705C20.2317 16.1982 20.1003 16.5118 19.8685 16.7435C19.6368 16.9753 19.3232 17.1067 18.9955 17.1096C18.6678 17.1124 18.352 16.9864 18.1163 16.7587L14 12.6425L9.88375 16.7587Z" fill="#F8F8F8"/>
</svg>
