<svg width="22" height="21" viewBox="0 0 22 21" fill="none" xmlns="http://www.w3.org/2000/svg">
<path d="M8.27237 20.0909C8.77445 20.0909 9.18146 19.6839 9.18146 19.1818C9.18146 18.6797 8.77445 18.2727 8.27237 18.2727C7.7703 18.2727 7.36328 18.6797 7.36328 19.1818C7.36328 19.6839 7.7703 20.0909 8.27237 20.0909Z" stroke="#1B3B90" stroke-width="1.5" stroke-linecap="round" stroke-linejoin="round"/>
<path d="M18.2724 20.0909C18.7744 20.0909 19.1815 19.6839 19.1815 19.1818C19.1815 18.6797 18.7744 18.2727 18.2724 18.2727C17.7703 18.2727 17.3633 18.6797 17.3633 19.1818C17.3633 19.6839 17.7703 20.0909 18.2724 20.0909Z" stroke="#1B3B90" stroke-width="1.5" stroke-linecap="round" stroke-linejoin="round"/>
<path d="M1 1H4.63636L7.07273 13.1727C7.15586 13.5913 7.38355 13.9672 7.71595 14.2348C8.04835 14.5024 8.46427 14.6445 8.89091 14.6364H17.7273C18.1539 14.6445 18.5698 14.5024 18.9022 14.2348C19.2346 13.9672 19.4623 13.5913 19.5455 13.1727L21 5.54545H5.54545" stroke="#1B3B90" stroke-width="1.5" stroke-linecap="round" stroke-linejoin="round"/>
</svg>
