<svg width="178" height="58" viewBox="0 0 178 58" fill="none" xmlns="http://www.w3.org/2000/svg">
<path d="M92.3107 29.6927H70.9303C71.8258 33.1807 74.5683 35.421 78.1504 35.421C81.1168 35.421 83.5794 34.0315 84.6428 32.1599H91.9748C90.0159 37.718 84.6988 41.5746 78.0384 41.5746C69.8109 41.5746 63.5703 35.421 63.5703 27.2823C63.5703 19.1436 69.8109 12.99 78.0384 12.99C86.2659 12.99 92.5065 19.1436 92.5065 27.339C92.5345 28.048 92.4786 29.0689 92.3107 29.6927ZM71.0422 24.6167H85.1466C84.251 21.2988 81.4526 19.1153 78.0664 19.1153C74.6243 19.1153 71.9378 21.2988 71.0422 24.6167Z" fill="white"/>
<path d="M123.263 23.5958V40.9224H116.407V25.8644C116.407 22.1779 114.084 19.7675 110.558 19.7675C106.752 19.7675 104.233 22.2346 104.233 25.9778V40.9508H97.377V13.6422H104.233V17.0168C106.304 14.4078 109.242 13.0183 112.797 13.0183C119.093 13.0183 123.263 17.1869 123.263 23.5958Z" fill="white"/>
<path d="M156.62 13.6422V40.9224H149.764V37.3493C147.665 39.9583 144.642 41.5746 141.004 41.5746C133.504 41.5746 127.852 35.421 127.852 27.2823C127.852 19.1436 133.504 12.99 141.004 12.99C144.642 12.99 147.665 14.6064 149.764 17.2153V13.6422H156.62ZM149.764 27.2823C149.764 23.0003 146.601 19.7391 142.32 19.7391C138.094 19.7391 134.932 23.0003 134.932 27.2823C134.932 31.5643 138.094 34.8255 142.32 34.8255C146.601 34.8255 149.764 31.5643 149.764 27.2823Z" fill="white"/>
<path d="M172.459 12.8481V13.6421H178V20.0226H172.459V40.9507H165.603V20.0226H161.377V13.6421H165.603V12.4794C165.603 5.0497 169.549 1.98706 178 1.98706V8.31085C174.362 8.31085 172.459 9.58695 172.459 12.8481Z" fill="white"/>
<path d="M68.443 45.9439C68.2493 45.8458 68.0233 45.8131 67.7972 45.8131C67.5066 45.8131 67.2483 45.8785 67.0223 46.0094C66.7963 46.1403 66.6025 46.3366 66.4411 46.5983C66.3119 46.8274 66.2473 47.1219 66.2473 47.3836C66.2473 47.6781 66.3119 47.9398 66.4411 48.1689C66.5702 48.3979 66.764 48.5942 67.0223 48.7578C67.2483 48.8887 67.5389 48.9542 67.7972 48.9542C68.0233 48.9542 68.217 48.9214 68.4107 48.8233C68.6045 48.7251 68.7982 48.627 68.9596 48.4634L69.2825 48.8233C69.0888 49.0196 68.8305 49.1832 68.5722 49.3141C68.3139 49.445 68.0233 49.4777 67.7327 49.4777C67.3452 49.4777 66.99 49.3795 66.6671 49.1832C66.3442 48.9869 66.0859 48.7578 65.8922 48.4306C65.6984 48.1034 65.6016 47.7435 65.6016 47.3509C65.6016 46.9583 65.6984 46.5983 65.8922 46.3039C66.0859 45.9767 66.3442 45.7476 66.6671 45.5513C66.99 45.355 67.3452 45.2896 67.7327 45.2896C68.0233 45.2896 68.2816 45.355 68.5399 45.4531C68.7982 45.5513 69.0242 45.7149 69.218 45.9112L68.8951 46.3039C68.8305 46.173 68.6368 46.0421 68.443 45.9439Z" fill="white"/>
<path d="M73.6732 45.5841C73.9961 45.7804 74.2544 46.0095 74.4481 46.3367C74.6419 46.6639 74.7388 47.0238 74.7388 47.3837C74.7388 47.7763 74.6419 48.1363 74.4481 48.4307C74.2544 48.7579 73.9961 49.0197 73.6732 49.1833C73.3503 49.3469 72.9951 49.4778 72.6077 49.4778C72.2202 49.4778 71.865 49.3796 71.5421 49.1833C71.2192 48.987 70.9609 48.7252 70.7672 48.4307C70.5734 48.1035 70.4766 47.7436 70.4766 47.3837C70.4766 46.9911 70.5734 46.6311 70.7672 46.3367C70.9609 46.0095 71.2192 45.7804 71.5421 45.5841C71.865 45.3878 72.2202 45.3224 72.6077 45.3224C72.9628 45.2896 73.3503 45.3878 73.6732 45.5841ZM71.8004 46.0095C71.5421 46.1404 71.3807 46.3367 71.2192 46.5984C71.0901 46.8275 70.9932 47.1219 70.9932 47.3837C70.9932 47.6782 71.0578 47.9399 71.2192 48.169C71.3484 48.398 71.5421 48.5943 71.8004 48.7579C72.0587 48.8888 72.3171 48.987 72.5754 48.987C72.866 48.987 73.1243 48.9215 73.3503 48.7579C73.5763 48.6271 73.7701 48.4307 73.9315 48.169C74.0607 47.9399 74.1575 47.6455 74.1575 47.3837C74.1575 47.0892 74.093 46.8275 73.9315 46.5984C73.8024 46.3694 73.6086 46.1731 73.3503 46.0095C73.1243 45.8786 72.866 45.8132 72.5754 45.8132C72.3171 45.8132 72.0587 45.8786 71.8004 46.0095Z" fill="white"/>
<path d="M79.2273 45.355H79.7762V49.4777H79.2273L76.9024 46.2711V49.4777H76.3535V45.355H76.9024L79.2273 48.5288V45.355Z" fill="white"/>
<path d="M84.5882 47.449H85.0725V48.9542C84.8788 49.1178 84.6205 49.2486 84.3622 49.3468C84.0716 49.445 83.8132 49.5104 83.5549 49.5104C83.1675 49.5104 82.8123 49.4122 82.4894 49.2159C82.1665 49.0196 81.9082 48.7578 81.7144 48.4634C81.5207 48.1362 81.4238 47.7762 81.4238 47.4163C81.4238 47.0237 81.5207 46.6638 81.7144 46.3693C81.9082 46.0748 82.1665 45.8131 82.4894 45.6167C82.8123 45.4204 83.1675 45.355 83.5872 45.355C83.8778 45.355 84.1361 45.4204 84.4267 45.5186C84.6851 45.6167 84.9434 45.7476 85.1371 45.9439L84.8142 46.3693C84.6528 46.2057 84.459 46.1075 84.2653 46.0094C84.0393 45.9112 83.8455 45.8785 83.6195 45.8785C83.3289 45.8785 83.0706 45.9439 82.8123 46.0748C82.554 46.2057 82.3602 46.402 82.2311 46.6638C82.1019 46.8928 82.005 47.1873 82.005 47.449C82.005 47.7435 82.0696 48.0053 82.2311 48.267C82.3602 48.5288 82.554 48.6924 82.8123 48.856C83.0706 48.9869 83.3289 49.085 83.6195 49.085C83.781 49.085 83.9747 49.0523 84.1361 48.9869C84.2976 48.9214 84.4913 48.856 84.6205 48.7578V47.449H84.5882Z" fill="white"/>
<path d="M89.5607 49.4777L88.7535 48.1689C88.6566 48.1689 88.5921 48.1689 88.5275 48.1689H87.4942V49.4449H86.9453V45.3223H88.5275C89.0441 45.3223 89.4316 45.4531 89.7222 45.6822C90.0128 45.9112 90.142 46.2711 90.142 46.6965C90.142 47.0237 90.0774 47.3182 89.9159 47.5472C89.7545 47.7762 89.5285 47.9398 89.2701 48.038L90.2065 49.4449H89.5607V49.4777ZM88.5275 47.6781C88.8827 47.6781 89.141 47.6126 89.3347 47.449C89.5285 47.2854 89.6253 47.0564 89.6253 46.7619C89.6253 46.4675 89.5285 46.2384 89.3347 46.1075C89.141 45.9439 88.8827 45.8785 88.5275 45.8785H87.4942V47.6781H88.5275Z" fill="white"/>
<path d="M91.9492 45.355H94.7907V45.8458H92.5304V47.1218H94.5647V47.6454H92.5304V48.9541H94.8553V49.4777H91.9492V45.355Z" fill="white"/>
<path d="M98.3754 45.9112C98.1816 45.8458 97.9879 45.8131 97.8265 45.8131C97.6004 45.8131 97.4067 45.8458 97.2452 45.9439C97.1161 46.0421 97.0192 46.173 97.0192 46.3366C97.0192 46.4675 97.0515 46.5983 97.1484 46.6965C97.2452 46.7947 97.3421 46.8601 97.4713 46.9255C97.6004 46.991 97.7619 47.0237 97.9879 47.1218C98.2785 47.22 98.4722 47.2854 98.666 47.3836C98.8274 47.449 98.9889 47.5799 99.0857 47.7435C99.2149 47.9071 99.2795 48.1034 99.2795 48.3652C99.2795 48.5942 99.2149 48.8233 99.0857 48.9869C98.9566 49.1505 98.7951 49.3141 98.5691 49.4122C98.3431 49.5104 98.0848 49.5431 97.7942 49.5431C97.5036 49.5431 97.2129 49.4777 96.9223 49.3795C96.6317 49.2486 96.4057 49.1178 96.1797 48.9214L96.438 48.4306C96.6317 48.627 96.8578 48.7578 97.0838 48.8887C97.3421 48.9869 97.5681 49.0523 97.7942 49.0523C98.0525 49.0523 98.2785 48.9869 98.44 48.8887C98.6014 48.7906 98.666 48.627 98.666 48.4634C98.666 48.3325 98.6337 48.2016 98.5368 48.1034C98.4399 48.0053 98.3431 47.9398 98.2139 47.8744C98.0848 47.809 97.9233 47.7435 97.6973 47.6781C97.439 47.5799 97.213 47.5145 97.0192 47.449C96.8578 47.3836 96.6963 47.2527 96.5994 47.0891C96.4703 46.9255 96.438 46.7292 96.438 46.4675C96.438 46.2384 96.5026 46.0421 96.6317 45.8785C96.7609 45.7149 96.9223 45.584 97.1484 45.4859C97.3744 45.3877 97.6327 45.355 97.891 45.355C98.1493 45.355 98.3754 45.3877 98.6014 45.4531C98.8274 45.5186 99.0534 45.6167 99.2149 45.7476L98.9889 46.2384C98.7628 46.0748 98.5691 45.9767 98.3754 45.9112Z" fill="white"/>
<path d="M102.767 45.9112C102.573 45.8458 102.379 45.8131 102.218 45.8131C101.992 45.8131 101.798 45.8458 101.637 45.9439C101.508 46.0421 101.411 46.173 101.411 46.3366C101.411 46.4675 101.443 46.5983 101.54 46.6965C101.637 46.7947 101.734 46.8601 101.863 46.9255C101.992 46.991 102.153 47.0237 102.379 47.1218C102.67 47.22 102.864 47.2854 103.058 47.3836C103.219 47.449 103.38 47.5799 103.51 47.7435C103.639 47.9071 103.703 48.1034 103.703 48.3652C103.703 48.5942 103.639 48.8233 103.51 48.9869C103.38 49.1505 103.219 49.3141 102.993 49.4122C102.767 49.5104 102.509 49.5431 102.218 49.5431C101.927 49.5431 101.637 49.4777 101.346 49.3795C101.056 49.2486 100.83 49.1178 100.604 48.9214L100.862 48.4306C101.056 48.627 101.282 48.7578 101.508 48.8887C101.766 48.9869 101.992 49.0523 102.218 49.0523C102.476 49.0523 102.702 48.9869 102.864 48.8887C103.025 48.7906 103.09 48.627 103.09 48.4634C103.09 48.3325 103.058 48.2016 102.961 48.1034C102.864 48.0053 102.767 47.9398 102.638 47.8744C102.509 47.809 102.347 47.7435 102.121 47.6781C101.863 47.5799 101.637 47.5145 101.443 47.449C101.282 47.3836 101.12 47.2527 101.023 47.0891C100.894 46.9255 100.862 46.7292 100.862 46.4675C100.862 46.2384 100.926 46.0421 101.056 45.8785C101.185 45.7149 101.346 45.584 101.572 45.4859C101.798 45.3877 102.057 45.355 102.315 45.355C102.573 45.355 102.799 45.3877 103.025 45.4531C103.251 45.5186 103.477 45.6167 103.639 45.7476L103.413 46.2384C103.154 46.0748 102.961 45.9767 102.767 45.9112Z" fill="white"/>
<path d="M108.224 45.5841C108.547 45.7804 108.805 46.0095 108.999 46.3367C109.193 46.6639 109.29 47.0238 109.29 47.3837C109.29 47.7763 109.193 48.1363 108.999 48.4307C108.805 48.7579 108.547 49.0197 108.224 49.1833C107.901 49.3796 107.546 49.4778 107.158 49.4778C106.771 49.4778 106.416 49.3796 106.093 49.1833C105.77 48.987 105.512 48.7252 105.318 48.4307C105.124 48.1035 105.027 47.7436 105.027 47.3837C105.027 46.9911 105.124 46.6311 105.318 46.3367C105.512 46.0095 105.77 45.7804 106.093 45.5841C106.416 45.3878 106.771 45.3224 107.158 45.3224C107.546 45.2896 107.901 45.3878 108.224 45.5841ZM106.351 46.0095C106.093 46.1404 105.931 46.3367 105.77 46.5984C105.641 46.8275 105.544 47.1219 105.544 47.3837C105.544 47.6782 105.609 47.9399 105.77 48.169C105.899 48.398 106.093 48.5943 106.351 48.7579C106.577 48.8888 106.868 48.987 107.126 48.987C107.417 48.987 107.675 48.9215 107.901 48.7579C108.127 48.6271 108.321 48.4307 108.482 48.169C108.611 47.9399 108.708 47.6455 108.708 47.3837C108.708 47.0892 108.644 46.8275 108.482 46.5984C108.353 46.3694 108.159 46.1731 107.901 46.0095C107.675 45.8786 107.417 45.8132 107.126 45.8132C106.868 45.8132 106.61 45.8786 106.351 46.0095Z" fill="white"/>
<path d="M113.229 45.355H116.07V45.8458H113.777V47.1218H115.812V47.6454H113.777V48.9541H116.135V49.4777H113.229V45.355Z" fill="white"/>
<path d="M120.17 45.355H122.818V45.8458H120.719V47.22H122.624V47.7108H120.719V49.4777H120.17V45.355Z" fill="white"/>
<path d="M124.303 45.355H127.112V45.8458H124.852V47.1218H126.886V47.6454H124.852V48.9541H127.176V49.4777H124.303V45.355Z" fill="white"/>
<path d="M129.438 45.355H128.889V49.4777H129.438V45.355Z" fill="white"/>
<path d="M134.055 49.4777L133.248 48.1689C133.151 48.1689 133.086 48.1689 133.022 48.1689H131.988V49.4449H131.439V45.3223H133.022C133.538 45.3223 133.926 45.4531 134.216 45.6822C134.507 45.9112 134.636 46.2711 134.636 46.6965C134.636 47.0237 134.572 47.3182 134.41 47.5472C134.249 47.7762 134.023 47.9398 133.764 48.038L134.701 49.4449H134.055V49.4777ZM133.022 47.6781C133.377 47.6781 133.635 47.6126 133.829 47.449C134.023 47.2854 134.119 47.0564 134.119 46.7619C134.119 46.4675 134.023 46.2384 133.829 46.1075C133.635 45.9439 133.377 45.8785 133.022 45.8785H131.988V47.6781H133.022Z" fill="white"/>
<path d="M139.48 49.4777L139.06 48.4634H136.929L136.509 49.4777H135.928L137.736 45.355H138.317L140.125 49.4777H139.48ZM137.122 47.9398H138.834L137.962 45.9439L137.122 47.9398Z" fill="white"/>
<path d="M143.807 45.355H146.454V45.8458H144.388V47.22H146.261V47.7108H144.388V49.4777H143.807V45.355Z" fill="white"/>
<path d="M148.488 45.355H147.939V49.4777H148.488V45.355Z" fill="white"/>
<path d="M149.941 45.355H153.138V45.8458H151.814V49.4777H151.265V45.8458H149.941V45.355Z" fill="white"/>
<path d="M157.466 45.355H158.014V49.4777H157.466L155.141 46.2711V49.4777H154.592V45.355H155.141L157.466 48.5288V45.355Z" fill="white"/>
<path d="M160.016 45.355H162.825V45.8458H160.565V47.1218H162.599V47.6454H160.565V48.9541H162.889V49.4777H160.016V45.355Z" fill="white"/>
<path d="M166.409 45.9112C166.215 45.8458 166.021 45.8131 165.86 45.8131C165.634 45.8131 165.44 45.8458 165.278 45.9439C165.149 46.0421 165.052 46.173 165.052 46.3366C165.052 46.4675 165.085 46.5983 165.182 46.6965C165.278 46.7947 165.375 46.8601 165.504 46.9255C165.634 46.991 165.795 47.0237 166.021 47.1218C166.312 47.22 166.505 47.2854 166.699 47.3836C166.861 47.449 167.022 47.5799 167.119 47.7435C167.248 47.9071 167.313 48.1034 167.313 48.3652C167.313 48.5942 167.248 48.8233 167.119 48.9869C166.99 49.1505 166.828 49.3141 166.602 49.4122C166.376 49.5104 166.118 49.5431 165.827 49.5431C165.537 49.5431 165.246 49.4777 164.956 49.3795C164.665 49.2486 164.439 49.1178 164.213 48.9214L164.471 48.4306C164.665 48.627 164.891 48.7578 165.117 48.8887C165.375 48.9869 165.601 49.0523 165.827 49.0523C166.086 49.0523 166.312 48.9869 166.473 48.8887C166.635 48.7906 166.699 48.627 166.699 48.4634C166.699 48.3325 166.667 48.2016 166.57 48.1034C166.473 48.0053 166.376 47.9398 166.247 47.8744C166.118 47.809 165.957 47.7435 165.73 47.6781C165.472 47.5799 165.246 47.5145 165.052 47.449C164.891 47.3836 164.73 47.2527 164.633 47.0891C164.503 46.9255 164.471 46.7292 164.471 46.4675C164.471 46.2384 164.536 46.0421 164.665 45.8785C164.794 45.7149 164.956 45.584 165.182 45.4859C165.408 45.3877 165.666 45.355 165.924 45.355C166.183 45.355 166.409 45.3877 166.635 45.4531C166.861 45.5186 167.087 45.6167 167.248 45.7476L167.022 46.2384C166.796 46.0748 166.602 45.9767 166.409 45.9112Z" fill="white"/>
<path d="M170.799 45.9112C170.605 45.8458 170.412 45.8131 170.25 45.8131C170.024 45.8131 169.831 45.8458 169.669 45.9439C169.54 46.0421 169.443 46.173 169.443 46.3366C169.443 46.4675 169.475 46.5983 169.572 46.6965C169.669 46.7947 169.766 46.8601 169.895 46.9255C170.024 46.991 170.186 47.0237 170.412 47.1218C170.702 47.22 170.896 47.2854 171.09 47.3836C171.251 47.449 171.413 47.5799 171.51 47.7435C171.639 47.9071 171.703 48.1034 171.703 48.3652C171.703 48.5942 171.639 48.8233 171.51 48.9869C171.38 49.1505 171.219 49.3141 170.993 49.4122C170.767 49.5104 170.509 49.5431 170.218 49.5431C169.927 49.5431 169.637 49.4777 169.346 49.3795C169.056 49.2486 168.83 49.1178 168.604 48.9214L168.862 48.4306C169.056 48.627 169.282 48.7578 169.508 48.8887C169.766 48.9869 169.992 49.0523 170.218 49.0523C170.476 49.0523 170.702 48.9869 170.864 48.8887C171.025 48.7906 171.09 48.627 171.09 48.4634C171.09 48.3325 171.058 48.2016 170.961 48.1034C170.864 48.0053 170.767 47.9398 170.638 47.8744C170.509 47.809 170.347 47.7435 170.121 47.6781C169.863 47.5799 169.637 47.5145 169.443 47.449C169.282 47.3836 169.12 47.2527 169.023 47.0891C168.894 46.9255 168.862 46.7292 168.862 46.4675C168.862 46.2384 168.926 46.0421 169.056 45.8785C169.185 45.7149 169.346 45.584 169.572 45.4859C169.798 45.3877 170.057 45.355 170.315 45.355C170.573 45.355 170.799 45.3877 171.025 45.4531C171.251 45.5186 171.477 45.6167 171.639 45.7476L171.413 46.2384C171.187 46.0748 170.993 45.9767 170.799 45.9112Z" fill="white"/>
<path fill-rule="evenodd" clip-rule="evenodd" d="M31.0513 47.9266C23.0197 47.5863 19.1578 41.9431 22.0122 37.2357C22.2641 36.8103 22.5999 36.385 22.9917 35.9596L23.0197 35.9312C23.0757 35.8745 23.1316 35.8178 23.1876 35.7611C23.2156 35.7327 23.2436 35.7044 23.2715 35.676C23.3275 35.6193 23.3835 35.5626 23.4395 35.5342C23.4674 35.5059 23.5234 35.4492 23.5514 35.4208C23.6074 35.3641 23.6353 35.3357 23.6913 35.279C23.7473 35.2223 23.7753 35.1939 23.8312 35.1372C23.8872 35.1089 23.9152 35.0522 23.9712 35.0238C24.0271 34.9671 24.0831 34.9387 24.1391 34.882C24.195 34.8536 24.223 34.8253 24.279 34.7686C24.335 34.7119 24.4189 34.6551 24.4749 34.6268C24.5029 34.5984 24.5588 34.5701 24.5868 34.5417C24.6708 34.485 24.7268 34.4283 24.8107 34.3716C24.8387 34.3432 24.8947 34.3149 24.9226 34.2865C25.0066 34.2298 25.0906 34.1731 25.1745 34.1163C25.2025 34.088 25.2585 34.0596 25.2864 34.0596C25.3704 34.0029 25.4823 33.9462 25.5663 33.8895C25.5943 33.8611 25.6223 33.8611 25.6502 33.8328C25.7622 33.7761 25.8741 33.7193 25.9861 33.6626L26.07 33.6343C26.2099 33.5492 26.3499 33.4925 26.4898 33.4074C31.3032 30.997 37.8796 30.4298 43.2247 28.3597C43.4206 28.2746 43.6165 28.1896 43.8124 28.1045C43.8683 28.0761 43.9523 28.0478 44.0083 28.0194C44.1482 27.9627 44.2601 27.906 44.3721 27.8493C44.456 27.8209 44.512 27.7642 44.5959 27.7358C44.7079 27.6791 44.8198 27.6224 44.9318 27.5941C45.0157 27.5657 45.0997 27.509 45.1556 27.4806C45.2676 27.4239 45.3515 27.3672 45.4635 27.3388C45.5474 27.3105 45.6034 27.2538 45.6873 27.2254C45.7713 27.1687 45.8832 27.112 45.9672 27.0553C46.0511 27.0269 46.1071 26.9702 46.1911 26.9418C46.275 26.8851 46.387 26.8284 46.4709 26.7717C46.5549 26.715 46.6108 26.6866 46.6948 26.6299C46.7787 26.5732 46.8907 26.5165 46.9746 26.4597C47.0306 26.4314 47.0866 26.3747 47.1705 26.3463C47.2825 26.2612 47.3944 26.2045 47.5063 26.1194C47.5623 26.0911 47.5903 26.0627 47.6463 26.0344C47.7862 25.9493 47.8981 25.8359 48.0381 25.7508C48.094 25.7224 48.15 25.6657 48.206 25.6374C48.2899 25.5806 48.3739 25.4956 48.4578 25.4389C48.5138 25.3821 48.5698 25.3538 48.6257 25.2971C48.7097 25.2404 48.7657 25.1836 48.8496 25.0986C48.9056 25.0419 48.9616 25.0135 49.0175 24.9568C49.0735 24.9001 49.1575 24.8433 49.2134 24.7583C49.2694 24.7016 49.3254 24.6732 49.3533 24.6165C49.4093 24.5598 49.4933 24.4747 49.5492 24.418C49.6052 24.3613 49.6332 24.3329 49.6892 24.2762C49.7451 24.2195 49.8291 24.1344 49.8851 24.0777C49.913 24.021 49.969 23.9926 49.997 23.9359C50.053 23.8508 50.1369 23.7657 50.1929 23.709C50.2209 23.6807 50.2489 23.624 50.2768 23.5956C50.3608 23.4822 50.4447 23.3687 50.5287 23.2553L50.5567 23.227C50.6406 23.1135 50.7246 22.9717 50.8365 22.8583L50.8645 22.8016C50.9485 22.6882 51.0044 22.6031 51.0604 22.4896C51.0884 22.4613 51.0884 22.4329 51.1164 22.3762C51.1724 22.2911 51.2283 22.1777 51.2843 22.0926C51.3123 22.0643 51.3123 22.0076 51.3403 21.9792C51.3962 21.8941 51.4522 21.8091 51.4802 21.6956C51.5082 21.6673 51.5082 21.6106 51.5362 21.5822C51.5921 21.4971 51.6201 21.3837 51.6761 21.2986C51.7041 21.2703 51.7041 21.2135 51.732 21.1852C51.788 21.0718 51.816 20.9867 51.872 20.8733C51.872 20.8449 51.9 20.8165 51.9 20.7882C51.9559 20.6747 51.9839 20.5613 52.0399 20.4479L52.0679 20.3912C52.2078 19.9942 52.3197 19.5688 52.4037 19.1718V19.1151C52.4317 19.0016 52.4597 18.8882 52.4597 18.7748C52.4597 18.7464 52.4597 18.7181 52.4876 18.6613C52.5156 18.5479 52.5156 18.4628 52.5156 18.3494C52.5156 18.3211 52.5156 18.2643 52.5436 18.2076C52.5436 18.1509 52.5436 18.1225 52.5716 18.0658C52.6276 17.5554 52.6276 17.0733 52.5996 16.5629C52.4597 13.9256 51.3123 11.2316 49.3813 8.82119C49.6052 9.10477 49.8011 9.38834 49.997 9.67192C47.9541 6.77943 44.8198 4.22722 40.874 2.46904C38.1874 1.27801 35.1371 0.455637 31.8069 0.143702C31.555 0.115344 31.3312 0.115344 31.0793 0.086986C30.9953 0.086986 30.8834 0.086986 30.7994 0.0586282C30.6595 0.0586282 30.4916 0.0302704 30.3517 0.0302704C30.2957 0.0302704 30.2398 0.0302704 30.1838 0.0302704C29.9879 0.0302704 29.82 0.0302704 29.6241 0.00191258H29.5681C14.9601 -0.168234 2.47886 11.0331 1.10761 25.9777C0.603884 31.4224 1.66731 36.6402 3.8781 41.1774C3.79415 40.8655 3.73818 40.5536 3.68221 40.27C3.68221 40.2133 3.65422 40.1566 3.65422 40.0715C3.59825 39.8163 3.57027 39.5327 3.5143 39.2775C1.13559 24.3045 11.8258 10.8913 25.2585 9.10477C32.2547 8.16896 35.6968 10.7779 35.5009 12.7062C35.249 15.3151 30.2397 15.2584 23.8312 17.1017H23.8033C23.6633 17.13 23.4954 17.1867 23.3555 17.2435C23.3275 17.2435 23.2715 17.2718 23.2436 17.2718C23.1316 17.3002 22.9917 17.3569 22.8798 17.3852C22.8238 17.4136 22.7678 17.4136 22.7118 17.442C22.5999 17.4703 22.488 17.527 22.376 17.5554C22.3201 17.5837 22.2641 17.5837 22.1801 17.6121C22.0682 17.6405 21.9842 17.6688 21.8723 17.7255C21.8163 17.7539 21.7324 17.7823 21.6764 17.7823C21.5645 17.8106 21.4805 17.839 21.3686 17.8957C21.2846 17.924 21.2287 17.9524 21.1447 17.9808C21.0607 18.0091 20.9488 18.0658 20.8649 18.0942C20.7809 18.1225 20.7249 18.1509 20.641 18.1793C20.557 18.2076 20.4451 18.2643 20.3611 18.2927C20.2772 18.3211 20.1932 18.3494 20.1373 18.3778C20.0533 18.4061 19.9414 18.4628 19.8574 18.4912C19.7734 18.5196 19.6895 18.5479 19.6055 18.5763C19.4936 18.6046 19.4096 18.6613 19.2977 18.6897C19.1578 18.7464 19.0458 18.8031 18.9059 18.8598C18.794 18.9166 18.682 18.9733 18.5701 19.0016C18.4861 19.03 18.4022 19.0867 18.3182 19.1151C18.2343 19.1434 18.1503 19.2001 18.0664 19.2285C17.9824 19.2569 17.8985 19.3136 17.8145 19.3703C17.7306 19.3986 17.6466 19.4554 17.5627 19.5121C17.4787 19.5688 17.3947 19.5972 17.2828 19.6539C17.1989 19.7106 17.1149 19.7389 17.0309 19.7957C16.947 19.8524 16.863 19.8807 16.7511 19.9374C16.6671 19.9942 16.5832 20.0225 16.4992 20.0792C16.4153 20.136 16.3313 20.1643 16.2474 20.221C16.1634 20.2777 16.0795 20.3061 15.9955 20.3628C15.9116 20.4195 15.8276 20.4762 15.7436 20.5046C15.6597 20.5613 15.5757 20.618 15.4918 20.6747C15.4078 20.7315 15.3239 20.7882 15.2399 20.8449C15.156 20.9016 15.072 20.9583 14.9601 21.015C14.8761 21.0718 14.7922 21.1285 14.7082 21.1852C14.6243 21.2419 14.5123 21.2986 14.4284 21.3553C14.3444 21.4121 14.2605 21.4688 14.1765 21.5255C14.0646 21.5822 13.9806 21.6673 13.8687 21.724C13.7847 21.7807 13.7287 21.8374 13.6448 21.8941C13.5328 21.9792 13.4209 22.0643 13.309 22.121C13.253 22.1777 13.169 22.2061 13.1131 22.2628C12.9452 22.4046 12.7773 22.518 12.5814 22.6598C9.9508 24.6448 7.85194 27.0553 6.50867 29.7776L6.53665 29.7209L6.56464 29.6925C6.73255 29.409 6.87247 29.1254 7.04038 28.8418C6.87247 29.1254 6.70456 29.4373 6.53665 29.7209C4.60571 33.5775 4.15795 38.0014 5.92099 42.652C6.06091 43.0207 6.20084 43.361 6.36875 43.7013C6.39673 43.7296 6.39673 43.7864 6.42472 43.8147C6.56464 44.155 6.73255 44.4669 6.90046 44.7789C6.92844 44.8356 6.95643 44.8923 6.98441 44.9207L7.0124 45.0057L6.98441 44.9774C9.64296 49.9684 14.1205 53.4564 19.2977 55.3847H19.3257L19.3817 55.4131L19.3257 55.3847C21.6764 56.2638 24.1391 56.8026 26.6577 57.0578C42.1613 58.5041 55.9018 46.9057 57.329 31.1955C53.4671 43.2192 40.0344 48.3236 31.0513 47.9266Z" fill="white"/>
</svg>
