<svg width="141" height="46" viewBox="0 0 141 46" fill="none" xmlns="http://www.w3.org/2000/svg">
<path d="M72.7127 24.0236H55.7973C56.5058 26.7796 58.6756 28.5497 61.5096 28.5497C63.8565 28.5497 65.8048 27.4518 66.6462 25.973H72.447C70.8972 30.3646 66.6905 33.4119 61.421 33.4119C54.9117 33.4119 49.9744 28.5497 49.9744 22.119C49.9744 15.6884 54.9117 10.8262 61.421 10.8262C67.9303 10.8262 72.8677 15.6884 72.8677 22.1639C72.8898 22.724 72.8455 23.5307 72.7127 24.0236ZM55.8859 20.0128H67.0447C66.3362 17.3913 64.1222 15.666 61.4432 15.666C58.7199 15.666 56.5944 17.3913 55.8859 20.0128Z" fill="white"/>
<path d="M97.2002 19.2067V32.8971H91.7758V20.9993C91.7758 18.0864 89.9381 16.1819 87.1484 16.1819C84.1373 16.1819 82.1446 18.1312 82.1446 21.0889V32.9195H76.7202V11.3421H82.1446V14.0084C83.783 11.947 86.1078 10.8491 88.9196 10.8491C93.9013 10.8491 97.2002 14.1429 97.2002 19.2067Z" fill="white"/>
<path d="M123.592 11.3415V32.8966H118.167V30.0733C116.507 32.1347 114.115 33.4119 111.237 33.4119C105.303 33.4119 100.831 28.5497 100.831 22.119C100.831 15.6884 105.303 10.8262 111.237 10.8262C114.115 10.8262 116.507 12.1033 118.167 14.1647V11.3415H123.592ZM118.167 22.119C118.167 18.7357 115.665 16.1589 112.278 16.1589C108.934 16.1589 106.433 18.7357 106.433 22.119C106.433 25.5024 108.934 28.0792 112.278 28.0792C115.665 28.0792 118.167 25.5024 118.167 22.119Z" fill="white"/>
<path d="M136.123 10.7145V11.3419H140.507V16.3833H136.123V32.9193H130.699V16.3833H127.355V11.3419H130.699V10.4232C130.699 4.55271 133.821 2.13281 140.507 2.13281V7.12946C137.629 7.12946 136.123 8.13775 136.123 10.7145Z" fill="white"/>
<path d="M53.8289 36.8642C53.6756 36.7867 53.4968 36.7608 53.318 36.7608C53.088 36.7608 52.8837 36.8125 52.7048 36.9159C52.526 37.0193 52.3727 37.1745 52.245 37.3813C52.1428 37.5623 52.0917 37.7949 52.0917 38.0018C52.0917 38.2344 52.1428 38.4413 52.245 38.6222C52.3472 38.8032 52.5005 38.9583 52.7048 39.0876C52.8837 39.191 53.1136 39.2427 53.318 39.2427C53.4968 39.2427 53.65 39.2168 53.8033 39.1393C53.9566 39.0617 54.1099 38.9842 54.2376 38.8549L54.4931 39.1393C54.3398 39.2944 54.1354 39.4237 53.9311 39.5271C53.7267 39.6305 53.4968 39.6563 53.2669 39.6563C52.9603 39.6563 52.6793 39.5788 52.4238 39.4237C52.1684 39.2686 51.964 39.0876 51.8107 38.8291C51.6574 38.5705 51.5808 38.2861 51.5808 37.9759C51.5808 37.6657 51.6574 37.3813 51.8107 37.1486C51.964 36.8901 52.1684 36.7091 52.4238 36.554C52.6793 36.3989 52.9603 36.3472 53.2669 36.3472C53.4968 36.3472 53.7011 36.3989 53.9055 36.4764C54.1099 36.554 54.2887 36.6833 54.442 36.8384L54.1865 37.1486C54.1354 37.0452 53.9821 36.9418 53.8289 36.8642Z" fill="white"/>
<path d="M57.9671 36.5799C58.2225 36.735 58.4269 36.916 58.5802 37.1745C58.7334 37.433 58.8101 37.7174 58.8101 38.0018C58.8101 38.312 58.7334 38.5964 58.5802 38.8291C58.4269 39.0876 58.2225 39.2945 57.9671 39.4237C57.7116 39.553 57.4306 39.6564 57.124 39.6564C56.8175 39.6564 56.5365 39.5788 56.281 39.4237C56.0255 39.2686 55.8212 39.0618 55.6679 38.8291C55.5146 38.5706 55.438 38.2862 55.438 38.0018C55.438 37.6916 55.5146 37.4072 55.6679 37.1745C55.8212 36.916 56.0255 36.735 56.281 36.5799C56.5365 36.4248 56.8175 36.3731 57.124 36.3731C57.405 36.3472 57.7116 36.4248 57.9671 36.5799ZM56.4854 36.916C56.281 37.0194 56.1533 37.1745 56.0255 37.3813C55.9234 37.5623 55.8467 37.795 55.8467 38.0018C55.8467 38.2345 55.8978 38.4413 56.0255 38.6223C56.1277 38.8032 56.281 38.9584 56.4854 39.0876C56.6898 39.191 56.8941 39.2686 57.0985 39.2686C57.3284 39.2686 57.5328 39.2169 57.7116 39.0876C57.8904 38.9842 58.0437 38.8291 58.1714 38.6223C58.2736 38.4413 58.3502 38.2086 58.3502 38.0018C58.3502 37.7691 58.2992 37.5623 58.1714 37.3813C58.0692 37.2004 57.916 37.0452 57.7116 36.916C57.5328 36.8126 57.3284 36.7609 57.0985 36.7609C56.8941 36.7609 56.6898 36.8126 56.4854 36.916Z" fill="white"/>
<path d="M62.3613 36.3989H62.7955V39.6564H62.3613L60.5219 37.1228V39.6564H60.0876V36.3989H60.5219L62.3613 38.9067V36.3989Z" fill="white"/>
<path d="M66.6017 38.0535H66.9849V39.2428C66.8316 39.372 66.6272 39.4754 66.4228 39.553C66.1929 39.6306 65.9886 39.6823 65.7842 39.6823C65.4776 39.6823 65.1966 39.6047 64.9412 39.4496C64.6857 39.2945 64.4813 39.0876 64.3281 38.855C64.1748 38.5964 64.0981 38.312 64.0981 38.0277C64.0981 37.7174 64.1748 37.433 64.3281 37.2004C64.4813 36.9677 64.6857 36.7609 64.9412 36.6058C65.1966 36.4506 65.4776 36.3989 65.8097 36.3989C66.0397 36.3989 66.244 36.4506 66.4739 36.5282C66.6783 36.6057 66.8827 36.7092 67.0359 36.8643L66.7805 37.2004C66.6528 37.0711 66.4995 36.9935 66.3462 36.916C66.1674 36.8384 66.0141 36.8126 65.8353 36.8126C65.6054 36.8126 65.401 36.8643 65.1966 36.9677C64.9923 37.0711 64.839 37.2262 64.7368 37.433C64.6346 37.614 64.558 37.8467 64.558 38.0535C64.558 38.2862 64.6091 38.493 64.7368 38.6998C64.839 38.9067 64.9923 39.0359 65.1966 39.1652C65.401 39.2686 65.6054 39.3462 65.8353 39.3462C65.963 39.3462 66.1163 39.3203 66.244 39.2686C66.3717 39.2169 66.525 39.1652 66.6272 39.0876V38.0535H66.6017Z" fill="white"/>
<path d="M70.536 39.6564L69.8974 38.6223C69.8207 38.6223 69.7696 38.6223 69.7186 38.6223H68.9011V39.6305H68.4668V36.373H69.7186C70.1273 36.373 70.4338 36.4765 70.6638 36.6574C70.8937 36.8384 70.9959 37.1228 70.9959 37.4589C70.9959 37.7174 70.9448 37.9501 70.817 38.1311C70.6893 38.312 70.5105 38.4413 70.3061 38.5188L71.047 39.6305H70.536V39.6564ZM69.7186 38.2345C69.9996 38.2345 70.2039 38.1828 70.3572 38.0535C70.5105 37.9242 70.5871 37.7433 70.5871 37.5106C70.5871 37.2779 70.5105 37.0969 70.3572 36.9935C70.2039 36.8643 69.9996 36.8125 69.7186 36.8125H68.9011V38.2345H69.7186V38.2345Z" fill="white"/>
<path d="M72.4265 36.3989H74.6746V36.7867H72.8863V37.795H74.4958V38.2086H72.8863V39.2428H74.7257V39.6564H72.4265V36.3989Z" fill="white"/>
<path d="M77.5098 36.8384C77.3566 36.7867 77.2033 36.7609 77.0756 36.7609C76.8967 36.7609 76.7435 36.7867 76.6157 36.8643C76.5135 36.9418 76.4369 37.0453 76.4369 37.1745C76.4369 37.2779 76.4625 37.3813 76.5391 37.4589C76.6157 37.5365 76.6924 37.5882 76.7946 37.6399C76.8967 37.6916 77.0245 37.7174 77.2033 37.795C77.4332 37.8726 77.5865 37.9243 77.7398 38.0018C77.8675 38.0535 77.9952 38.1569 78.0719 38.2862C78.1741 38.4155 78.2251 38.5706 78.2251 38.7774C78.2251 38.9584 78.1741 39.1393 78.0719 39.2686C77.9697 39.3979 77.842 39.5271 77.6631 39.6047C77.4843 39.6823 77.2799 39.7081 77.05 39.7081C76.8201 39.7081 76.5902 39.6564 76.3603 39.5788C76.1303 39.4754 75.9515 39.372 75.7727 39.2169L75.9771 38.8291C76.1303 38.9842 76.3092 39.0876 76.488 39.1911C76.6924 39.2686 76.8712 39.3203 77.05 39.3203C77.2544 39.3203 77.4332 39.2686 77.5609 39.1911C77.6887 39.1135 77.7398 38.9842 77.7398 38.855C77.7398 38.7516 77.7142 38.6481 77.6376 38.5706C77.5609 38.493 77.4843 38.4413 77.3821 38.3896C77.2799 38.3379 77.1522 38.2862 76.9734 38.2345C76.769 38.1569 76.5902 38.1052 76.4369 38.0535C76.3092 38.0018 76.1814 37.8984 76.1048 37.7691C76.0026 37.6399 75.9771 37.4848 75.9771 37.2779C75.9771 37.097 76.0282 36.9418 76.1304 36.8126C76.2325 36.6833 76.3603 36.5799 76.5391 36.5023C76.7179 36.4248 76.9223 36.3989 77.1267 36.3989C77.331 36.3989 77.5099 36.4248 77.6887 36.4765C77.8675 36.5282 78.0463 36.6058 78.1741 36.7092L77.9952 37.097C77.8164 36.9677 77.6631 36.8901 77.5098 36.8384Z" fill="white"/>
<path d="M80.9843 36.8384C80.831 36.7867 80.6777 36.7609 80.55 36.7609C80.3712 36.7609 80.2179 36.7867 80.0902 36.8643C79.988 36.9418 79.9114 37.0453 79.9114 37.1745C79.9114 37.2779 79.9369 37.3813 80.0135 37.4589C80.0902 37.5365 80.1668 37.5882 80.269 37.6399C80.3712 37.6916 80.4989 37.7174 80.6777 37.795C80.9077 37.8726 81.0609 37.9243 81.2142 38.0018C81.3419 38.0535 81.4697 38.1569 81.5719 38.2862C81.674 38.4155 81.7251 38.5706 81.7251 38.7774C81.7251 38.9584 81.674 39.1393 81.5719 39.2686C81.4697 39.3979 81.342 39.5271 81.1631 39.6047C80.9843 39.6823 80.7799 39.7081 80.55 39.7081C80.3201 39.7081 80.0902 39.6564 79.8603 39.5788C79.6304 39.4754 79.4515 39.372 79.2727 39.2169L79.4771 38.8291C79.6304 38.9842 79.8092 39.0876 79.988 39.1911C80.1924 39.2686 80.3712 39.3203 80.55 39.3203C80.7544 39.3203 80.9332 39.2686 81.0609 39.1911C81.1887 39.1135 81.2398 38.9842 81.2398 38.855C81.2398 38.7516 81.2142 38.6481 81.1376 38.5706C81.0609 38.493 80.9843 38.4413 80.8821 38.3896C80.7799 38.3379 80.6522 38.2862 80.4734 38.2345C80.269 38.1569 80.0902 38.1052 79.9369 38.0535C79.8092 38.0018 79.6814 37.8984 79.6048 37.7691C79.5026 37.6399 79.4771 37.4848 79.4771 37.2779C79.4771 37.097 79.5282 36.9418 79.6304 36.8126C79.7325 36.6833 79.8603 36.5799 80.0391 36.5023C80.2179 36.4248 80.4223 36.3989 80.6267 36.3989C80.831 36.3989 81.0098 36.4248 81.1887 36.4765C81.3675 36.5282 81.5463 36.6058 81.6741 36.7092L81.4952 37.097C81.2909 36.9677 81.1376 36.8901 80.9843 36.8384Z" fill="white"/>
<path d="M85.3015 36.5799C85.557 36.735 85.7613 36.916 85.9146 37.1745C86.0679 37.433 86.1445 37.7174 86.1445 38.0018C86.1445 38.312 86.0679 38.5964 85.9146 38.8291C85.7613 39.0876 85.557 39.2945 85.3015 39.4237C85.0461 39.5788 84.7651 39.6564 84.4585 39.6564C84.1519 39.6564 83.8709 39.5788 83.6155 39.4237C83.36 39.2686 83.1556 39.0618 83.0024 38.8291C82.8491 38.5706 82.7725 38.2862 82.7725 38.0018C82.7725 37.6916 82.8491 37.4072 83.0024 37.1745C83.1556 36.916 83.36 36.735 83.6155 36.5799C83.8709 36.4248 84.1519 36.3731 84.4585 36.3731C84.7651 36.3472 85.0461 36.4248 85.3015 36.5799ZM83.8198 36.916C83.6155 37.0194 83.4877 37.1745 83.36 37.3813C83.2578 37.5623 83.1812 37.795 83.1812 38.0018C83.1812 38.2345 83.2323 38.4413 83.36 38.6223C83.4622 38.8032 83.6155 38.9584 83.8198 39.0876C83.9987 39.191 84.2286 39.2686 84.433 39.2686C84.6629 39.2686 84.8672 39.2169 85.0461 39.0876C85.2249 38.9842 85.3782 38.8291 85.5059 38.6223C85.6081 38.4413 85.6847 38.2086 85.6847 38.0018C85.6847 37.7691 85.6336 37.5623 85.5059 37.3813C85.4037 37.2004 85.2504 37.0452 85.0461 36.916C84.8672 36.8126 84.6629 36.7609 84.433 36.7609C84.2286 36.7609 84.0242 36.8126 83.8198 36.916Z" fill="white"/>
<path d="M89.2612 36.3989H91.5093V36.7867H89.6955V37.795H91.3049V38.2086H89.6955V39.2428H91.5604V39.6564H89.2612V36.3989Z" fill="white"/>
<path d="M94.7537 36.3989H96.8485V36.7867H95.188V37.8725H96.6952V38.2603H95.188V39.6564H94.7537V36.3989Z" fill="white"/>
<path d="M98.0234 36.3989H100.246V36.7867H98.4577V37.795H100.067V38.2086H98.4577V39.2428H100.297V39.6564H98.0234V36.3989Z" fill="white"/>
<path d="M102.086 36.3989H101.651V39.6564H102.086V36.3989Z" fill="white"/>
<path d="M105.738 39.6564L105.1 38.6223C105.023 38.6223 104.972 38.6223 104.921 38.6223H104.103V39.6305H103.669V36.373H104.921C105.33 36.373 105.636 36.4765 105.866 36.6574C106.096 36.8384 106.198 37.1228 106.198 37.4589C106.198 37.7174 106.147 37.9501 106.019 38.1311C105.892 38.312 105.713 38.4413 105.509 38.5188L106.249 39.6305H105.738V39.6564ZM104.921 38.2345C105.202 38.2345 105.406 38.1828 105.56 38.0535C105.713 37.9242 105.79 37.7433 105.79 37.5106C105.79 37.2779 105.713 37.0969 105.56 36.9935C105.406 36.8643 105.202 36.8125 104.921 36.8125H104.103V38.2345H104.921V38.2345Z" fill="white"/>
<path d="M110.03 39.6564L109.698 38.855H108.012L107.68 39.6564H107.22L108.651 36.3989H109.111L110.541 39.6564H110.03ZM108.165 38.4413H109.519L108.83 36.8643L108.165 38.4413Z" fill="white"/>
<path d="M113.453 36.3989H115.548V36.7867H113.913V37.8725H115.395V38.2603H113.913V39.6564H113.453V36.3989Z" fill="white"/>
<path d="M117.158 36.3989H116.723V39.6564H117.158V36.3989Z" fill="white"/>
<path d="M118.307 36.3989H120.836V36.7867H119.789V39.6564H119.355V36.7867H118.307V36.3989Z" fill="white"/>
<path d="M124.259 36.3989H124.694V39.6564H124.259L122.42 37.1228V39.6564H121.986V36.3989H122.42L124.259 38.9067V36.3989Z" fill="white"/>
<path d="M126.277 36.3989H128.5V36.7867H126.712V37.795H128.321V38.2086H126.712V39.2428H128.551V39.6564H126.277V36.3989Z" fill="white"/>
<path d="M131.336 36.8384C131.182 36.7867 131.029 36.7609 130.901 36.7609C130.723 36.7609 130.569 36.7867 130.442 36.8643C130.339 36.9418 130.263 37.0453 130.263 37.1745C130.263 37.2779 130.288 37.3813 130.365 37.4589C130.442 37.5365 130.518 37.5882 130.62 37.6399C130.723 37.6916 130.85 37.7174 131.029 37.795C131.259 37.8726 131.412 37.9243 131.566 38.0018C131.693 38.0535 131.821 38.1569 131.898 38.2862C132 38.4155 132.051 38.5706 132.051 38.7774C132.051 38.9584 132 39.1393 131.898 39.2686C131.796 39.3979 131.668 39.5271 131.489 39.6047C131.31 39.6823 131.106 39.7081 130.876 39.7081C130.646 39.7081 130.416 39.6564 130.186 39.5788C129.956 39.4754 129.777 39.372 129.599 39.2169L129.803 38.8291C129.956 38.9842 130.135 39.0876 130.314 39.1911C130.518 39.2686 130.697 39.3203 130.876 39.3203C131.08 39.3203 131.259 39.2686 131.387 39.1911C131.515 39.1135 131.566 38.9842 131.566 38.855C131.566 38.7516 131.54 38.6481 131.463 38.5706C131.387 38.493 131.31 38.4413 131.208 38.3896C131.106 38.3379 130.978 38.2862 130.799 38.2345C130.595 38.1569 130.416 38.1052 130.263 38.0535C130.135 38.0018 130.007 37.8984 129.931 37.7691C129.829 37.6399 129.803 37.4848 129.803 37.2779C129.803 37.097 129.854 36.9418 129.956 36.8126C130.058 36.6833 130.186 36.5799 130.365 36.5023C130.544 36.4248 130.748 36.3989 130.953 36.3989C131.157 36.3989 131.336 36.4248 131.515 36.4765C131.693 36.5282 131.872 36.6058 132 36.7092L131.821 37.097C131.642 36.9677 131.489 36.8901 131.336 36.8384Z" fill="white"/>
<path d="M134.81 36.8384C134.657 36.7867 134.504 36.7609 134.376 36.7609C134.197 36.7609 134.044 36.7867 133.916 36.8643C133.814 36.9418 133.737 37.0453 133.737 37.1745C133.737 37.2779 133.763 37.3813 133.839 37.4589C133.916 37.5365 133.993 37.5882 134.095 37.6399C134.197 37.6916 134.325 37.7174 134.504 37.795C134.733 37.8726 134.887 37.9243 135.04 38.0018C135.168 38.0535 135.296 38.1569 135.372 38.2862C135.474 38.4155 135.525 38.5706 135.525 38.7774C135.525 38.9584 135.474 39.1393 135.372 39.2686C135.27 39.3979 135.142 39.5271 134.963 39.6047C134.785 39.6823 134.58 39.7081 134.35 39.7081C134.12 39.7081 133.89 39.6564 133.661 39.5788C133.431 39.4754 133.252 39.372 133.073 39.2169L133.277 38.8291C133.431 38.9842 133.609 39.0876 133.788 39.1911C133.993 39.2686 134.171 39.3203 134.35 39.3203C134.555 39.3203 134.734 39.2686 134.861 39.1911C134.989 39.1135 135.04 38.9842 135.04 38.855C135.04 38.7516 135.015 38.6481 134.938 38.5706C134.861 38.493 134.785 38.4413 134.682 38.3896C134.58 38.3379 134.452 38.2862 134.274 38.2345C134.069 38.1569 133.89 38.1052 133.737 38.0535C133.609 38.0018 133.482 37.8984 133.405 37.7691C133.303 37.6399 133.277 37.4848 133.277 37.2779C133.277 37.097 133.328 36.9418 133.431 36.8126C133.533 36.6833 133.661 36.5799 133.839 36.5023C134.018 36.4248 134.223 36.3989 134.427 36.3989C134.631 36.3989 134.81 36.4248 134.989 36.4765C135.168 36.5282 135.347 36.6058 135.474 36.7092L135.296 37.097C135.117 36.9677 134.963 36.8901 134.81 36.8384Z" fill="white"/>
<path fill-rule="evenodd" clip-rule="evenodd" d="M24.2461 38.431C17.8918 38.1621 14.8364 33.7032 17.0947 29.9837C17.294 29.6476 17.5597 29.3115 17.8697 28.9754L17.8918 28.953C17.9361 28.9082 17.9804 28.8634 18.0246 28.8186C18.0468 28.7962 18.0689 28.7738 18.0911 28.7514C18.1353 28.7066 18.1796 28.6618 18.2239 28.6393C18.246 28.6169 18.2903 28.5721 18.3125 28.5497C18.3567 28.5049 18.3789 28.4825 18.4232 28.4377C18.4674 28.3929 18.4896 28.3705 18.5339 28.3257C18.5781 28.3032 18.6003 28.2584 18.6446 28.236C18.6889 28.1912 18.7331 28.1688 18.7774 28.124C18.8217 28.1016 18.8438 28.0792 18.8881 28.0344C18.9324 27.9896 18.9988 27.9447 19.0431 27.9223C19.0652 27.8999 19.1095 27.8775 19.1317 27.8551C19.1981 27.8103 19.2424 27.7655 19.3088 27.7207C19.3309 27.6983 19.3752 27.6759 19.3973 27.6535C19.4638 27.6086 19.5302 27.5638 19.5966 27.519C19.6188 27.4966 19.663 27.4742 19.6852 27.4742C19.7516 27.4294 19.8402 27.3846 19.9066 27.3398C19.9287 27.3174 19.9509 27.3174 19.973 27.295C20.0616 27.2501 20.1501 27.2053 20.2387 27.1605L20.3051 27.1381C20.4158 27.0709 20.5265 27.0261 20.6372 26.9589C24.4454 25.0543 29.6484 24.6062 33.8773 22.9705C34.0322 22.9033 34.1872 22.8361 34.3422 22.7688C34.3865 22.7464 34.4529 22.724 34.4972 22.7016C34.6079 22.6568 34.6965 22.612 34.785 22.5672C34.8514 22.5448 34.8957 22.5 34.9621 22.4776C35.0507 22.4327 35.1393 22.3879 35.2278 22.3655C35.2943 22.3431 35.3607 22.2983 35.405 22.2759C35.4935 22.2311 35.5599 22.1863 35.6485 22.1639C35.7149 22.1415 35.7592 22.0966 35.8256 22.0742C35.892 22.0294 35.9806 21.9846 36.047 21.9398C36.1134 21.9174 36.1577 21.8726 36.2242 21.8502C36.2906 21.8054 36.3791 21.7606 36.4456 21.7157C36.512 21.6709 36.5563 21.6485 36.6227 21.6037C36.6891 21.5589 36.7777 21.5141 36.8441 21.4693C36.8884 21.4469 36.9327 21.402 36.9991 21.3796C37.0876 21.3124 37.1762 21.2676 37.2648 21.2004C37.309 21.178 37.3312 21.1556 37.3755 21.1332C37.4862 21.066 37.5747 20.9763 37.6854 20.9091C37.7297 20.8867 37.774 20.8419 37.8183 20.8195C37.8847 20.7747 37.9511 20.7074 38.0175 20.6626C38.0618 20.6178 38.1061 20.5954 38.1504 20.5506C38.2168 20.5058 38.2611 20.461 38.3275 20.3938C38.3718 20.3489 38.4161 20.3265 38.4603 20.2817C38.5046 20.2369 38.5711 20.1921 38.6153 20.1249C38.6596 20.0801 38.7039 20.0577 38.726 20.0128C38.7703 19.968 38.8367 19.9008 38.881 19.856C38.9253 19.8112 38.9474 19.7888 38.9917 19.744C39.036 19.6992 39.1024 19.6319 39.1467 19.5871C39.1688 19.5423 39.2131 19.5199 39.2353 19.4751C39.2795 19.4079 39.346 19.3407 39.3903 19.2958C39.4124 19.2734 39.4345 19.2286 39.4567 19.2062C39.5231 19.1166 39.5895 19.027 39.6559 18.9373L39.6781 18.9149C39.7445 18.8253 39.8109 18.7133 39.8995 18.6236L39.9216 18.5788C39.988 18.4892 40.0323 18.422 40.0766 18.3324C40.0987 18.31 40.0987 18.2875 40.1209 18.2427C40.1652 18.1755 40.2094 18.0859 40.2537 18.0187C40.2759 17.9963 40.2759 17.9514 40.298 17.929C40.3423 17.8618 40.3866 17.7946 40.4087 17.705C40.4309 17.6826 40.4309 17.6378 40.453 17.6154C40.4973 17.5481 40.5194 17.4585 40.5637 17.3913C40.5858 17.3689 40.5858 17.3241 40.608 17.3017C40.6523 17.212 40.6744 17.1448 40.7187 17.0552C40.7187 17.0328 40.7408 17.0104 40.7408 16.988C40.7851 16.8983 40.8072 16.8087 40.8515 16.7191L40.8737 16.6743C40.9844 16.3606 41.0729 16.0245 41.1394 15.7108V15.666C41.1615 15.5764 41.1836 15.4867 41.1836 15.3971C41.1836 15.3747 41.1836 15.3523 41.2058 15.3075C41.2279 15.2179 41.2279 15.1506 41.2279 15.061C41.2279 15.0386 41.2279 14.9938 41.2501 14.949C41.2501 14.9042 41.2501 14.8818 41.2722 14.8369C41.3165 14.4336 41.3165 14.0527 41.2943 13.6494C41.1836 11.5656 40.2759 9.43698 38.7482 7.53243C38.9253 7.7565 39.0803 7.98056 39.2353 8.20462C37.619 5.91916 35.1393 3.90258 32.0175 2.51338C29.892 1.5723 27.4786 0.922515 24.8439 0.676044C24.6447 0.653637 24.4675 0.653637 24.2683 0.631231C24.2018 0.631231 24.1133 0.631231 24.0469 0.608824C23.9362 0.608824 23.8033 0.586418 23.6926 0.586418C23.6483 0.586418 23.604 0.586418 23.5598 0.586418C23.4048 0.586418 23.2719 0.586418 23.117 0.564011H23.0727C11.5153 0.429572 1.64064 9.28014 0.555751 21.0884C0.157222 25.3904 0.998562 29.5132 2.74766 33.0982C2.68124 32.8518 2.63696 32.6053 2.59268 32.3812C2.59268 32.3364 2.57054 32.2916 2.57054 32.2244C2.52626 32.0227 2.50412 31.7987 2.45984 31.597C0.577892 19.7664 9.03558 9.1681 19.663 7.75649C25.1982 7.01708 27.9215 9.07848 27.7665 10.6021C27.5672 12.6635 23.604 12.6187 18.5339 14.0751H18.5117C18.401 14.0975 18.2682 14.1423 18.1575 14.1872C18.1353 14.1872 18.0911 14.2096 18.0689 14.2096C17.9804 14.232 17.8696 14.2768 17.7811 14.2992C17.7368 14.3216 17.6925 14.3216 17.6482 14.344C17.5597 14.3664 17.4711 14.4112 17.3826 14.4336C17.3383 14.456 17.294 14.456 17.2276 14.4784C17.139 14.5008 17.0726 14.5233 16.984 14.5681C16.9397 14.5905 16.8733 14.6129 16.829 14.6129C16.7405 14.6353 16.6741 14.6577 16.5855 14.7025C16.5191 14.7249 16.4748 14.7473 16.4084 14.7697C16.342 14.7921 16.2534 14.8369 16.187 14.8594C16.1205 14.8818 16.0763 14.9042 16.0098 14.9266C15.9434 14.949 15.8549 14.9938 15.7884 15.0162C15.722 15.0386 15.6556 15.061 15.6113 15.0834C15.5449 15.1058 15.4563 15.1506 15.3899 15.173C15.3235 15.1954 15.2571 15.2179 15.1906 15.2403C15.1021 15.2627 15.0357 15.3075 14.9471 15.3299C14.8364 15.3747 14.7478 15.4195 14.6371 15.4643C14.5486 15.5091 14.46 15.554 14.3714 15.5764C14.305 15.5988 14.2386 15.6436 14.1722 15.666C14.1058 15.6884 14.0393 15.7332 13.9729 15.7556C13.9065 15.778 13.8401 15.8228 13.7737 15.8676C13.7072 15.8901 13.6408 15.9349 13.5744 15.9797C13.508 16.0245 13.4415 16.0469 13.353 16.0917C13.2866 16.1365 13.2201 16.1589 13.1537 16.2037C13.0873 16.2486 13.0209 16.271 12.9323 16.3158C12.8659 16.3606 12.7995 16.383 12.733 16.4278C12.6666 16.4726 12.6002 16.495 12.5338 16.5398C12.4674 16.5847 12.4009 16.6071 12.3345 16.6519C12.2681 16.6967 12.2017 16.7415 12.1353 16.7639C12.0688 16.8087 12.0024 16.8535 11.936 16.8983C11.8696 16.9432 11.8031 16.988 11.7367 17.0328C11.6703 17.0776 11.6039 17.1224 11.5153 17.1672C11.4489 17.212 11.3825 17.2568 11.3161 17.3017C11.2496 17.3465 11.1611 17.3913 11.0946 17.4361C11.0282 17.4809 10.9618 17.5257 10.8954 17.5705C10.8068 17.6154 10.7404 17.6826 10.6518 17.7274C10.5854 17.7722 10.5411 17.817 10.4747 17.8618C10.3861 17.929 10.2976 17.9963 10.209 18.0411C10.1647 18.0859 10.0983 18.1083 10.054 18.1531C9.9212 18.2651 9.78836 18.3548 9.63337 18.4668C7.55216 20.0353 5.89162 21.9398 4.82887 24.0908L4.85101 24.046L4.87316 24.0236C5.006 23.7995 5.1167 23.5755 5.24954 23.3514C5.1167 23.5755 4.98386 23.822 4.85101 24.046C3.32332 27.0933 2.96907 30.5887 4.36392 34.2634C4.47463 34.5547 4.58533 34.8235 4.71817 35.0924C4.74031 35.1148 4.74031 35.1596 4.76245 35.182C4.87316 35.4509 5.006 35.6974 5.13884 35.9439C5.16098 35.9887 5.18312 36.0335 5.20526 36.0559L5.2274 36.1231L5.20526 36.1007C7.30861 40.0443 10.8511 42.8002 14.9471 44.3239H14.9692L15.0135 44.3463L14.9692 44.3239C16.829 45.0185 18.7774 45.4442 20.7701 45.6459C33.0359 46.7886 43.9069 37.6243 45.0361 25.2112C41.9807 34.7115 31.3532 38.7447 24.2461 38.431Z" fill="white"/>
</svg>
