<svg width="33" height="33" viewBox="0 0 33 33" fill="none" xmlns="http://www.w3.org/2000/svg">
<path d="M7.15137 29.6611H25.1514" stroke="#90143C" stroke-width="2" stroke-linecap="round" stroke-linejoin="round"/>
<path d="M16.1514 17.6611C18.3605 17.6611 20.1514 15.8703 20.1514 13.6611C20.1514 11.452 18.3605 9.66113 16.1514 9.66113C13.9422 9.66113 12.1514 11.452 12.1514 13.6611C12.1514 15.8703 13.9422 17.6611 16.1514 17.6611Z" stroke="#90143C" stroke-width="2" stroke-linecap="round" stroke-linejoin="round"/>
<path d="M26.1514 13.6611C26.1514 22.6611 16.1514 29.6611 16.1514 29.6611C16.1514 29.6611 6.15137 22.6611 6.15137 13.6611C6.15137 11.009 7.20494 8.46543 9.0803 6.59007C10.9557 4.7147 13.4992 3.66113 16.1514 3.66113C18.8035 3.66113 21.3471 4.7147 23.2224 6.59007C25.0978 8.46543 26.1514 11.009 26.1514 13.6611V13.6611Z" stroke="#90143C" stroke-width="2" stroke-linecap="round" stroke-linejoin="round"/>
</svg>
