<svg width="33" height="33" viewBox="0 0 33 33" fill="none" xmlns="http://www.w3.org/2000/svg">
<path d="M4.49902 26.6611V8.66113C4.49902 8.39592 4.60438 8.14156 4.79192 7.95403C4.97945 7.76649 5.23381 7.66113 5.49902 7.66113H12.1657C12.3821 7.66113 12.5926 7.73131 12.7657 7.86113L16.2324 10.4611C16.4055 10.591 16.616 10.6611 16.8324 10.6611H25.499C25.7642 10.6611 26.0186 10.7665 26.2061 10.954C26.3937 11.1416 26.499 11.3959 26.499 11.6611V14.6611" stroke="#90143C" stroke-width="2" stroke-linecap="round" stroke-linejoin="round"/>
<path d="M4.49902 26.6611L8.24758 17.2897C8.32181 17.1042 8.44993 16.9451 8.61543 16.8331C8.78092 16.721 8.9762 16.6611 9.17606 16.6611H15.1962C15.3937 16.6611 15.5867 16.6027 15.7509 16.4932L18.2471 14.8291C18.4114 14.7196 18.6044 14.6611 18.8018 14.6611H29.1116C29.27 14.6611 29.4262 14.6988 29.5673 14.771C29.7083 14.8432 29.8302 14.9479 29.9228 15.0764C30.0155 15.205 30.0763 15.3537 30.1002 15.5103C30.1241 15.667 30.1104 15.827 30.0603 15.9774L26.499 26.6611H4.49902Z" stroke="#90143C" stroke-width="2" stroke-linecap="round" stroke-linejoin="round"/>
</svg>
