<svg width="21" height="22" viewBox="0 0 21 22" fill="none" xmlns="http://www.w3.org/2000/svg">
<path d="M2.37359 21.7722H0.151367V20.6611C0.156266 16.3676 3.63563 12.8883 7.92915 12.8834H12.3736C16.6671 12.8883 20.1465 16.3676 20.1514 20.6611V21.7722H17.9291V20.6611C17.9255 17.5944 15.4403 15.1093 12.3736 15.1056H7.92915C4.86242 15.1093 2.37726 17.5944 2.37359 20.6611V21.7722ZM10.1514 11.7722C7.08312 11.7722 4.59581 9.28494 4.59581 6.21669C4.59581 3.14844 7.08312 0.661133 10.1514 0.661133C13.2196 0.661133 15.7069 3.14844 15.7069 6.21669C15.7032 9.28341 13.2181 11.7686 10.1514 11.7722ZM10.1514 2.88335C8.31042 2.88335 6.81803 4.37574 6.81803 6.21669C6.81803 8.05764 8.31042 9.55002 10.1514 9.55002C11.9923 9.55002 13.4847 8.05764 13.4847 6.21669C13.4847 4.37574 11.9923 2.88335 10.1514 2.88335Z" fill="#90143C"/>
</svg>
