<svg width="20" height="21" viewBox="0 0 20 21" fill="none" xmlns="http://www.w3.org/2000/svg">
<path d="M10.1709 20.3985C5.22757 20.3333 1.23605 16.3418 1.17089 11.3985C1.23605 6.45513 5.22757 2.46361 10.1709 2.39845C15.1142 2.46361 19.1057 6.45513 19.1709 11.3985C19.1057 16.3418 15.1142 20.3333 10.1709 20.3985ZM10.1709 4.39845C6.32606 4.44907 3.22151 7.55362 3.17089 11.3985C3.22151 15.2433 6.32606 18.3478 10.1709 18.3985C14.0157 18.3478 17.1203 15.2433 17.1709 11.3985C17.1203 7.55362 14.0157 4.44907 10.1709 4.39845ZM15.1709 12.3985H9.17089V6.39845H11.1709V10.3985H15.1709V12.3985ZM18.4629 5.10645L15.4539 2.10645L16.8629 0.689453L19.8729 3.68945L18.4629 5.10545V5.10645ZM1.87789 5.10645L0.462891 3.68945L3.45389 0.689453L4.86889 2.10645L1.87989 5.10645H1.87789Z" fill="#90143C"/>
</svg>
