<svg width="19" height="19" viewBox="0 0 19 19" fill="none" xmlns="http://www.w3.org/2000/svg">
<path d="M9.50294 19C4.66403 18.9372 0.756823 15.0893 0.693045 10.3238C0.756823 5.55827 4.66403 1.71033 9.50294 1.64752C14.3418 1.71033 18.2491 5.55827 18.3128 10.3238C18.2491 15.0893 14.3418 18.9372 9.50294 19ZM9.50294 3.57557C5.73932 3.62437 2.70035 6.61724 2.6508 10.3238C2.70035 14.0303 5.73932 17.0232 9.50294 17.0719C13.2666 17.0232 16.3055 14.0303 16.3551 10.3238C16.3055 6.61724 13.2666 3.62437 9.50294 3.57557ZM14.3973 11.2878H8.52406V5.50363H10.4818V9.35973H14.3973V11.2878ZM17.6198 4.25811L14.6743 1.36603L16.0536 0L19 2.89208L17.6198 4.25714V4.25811ZM1.38511 4.25811L0 2.89208L2.92782 0L4.31293 1.36603L1.38707 4.25811H1.38511Z" fill="#90143C"/>
</svg>
