<svg width="141" height="36" viewBox="0 0 141 36" fill="none" xmlns="http://www.w3.org/2000/svg">
<path d="M38.4741 1.00194L36.6245 7.38273H58.3352V7.39379L88.7628 7.39102L90.6179 0.985352L38.4741 1.00194Z" fill="#C4C4C4"/>
<path d="M94.2148 0.990882L102.26 0.985352L94.5853 27.4899L86.543 27.4955L94.2148 0.990882Z" fill="#C4C4C4"/>
<path d="M13.8939 7.40403C13.8967 7.40403 13.8995 7.40403 13.9022 7.40403L32.9672 7.39298L34.8223 0.987305L13.0894 1.00113C11.3394 1.00113 9.75251 1.56235 8.32872 2.67927C6.9077 3.79618 5.93731 5.25038 5.41756 7.04186L5.3125 7.4068H13.8939V7.40403Z" fill="#C4C4C4"/>
<path d="M16.4345 16.4534L22.5084 16.4507L21.3058 20.6087C21.2284 20.9266 20.9851 21.087 20.5731 21.087L9.73853 21.0925C9.52012 21.0925 9.43441 20.9957 9.47865 20.7994L12.7907 9.34277H4.75941L0.543335 23.9677C0.258577 24.9492 0.399575 25.7841 0.963561 26.4697C1.52755 27.1553 2.35694 27.4982 3.45174 27.4982L22.2098 27.4871C25.602 27.4843 27.8856 25.4717 29.0606 21.4464L32.0381 11.1038L18.002 11.1121L16.4345 16.4534Z" fill="#C4C4C4"/>
<path d="M72.377 9.35352H64.3347L59.0791 27.5034L67.1242 27.5006L70.1847 16.9342L82.4071 16.9259L83.9608 11.5514L71.7384 11.5597L72.377 9.35352Z" fill="#C4C4C4"/>
<path d="M54.3347 16.9262L55.8912 11.5517L43.4586 11.5628L44.1055 9.32617H36.0632L30.7993 27.5064L55.4239 27.4899L57.2818 21.0842L40.6995 21.0952L41.9049 16.9372L54.3347 16.9262Z" fill="#C4C4C4"/>
<path d="M113.385 9.24609L108.071 27.4982L116.116 27.4927L121.427 9.24609H113.385Z" fill="#C4C4C4"/>
<path d="M105.812 1.00177L103.955 7.40744L131.864 7.38808L133.721 0.982422L105.812 1.00177Z" fill="#C4C4C4"/>
<path d="M31.2419 33.0689H32.8896L32.7348 33.9536H31.0871L30.841 35.3635H29.7324L30.4402 31.3604H33.3182L33.1633 32.245H31.3857L31.2419 33.0689ZM34.1503 31.3604H35.2589L34.5512 35.3635H33.4426L34.1503 31.3604Z" fill="#C4C4C4"/>
<path d="M38.3469 35.3606H37.2382L37.7691 32.3223H36.6079L36.7766 31.3574H40.2102L40.0416 32.3223H38.886L38.3469 35.3606Z" fill="#C4C4C4"/>
<path d="M42.483 32.8615L42.0434 35.3608H40.9956L41.6978 31.3604H43.0276L43.9455 33.8679L44.3906 31.3604H45.4384L44.7306 35.3608H43.3981L42.483 32.8615Z" fill="#C4C4C4"/>
<path d="M47.3152 31.3604H50.1738L50.0107 32.245H48.2634L48.1473 32.892H49.7729L49.6098 33.7683H47.9953L47.8709 34.4761H49.6264L49.4716 35.3608H46.6074L47.3152 31.3604Z" fill="#C4C4C4"/>
<path d="M51.1416 35.1451L51.4042 34.3046C51.7277 34.4124 52.1811 34.5424 52.6732 34.5424C53.1266 34.5424 53.204 34.465 53.251 34.2106C53.2593 34.1636 53.2676 34.1249 53.2676 34.0862C53.2676 33.9259 53.1211 33.8485 52.5516 33.7406C51.8272 33.6024 51.5978 33.2928 51.5978 32.809C51.5978 32.6928 51.6199 32.5463 51.6448 32.4164C51.8134 31.4764 52.1452 31.2773 53.3312 31.2773C53.7072 31.2773 54.2712 31.3548 54.6693 31.4764L54.4923 32.3528C54.0389 32.2284 53.6215 32.1759 53.2593 32.1759C52.875 32.1759 52.781 32.2228 52.7368 32.4772C52.7285 32.5242 52.7202 32.5767 52.7202 32.6016C52.7202 32.7703 52.8446 32.8311 53.3975 32.9334C54.1744 33.0716 54.4066 33.3425 54.4066 33.7655C54.4066 33.8816 54.3901 34.0033 54.3679 34.1415C54.1827 35.1423 53.9062 35.4354 52.582 35.4354C52.0982 35.4381 51.5591 35.3165 51.1416 35.1451Z" fill="#C4C4C4"/>
<path d="M55.7007 35.1451L55.9633 34.3046C56.2868 34.4124 56.7402 34.5424 57.2323 34.5424C57.6857 34.5424 57.7631 34.465 57.8101 34.2106C57.8184 34.1636 57.8267 34.1249 57.8267 34.0862C57.8267 33.9259 57.6802 33.8485 57.1107 33.7406C56.3863 33.6024 56.1569 33.2928 56.1569 32.809C56.1569 32.6928 56.179 32.5463 56.2038 32.4164C56.3725 31.4764 56.7043 31.2773 57.8903 31.2773C58.2663 31.2773 58.8303 31.3548 59.2284 31.4764L59.0514 32.3528C58.598 32.2284 58.1806 32.1759 57.8184 32.1759C57.4341 32.1759 57.3401 32.2228 57.2959 32.4772C57.2876 32.5242 57.2793 32.5767 57.2793 32.6016C57.2793 32.7703 57.4037 32.8311 57.9566 32.9334C58.7335 33.0716 58.9657 33.3425 58.9657 33.7655C58.9657 33.8816 58.9491 34.0033 58.927 34.1415C58.7418 35.1423 58.4653 35.4354 57.1411 35.4354C56.6545 35.4381 56.1154 35.3165 55.7007 35.1451Z" fill="#C4C4C4"/>
<path d="M63.5134 31.3604H64.622L63.9143 35.3608H62.8057L63.5134 31.3604Z" fill="#C4C4C4"/>
<path d="M67.3176 32.8615L66.878 35.3608H65.833L66.5325 31.3604H67.865L68.7801 33.8679L69.228 31.3604H70.273L69.5653 35.3608H68.2327L67.3176 32.8615Z" fill="#C4C4C4"/>
<path d="M73.3225 35.3606H72.2138L72.7446 32.3223H71.5835L71.7521 31.3574H75.1858L75.0172 32.3223H73.8616L73.3225 35.3606Z" fill="#C4C4C4"/>
<path d="M76.6789 31.3604H79.5348L79.3745 32.245H77.6272L77.5111 32.892H79.1367L78.9736 33.7683H77.3563L77.2346 34.4761H78.9902L78.8354 35.3608H75.9712L76.6789 31.3604Z" fill="#C4C4C4"/>
<path d="M81.2981 31.3604H82.4067L81.8759 34.407H83.554L83.3854 35.3608H80.5986L81.2981 31.3604Z" fill="#C4C4C4"/>
<path d="M85.6941 31.3604H86.8027L86.2719 34.407H87.95L87.7814 35.3608H84.9946L85.6941 31.3604Z" fill="#C4C4C4"/>
<path d="M90.1369 31.3604H91.2456L90.5378 35.3608H89.4292L90.1369 31.3604Z" fill="#C4C4C4"/>
<path d="M92.5312 34.4072C92.5312 34.3215 92.5395 34.2303 92.5534 34.1308L92.8381 32.53C93.0068 31.5762 93.4381 31.2832 94.5937 31.2832C95.0858 31.2832 95.6553 31.3689 96.1032 31.5154L95.9179 32.3476C95.4645 32.2619 94.9393 32.2094 94.555 32.2094C94.1624 32.2094 93.9937 32.3006 93.9385 32.6185L93.6841 34.0589C93.6758 34.1059 93.6675 34.1584 93.6675 34.2275C93.6675 34.4266 93.7532 34.5427 94.1458 34.5427C94.284 34.5427 94.4914 34.5344 94.7623 34.4957L94.9558 33.4175H95.9566L95.6415 35.2422C95.271 35.35 94.5329 35.4412 93.9882 35.4412C92.9708 35.4384 92.5312 35.0376 92.5312 34.4072Z" fill="#C4C4C4"/>
<path d="M98.1685 31.3604H101.024L100.861 32.245H99.114L98.9979 32.892H100.624L100.46 33.7683H98.8458L98.7214 34.4761H100.477L100.322 35.3608H97.458L98.1685 31.3604Z" fill="#C4C4C4"/>
<path d="M103.57 32.8615L103.133 35.3608H102.085L102.785 31.3604H104.117L105.033 33.8679L105.48 31.3604H106.525L105.818 35.3608H104.488L103.57 32.8615Z" fill="#C4C4C4"/>
<path d="M107.767 34.4375C107.767 34.3463 107.775 34.2688 107.797 34.1361L108.082 32.5354C108.267 31.5042 108.845 31.2803 109.877 31.2803C110.33 31.2803 110.692 31.3328 111.115 31.4572L110.922 32.3198C110.537 32.2424 110.098 32.2037 109.791 32.2037C109.407 32.2037 109.23 32.3032 109.166 32.6571L108.92 34.0421C108.912 34.103 108.903 34.15 108.903 34.197C108.903 34.4264 109.025 34.5121 109.382 34.5121C109.675 34.5121 110.042 34.5038 110.512 34.4181L110.559 35.2973C110.106 35.3968 109.658 35.4355 109.227 35.4355C108.215 35.4383 107.767 35.0761 107.767 34.4375Z" fill="#C4C4C4"/>
<path d="M112.896 31.3604H115.751L115.588 32.245H113.841L113.725 32.892H115.351L115.187 33.7683H113.573L113.449 34.4761H115.204L115.049 35.3608H112.185L112.896 31.3604Z" fill="#C4C4C4"/>
<path d="M138.117 1.49414C138.604 1.49414 139.055 1.61579 139.469 1.85907C139.884 2.10236 140.21 2.43135 140.456 2.84605C140.7 3.26074 140.821 3.71138 140.821 4.19796C140.821 4.68453 140.7 5.13517 140.456 5.54987C140.213 5.96456 139.884 6.29079 139.469 6.53408C139.055 6.77736 138.604 6.89901 138.117 6.89901C137.631 6.89901 137.18 6.77736 136.765 6.53408C136.351 6.29079 136.025 5.9618 135.779 5.54987C135.535 5.13517 135.414 4.68453 135.414 4.19796C135.414 3.71138 135.535 3.26074 135.779 2.84605C136.022 2.43135 136.351 2.10513 136.765 1.85907C137.18 1.61302 137.631 1.49414 138.117 1.49414ZM138.117 6.37373C138.51 6.37373 138.872 6.2742 139.207 6.08068C139.541 5.88439 139.807 5.61898 140.003 5.28446C140.199 4.94994 140.299 4.58777 140.299 4.19519C140.299 3.80262 140.199 3.44045 140.003 3.10593C139.807 2.7714 139.541 2.506 139.207 2.30971C138.872 2.11342 138.51 2.01666 138.117 2.01666C137.725 2.01666 137.363 2.11618 137.028 2.30971C136.694 2.506 136.428 2.7714 136.232 3.10593C136.036 3.44045 135.939 3.80262 135.939 4.19519C135.939 4.58777 136.038 4.94994 136.232 5.28446C136.428 5.61898 136.694 5.88439 137.028 6.08068C137.363 6.27696 137.728 6.37373 138.117 6.37373ZM139.317 5.48075C139.345 5.52498 139.348 5.56645 139.323 5.61069C139.298 5.65492 139.259 5.67704 139.209 5.67704H138.742C138.692 5.67704 138.657 5.65492 138.634 5.61069L138.112 4.62924H137.764V5.54434C137.764 5.58028 137.75 5.61069 137.725 5.63557C137.7 5.66045 137.67 5.67427 137.634 5.67427H137.208C137.18 5.67427 137.15 5.66045 137.119 5.63557C137.092 5.61069 137.075 5.57751 137.075 5.54434V2.84329C137.075 2.80735 137.089 2.77693 137.119 2.75205C137.147 2.72717 137.177 2.71335 137.208 2.71335H138.068C138.444 2.71335 138.726 2.79352 138.905 2.95387C139.088 3.11422 139.176 3.34092 139.176 3.6395C139.176 3.81367 139.138 3.97126 139.057 4.11225C138.977 4.25325 138.872 4.36107 138.742 4.43295L139.013 4.91123C139.126 5.13241 139.229 5.3204 139.317 5.48075ZM138.128 4.02102C138.245 4.02102 138.33 3.99061 138.388 3.92979C138.446 3.86896 138.477 3.77773 138.477 3.66162C138.477 3.5455 138.446 3.4598 138.388 3.40451C138.33 3.34921 138.217 3.32157 138.051 3.32157H137.758V4.01826H138.128V4.02102Z" fill="#C4C4C4"/>
</svg>
