<svg width="19" height="21" viewBox="0 0 19 21" fill="none" xmlns="http://www.w3.org/2000/svg">
<path d="M16.9297 20.6895H2.92969C1.82512 20.6895 0.929688 19.794 0.929688 18.6895V4.68945C0.929688 3.58488 1.82512 2.68945 2.92969 2.68945H4.92969V0.689453H6.92969V2.68945H12.9297V0.689453H14.9297V2.68945H16.9297C18.0343 2.68945 18.9297 3.58488 18.9297 4.68945V18.6895C18.9297 19.794 18.0343 20.6895 16.9297 20.6895ZM2.92969 8.68945V18.6895H16.9297V8.68945H2.92969ZM2.92969 4.68945V6.68945H16.9297V4.68945H2.92969ZM14.9297 16.6895H12.9297V14.6895H14.9297V16.6895ZM10.9297 16.6895H8.92969V14.6895H10.9297V16.6895ZM6.92969 16.6895H4.92969V14.6895H6.92969V16.6895ZM14.9297 12.6895H12.9297V10.6895H14.9297V12.6895ZM10.9297 12.6895H8.92969V10.6895H10.9297V12.6895ZM6.92969 12.6895H4.92969V10.6895H6.92969V12.6895Z" fill="#90143C"/>
</svg>
