<svg width="32" height="33" viewBox="0 0 32 33" fill="none" xmlns="http://www.w3.org/2000/svg">
<path d="M19 14.4102H24" stroke="black" stroke-width="2" stroke-linecap="round" stroke-linejoin="round"/>
<path d="M19 18.4102H24" stroke="black" stroke-width="2" stroke-linecap="round" stroke-linejoin="round"/>
<path d="M11.5127 18.4102C13.1695 18.4102 14.5127 17.067 14.5127 15.4102C14.5127 13.7533 13.1695 12.4102 11.5127 12.4102C9.85584 12.4102 8.5127 13.7533 8.5127 15.4102C8.5127 17.067 9.85584 18.4102 11.5127 18.4102Z" stroke="black" stroke-width="2" stroke-linecap="round" stroke-linejoin="round"/>
<path d="M7.63867 21.4101C7.86062 20.5515 8.36153 19.7909 9.06272 19.2479C9.76391 18.7049 10.6256 18.4102 11.5125 18.4102C12.3994 18.4101 13.2611 18.7047 13.9623 19.2477C14.6636 19.7907 15.1645 20.5512 15.3865 21.4098" stroke="black" stroke-width="2" stroke-linecap="round" stroke-linejoin="round"/>
<path d="M27 6.41016H5C4.44772 6.41016 4 6.85787 4 7.41016V25.4102C4 25.9624 4.44772 26.4102 5 26.4102H27C27.5523 26.4102 28 25.9624 28 25.4102V7.41016C28 6.85787 27.5523 6.41016 27 6.41016Z" stroke="black" stroke-width="2" stroke-linecap="round" stroke-linejoin="round"/>
</svg>
