<svg width="23" height="24" viewBox="0 0 23 24" fill="none" xmlns="http://www.w3.org/2000/svg">
<path d="M3.86943 13.2762C3.10068 11.9213 2.83145 10.3197 3.11231 8.77203C3.39317 7.22435 4.2048 5.83709 5.39478 4.87076C6.58477 3.90442 8.07125 3.42548 9.57511 3.52386C11.079 3.62225 12.4967 4.29119 13.5622 5.40509C14.6277 6.51898 15.2675 8.00119 15.3617 9.57341C15.4558 11.1456 14.9977 12.6997 14.0733 13.9437C13.149 15.1878 11.8221 16.0363 10.3417 16.33C8.86131 16.6236 7.3293 16.3422 6.03336 15.5385L6.03338 15.5384L3.89633 16.1767C3.80792 16.2032 3.71436 16.2044 3.62534 16.1802C3.53633 16.1561 3.4551 16.1076 3.39008 16.0396C3.32506 15.9716 3.27861 15.8867 3.25554 15.7936C3.23248 15.7006 3.23363 15.6028 3.2589 15.5103L3.86948 13.2761L3.86943 13.2762Z" stroke="#1AC7D6" stroke-width="2" stroke-linecap="round" stroke-linejoin="round"/>
<path d="M8.85156 16.4338C9.15573 17.3365 9.64762 18.1575 10.2918 18.8376C10.936 19.5177 11.7164 20.04 12.5769 20.3668C13.4374 20.6937 14.3565 20.817 15.268 20.7278C16.1795 20.6386 17.0608 20.3392 17.8483 19.8511L17.8483 19.851L19.9853 20.4894C20.0737 20.5158 20.1673 20.517 20.2563 20.4929C20.3453 20.4688 20.4266 20.4202 20.4916 20.3522C20.5566 20.2842 20.603 20.1993 20.6261 20.1063C20.6492 20.0132 20.648 19.9154 20.6228 19.823L20.0122 17.5888L20.0122 17.5888C20.5547 16.6323 20.8523 15.5457 20.8762 14.434C20.9001 13.3222 20.6495 12.2228 20.1486 11.2418C19.6477 10.2607 18.9134 9.43122 18.0166 8.83325C17.1198 8.23529 16.0907 7.88905 15.0286 7.82794" stroke="#1AC7D6" stroke-width="2" stroke-linecap="round" stroke-linejoin="round"/>
</svg>
