<svg width="124" height="124" viewBox="0 0 124 124" fill="none" xmlns="http://www.w3.org/2000/svg">
<g opacity="0.5">
<mask id="mask0" mask-type="alpha" maskUnits="userSpaceOnUse" x="0" y="0" width="124" height="124">
<path d="M123.996 123.062V0.0625H28.1611L0.996094 27.2275V123.062H123.996Z" fill="white"/>
</mask>
<g mask="url(#mask0)">
<line x1="194.45" y1="-31.4073" x2="73.6254" y2="220.26" stroke="#FEAA3F" stroke-width="0.617977"/>
<line x1="15.0422" y1="-117.539" x2="-105.783" y2="134.128" stroke="#FEAA3F" stroke-width="0.617977"/>
<line x1="104.745" y1="-74.4727" x2="-16.0797" y2="177.195" stroke="#FEAA3F" stroke-width="0.617977"/>
<line x1="204.417" y1="-26.6212" x2="83.5922" y2="225.046" stroke="#FEAA3F" stroke-width="0.617977"/>
<line x1="25.009" y1="-112.754" x2="-95.816" y2="138.913" stroke="#FEAA3F" stroke-width="0.617977"/>
<line x1="114.712" y1="-69.6876" x2="-6.11287" y2="181.98" stroke="#FEAA3F" stroke-width="0.617977"/>
<line x1="214.382" y1="-21.836" x2="93.5571" y2="229.831" stroke="#FEAA3F" stroke-width="0.617977"/>
<line x1="34.9758" y1="-107.969" x2="-85.8492" y2="143.698" stroke="#FEAA3F" stroke-width="0.617977"/>
<line x1="124.679" y1="-64.9024" x2="3.85393" y2="186.765" stroke="#FEAA3F" stroke-width="0.617977"/>
<line x1="224.349" y1="-17.0518" x2="103.524" y2="234.615" stroke="#FEAA3F" stroke-width="0.617977"/>
<line x1="44.9426" y1="-103.185" x2="-75.8824" y2="148.483" stroke="#FEAA3F" stroke-width="0.617977"/>
<line x1="134.648" y1="-60.1172" x2="13.8227" y2="191.55" stroke="#FEAA3F" stroke-width="0.617977"/>
<line x1="234.318" y1="-12.2657" x2="113.493" y2="239.402" stroke="#FEAA3F" stroke-width="0.617977"/>
<line x1="54.9114" y1="-98.3985" x2="-65.9137" y2="153.269" stroke="#FEAA3F" stroke-width="0.617977"/>
<line x1="144.613" y1="-55.3321" x2="23.7875" y2="196.335" stroke="#FEAA3F" stroke-width="0.617977"/>
<line x1="244.284" y1="-7.4815" x2="123.459" y2="244.186" stroke="#FEAA3F" stroke-width="0.617977"/>
<line x1="64.8782" y1="-93.6133" x2="-55.9469" y2="158.054" stroke="#FEAA3F" stroke-width="0.617977"/>
<line x1="154.581" y1="-50.5469" x2="33.7563" y2="201.12" stroke="#FEAA3F" stroke-width="0.617977"/>
<line x1="74.843" y1="-88.8282" x2="-45.982" y2="162.839" stroke="#FEAA3F" stroke-width="0.617977"/>
<line x1="164.548" y1="-45.7618" x2="43.7231" y2="205.905" stroke="#FEAA3F" stroke-width="0.617977"/>
<line x1="84.8118" y1="-84.043" x2="-36.0133" y2="167.624" stroke="#FEAA3F" stroke-width="0.617977"/>
<line x1="174.515" y1="-40.9766" x2="53.6899" y2="210.691" stroke="#FEAA3F" stroke-width="0.617977"/>
<line x1="94.7785" y1="-79.2579" x2="-26.0465" y2="172.409" stroke="#FEAA3F" stroke-width="0.617977"/>
<line x1="184.482" y1="-36.1915" x2="63.6567" y2="215.476" stroke="#FEAA3F" stroke-width="0.617977"/>
<line x1="5.07542" y1="-122.324" x2="-115.75" y2="129.343" stroke="#FEAA3F" stroke-width="0.617977"/>
</g>
</g>
</svg>
