<svg width="33" height="33" viewBox="0 0 33 33" fill="none" xmlns="http://www.w3.org/2000/svg">
<path d="M16.75 3.66504V29.665" stroke="#90143C" stroke-width="2" stroke-linecap="round" stroke-linejoin="round"/>
<path d="M23.75 11.665C23.75 11.0084 23.6207 10.3583 23.3694 9.75162C23.1181 9.14499 22.7498 8.5938 22.2855 8.12951C21.8212 7.66521 21.27 7.29691 20.6634 7.04564C20.0568 6.79437 19.4066 6.66504 18.75 6.66504H14.25C12.9239 6.66504 11.6521 7.19182 10.7145 8.12951C9.77678 9.06719 9.25 10.339 9.25 11.665C9.25 12.9911 9.77678 14.2629 10.7145 15.2006C11.6521 16.1383 12.9239 16.665 14.25 16.665H19.75C21.0761 16.665 22.3479 17.1918 23.2855 18.1295C24.2232 19.0672 24.75 20.339 24.75 21.665C24.75 22.9911 24.2232 24.2629 23.2855 25.2006C22.3479 26.1383 21.0761 26.665 19.75 26.665H13.75C12.4239 26.665 11.1521 26.1383 10.2145 25.2006C9.27678 24.2629 8.75 22.9911 8.75 21.665" stroke="#90143C" stroke-width="2" stroke-linecap="round" stroke-linejoin="round"/>
</svg>
