<svg width="57" height="58" viewBox="0 0 57 58" fill="none" xmlns="http://www.w3.org/2000/svg">
<path fill-rule="evenodd" clip-rule="evenodd" d="M30.4472 47.9266C22.4072 47.5863 18.5412 41.9431 21.3987 37.2357C21.6508 36.8103 21.987 36.385 22.3792 35.9596L22.4072 35.9312C22.4632 35.8745 22.5192 35.8178 22.5753 35.7611C22.6033 35.7327 22.6313 35.7044 22.6593 35.676C22.7153 35.6193 22.7714 35.5626 22.8274 35.5342C22.8554 35.5059 22.9114 35.4492 22.9394 35.4208C22.9955 35.3641 23.0235 35.3357 23.0795 35.279C23.1355 35.2223 23.1636 35.1939 23.2196 35.1372C23.2756 35.1089 23.3036 35.0522 23.3596 35.0238C23.4157 34.9671 23.4717 34.9387 23.5277 34.882C23.5838 34.8536 23.6118 34.8253 23.6678 34.7686C23.7238 34.7119 23.8079 34.6551 23.8639 34.6268C23.8919 34.5984 23.9479 34.5701 23.976 34.5417C24.06 34.485 24.116 34.4283 24.2001 34.3716C24.2281 34.3432 24.2841 34.3148 24.3121 34.2865C24.3962 34.2298 24.4802 34.1731 24.5642 34.1163C24.5923 34.088 24.6483 34.0596 24.6763 34.0596C24.7603 34.0029 24.8724 33.9462 24.9564 33.8895C24.9845 33.8611 25.0125 33.8611 25.0405 33.8328C25.1525 33.7761 25.2646 33.7193 25.3767 33.6626L25.4607 33.6343C25.6008 33.5492 25.7408 33.4925 25.8809 33.4074C30.6993 30.997 37.2826 30.4298 42.6333 28.3597C42.8293 28.2746 43.0254 28.1896 43.2215 28.1045C43.2776 28.0761 43.3616 28.0478 43.4176 28.0194C43.5577 27.9627 43.6698 27.906 43.7818 27.8493C43.8659 27.8209 43.9219 27.7642 44.0059 27.7358C44.118 27.6791 44.23 27.6224 44.3421 27.5941C44.4261 27.5657 44.5102 27.509 44.5662 27.4806C44.6783 27.4239 44.7623 27.3672 44.8744 27.3388C44.9584 27.3105 45.0144 27.2538 45.0985 27.2254C45.1825 27.1687 45.2946 27.112 45.3786 27.0553C45.4627 27.0269 45.5187 26.9702 45.6027 26.9418C45.6868 26.8851 45.7988 26.8284 45.8829 26.7717C45.9669 26.715 46.0229 26.6866 46.107 26.6299C46.191 26.5732 46.3031 26.5165 46.3871 26.4597C46.4432 26.4314 46.4992 26.3747 46.5832 26.3463C46.6953 26.2612 46.8073 26.2045 46.9194 26.1194C46.9754 26.0911 47.0034 26.0627 47.0595 26.0344C47.1995 25.9493 47.3116 25.8359 47.4517 25.7508C47.5077 25.7224 47.5637 25.6657 47.6197 25.6374C47.7038 25.5806 47.7878 25.4956 47.8719 25.4389C47.9279 25.3821 47.9839 25.3538 48.0399 25.2971C48.124 25.2404 48.18 25.1836 48.2641 25.0986C48.3201 25.0418 48.3761 25.0135 48.4321 24.9568C48.4882 24.9001 48.5722 24.8433 48.6282 24.7583C48.6843 24.7016 48.7403 24.6732 48.7683 24.6165C48.8243 24.5598 48.9084 24.4747 48.9644 24.418C49.0204 24.3613 49.0485 24.3329 49.1045 24.2762C49.1605 24.2195 49.2445 24.1344 49.3006 24.0777C49.3286 24.021 49.3846 23.9926 49.4126 23.9359C49.4687 23.8508 49.5527 23.7657 49.6087 23.709C49.6367 23.6807 49.6648 23.624 49.6928 23.5956C49.7768 23.4822 49.8609 23.3687 49.9449 23.2553L49.9729 23.2269C50.057 23.1135 50.141 22.9717 50.2531 22.8583L50.2811 22.8016C50.3651 22.6882 50.4211 22.6031 50.4772 22.4896C50.5052 22.4613 50.5052 22.4329 50.5332 22.3762C50.5892 22.2911 50.6452 22.1777 50.7013 22.0926C50.7293 22.0643 50.7293 22.0076 50.7573 21.9792C50.8133 21.8941 50.8694 21.8091 50.8974 21.6956C50.9254 21.6673 50.9254 21.6106 50.9534 21.5822C51.0094 21.4971 51.0374 21.3837 51.0935 21.2986C51.1215 21.2703 51.1215 21.2135 51.1495 21.1852C51.2055 21.0718 51.2335 20.9867 51.2896 20.8733C51.2896 20.8449 51.3176 20.8165 51.3176 20.7882C51.3736 20.6747 51.4016 20.5613 51.4576 20.4479L51.4857 20.3912C51.6257 19.9942 51.7378 19.5688 51.8218 19.1718V19.1151C51.8498 19.0016 51.8779 18.8882 51.8779 18.7748C51.8779 18.7464 51.8779 18.7181 51.9059 18.6613C51.9339 18.5479 51.9339 18.4628 51.9339 18.3494C51.9339 18.321 51.9339 18.2643 51.9619 18.2076C51.9619 18.1509 51.9619 18.1225 51.9899 18.0658C52.0459 17.5554 52.0459 17.0733 52.0179 16.5629C51.8779 13.9256 50.7293 11.2316 48.7963 8.82119C49.0204 9.10477 49.2165 9.38834 49.4126 9.67192C47.3676 6.77943 44.23 4.22722 40.2801 2.46904C37.5907 1.27801 34.5372 0.455637 31.2036 0.143702C30.9514 0.115344 30.7273 0.115344 30.4752 0.086986C30.3912 0.086986 30.2791 0.086986 30.1951 0.0586282C30.055 0.0586282 29.8869 0.0302704 29.7468 0.0302704C29.6908 0.0302704 29.6348 0.0302704 29.5787 0.0302704C29.3827 0.0302704 29.2146 0.0302704 29.0185 0.00191258H28.9624C14.3392 -0.168234 1.84492 11.0331 0.472241 25.9777C-0.0320106 31.4224 1.03252 36.6402 3.24562 41.1774C3.16158 40.8655 3.10555 40.5536 3.04953 40.27C3.04953 40.2133 3.02151 40.1566 3.02151 40.0715C2.96548 39.8163 2.93747 39.5327 2.88144 39.2775C0.500255 24.3045 11.2016 10.8913 24.6483 9.10476C31.6518 8.16896 35.0975 10.7779 34.9014 12.7062C34.6493 15.3151 29.6348 15.2584 23.2196 17.1017H23.1916C23.0515 17.13 22.8834 17.1867 22.7433 17.2435C22.7153 17.2435 22.6593 17.2718 22.6313 17.2718C22.5192 17.3002 22.3792 17.3569 22.2671 17.3852C22.2111 17.4136 22.155 17.4136 22.099 17.442C21.987 17.4703 21.8749 17.527 21.7629 17.5554C21.7068 17.5837 21.6508 17.5837 21.5668 17.6121C21.4547 17.6405 21.3707 17.6688 21.2586 17.7255C21.2026 17.7539 21.1185 17.7823 21.0625 17.7823C20.9504 17.8106 20.8664 17.839 20.7544 17.8957C20.6703 17.924 20.6143 17.9524 20.5302 17.9808C20.4462 18.0091 20.3341 18.0658 20.2501 18.0942C20.1661 18.1225 20.11 18.1509 20.026 18.1793C19.9419 18.2076 19.8299 18.2643 19.7458 18.2927C19.6618 18.3211 19.5778 18.3494 19.5217 18.3778C19.4377 18.4061 19.3256 18.4628 19.2416 18.4912C19.1576 18.5196 19.0735 18.5479 18.9895 18.5763C18.8774 18.6046 18.7934 18.6613 18.6813 18.6897C18.5412 18.7464 18.4292 18.8031 18.2891 18.8598C18.1771 18.9166 18.065 18.9733 17.953 19.0016C17.8689 19.03 17.7849 19.0867 17.7008 19.1151C17.6168 19.1434 17.5327 19.2001 17.4487 19.2285C17.3647 19.2569 17.2806 19.3136 17.1966 19.3703C17.1125 19.3986 17.0285 19.4554 16.9445 19.5121C16.8604 19.5688 16.7764 19.5972 16.6643 19.6539C16.5803 19.7106 16.4962 19.7389 16.4122 19.7957C16.3281 19.8524 16.2441 19.8807 16.132 19.9374C16.048 19.9942 15.964 20.0225 15.8799 20.0792C15.7959 20.136 15.7118 20.1643 15.6278 20.221C15.5438 20.2777 15.4597 20.3061 15.3757 20.3628C15.2916 20.4195 15.2076 20.4762 15.1235 20.5046C15.0395 20.5613 14.9555 20.618 14.8714 20.6747C14.7874 20.7315 14.7033 20.7882 14.6193 20.8449C14.5353 20.9016 14.4512 20.9583 14.3392 21.015C14.2551 21.0718 14.1711 21.1285 14.087 21.1852C14.003 21.2419 13.8909 21.2986 13.8069 21.3553C13.7228 21.4121 13.6388 21.4688 13.5548 21.5255C13.4427 21.5822 13.3587 21.6673 13.2466 21.724C13.1626 21.7807 13.1065 21.8374 13.0225 21.8941C12.9104 21.9792 12.7984 22.0643 12.6863 22.121C12.6303 22.1777 12.5463 22.2061 12.4902 22.2628C12.3221 22.4046 12.1541 22.518 11.958 22.6598C9.32465 24.6448 7.22361 27.0553 5.87894 29.7776L5.90695 29.7209L5.93496 29.6925C6.10305 29.4089 6.24312 29.1254 6.4112 28.8418C6.24312 29.1254 6.07503 29.4373 5.90695 29.7209C3.97399 33.5775 3.52576 38.0014 5.29064 42.652C5.43071 43.0207 5.57078 43.361 5.73887 43.7013C5.76688 43.7296 5.76688 43.7864 5.79489 43.8147C5.93496 44.155 6.10305 44.4669 6.27113 44.7789C6.29915 44.8356 6.32716 44.8923 6.35517 44.9207L6.38319 45.0057L6.35517 44.9774C9.0165 49.9684 13.4987 53.4564 18.6813 55.3847H18.7093L18.7654 55.413L18.7093 55.3847C21.0625 56.2638 23.5277 56.8026 26.049 57.0578C41.5687 58.504 55.3236 46.9057 56.7523 31.1955C52.8864 43.2192 39.4397 48.3236 30.4472 47.9266Z" fill="white"/>
</svg>
