<svg width="33" height="33" viewBox="0 0 33 33" fill="none" xmlns="http://www.w3.org/2000/svg">
<path d="M4.50195 26.6611V8.66113C4.50195 8.39592 4.60731 8.14156 4.79485 7.95403C4.98238 7.76649 5.23674 7.66113 5.50195 7.66113H12.1686C12.385 7.66113 12.5955 7.73131 12.7686 7.86113L16.2353 10.4611C16.4084 10.591 16.6189 10.6611 16.8353 10.6611H25.502C25.7672 10.6611 26.0215 10.7665 26.2091 10.954C26.3966 11.1416 26.502 11.3959 26.502 11.6611V14.6611" stroke="#E2B63A" stroke-width="2" stroke-linecap="round" stroke-linejoin="round"/>
<path d="M4.50195 26.6611L8.25051 17.2897C8.32473 17.1042 8.45286 16.9451 8.61836 16.8331C8.78385 16.721 8.97913 16.6611 9.17899 16.6611H15.1992C15.3966 16.6611 15.5896 16.6027 15.7539 16.4932L18.25 14.8291C18.4143 14.7196 18.6073 14.6611 18.8047 14.6611H29.1145C29.273 14.6611 29.4292 14.6988 29.5702 14.771C29.7113 14.8432 29.8331 14.9479 29.9258 15.0764C30.0184 15.205 30.0792 15.3537 30.1031 15.5103C30.127 15.667 30.1133 15.827 30.0632 15.9774L26.502 26.6611H4.50195Z" stroke="#E2B63A" stroke-width="2" stroke-linecap="round" stroke-linejoin="round"/>
</svg>
