<svg width="23" height="23" viewBox="0 0 23 23" fill="none" xmlns="http://www.w3.org/2000/svg">
<path d="M11.5 20.125C16.2635 20.125 20.125 16.2635 20.125 11.5C20.125 6.73654 16.2635 2.875 11.5 2.875C6.73654 2.875 2.875 6.73654 2.875 11.5C2.875 16.2635 6.73654 20.125 11.5 20.125Z" stroke="#90143C" stroke-width="2" stroke-miterlimit="10"/>
<path d="M19.2417 15.3069L14.3644 12.3072C14.2789 12.2546 14.1834 12.2205 14.0839 12.2071L12.0338 11.9308C11.8799 11.91 11.7233 11.9397 11.5877 12.0154C11.452 12.091 11.3445 12.2086 11.2813 12.3505L10.0505 15.1121C9.99329 15.2406 9.97498 15.383 9.99786 15.5217C10.0207 15.6604 10.0838 15.7894 10.1793 15.8926L11.8683 17.7196C11.9449 17.8024 12.0009 17.9021 12.0318 18.0106C12.0627 18.119 12.0677 18.2333 12.0462 18.344L11.7022 20.1226" stroke="#90143C" stroke-width="2" stroke-linecap="round" stroke-linejoin="round"/>
<path d="M5.83691 4.99585L5.03333 6.89602C4.96167 7.06545 4.95771 7.2559 5.02226 7.42816L6.05464 10.1835C6.09691 10.2963 6.16688 10.3967 6.2581 10.4755C6.34932 10.5542 6.45886 10.6087 6.57666 10.634L8.50201 11.0478C8.60884 11.0708 8.70903 11.1178 8.79497 11.1853C8.8809 11.2528 8.95031 11.339 8.99792 11.4374L9.33983 12.1437C9.39867 12.2653 9.49057 12.3678 9.60499 12.4395C9.71941 12.5113 9.85173 12.5493 9.98677 12.5493H11.1936" stroke="#90143C" stroke-width="2" stroke-linecap="round" stroke-linejoin="round"/>
<path d="M13.6974 3.15796L14.536 4.66C14.6152 4.802 14.644 4.96668 14.6176 5.12714C14.5912 5.28761 14.5111 5.43437 14.3905 5.54345L11.9727 7.73002C11.9317 7.76713 11.8865 7.79938 11.8381 7.82613L10.7382 8.4335C10.6319 8.49225 10.5123 8.52307 10.3908 8.52307H8.47303C8.33161 8.52307 8.19333 8.56479 8.0755 8.64301C7.95768 8.72123 7.86555 8.83247 7.81065 8.9628L7.0625 10.7389" stroke="#90143C" stroke-width="2" stroke-linecap="round" stroke-linejoin="round"/>
</svg>
