<svg width="24" height="24" viewBox="0 0 24 24" fill="none" xmlns="http://www.w3.org/2000/svg">
<path d="M3.37709 9.25528C3.37053 9.13612 3.36723 9.01652 3.36719 8.89649C3.36736 7.81669 3.72816 6.77028 4.38822 5.93517C5.04829 5.10005 5.96688 4.52779 6.98783 4.31567C8.00878 4.10354 9.06906 4.26466 9.9884 4.77161C10.9078 5.27857 11.6294 6.10008 12.0307 7.09647L12.0307 7.09648C12.432 6.10009 13.1536 5.27858 14.073 4.77162C14.9923 4.26466 16.0526 4.10354 17.0736 4.31567C18.0945 4.52779 19.0131 5.10005 19.6732 5.93517C20.3332 6.77028 20.694 7.81669 20.6942 8.89649C20.6942 15.0059 12.0307 20.0371 12.0307 20.0371C12.0307 20.0371 8.57008 18.0274 6.0232 15.006" stroke="#1AC7D6" stroke-width="2" stroke-linecap="round" stroke-linejoin="round"/>
</svg>
