<svg width="58" height="58" viewBox="0 0 58 58" fill="none" xmlns="http://www.w3.org/2000/svg">
<path d="M29.3825 26.3829C29.393 26.1726 29.3196 25.9667 29.1784 25.8105C29.0372 25.6543 28.8397 25.5607 28.6294 25.5501C28.419 25.5395 28.2132 25.6129 28.057 25.7541C27.9008 25.8954 27.8071 26.0929 27.7965 26.3032C27.7252 27.815 27.1415 29.2576 26.1414 30.3937C25.1413 31.5297 23.7844 32.2916 22.2938 32.554C22.0868 32.5912 21.903 32.7091 21.7829 32.8818C21.6629 33.0545 21.6163 33.2678 21.6535 33.4748C21.6907 33.6818 21.8086 33.8655 21.9813 33.9856C22.1539 34.1057 22.3672 34.1522 22.5742 34.115C24.4183 33.7905 26.0969 32.8481 27.3343 31.4429C28.5716 30.0376 29.2939 28.2532 29.3825 26.3829Z" fill="white"/>
<path d="M28.7077 24.0005H28.7485C28.9518 24.0003 29.1472 23.9221 29.2944 23.7819C29.4417 23.6418 29.5295 23.4504 29.5397 23.2474L29.653 20.9881C29.6582 20.884 29.6428 20.7799 29.6078 20.6817C29.5727 20.5835 29.5187 20.4931 29.4487 20.4158C29.3788 20.3385 29.2943 20.2757 29.2001 20.2311C29.1059 20.1864 29.0038 20.1607 28.8996 20.1555C28.7955 20.1503 28.6914 20.1657 28.5932 20.2007C28.495 20.2358 28.4046 20.2898 28.3273 20.3598C28.25 20.4297 28.1872 20.5142 28.1426 20.6084C28.0979 20.7026 28.0722 20.8047 28.067 20.9089L27.9578 23.1686C27.9472 23.3783 28.0202 23.5836 28.1608 23.7396C28.3014 23.8956 28.4981 23.9894 28.7077 24.0005Z" fill="white"/>
<path d="M55.9188 48.7356C55.8854 48.5517 55.7863 48.3863 55.64 48.2701C55.4937 48.1539 55.3102 48.0949 55.1236 48.1039L48.469 48.2616L43.602 36.261C45.0722 35.2984 46.3186 34.0314 47.257 32.5455C48.1954 31.0597 48.8037 29.3897 49.041 27.6485C49.2784 25.9072 49.139 24.1353 48.6325 22.4526C48.126 20.7698 47.2641 19.2154 46.105 17.8945L40.6358 11.6649C40.5271 11.5414 40.3827 11.4547 40.2225 11.4167C40.0624 11.3788 39.8944 11.3914 39.7418 11.4529L29 15.8097L18.2578 11.4529C18.1051 11.3915 17.9372 11.3789 17.7771 11.4168C17.617 11.4548 17.4726 11.5415 17.3638 11.6649L11.8945 17.8945C10.7355 19.2154 9.8735 20.7698 9.36697 22.4526C8.86044 24.1354 8.72114 25.9073 8.95849 27.6486C9.19584 29.3899 9.80431 31.0599 10.7427 32.5457C11.6812 34.0315 12.9277 35.2985 14.3981 36.261L9.53104 48.2616L2.87645 48.1039C2.69012 48.0961 2.50722 48.1556 2.36119 48.2716C2.21516 48.3876 2.11578 48.5523 2.08121 48.7356C2.04351 48.9172 2.0707 49.1063 2.15805 49.27C2.24539 49.4337 2.38737 49.5616 2.55926 49.6314L17.961 55.8773C18.133 55.9471 18.324 55.9545 18.5009 55.8979C18.6777 55.8414 18.8291 55.7247 18.9287 55.568C19.0283 55.4113 19.0697 55.2246 19.0458 55.0405C19.0219 54.8564 18.9342 54.6865 18.7979 54.5605L13.9109 50.0387L18.7784 38.0409C21.865 38.6579 25.0705 38.0454 27.7122 36.334C28.1609 36.0463 28.591 35.7308 29 35.3892C30.3926 36.5744 32.0357 37.4287 33.8059 37.8877C35.576 38.3467 37.4272 38.3987 39.2202 38.0395L44.0891 50.0387L39.2039 54.5605C39.0676 54.6865 38.9799 54.8564 38.956 55.0405C38.9321 55.2246 38.9736 55.4113 39.0731 55.568C39.1727 55.7247 39.3241 55.8414 39.501 55.8979C39.6778 55.9545 39.8689 55.9471 40.0409 55.8773L55.4421 49.6314C55.6138 49.5613 55.7554 49.4334 55.8425 49.2697C55.9296 49.1061 55.9566 48.9171 55.9188 48.7356ZM12.2376 49.9504C12.1771 50.0996 12.1635 50.2638 12.1985 50.4209C12.2336 50.5781 12.3156 50.7209 12.4338 50.8304L14.5372 52.7788L7.17615 49.7936L10.0417 49.8611C10.2026 49.8648 10.3609 49.8195 10.4954 49.7312C10.63 49.643 10.7346 49.5158 10.7953 49.3668L15.7919 37.044C16.0248 37.1555 16.2618 37.2611 16.5037 37.3612C16.7457 37.4614 16.9904 37.547 17.2351 37.6295L12.2376 49.9504ZM26.8599 34.9973C24.6907 36.3818 22.0946 36.9367 19.549 36.5602C17.0033 36.1836 14.6791 34.9008 13.0036 32.9476C11.3281 30.9944 10.4139 28.5021 10.4291 25.9288C10.4443 23.3554 11.3878 20.8741 13.0863 18.9408L18.1839 13.1344L32.1719 18.8076L31.7849 26.5238C31.6628 29.2888 30.4585 31.8949 28.4318 33.7797C28.4286 33.7829 28.425 33.7847 28.4223 33.7879L28.4187 33.7924C27.9361 34.2397 27.4143 34.6427 26.8595 34.9964L26.8599 34.9973ZM30.1587 34.2913C32.1036 32.1889 33.2412 29.4657 33.3695 26.6045L33.7846 18.3254C33.7928 18.1609 33.7497 17.9979 33.6612 17.859C33.5727 17.7201 33.4432 17.6122 33.2907 17.5501L31.1107 16.6661L39.8161 13.1344L44.9138 18.9408C46.6796 20.9528 47.6259 23.5543 47.5652 26.2307C47.5046 28.907 46.4414 31.463 44.5862 33.3929C42.731 35.3229 40.2189 36.486 37.547 36.6522C34.8752 36.8184 32.2383 35.9755 30.1582 34.2904L30.1587 34.2913ZM43.4638 52.7788L45.5672 50.8304C45.6853 50.7209 45.7674 50.5781 45.8024 50.4209C45.8375 50.2638 45.8238 50.0996 45.7634 49.9504L40.7654 37.6254C41.0101 37.5434 41.2543 37.4559 41.4967 37.3576C41.7392 37.2593 41.9757 37.1541 42.2086 37.0404L47.2057 49.3618C47.2649 49.508 47.3665 49.6332 47.4974 49.7214C47.6282 49.8095 47.7824 49.8566 47.9402 49.8566H47.9592L50.8243 49.7891L43.4638 52.7788Z" fill="white"/>
<path d="M42.5222 29.8706C42.4042 30.0416 42.3581 30.2522 42.3938 30.4568C42.4295 30.6615 42.5441 30.8441 42.713 30.9651C42.8818 31.0862 43.0915 31.1361 43.2968 31.1042C43.5021 31.0723 43.6867 30.9611 43.8109 30.7945C44.9082 29.2775 45.4567 27.4322 45.3661 25.5621C45.2755 23.692 44.5512 21.9083 43.3124 20.5045C43.2441 20.4248 43.1607 20.3596 43.067 20.3124C42.9733 20.2653 42.8712 20.2372 42.7665 20.2298C42.6619 20.2224 42.5568 20.2358 42.4574 20.2693C42.358 20.3028 42.2662 20.3556 42.1874 20.4249C42.1085 20.4941 42.0442 20.5782 41.9982 20.6725C41.9521 20.7667 41.9252 20.8692 41.919 20.9739C41.9128 21.0786 41.9274 21.1835 41.962 21.2825C41.9967 21.3815 42.0506 21.4727 42.1207 21.5507C43.1222 22.6859 43.7076 24.1282 43.7805 25.6402C43.8535 27.1523 43.4097 28.6442 42.5222 29.8706Z" fill="white"/>
<path d="M41.2407 18.145L39.749 16.4449C39.6097 16.289 39.4145 16.1944 39.2058 16.1816C38.9971 16.1689 38.7918 16.2392 38.6347 16.377C38.4775 16.5149 38.3811 16.7093 38.3666 16.9179C38.352 17.1264 38.4204 17.3323 38.5568 17.4907L40.0485 19.1909C40.1873 19.349 40.3831 19.4455 40.593 19.4591C40.8029 19.4728 41.0097 19.4026 41.1678 19.2638C41.3259 19.1251 41.4224 18.9292 41.436 18.7193C41.4497 18.5094 41.3795 18.3027 41.2407 18.1446V18.145Z" fill="white"/>
<path d="M29 12.9809C29.2103 12.9809 29.412 12.8973 29.5607 12.7486C29.7094 12.5999 29.793 12.3982 29.793 12.1879V7.61133C29.793 7.40102 29.7094 7.19932 29.5607 7.05061C29.412 6.9019 29.2103 6.81836 29 6.81836C28.7897 6.81836 28.588 6.9019 28.4393 7.05061C28.2906 7.19932 28.207 7.40102 28.207 7.61133V12.1893C28.2074 12.3993 28.2911 12.6007 28.4398 12.7491C28.5884 12.8975 28.7899 12.9809 29 12.9809Z" fill="white"/>
<path d="M29 5.59761C29.2103 5.59761 29.412 5.51406 29.5607 5.36535C29.7094 5.21664 29.793 5.01495 29.793 4.80464V2.8562C29.793 2.64589 29.7094 2.4442 29.5607 2.29549C29.412 2.14678 29.2103 2.06323 29 2.06323C28.7897 2.06323 28.588 2.14678 28.4393 2.29549C28.2906 2.4442 28.207 2.64589 28.207 2.8562V4.80464C28.207 5.01495 28.2906 5.21664 28.4393 5.36535C28.588 5.51406 28.7897 5.59761 29 5.59761Z" fill="white"/>
<path d="M36.3175 7.45497C36.501 7.45457 36.6786 7.39051 36.8201 7.27372C37.2207 6.94412 37.6505 6.65171 38.1042 6.4001C38.2785 6.2935 38.4049 6.12376 38.4571 5.92625C38.5093 5.72874 38.4833 5.5187 38.3844 5.33992C38.2855 5.16114 38.1215 5.02741 37.9265 4.9666C37.7314 4.9058 37.5205 4.92261 37.3375 5.01353C36.7995 5.31177 36.2898 5.65833 35.8146 6.04892C35.6887 6.15275 35.5979 6.29287 35.5546 6.45019C35.5113 6.6075 35.5176 6.77434 35.5726 6.92796C35.6276 7.08157 35.7287 7.21448 35.862 7.30855C35.9953 7.40263 36.1544 7.45328 36.3175 7.45361V7.45497Z" fill="white"/>
<path d="M32.3282 12.9456C32.4041 12.9692 32.4831 12.9811 32.5625 12.981C32.7319 12.981 32.8968 12.9267 33.0332 12.8262C33.1695 12.7256 33.2701 12.5841 33.3201 12.4223C33.7307 11.2516 34.3156 10.1495 35.0551 9.15341C35.117 9.06966 35.1617 8.97454 35.1867 8.87351C35.2118 8.77247 35.2167 8.66748 35.2012 8.56454C35.1857 8.4616 35.1501 8.36272 35.0964 8.27355C35.0427 8.18438 34.9719 8.10667 34.8882 8.04484C34.8044 7.98301 34.7093 7.93829 34.6083 7.91322C34.5072 7.88815 34.4022 7.88323 34.2993 7.89873C34.1963 7.91424 34.0975 7.94987 34.0083 8.00359C33.9191 8.05731 33.8414 8.12806 33.7796 8.21182C32.9331 9.35132 32.2671 10.6143 31.8049 11.9564C31.7434 12.157 31.764 12.3738 31.8621 12.5592C31.9602 12.7446 32.1278 12.8836 32.3282 12.9456Z" fill="white"/>
<path d="M19.8958 6.40198C20.3495 6.65359 20.7794 6.94601 21.18 7.27561C21.3426 7.40895 21.5516 7.4722 21.7609 7.45147C21.9702 7.43074 22.1627 7.32771 22.296 7.16505C22.4294 7.00239 22.4926 6.79343 22.4719 6.58413C22.4512 6.37483 22.3481 6.18234 22.1855 6.049C21.7103 5.65841 21.2005 5.31185 20.6625 5.01361C20.4784 4.91194 20.2615 4.88757 20.0594 4.94587C19.8573 5.00416 19.6867 5.14034 19.585 5.32445C19.4833 5.50856 19.459 5.72552 19.5172 5.9276C19.5755 6.12967 19.7117 6.30032 19.8958 6.40198Z" fill="white"/>
<path d="M24.6804 12.4235C24.7306 12.585 24.8311 12.7263 24.9674 12.8265C25.1036 12.9268 25.2684 12.9809 25.4375 12.9808C25.517 12.981 25.596 12.9691 25.6718 12.9455C25.7713 12.9148 25.8637 12.8647 25.9439 12.7983C26.024 12.7318 26.0903 12.6503 26.1389 12.5582C26.1875 12.4661 26.2175 12.3654 26.2271 12.2617C26.2368 12.158 26.2259 12.0535 26.1952 11.954C25.7327 10.612 25.0667 9.34904 24.2204 8.2094C24.1585 8.12565 24.0806 8.05492 23.9913 8.00126C23.902 7.9476 23.803 7.91205 23.6999 7.89665C23.5969 7.88125 23.4918 7.8863 23.3907 7.91151C23.2896 7.93671 23.1945 7.98158 23.1107 8.04356C23.027 8.10553 22.9563 8.1834 22.9026 8.27271C22.8489 8.36201 22.8134 8.46102 22.798 8.56406C22.7826 8.66711 22.7876 8.77218 22.8128 8.87327C22.838 8.97437 22.8829 9.06951 22.9449 9.15326C23.6826 10.1511 24.2675 11.2532 24.6804 12.4235Z" fill="white"/>
</svg>
