<svg width="25" height="25" viewBox="0 0 14 14" fill="none" xmlns="http://www.w3.org/2000/svg">
<path d="M10.0432 12.4062C8.9332 12.4078 7.83375 12.1903 6.8079 11.7663C5.78205 11.3422 4.84996 10.7199 4.06504 9.93496C3.28012 9.15004 2.65779 8.21795 2.23372 7.1921C1.80966 6.16625 1.59218 5.0668 1.59376 3.95676C1.59627 3.17542 1.90859 2.42697 2.46221 1.8756C3.01582 1.32423 3.76553 1.01496 4.54688 1.01563V1.01563C4.67503 1.01563 4.80091 1.04951 4.91176 1.11383C5.0226 1.17816 5.11447 1.27064 5.17805 1.38191L6.41109 3.53973C6.48546 3.66986 6.52381 3.81745 6.52222 3.96732C6.52062 4.11719 6.47914 4.26393 6.40202 4.39245L5.41177 6.04288C5.92123 7.17348 6.82652 8.07877 7.95712 8.58823V8.58823L9.60754 7.59798C9.73606 7.52087 9.8828 7.47939 10.0327 7.47779C10.1825 7.4762 10.3301 7.51455 10.4603 7.58891L12.6181 8.82195C12.7294 8.88553 12.8218 8.9774 12.8862 9.08824C12.9505 9.19909 12.9844 9.32497 12.9844 9.45313V9.45313C12.9821 10.2336 12.6719 10.9816 12.1212 11.5346C11.5704 12.0876 10.8237 12.4008 10.0432 12.4062V12.4062Z" stroke="white" stroke-width="2" stroke-linejoin="round"/>
</svg>
