<svg width="70" height="70" viewBox="0 0 70 70" fill="none" xmlns="http://www.w3.org/2000/svg">
<path d="M58.3755 24.4616H49.7965C50.9507 22.3933 51.554 20.1718 51.554 17.9229C51.554 13.0339 48.8021 8.47478 43.8053 5.08525C38.9711 1.80592 32.5695 0 25.7802 0C18.9891 0 12.5864 1.80592 7.75164 5.08525C2.75457 8.47478 0.00242363 13.0339 0.00242363 17.9229C0.00242363 21.615 1.56608 25.1206 4.53547 28.1102L2.19088 35.0157C2.02354 35.5086 2.15069 36.0538 2.5186 36.4219C2.77932 36.6826 3.12877 36.8225 3.48561 36.8225C3.63258 36.8225 3.78092 36.7987 3.92461 36.7499L13.2264 33.594C15.3538 34.4162 17.62 35.0171 19.9828 35.3925C19.9691 35.6225 19.9602 35.8537 19.9602 36.087C19.9602 37.4239 20.1931 38.7451 20.6412 39.9943H3.36529C1.51098 39.9943 0.00228691 41.503 0.00228691 43.3573V58.89C0.00228691 60.7422 1.51098 62.2491 3.36529 62.2491H7.45455V68.6328C7.45455 69.1493 7.74563 69.6217 8.20692 69.854C8.40133 69.9519 8.61188 70 8.8216 70C9.10953 70 9.39582 69.9091 9.6359 69.7311L19.7289 62.2491H25.4275C26.1826 62.2491 26.7947 61.6371 26.7947 60.882C26.7947 60.1269 26.1826 59.5148 25.4275 59.5148H19.2774C18.9842 59.5148 18.6989 59.609 18.4633 59.7837L10.1889 65.9174V60.882C10.1889 60.1269 9.57684 59.5148 8.82174 59.5148H3.36529C3.02459 59.5148 2.73666 59.2286 2.73666 58.89V43.3573C2.73666 43.0165 3.02446 42.7287 3.36529 42.7287H42.1107C42.4514 42.7287 42.7393 43.0165 42.7393 43.3573V58.89C42.7393 59.2286 42.4514 59.5148 42.1107 59.5148H37.7084C36.9533 59.5148 36.3412 60.1269 36.3412 60.882C36.3412 61.6371 36.9533 62.2491 37.7084 62.2491H42.1107C43.965 62.2491 45.4737 60.7422 45.4737 58.89V47.7086H48.8494L58.2728 55.1975C58.5193 55.3934 58.8201 55.4943 59.1236 55.4943C59.3213 55.4943 59.5201 55.4515 59.7057 55.364C60.1762 55.1425 60.4804 54.6733 60.4904 54.1535L60.619 47.4871C63.0236 47.0135 65.2264 45.7834 66.9179 43.9495C68.9058 41.7942 70.0005 39.0019 70.0005 36.087C70.0005 29.6767 64.7855 24.4616 58.3755 24.4616ZM13.7771 30.8712C13.4731 30.7478 13.1345 30.7378 12.8236 30.8433L5.67119 33.2701L7.40369 28.1675C7.5776 27.6552 7.43309 27.0886 7.0351 26.7222C4.22307 24.133 2.7368 21.0905 2.7368 17.9231C2.7368 13.9687 5.06293 10.2132 9.28645 7.34836C13.6731 4.37295 19.5306 2.73438 25.7802 2.73438C32.028 2.73438 37.8843 4.37295 42.2704 7.34822C46.4938 10.2132 48.8196 13.9687 48.8196 17.923C48.8196 20.2165 48.0569 22.413 46.5545 24.4617H31.5815C26.3499 24.4617 21.9163 27.9383 20.464 32.7027C18.1096 32.3326 15.8651 31.7188 13.7771 30.8712ZM59.1553 44.9369C58.4593 44.9978 57.9211 45.5738 57.9076 46.2725L57.8099 51.3369L50.1773 45.271C49.9354 45.0788 49.6356 44.9742 49.3266 44.9742H45.4737V43.3573C45.4737 41.503 43.965 39.9943 42.1107 39.9943H23.6071C23.009 38.7804 22.6946 37.4441 22.6946 36.087C22.6946 31.1846 26.6812 27.196 31.5815 27.196H58.3755C63.2778 27.196 67.2661 31.1845 67.2661 36.087C67.2661 40.6514 63.7035 44.5387 59.1553 44.9369Z" fill="black"/>
</svg>
