<svg width="27" height="27" viewBox="0 0 27 27" fill="none" xmlns="http://www.w3.org/2000/svg">
<path d="M4.79135 18.6676C3.53338 16.547 3.09283 14.0401 3.55242 11.6176C4.01201 9.19515 5.34013 7.02379 7.28737 5.51126C9.23462 3.99873 11.667 3.24908 14.1279 3.40307C16.5888 3.55706 18.9088 4.60411 20.6523 6.3476C22.3957 8.09108 23.4428 10.4111 23.5968 12.8719C23.7508 15.3328 23.0012 17.7652 21.4887 19.7125C19.9761 21.6597 17.8048 22.9878 15.3823 23.4475C12.9599 23.9071 10.453 23.4665 8.33233 22.2086L8.33236 22.2085L4.83537 23.2076C4.69069 23.2489 4.53759 23.2508 4.39193 23.2131C4.24627 23.1753 4.11335 23.0993 4.00695 22.9929C3.90055 22.8865 3.82454 22.7536 3.7868 22.608C3.74905 22.4623 3.75095 22.3092 3.79229 22.1645L4.79143 18.6675L4.79135 18.6676Z" stroke="white" stroke-width="2" stroke-linejoin="round"/>
<path d="M16.0432 19.4062C14.9332 19.4078 13.8337 19.1903 12.8079 18.7663C11.782 18.3422 10.85 17.7199 10.065 16.935C9.28012 16.15 8.65779 15.218 8.23372 14.1921C7.80966 13.1663 7.59218 12.0668 7.59376 10.9568C7.59627 10.1754 7.90859 9.42697 8.46221 8.8756C9.01582 8.32423 9.76553 8.01496 10.5469 8.01563V8.01563C10.675 8.01563 10.8009 8.04951 10.9118 8.11383C11.0226 8.17816 11.1145 8.27064 11.1781 8.38191L12.4111 10.5397C12.4855 10.6699 12.5238 10.8175 12.5222 10.9673C12.5206 11.1172 12.4791 11.2639 12.402 11.3925L11.4118 13.0429C11.9212 14.1735 12.8265 15.0788 13.9571 15.5882V15.5882L15.6075 14.598C15.7361 14.5209 15.8828 14.4794 16.0327 14.4778C16.1825 14.4762 16.3301 14.5146 16.4603 14.5889L18.6181 15.8219C18.7294 15.8855 18.8218 15.9774 18.8862 16.0882C18.9505 16.1991 18.9844 16.325 18.9844 16.4531V16.4531C18.9821 17.2336 18.6719 17.9816 18.1212 18.5346C17.5704 19.0876 16.8237 19.4008 16.0432 19.4062V19.4062Z" stroke="white" stroke-width="2" stroke-linejoin="round"/>
</svg>
