<svg width="23" height="23" viewBox="0 0 23 23" fill="none" xmlns="http://www.w3.org/2000/svg">
<path d="M20.2558 11.5H17.3808C16.9995 11.5 16.6339 11.6515 16.3643 11.921C16.0947 12.1906 15.9433 12.5563 15.9433 12.9375V16.5313C15.9433 16.9125 16.0947 17.2781 16.3643 17.5477C16.6339 17.8173 16.9995 17.9688 17.3808 17.9688H18.8183C19.1995 17.9688 19.5652 17.8173 19.8348 17.5477C20.1043 17.2781 20.2558 16.9125 20.2558 16.5313V11.5ZM20.2558 11.5C20.2558 10.3619 20.0305 9.23495 19.593 8.18426C19.1554 7.13357 18.5143 6.17987 17.7064 5.37813C16.8986 4.57639 15.94 3.94247 14.8861 3.5129C13.8321 3.08333 12.7035 2.86662 11.5654 2.87525C10.4273 2.86662 9.2987 3.08333 8.24472 3.5129C7.19075 3.94247 6.23221 4.57639 5.42437 5.37813C4.61653 6.17987 3.97536 7.13357 3.53781 8.18426C3.10027 9.23495 2.875 10.3619 2.875 11.5V16.5313C2.875 16.9125 3.02645 17.2781 3.29603 17.5477C3.56562 17.8173 3.93125 17.9688 4.3125 17.9688H5.75C6.13125 17.9688 6.49688 17.8173 6.76647 17.5477C7.03605 17.2781 7.1875 16.9125 7.1875 16.5313V12.9375C7.1875 12.5563 7.03605 12.1906 6.76647 11.921C6.49688 11.6515 6.13125 11.5 5.75 11.5H2.875" stroke="white" stroke-width="2" stroke-linecap="round" stroke-linejoin="round"/>
<path d="M20.2558 16.5312V18.6875C20.2558 19.45 19.9529 20.1813 19.4137 20.7204C18.8746 21.2596 18.1433 21.5625 17.3808 21.5625H12.2188" stroke="white" stroke-width="2" stroke-linecap="round" stroke-linejoin="round"/>
</svg>
