<svg width="27" height="27" viewBox="0 0 27 27" fill="none" xmlns="http://www.w3.org/2000/svg">
<path d="M13.5 17.7188C15.83 17.7188 17.7188 15.83 17.7188 13.5C17.7188 11.17 15.83 9.28125 13.5 9.28125C11.17 9.28125 9.28125 11.17 9.28125 13.5C9.28125 15.83 11.17 17.7188 13.5 17.7188Z" stroke="white" stroke-width="2" stroke-miterlimit="10"/>
<path d="M18.1406 3.79688H8.85938C6.06343 3.79688 3.79688 6.06343 3.79688 8.85938V18.1406C3.79688 20.9366 6.06343 23.2031 8.85938 23.2031H18.1406C20.9366 23.2031 23.2031 20.9366 23.2031 18.1406V8.85938C23.2031 6.06343 20.9366 3.79688 18.1406 3.79688Z" stroke="white" stroke-width="2" stroke-linecap="round" stroke-linejoin="round"/>
<path d="M18.9844 9.28125C19.6834 9.28125 20.25 8.71461 20.25 8.01562C20.25 7.31664 19.6834 6.75 18.9844 6.75C18.2854 6.75 17.7188 7.31664 17.7188 8.01562C17.7188 8.71461 18.2854 9.28125 18.9844 9.28125Z" fill="white"/>
</svg>
