<svg width="71" height="71" viewBox="0 0 71 71" fill="none" xmlns="http://www.w3.org/2000/svg">
<path d="M41.5099 54.3271L37.4026 61.1727C37.2054 61.5012 36.9266 61.7731 36.5932 61.9619C36.2598 62.1507 35.8831 62.2499 35.5 62.2499C35.1169 62.2499 34.7402 62.1507 34.4068 61.9619C34.0734 61.7731 33.7946 61.5012 33.5974 61.1727L29.4901 54.3271C29.2929 53.9985 29.0141 53.7266 28.6807 53.5379C28.3473 53.3491 27.9707 53.2499 27.5875 53.2499H11.0938C10.5053 53.2499 9.94095 53.0161 9.52486 52.6C9.10876 52.1839 8.875 51.6196 8.875 51.0311V15.5312C8.875 14.9428 9.10876 14.3785 9.52486 13.9624C9.94095 13.5463 10.5053 13.3125 11.0938 13.3125H59.9062C60.4947 13.3125 61.059 13.5463 61.4751 13.9624C61.8912 14.3785 62.125 14.9428 62.125 15.5312V51.0312C62.125 51.3226 62.0676 51.6111 61.9561 51.8803C61.8446 52.1495 61.6812 52.3941 61.4751 52.6001C61.2691 52.8062 61.0245 52.9696 60.7553 53.0811C60.4861 53.1926 60.1976 53.25 59.9062 53.25L43.4125 53.2499C43.0293 53.2499 42.6527 53.3491 42.3193 53.5379C41.9859 53.7266 41.707 53.9985 41.5099 54.3271Z" stroke="#EEEEEE" stroke-width="2" stroke-linecap="round" stroke-linejoin="round"/>
<path d="M22.1875 36.6094C24.0256 36.6094 25.5156 35.1193 25.5156 33.2812C25.5156 31.4432 24.0256 29.9531 22.1875 29.9531C20.3494 29.9531 18.8594 31.4432 18.8594 33.2812C18.8594 35.1193 20.3494 36.6094 22.1875 36.6094Z" fill="#EEEEEE"/>
<path d="M35.5 36.6094C37.3381 36.6094 38.8281 35.1193 38.8281 33.2812C38.8281 31.4432 37.3381 29.9531 35.5 29.9531C33.6619 29.9531 32.1719 31.4432 32.1719 33.2812C32.1719 35.1193 33.6619 36.6094 35.5 36.6094Z" fill="#EEEEEE"/>
<path d="M48.8135 36.6094C50.6515 36.6094 52.1416 35.1193 52.1416 33.2812C52.1416 31.4432 50.6515 29.9531 48.8135 29.9531C46.9754 29.9531 45.4854 31.4432 45.4854 33.2812C45.4854 35.1193 46.9754 36.6094 48.8135 36.6094Z" fill="#EEEEEE"/>
</svg>
