<svg width="50" height="50" viewBox="0 0 50 50" fill="none" xmlns="http://www.w3.org/2000/svg">
<g clip-path="url(#clip0)">
<path d="M47.3966 42.7173H46.1095C45.2165 40.5957 45.2161 38.5254 46.1085 36.4144H47.3966C48.8321 36.4144 50 35.2465 50 33.8109C50 32.3753 48.8321 31.2074 47.3966 31.2074H42.2171C42.8764 30.4542 43.2771 29.4696 43.2771 28.3923V20.2351C43.2771 17.8751 41.3573 15.9552 38.9975 15.9552H36.8913C37.07 15.599 37.1712 15.1973 37.1712 14.7723C37.1712 13.3107 35.9835 12.1215 34.5235 12.1215H33.799C33.1524 10.5232 33.1521 8.96206 33.798 7.37397H34.5235C35.9835 7.37397 37.1712 6.18481 37.1712 4.72319C37.1712 3.26323 35.9835 2.07544 34.5235 2.07544H9.81621C5.58496 2.07544 2.14258 5.51655 2.14258 9.74624C2.14258 11.7917 2.94199 13.7176 4.39336 15.1691C4.68193 15.4577 4.98994 15.7193 5.31318 15.9551H4.746C3.31045 15.9551 2.14258 17.123 2.14258 18.5586C2.14258 19.9943 3.31045 21.1622 4.746 21.1622H6.03408C6.92647 23.273 6.92617 25.3433 6.03311 27.465H4.746C3.31045 27.465 2.14258 28.6329 2.14258 30.0685C2.14258 30.6177 2.31396 31.1274 2.60537 31.5478C1.07529 32.2006 0 33.7206 0 35.4873V43.6446C0 46.0045 1.91855 47.9244 4.27676 47.9244H47.3965C48.832 47.9244 49.9999 46.7565 49.9999 45.3208C50 43.8853 48.8321 42.7173 47.3966 42.7173ZM47.3966 32.6722C48.0244 32.6722 48.5352 33.1831 48.5352 33.8109C48.5352 34.4387 48.0244 34.9496 47.3966 34.9496H34.1781C33.7735 34.9496 33.4457 35.2775 33.4457 35.682C33.4457 36.0865 33.7735 36.4144 34.1781 36.4144H44.5373C44.2511 37.2183 44.0761 38.0253 44.01 38.8334C44.01 38.8334 43.7174 40.2832 44.5389 42.7173H5.41895C5.3041 42.7173 5.20703 42.6203 5.20703 42.5053V36.6264C5.20703 36.5116 5.3041 36.4145 5.41895 36.4145H12.6749L12.6754 38.82C12.6292 39.5401 12.9809 39.8239 13.1968 39.9293C13.4156 40.0364 13.8652 40.14 14.4185 39.6343C14.4223 39.6308 14.4261 39.6273 14.4298 39.6238L16.4771 37.6711L18.5243 39.6238C18.528 39.6274 18.5318 39.6309 18.5356 39.6343C18.8595 39.9303 19.1478 40.0177 19.3754 40.0177C19.538 40.0177 19.6696 39.9731 19.761 39.9281C19.9772 39.8216 20.3284 39.5365 20.2787 38.818L20.2797 36.4145H30.5719C30.9765 36.4145 31.3043 36.0866 31.3043 35.6821C31.3043 35.2776 30.9765 34.9497 30.5719 34.9497H20.2802L20.2812 32.6723H47.3966V32.6722ZM8.13301 23.5814C8.06699 22.7733 7.88857 21.9664 7.60254 21.1624H37.8584C37.9733 21.1624 38.0704 21.2594 38.0704 21.3743V27.2532C38.0704 27.368 37.9733 27.4651 37.8584 27.4651H20.2833L20.2843 25.046H25.4102C25.8147 25.046 26.1426 24.7181 26.1426 24.3136C26.1426 23.9091 25.8147 23.5812 25.4102 23.5812H8.13301V23.5814ZM12.673 27.4652H7.60088C7.88672 26.6601 8.06543 25.8532 8.13223 25.0461H12.6726L12.673 27.4652ZM18.8194 25.0462L18.8142 37.8759L16.9824 36.1289C16.6995 35.8589 16.2544 35.8589 15.9714 36.1289L14.1399 37.8757L14.1373 25.0461H18.8194V25.0462ZM3.60742 9.74634C3.60742 6.32437 6.39268 3.54038 9.81621 3.54038H34.5235C35.1758 3.54038 35.7063 4.07104 35.7063 4.72329C35.7063 5.3772 35.1757 5.90923 34.5235 5.90923H21.0218C20.6173 5.90923 20.2894 6.23716 20.2894 6.64165C20.2894 7.04614 20.6173 7.37407 21.0218 7.37407H32.2373C31.7203 8.94966 31.721 10.5392 32.2393 12.1216H9.81621C9.18633 12.1216 8.58994 11.8735 8.13975 11.4255C7.68916 10.9726 7.44102 10.3763 7.44102 9.74634C7.44102 8.43823 8.50654 7.37407 9.81621 7.37407H17.4155C17.82 7.37407 18.1479 7.04614 18.1479 6.64165C18.1479 6.23716 17.82 5.90923 17.4155 5.90923H9.81621C7.69883 5.90923 5.97617 7.63052 5.97617 9.74634C5.97617 10.7662 6.37578 11.7294 7.10391 12.4613C7.8332 13.1869 8.79639 13.5865 9.81621 13.5865H34.5235C35.1758 13.5865 35.7063 14.1185 35.7063 14.7724C35.7063 15.4247 35.1757 15.9553 34.5235 15.9553H9.81621C8.16201 15.9553 6.604 15.3083 5.4292 14.1334C4.25439 12.9586 3.60742 11.4006 3.60742 9.74634ZM4.746 19.6975C4.11816 19.6975 3.60742 19.1868 3.60742 18.5588C3.60742 17.931 4.11816 17.4202 4.746 17.4202H38.9975C40.5496 17.4202 41.8123 18.683 41.8123 20.2352V28.3924C41.8123 29.9447 40.5495 31.2075 38.9975 31.2075H20.2817L20.2827 28.9301H37.8583C38.7829 28.9301 39.5352 28.1779 39.5352 27.2534V21.3745C39.5352 20.4499 38.7829 19.6977 37.8583 19.6977H4.746V19.6975ZM4.746 28.93H12.6733L12.6738 31.2074H4.74609C4.11826 31.2074 3.60752 30.6965 3.60752 30.0687C3.60742 29.4409 4.11816 28.93 4.746 28.93ZM47.3966 46.4595H4.27676C2.72627 46.4595 1.46484 45.1967 1.46484 43.6446V35.4873C1.46484 33.935 2.72627 32.6722 4.27676 32.6722H12.674L12.6745 34.9496H5.41895C4.49434 34.9496 3.74219 35.7018 3.74219 36.6263V42.5052C3.74219 43.4298 4.49443 44.1821 5.41895 44.1821H47.3966C48.0244 44.1821 48.5352 44.6929 48.5352 45.3207C48.5352 45.9486 48.0244 46.4595 47.3966 46.4595Z" fill="white"/>
</g>
<defs>
<clipPath id="clip0">
<rect width="50" height="50" fill="white"/>
</clipPath>
</defs>
</svg>
