<svg width="51" height="51" viewBox="0 0 51 51" fill="none" xmlns="http://www.w3.org/2000/svg">
<path d="M28.9423 3.50595C29.2613 3.55546 29.5827 3.61253 29.8979 3.67579C30.2925 3.75497 30.6953 3.49848 30.7773 3.09018C30.8584 2.68567 30.5963 2.29191 30.1917 2.21083C29.8552 2.14329 29.5119 2.08233 29.1714 2.02954C28.7638 1.96619 28.3819 2.24549 28.3186 2.6532C28.2553 3.0609 28.5345 3.4428 28.9423 3.50595ZM25.0735 3.24617L25.0965 3.24577C25.4132 3.23989 25.7287 3.24069 26.0425 3.24826C26.453 3.25822 26.7972 2.93439 26.8072 2.51922C26.817 2.10674 26.4906 1.76438 26.0781 1.75452C25.7477 1.74655 25.4002 1.74555 25.0744 1.75173C24.6503 1.7597 24.3002 2.08791 24.3099 2.51613C24.3191 2.92852 24.661 3.25235 25.0735 3.24617ZM25.9059 47.7542H25.9035C25.5821 47.7602 25.2593 47.7593 24.9408 47.7512C24.5291 47.7458 24.1857 48.0673 24.1755 48.4797C24.1652 48.8922 24.4915 49.2347 24.9039 49.245C25.2453 49.2535 25.5889 49.2545 25.9311 49.2482V49.2481C26.3508 49.2432 26.6861 48.8973 26.6719 48.4761C26.6581 48.0658 26.3157 47.7395 25.9059 47.7542ZM21.2132 3.65487C21.5301 3.59311 21.8519 3.53753 22.1697 3.49001C22.5778 3.42895 22.859 3.04864 22.7979 2.64064C22.7368 2.23264 22.357 1.95135 21.9484 2.01241C21.6091 2.06321 21.2655 2.12238 20.9271 2.18842C20.5222 2.26741 20.258 2.65967 20.3369 3.06468C20.4164 3.47228 20.8162 3.73226 21.2132 3.65487ZM29.7706 47.3484C29.455 47.4097 29.133 47.465 28.8136 47.5126C28.4055 47.5735 28.1242 47.9538 28.1852 48.3618C28.2406 48.7325 28.5593 48.9986 28.9231 48.9986C29.2991 48.9986 29.6906 48.8859 30.0553 48.8151C30.4603 48.7365 30.725 48.3443 30.6463 47.9393C30.5676 47.5344 30.1754 47.2694 29.7706 47.3484ZM22.0413 47.4915C21.7231 47.4418 21.4016 47.3844 21.0856 47.3208C20.6814 47.2394 20.2873 47.5014 20.2059 47.9058C20.1245 48.3104 20.3865 48.7043 20.791 48.7856C21.1282 48.8535 21.4714 48.9147 21.811 48.9677C22.2097 49.0299 22.6002 48.7553 22.6642 48.3447C22.7278 47.9371 22.449 47.5551 22.0413 47.4915ZM48.3587 22.789C48.7667 22.7277 49.0477 22.3471 48.9862 21.9392C48.935 21.5988 48.8756 21.2553 48.8098 20.9184C48.7308 20.5136 48.3386 20.2494 47.9333 20.3284C47.5284 20.4076 47.2643 20.7999 47.3433 21.2049C47.405 21.5207 47.4607 21.8424 47.5087 22.1616C47.5704 22.5717 47.9576 22.8494 48.3587 22.789ZM49.2447 26.1047C49.2533 25.7583 49.2543 25.4149 49.2481 25.067C49.2404 24.6427 48.9095 24.2921 48.4848 24.3011C48.0627 24.31 47.7467 24.6737 47.7542 25.0962C47.7601 25.42 47.759 25.7448 47.751 26.0678C47.7408 26.4803 48.0668 26.8228 48.4794 26.8332C48.8898 26.8434 49.2344 26.5204 49.2447 26.1047ZM47.9036 30.8024C48.2982 30.882 48.7014 30.6257 48.7837 30.2179C48.8516 29.8813 48.913 29.5381 48.9663 29.1978C49.03 28.7902 48.7512 28.408 48.3436 28.3443C47.936 28.2809 47.5538 28.5594 47.4901 28.9671C47.4403 29.2858 47.3827 29.6072 47.3191 29.9225C47.2376 30.3269 47.4991 30.7208 47.9036 30.8024ZM1.75482 24.9131C1.74655 25.2553 1.74565 25.5908 1.75203 25.936L1.75223 25.9472C1.7592 26.3555 2.09229 26.6817 2.499 26.6817C2.91616 26.6817 3.25344 26.3392 3.24617 25.9219L3.24577 25.9037C3.24009 25.5857 3.24099 25.2661 3.24856 24.9489C3.25862 24.5295 2.92065 24.1839 2.50139 24.1839C2.09708 24.184 1.76458 24.5067 1.75482 24.9131ZM41.2555 31.511C40.8546 31.511 40.4593 31.5359 40.071 31.5831C40.8583 29.6797 41.2882 27.5671 41.2882 25.5C41.2882 23.4081 40.8695 21.3318 40.0703 19.4152C40.459 19.4626 40.8542 19.4891 41.2556 19.4891C46.6005 19.4891 51.0001 15.0953 51.0001 9.74459C51.0001 7.88657 50.4751 6.07956 49.4819 4.51898C49.2603 4.17094 48.7986 4.06864 48.4505 4.28988C48.1024 4.51141 47.9999 4.9731 48.2214 5.32123C49.0617 6.64165 49.5059 8.17116 49.5059 9.74449C49.5059 11.7667 48.7733 13.6202 47.5613 15.0567C47.0493 13.5068 45.9724 12.1761 44.5511 11.3566C44.9057 10.7737 45.11 10.0898 45.11 9.3592V8.17395C45.11 6.04858 43.3809 4.31946 41.2554 4.31946C39.1299 4.31946 37.4008 6.04858 37.4008 8.17395V9.3592C37.4008 10.0897 37.6051 10.7735 37.9596 11.3563C36.5379 12.1758 35.4611 13.5066 34.9495 15.0566C33.7376 13.6202 33.0051 11.7667 33.0051 9.74449C33.0051 5.19523 36.7062 1.49414 41.2554 1.49414C42.9667 1.49414 44.6078 2.01311 46.0014 2.99486C46.3388 3.23262 46.8048 3.15174 47.0424 2.81436C47.28 2.47709 47.1992 2.01111 46.8619 1.77345C45.2152 0.613195 43.2765 0 41.2555 0C35.8824 0 31.511 4.37136 31.511 9.74449C31.511 10.1456 31.5362 10.541 31.5835 10.9295C29.6516 10.1313 27.5997 9.71191 25.5 9.71191C23.4086 9.71191 21.3328 10.1304 19.4165 10.9293C19.4638 10.5409 19.489 10.1456 19.489 9.74449C19.489 4.37136 15.1176 0 9.74449 0C4.37136 0 0 4.37136 0 9.74449C0 15.0815 4.44158 19.489 9.74449 19.489C10.1459 19.489 10.5411 19.4625 10.9298 19.4151C10.1306 21.3318 9.71191 23.4081 9.71191 25.5C9.71191 27.5776 10.143 29.6902 10.9293 31.5831C10.5409 31.5358 10.1455 31.5109 9.74449 31.5109C4.37136 31.511 0 35.8823 0 41.2555C0 46.6312 4.43909 51 9.74449 51C15.0803 51 19.489 46.6011 19.489 41.2555C19.489 40.8545 19.4641 40.4592 19.4169 40.0709C21.3331 40.8696 23.4088 41.2881 25.5 41.2881C27.5912 41.2881 29.6669 40.8696 31.5831 40.0709C31.5358 40.4592 31.511 40.8545 31.511 41.2555C31.511 46.6319 35.9487 51 41.2555 51C46.5618 51 51 46.633 51 41.2555C51 35.8823 46.6286 31.511 41.2555 31.511ZM38.8951 8.17395C38.8951 6.87245 39.9539 5.8136 41.2555 5.8136C42.5571 5.8136 43.616 6.87245 43.616 8.17395V9.3592C43.616 10.6607 42.5571 11.7195 41.2555 11.7195C39.9539 11.7195 38.8951 10.6607 38.8951 9.3592V8.17395ZM39.0097 12.4889C39.6426 12.9443 40.418 13.2137 41.2555 13.2137C42.0929 13.2137 42.8682 12.9444 43.501 12.4891C44.9808 13.2117 46.0439 14.6257 46.3241 16.2472C44.9243 17.3408 43.1654 17.9948 41.2555 17.9948C39.3457 17.9948 37.5869 17.3408 36.1871 16.2473C36.4664 14.6257 37.5295 13.2116 39.0097 12.4889ZM30.4604 12.0939C30.9834 12.2869 31.4943 12.5113 31.9908 12.7644C32.9586 15.7285 35.3119 18.0457 38.2368 19.0099C39.2555 21.0052 39.7939 23.2422 39.7939 25.5C39.7939 25.9474 39.7726 26.3941 39.7309 26.8383C38.4092 27.3617 35.615 28.3392 34.9003 27.5664C34.6194 27.2628 34.8026 26.5952 35.1249 25.5311C35.5413 24.1556 36.0597 22.4439 35.5101 20.4638C34.7695 17.7955 32.5448 16.4773 30.9203 15.5148C29.8834 14.9003 28.9879 14.3696 29.0156 13.8498C29.0351 13.4869 29.4323 12.8265 30.4604 12.0939ZM3.43871 15.0567C2.22667 13.6202 1.49414 11.7667 1.49414 9.74449C1.49414 5.19523 5.19523 1.49414 9.74449 1.49414C14.2937 1.49414 17.9948 5.19523 17.9948 9.74449C17.9948 11.7667 17.2623 13.6201 16.0504 15.0566C15.5388 13.5066 14.4619 12.1758 13.0403 11.3563C13.3948 10.7735 13.5991 10.0897 13.5991 9.3592V8.17395C13.5991 6.04858 11.87 4.31946 9.74449 4.31946C7.61902 4.31946 5.8899 6.04858 5.8899 8.17395V9.3592C5.8899 10.0898 6.0943 10.7737 6.44881 11.3566C5.02758 12.1761 3.95071 13.5068 3.43871 15.0567ZM12.1049 8.17395V9.3592C12.1049 10.6607 11.0461 11.7195 9.74449 11.7195C8.44289 11.7195 7.38404 10.6607 7.38404 9.3592V8.17395C7.38404 6.87245 8.44289 5.8136 9.74449 5.8136C11.0461 5.8136 12.1049 6.87235 12.1049 8.17395ZM9.74449 17.9948C7.83458 17.9948 6.07567 17.3407 4.67586 16.2472C4.95597 14.6257 6.0192 13.2117 7.49899 12.4891C8.13181 12.9444 8.90707 13.2137 9.74449 13.2137C10.582 13.2137 11.3574 12.9443 11.9903 12.4889C13.4705 13.2115 14.5336 14.6257 14.8129 16.2473C13.4132 17.3408 11.6543 17.9948 9.74449 17.9948ZM9.74449 49.5059C7.83458 49.5059 6.07567 48.8517 4.67586 47.7582C4.95606 46.1361 6.01939 44.7221 7.49939 44.0005C8.13221 44.4556 8.90727 44.7247 9.74449 44.7247C10.5817 44.7247 11.3569 44.4556 11.9897 44.0004C13.4702 44.7224 14.5334 46.1365 14.8129 47.7584C13.4131 48.8518 11.6543 49.5059 9.74449 49.5059ZM7.38404 40.8702V39.6851C7.38404 38.3836 8.44289 37.3246 9.74449 37.3246C11.0461 37.3246 12.1049 38.3836 12.1049 39.6851V40.8702C12.1049 42.1717 11.0461 43.2306 9.74449 43.2306C8.44289 43.2306 7.38404 42.1717 7.38404 40.8702ZM16.0504 46.5676C15.5388 45.0176 14.4618 43.6869 13.04 42.8678C13.3946 42.2849 13.5991 41.601 13.5991 40.8702V39.6851C13.5991 37.5596 11.87 35.8305 9.74449 35.8305C7.61902 35.8305 5.8899 37.5595 5.8899 39.685V40.8701C5.8899 41.601 6.0944 42.285 6.44911 42.8679C5.02758 43.6868 3.95061 45.0174 3.43862 46.5676C2.22667 45.1312 1.49414 43.2777 1.49414 41.2555C1.49414 36.7063 5.19523 33.0052 9.74449 33.0052C14.2937 33.0052 17.9948 36.7063 17.9948 41.2555C17.9948 43.2777 17.2623 45.1311 16.0504 46.5676ZM31.9902 38.2368C29.9947 39.2555 27.7578 39.7939 25.5 39.7939C23.2422 39.7939 21.0053 39.2555 19.0098 38.2368C18.7308 37.3829 18.3374 36.5806 17.847 35.8482C19.6015 35.4006 20.9047 35.1454 21.7941 35.5113C22.4542 35.7831 22.752 36.1837 23.0968 36.6477C23.5046 37.1964 23.9668 37.8185 24.9681 38.1486C25.4355 38.3029 25.8708 38.3632 26.2893 38.3632C27.0139 38.3632 27.6872 38.1822 28.385 37.9946C28.8559 37.868 29.3429 37.7371 29.9088 37.6366C30.6623 37.5018 31.449 37.4635 32.2569 37.5176C32.1588 37.7528 32.0699 37.9927 31.9902 38.2368ZM29.6465 36.1657C29.0177 36.2773 28.4754 36.4232 27.997 36.5518C26.9679 36.8283 26.2884 37.011 25.4361 36.7297C24.8838 36.5476 24.6372 36.2158 24.2959 35.7565C23.8996 35.223 23.4062 34.5591 22.3621 34.1294C20.8139 33.4923 18.8476 34.0659 16.8163 34.5585C15.7122 33.3931 14.3239 32.5 12.7637 31.9904C12.2236 30.9321 11.8178 29.8062 11.5567 28.6447C12.6412 29.0503 14.0309 29.4401 15.6243 29.4401C16.1175 29.4401 16.6606 29.2655 16.6424 28.6664C16.63 28.254 16.2852 27.9286 15.8731 27.9422C13.9918 27.997 12.4118 27.4053 11.2782 26.922C11.2311 26.4502 11.206 25.9755 11.206 25.4999C11.206 23.2421 11.7444 21.0051 12.763 19.0098C15.0682 18.2505 17.0651 16.6148 18.2473 14.4994C20.2214 14.5761 21.7247 15.0664 21.9706 15.7356C22.0848 16.0465 21.8919 16.4475 21.5679 17.0763C21.1248 17.9363 20.5732 19.0064 20.9109 20.4019C21.1685 21.4689 21.799 22.0286 22.2592 22.4373C22.6533 22.7871 22.8444 22.9701 22.886 23.3042C23.0308 24.4673 21.2879 26.2223 19.0007 27.2164C18.6223 27.3807 18.4489 27.8208 18.6133 28.1992C18.7797 28.5821 19.2253 28.7478 19.5963 28.5866C20.9154 28.0132 22.1207 27.2014 22.99 26.3006C24.0184 25.235 24.495 24.1351 24.3686 23.1198C24.256 22.2121 23.6989 21.7174 23.2512 21.32C22.854 20.9673 22.5109 20.6627 22.3631 20.0509C22.1563 19.1961 22.5156 18.499 22.896 17.761C23.282 17.0121 23.7194 16.1634 23.3731 15.2205C23.078 14.4174 22.3162 13.8185 21.1089 13.4404C20.3874 13.2144 19.6095 13.0987 18.9135 13.0425C18.9469 12.9501 18.9788 12.857 19.0094 12.7633C21.0051 11.7445 23.2421 11.2061 25.5 11.2061C26.592 11.2061 27.6788 11.3333 28.7362 11.5783C27.9839 12.297 27.5622 13.05 27.5238 13.7704C27.4478 15.1939 28.7647 15.9742 30.1588 16.8003C31.7206 17.7257 33.4908 18.7746 34.0705 20.8636C34.5042 22.426 34.0743 23.8456 33.6949 25.0982C33.3 26.4022 32.9271 27.6338 33.8035 28.5812C34.2698 29.0853 34.9483 29.3383 35.8662 29.3382C36.8061 29.3382 37.9978 29.0717 39.4673 28.5389C39.2072 29.738 38.7927 30.9 38.236 31.9906C36.0499 32.7048 34.2018 34.1724 32.9995 36.0853C31.8455 35.9469 30.7197 35.9738 29.6465 36.1657ZM41.2555 49.5059C39.3457 49.5059 37.5869 48.8518 36.1871 47.7584C36.4665 46.1365 37.5298 44.7224 39.0103 44.0004C39.6431 44.4556 40.4182 44.7247 41.2555 44.7247C42.0927 44.7247 42.8678 44.4556 43.5006 44.0005C44.9806 44.7221 46.0439 46.1361 46.3241 47.7582C44.9243 48.8517 43.1653 49.5059 41.2555 49.5059ZM38.8951 40.8702V39.6851C38.8951 38.3836 39.9539 37.3246 41.2555 37.3246C42.5571 37.3246 43.616 38.3836 43.616 39.6851V40.8702C43.616 42.1717 42.5571 43.2306 41.2555 43.2306C39.9539 43.2306 38.8951 42.1717 38.8951 40.8702ZM47.5614 46.5676C47.0494 45.0174 45.9724 43.6868 44.5509 42.8679C44.9056 42.285 45.1101 41.601 45.1101 40.8701V39.685C45.1101 37.5595 43.381 35.8304 41.2555 35.8304C39.1301 35.8304 37.4009 37.5595 37.4009 39.685V40.8701C37.4009 41.6009 37.6053 42.2848 37.96 42.8677C36.5382 43.6868 35.4612 45.0175 34.9496 46.5675C33.7377 45.131 33.0052 43.2776 33.0052 41.2554C33.0052 36.7062 36.7063 33.0051 41.2555 33.0051C45.8048 33.0051 49.5059 36.7063 49.5059 41.2555C49.5059 43.2777 48.7733 45.1312 47.5614 46.5676ZM3.09247 20.2145C2.68786 20.1328 2.2941 20.3952 2.21282 20.7996C2.14519 21.136 2.08403 21.4793 2.03104 21.8198C1.96758 22.2275 2.24669 22.6094 2.65429 22.6729C3.05293 22.735 3.4434 22.4604 3.50735 22.0495C3.55705 21.7306 3.61433 21.409 3.67758 21.0941C3.75896 20.6896 3.49699 20.2958 3.09247 20.2145ZM2.63945 28.1936C2.23145 28.2547 1.95005 28.635 2.01111 29.043C2.06191 29.383 2.12108 29.7265 2.18672 30.0641C2.26611 30.4717 2.66565 30.7321 3.06269 30.6548C3.4677 30.5759 3.73216 30.1837 3.65327 29.7787C3.59171 29.4625 3.53633 29.1406 3.48872 28.8221C3.42776 28.4141 3.04815 28.1334 2.63945 28.1936Z" fill="white"/>
</svg>
