<svg width="25" height="20" viewBox="0 0 25 20" fill="none" xmlns="http://www.w3.org/2000/svg">
<path d="M24 3.31569C23.0978 4.57461 21.9722 5.66637 20.6762 6.53956L20.6762 6.53954C20.5942 8.7478 19.9328 10.8987 18.7553 12.787C17.5777 14.6752 15.9233 16.2377 13.9498 17.3254C11.9764 18.4131 9.74985 18.9896 7.48277 18.9999C5.21569 19.0101 2.98375 18.4539 1 17.3842L1.00067 17.383C3.59111 17.348 6.11367 16.5705 8.25378 15.1475L8.2537 15.1476C5.96279 13.6257 4.21797 11.4432 3.26384 8.9061C2.30971 6.36896 2.19412 3.6044 2.93328 1L2.93324 1.00003C3.9919 2.58912 5.39614 3.93186 7.04646 4.93313C8.69679 5.9344 10.5528 6.56969 12.4831 6.79402L12.4828 6.79407C12.2795 5.84963 12.4298 4.86546 12.9066 4.01968C13.3833 3.17389 14.1549 2.52238 15.0817 2.18306C16.0085 1.84373 17.0294 1.839 17.9595 2.16973C18.8896 2.50046 19.6675 3.14479 20.1525 3.98612L20.1525 3.98657C21.4618 3.94848 22.7583 3.72242 24 3.31569" stroke="white" stroke-width="2" stroke-linecap="round" stroke-linejoin="round"/>
</svg>
