<svg width="62" height="49" viewBox="0 0 62 49" fill="none" xmlns="http://www.w3.org/2000/svg">
<g opacity="0.65">
<path d="M39.1451 40.2197C38.5093 40.2862 37.8604 40.326 37.1981 40.326C27.1455 40.326 19 32.1797 19 22.133C19 20.7509 19.1589 19.4087 19.4503 18.1063C20.0993 18.0399 20.7483 18 21.4105 18C31.4632 18 39.6087 26.1463 39.6087 36.1931C39.5954 37.5752 39.4365 38.9307 39.1451 40.2197Z" fill="#9DC135"/>
<path d="M58.0497 18.1063C58.3412 19.3954 58.5003 20.7509 58.5003 22.133C58.5003 32.1797 50.3496 40.326 40.2904 40.326C39.6278 40.326 38.9784 40.2862 38.3422 40.2197C38.0506 38.9307 37.8916 37.5752 37.8916 36.1931C37.8916 26.1463 46.0423 18 56.1014 18C56.7508 18 57.4003 18.0399 58.0497 18.1063Z" fill="#6F9323"/>
<path d="M49.5596 28.5373C49.1205 28.1891 48.4686 28.2388 48.096 28.6368L39.0353 38.5247L29.3891 28.6244C29.0032 28.2264 28.3513 28.2015 27.9255 28.5622C27.4998 28.9229 27.4732 29.5323 27.859 29.9303L38.0241 40.3655V43.7609H40.0864V40.353L49.6527 29.9055C50.0386 29.495 49.9853 28.8856 49.5596 28.5373Z" fill="#5C7A26"/>
</g>
<path d="M41.3331 28.3492C41.3331 38.6825 28.0474 47.5397 28.0474 47.5397C28.0474 47.5397 14.7617 38.6825 14.7617 28.3492C14.7617 24.8256 16.1615 21.4463 18.653 18.9548C21.1446 16.4632 24.5238 15.0635 28.0474 15.0635C31.571 15.0635 34.9503 16.4632 37.4419 18.9548C39.9334 21.4463 41.3331 24.8256 41.3331 28.3492Z" stroke="#32383E" stroke-width="2" stroke-linecap="round" stroke-linejoin="round"/>
<path d="M28.0476 32.778C30.4935 32.778 32.4762 30.7953 32.4762 28.3495C32.4762 25.9036 30.4935 23.9209 28.0476 23.9209C25.6018 23.9209 23.6191 25.9036 23.6191 28.3495C23.6191 30.7953 25.6018 32.778 28.0476 32.778Z" stroke="#32383E" stroke-width="2" stroke-linecap="round" stroke-linejoin="round"/>
</svg>
