<svg width="42" height="30" viewBox="0 0 42 30" fill="none" xmlns="http://www.w3.org/2000/svg">
<circle opacity="0.2" cx="11" cy="11.3018" r="11" fill="url(#paint0_linear)"/>
<circle opacity="0.3" cx="28" cy="14.3018" r="14" fill="url(#paint1_linear)"/>
<path d="M12 18.3018L15 21.3018L25 11.3018" stroke="#20356F" stroke-width="2" stroke-linecap="round" stroke-linejoin="round"/>
<path d="M24 19.3018V26.3018C24 26.8322 23.7893 27.3409 23.4142 27.716C23.0391 28.091 22.5304 28.3018 22 28.3018H8C7.46957 28.3018 6.96086 28.091 6.58579 27.716C6.21071 27.3409 6 26.8322 6 26.3018V12.3018C6 11.7713 6.21071 11.2626 6.58579 10.8875C6.96086 10.5125 7.46957 10.3018 8 10.3018H19" stroke="#20356F" stroke-width="2" stroke-linecap="round" stroke-linejoin="round"/>
<defs>
<linearGradient id="paint0_linear" x1="6.12857" y1="14.0928" x2="26.0882" y2="-5.45791" gradientUnits="userSpaceOnUse">
<stop stop-color="#1AD7D7"/>
<stop offset="1" stop-color="#165FCD"/>
</linearGradient>
<linearGradient id="paint1_linear" x1="14" y1="21.8659" x2="57.3668" y2="-20.3487" gradientUnits="userSpaceOnUse">
<stop stop-color="#04ADDE"/>
<stop offset="0.303184" stop-color="#83C70B"/>
<stop offset="0.63234" stop-color="#DEC300"/>
</linearGradient>
</defs>
</svg>
