<svg width="19" height="13" viewBox="0 0 19 13" fill="none" xmlns="http://www.w3.org/2000/svg">
<path fill-rule="evenodd" clip-rule="evenodd" d="M17.3892 1.08458C17.6614 1.36487 17.8547 1.71194 17.9497 2.09074C18.2032 3.49447 18.3263 4.9186 18.3173 6.34496C18.3224 7.75 18.1993 9.15258 17.9497 10.5353C17.8547 10.9141 17.6614 11.2612 17.3892 11.5415C17.1169 11.8218 16.7755 12.0254 16.3992 12.1317C15.0246 12.4988 9.52608 12.4988 9.52608 12.4988C9.52608 12.4988 4.02755 12.4988 2.65292 12.1317C2.28434 12.0309 1.94801 11.837 1.67641 11.5685C1.40481 11.3001 1.20713 10.9662 1.10246 10.5992C0.848933 9.19545 0.725865 7.77132 0.734832 6.34496C0.727828 4.92926 0.850888 3.51591 1.10246 2.12267C1.1974 1.74386 1.39075 1.39679 1.66298 1.1165C1.93522 0.836216 2.27669 0.632639 2.65292 0.526336C4.02755 0.15918 9.52608 0.15918 9.52608 0.15918C9.52608 0.15918 15.0246 0.15918 16.3992 0.494409C16.7755 0.600712 17.1169 0.804289 17.3892 1.08458ZM7.72852 8.95438L12.3239 6.34437L7.72852 3.73438V8.95438Z" fill="white"/>
</svg>
