<svg width="62" height="43" viewBox="0 0 62 43" fill="none" xmlns="http://www.w3.org/2000/svg">
<g clip-path="url(#clip0_308_410)">
<g opacity="0.65">
<path d="M39.1451 40.2197C38.5093 40.2862 37.8604 40.326 37.1981 40.326C27.1455 40.326 19 32.1797 19 22.133C19 20.7509 19.1589 19.4087 19.4503 18.1063C20.0993 18.0399 20.7483 18 21.4105 18C31.4632 18 39.6087 26.1463 39.6087 36.1931C39.5954 37.5752 39.4365 38.9307 39.1451 40.2197Z" fill="#9DC135"/>
<path d="M58.0497 18.1063C58.3412 19.3954 58.5003 20.7509 58.5003 22.133C58.5003 32.1797 50.3496 40.326 40.2904 40.326C39.6278 40.326 38.9784 40.2862 38.3422 40.2197C38.0506 38.9307 37.8916 37.5752 37.8916 36.1931C37.8916 26.1463 46.0423 18 56.1014 18C56.7508 18 57.4003 18.0399 58.0497 18.1063Z" fill="#6F9323"/>
<path d="M49.5596 28.5373C49.1205 28.1891 48.4686 28.2388 48.096 28.6368L39.0353 38.5247L29.3891 28.6244C29.0032 28.2264 28.3513 28.2015 27.9255 28.5622C27.4998 28.9229 27.4732 29.5323 27.859 29.9303L38.0241 40.3655V43.7609H40.0864V40.353L49.6527 29.9055C50.0386 29.495 49.9853 28.8856 49.5596 28.5373Z" fill="#5C7A26"/>
</g>
<path d="M17.7148 26.8734L22.1433 31.3019L36.9052 16.54" stroke="#32383E" stroke-width="2" stroke-linecap="round" stroke-linejoin="round"/>
<path d="M35.4288 28.3492V38.6825C35.4288 39.4655 35.1178 40.2165 34.5641 40.7702C34.0104 41.3239 33.2594 41.6349 32.4764 41.6349H11.8098C11.0267 41.6349 10.2758 41.3239 9.72215 40.7702C9.16847 40.2165 8.85742 39.4655 8.85742 38.6825V18.0159C8.85742 17.2328 9.16847 16.4819 9.72215 15.9282C10.2758 15.3745 11.0267 15.0635 11.8098 15.0635H28.0479" stroke="#32383E" stroke-width="2" stroke-linecap="round" stroke-linejoin="round"/>
</g>
<defs>
<clipPath id="clip0_308_410">
<rect width="62" height="43" fill="white"/>
</clipPath>
</defs>
</svg>
