<svg width="62" height="49" viewBox="0 0 62 49" fill="none" xmlns="http://www.w3.org/2000/svg">
<circle opacity="0.2" cx="16.2381" cy="16.5399" r="16.2381" fill="url(#paint0_linear)"/>
<circle opacity="0.3" cx="41.3332" cy="20.9684" r="20.6667" fill="url(#paint1_linear)"/>
<path d="M41.3331 28.3492C41.3331 38.6825 28.0474 47.5397 28.0474 47.5397C28.0474 47.5397 14.7617 38.6825 14.7617 28.3492C14.7617 24.8256 16.1615 21.4463 18.653 18.9548C21.1446 16.4632 24.5238 15.0635 28.0474 15.0635C31.571 15.0635 34.9503 16.4632 37.4419 18.9548C39.9334 21.4463 41.3331 24.8256 41.3331 28.3492Z" stroke="#20356F" stroke-width="2" stroke-linecap="round" stroke-linejoin="round"/>
<path d="M28.0472 32.778C30.4931 32.778 32.4758 30.7953 32.4758 28.3495C32.4758 25.9036 30.4931 23.9209 28.0472 23.9209C25.6014 23.9209 23.6187 25.9036 23.6187 28.3495C23.6187 30.7953 25.6014 32.778 28.0472 32.778Z" stroke="#20356F" stroke-width="2" stroke-linecap="round" stroke-linejoin="round"/>
<defs>
<linearGradient id="paint0_linear" x1="9.04694" y1="20.66" x2="38.5112" y2="-8.2006" gradientUnits="userSpaceOnUse">
<stop stop-color="#1AD7D7"/>
<stop offset="1" stop-color="#165FCD"/>
</linearGradient>
<linearGradient id="paint1_linear" x1="20.6665" y1="32.1346" x2="84.6842" y2="-30.1822" gradientUnits="userSpaceOnUse">
<stop stop-color="#04ADDE"/>
<stop offset="0.303184" stop-color="#83C70B"/>
<stop offset="0.63234" stop-color="#DEC300"/>
</linearGradient>
</defs>
</svg>
