<svg width="21" height="21" viewBox="0 0 21 21" fill="none" xmlns="http://www.w3.org/2000/svg">
<path d="M19.9996 6.45763V1H14.542" stroke="#19A5D3" stroke-width="1.5" stroke-linecap="round" stroke-linejoin="round"/>
<path d="M13.6328 7.36724L20 1" stroke="#19A5D3" stroke-width="1.5" stroke-linecap="round" stroke-linejoin="round"/>
<path d="M19.0903 15.4809V18.2097C19.0914 18.4631 19.0395 18.7138 18.938 18.9459C18.8365 19.178 18.6877 19.3864 18.501 19.5576C18.3143 19.7289 18.0939 19.8593 17.854 19.9404C17.614 20.0216 17.3597 20.0517 17.1074 20.0289C14.3084 19.7248 11.6197 18.7684 9.2575 17.2365C7.05974 15.8399 5.19642 13.9766 3.79987 11.7788C2.26262 9.40585 1.30595 6.70413 1.00738 3.89254C0.984652 3.64101 1.01455 3.38749 1.09516 3.14814C1.17577 2.90879 1.30534 2.68885 1.47562 2.50232C1.64589 2.31579 1.85314 2.16676 2.08417 2.06471C2.31519 1.96267 2.56494 1.90984 2.8175 1.9096H5.54631C5.98775 1.90526 6.41571 2.06158 6.75041 2.34943C7.08512 2.63728 7.30374 3.03701 7.36552 3.47412C7.4807 4.34741 7.6943 5.20485 8.00225 6.03012C8.12463 6.35568 8.15112 6.70951 8.07857 7.04967C8.00602 7.38983 7.83748 7.70207 7.59292 7.94938L6.43773 9.10458C7.7326 11.3818 9.61812 13.2673 11.8954 14.5622L13.0506 13.407C13.2979 13.1625 13.6101 12.9939 13.9503 12.9214C14.2904 12.8488 14.6443 12.8753 14.9698 12.9977C15.7951 13.3056 16.6525 13.5192 17.5258 13.6344C17.9677 13.6968 18.3712 13.9193 18.6597 14.2598C18.9481 14.6002 19.1014 15.0348 19.0903 15.4809Z" stroke="#19A5D3" stroke-width="1.5" stroke-linecap="round" stroke-linejoin="round"/>
</svg>
