<svg width="17" height="16" viewBox="0 0 17 16" fill="none" xmlns="http://www.w3.org/2000/svg">
<path d="M11.2464 5.35156C12.5182 5.35156 13.7379 5.85612 14.6371 6.75423C15.5364 7.65234 16.0416 8.87043 16.0416 10.1406V15.7277H12.8448V10.1406C12.8448 9.71718 12.6764 9.31115 12.3766 9.01178C12.0769 8.71241 11.6703 8.54422 11.2464 8.54422C10.8225 8.54422 10.4159 8.71241 10.1162 9.01178C9.81639 9.31115 9.64799 9.71718 9.64799 10.1406V15.7277H6.45117V10.1406C6.45117 8.87043 6.95638 7.65234 7.85566 6.75423C8.75494 5.85612 9.97463 5.35156 11.2464 5.35156V5.35156Z" fill="white"/>
<path d="M3.25419 6.14966H0.057373V15.7276H3.25419V6.14966Z" fill="white"/>
<path d="M1.65603 3.75516C2.5388 3.75516 3.25443 3.04046 3.25443 2.15883C3.25443 1.2772 2.5388 0.5625 1.65603 0.5625C0.773249 0.5625 0.0576172 1.2772 0.0576172 2.15883C0.0576172 3.04046 0.773249 3.75516 1.65603 3.75516Z" fill="white"/>
</svg>
