<svg xmlns="http://www.w3.org/2000/svg" xmlns:xlink="http://www.w3.org/1999/xlink" width="66" height="62" viewBox="0 0 66 62"><defs><path id="lf4na" d="M974.391 3507.565v-16.174h-33.695v37.74h33.695v-5.392"/><path id="lf4nb" d="M987.87 3503.522c-3.087 0-5.392-2.587-5.392-5.776v-1.927c0-3.19 2.305-5.776 5.392-5.776 3.086 0 5.39 2.587 5.39 5.776v1.927c0 3.19-2.304 5.776-5.39 5.776z"/><path id="lf4nc" d="M981.13 3545.304V3517s-4.38 2.696-5.39 2.696c-1.012 0-3.139-.936-5.392-2.696a41.085 41.085 0 0 1-3.208-2.785c-1.506-1.462.08-3.945 2.045-3.206 2.106.79 4.23 1.586 5.206 1.948 2.022-2.106 4.129-5.392 9.435-5.392h9.435c4.83 0 6.739 2.038 6.739 8.087v9.435c0 2.891-1.152 5.391-4.043 5.391"/><path id="lf4nd" d="M987.87 3526.435v18.87"/><path id="lf4ne" d="M994.609 3515.652v29.652"/><path id="lf4nf" d="M938 3491.391V3486h39.087v5.391z"/><path id="lf4ng" d="M947.435 3529.13v16.174"/><path id="lf4nh" d="M967.652 3529.13v16.174"/></defs><g><g transform="translate(-936 -3484)"><g><use fill="#fff" fill-opacity="0" stroke="#4aa054" stroke-miterlimit="50" stroke-width="3" xlink:href="#lf4na"/></g><g><use fill="#fff" fill-opacity="0" stroke="#4aa054" stroke-miterlimit="50" stroke-width="3" xlink:href="#lf4nb"/></g><g><use fill="#fff" fill-opacity="0" stroke="#4aa054" stroke-miterlimit="50" stroke-width="3" xlink:href="#lf4nc"/></g><g><use fill="#fff" fill-opacity="0" stroke="#4aa054" stroke-miterlimit="50" stroke-width="3" xlink:href="#lf4nd"/></g><g><use fill="#fff" fill-opacity="0" stroke="#4aa054" stroke-miterlimit="50" stroke-width="3" xlink:href="#lf4ne"/></g><g><use fill="#fff" fill-opacity="0" stroke="#4aa054" stroke-miterlimit="50" stroke-width="3" xlink:href="#lf4nf"/></g><g><use fill="#fff" fill-opacity="0" stroke="#4aa054" stroke-miterlimit="50" stroke-width="3" xlink:href="#lf4ng"/></g><g><use fill="#fff" fill-opacity="0" stroke="#4aa054" stroke-miterlimit="50" stroke-width="3" xlink:href="#lf4nh"/></g></g></g></svg>