<svg xmlns="http://www.w3.org/2000/svg" xmlns:xlink="http://www.w3.org/1999/xlink" width="62" height="60" viewBox="0 0 62 60"><defs><path id="5yzma" d="M978.23 3310.5l-8.222-12.198 14.296-9.278 5.396 8.392c-.184.526-1.965 1.75-2.801 2.477-1.063-.63-2.841-.455-3.215-.412-.54.073-1.967 2.222-2.244 2.594-.1.075-2.015 1.352-1.991 1.775.139 2.45 2.035 4.564 3.326 4.163 3.543-1.105 10.1-4.662 13.492-8.323 1.747-1.888 1.98-4.11.46-6.184l-7.678-12.389c-2.26-3.08-9.912-4.551-13.548-4.551-3.557 0-11.506 1.843-13.714 4.686-1.956 2.517-6.294 8.574-8.058 10.084l-5.011-2.773c-.751-1.502.296-1.99.1-3.366-.08-.567-4.08-4.004-4.596-4.132-2.623-.526-4.949 4.164-4.01 5.972.788 1.516 1.84 3.01 2.49 3.561 8.785 10.36 8.981 11.301 11.785 11.492 3.023.206 8.475-5.435 9.349-6.657v16.322"/><path id="5yzmb" d="M976.391 3254c4.161 0 7.534 2.48 7.534 9.415 0 6.936-3.374 9.414-7.534 9.414s-7.533-2.48-7.533-9.415c0-6.934 3.372-9.414 7.533-9.414"/><path id="5yzmc" d="M943.747 3259.022v22.6"/></defs><g><g transform="translate(-938 -3252)"><g><use fill="#fff" fill-opacity="0" stroke="#4aa054" stroke-miterlimit="50" stroke-width="3" xlink:href="#5yzma"/></g><g><use fill="#fff" fill-opacity="0" stroke="#4aa054" stroke-miterlimit="50" stroke-width="3" xlink:href="#5yzmb"/></g><g><use fill="#fff" fill-opacity="0" stroke="#4aa054" stroke-miterlimit="50" stroke-width="3" xlink:href="#5yzmc"/></g></g></g></svg>