<svg width="62" height="43" viewBox="0 0 62 43" fill="none" xmlns="http://www.w3.org/2000/svg">
<circle opacity="0.2" cx="16.2381" cy="16.5399" r="16.2381" fill="url(#paint0_linear)"/>
<circle opacity="0.3" cx="41.3334" cy="20.9684" r="20.6667" fill="url(#paint1_linear)"/>
<path d="M17.7144 26.8734L22.1429 31.3019L36.9048 16.54" stroke="#20356F" stroke-width="2" stroke-linecap="round" stroke-linejoin="round"/>
<path d="M35.4286 28.3492V38.6825C35.4286 39.4655 35.1176 40.2165 34.5639 40.7702C34.0102 41.3239 33.2592 41.6349 32.4762 41.6349H11.8096C11.0265 41.6349 10.2756 41.3239 9.72191 40.7702C9.16823 40.2165 8.85718 39.4655 8.85718 38.6825V18.0159C8.85718 17.2328 9.16823 16.4819 9.72191 15.9282C10.2756 15.3745 11.0265 15.0635 11.8096 15.0635H28.0477" stroke="#20356F" stroke-width="2" stroke-linecap="round" stroke-linejoin="round"/>
<defs>
<linearGradient id="paint0_linear" x1="9.04694" y1="20.66" x2="38.5112" y2="-8.2006" gradientUnits="userSpaceOnUse">
<stop stop-color="#1AD7D7"/>
<stop offset="1" stop-color="#165FCD"/>
</linearGradient>
<linearGradient id="paint1_linear" x1="20.6667" y1="32.1346" x2="84.6845" y2="-30.1822" gradientUnits="userSpaceOnUse">
<stop stop-color="#04ADDE"/>
<stop offset="0.303184" stop-color="#83C70B"/>
<stop offset="0.63234" stop-color="#DEC300"/>
</linearGradient>
</defs>
</svg>
