<svg width="62" height="43" viewBox="0 0 62 43" fill="none" xmlns="http://www.w3.org/2000/svg">
<g clip-path="url(#clip0_308_452)">
<g opacity="0.65">
<path d="M39.1451 40.2197C38.5093 40.2862 37.8604 40.326 37.1981 40.326C27.1455 40.326 19 32.1797 19 22.133C19 20.7509 19.1589 19.4087 19.4503 18.1063C20.0993 18.0399 20.7483 18 21.4105 18C31.4632 18 39.6087 26.1463 39.6087 36.1931C39.5954 37.5752 39.4365 38.9307 39.1451 40.2197Z" fill="#9DC135"/>
<path d="M58.0497 18.1063C58.3412 19.3954 58.5003 20.7509 58.5003 22.133C58.5003 32.1797 50.3496 40.326 40.2904 40.326C39.6278 40.326 38.9784 40.2862 38.3422 40.2197C38.0506 38.9307 37.8916 37.5752 37.8916 36.1931C37.8916 26.1463 46.0423 18 56.1014 18C56.7508 18 57.4003 18.0399 58.0497 18.1063Z" fill="#6F9323"/>
<path d="M49.5596 28.5373C49.1205 28.1891 48.4686 28.2388 48.096 28.6368L39.0353 38.5247L29.3891 28.6244C29.0032 28.2264 28.3513 28.2015 27.9255 28.5622C27.4998 28.9229 27.4732 29.5323 27.859 29.9303L38.0241 40.3655V43.7609H40.0864V40.353L49.6527 29.9055C50.0386 29.495 49.9853 28.8856 49.5596 28.5373Z" fill="#5C7A26"/>
</g>
<path d="M32.4764 41.6355V38.6831C32.4764 37.117 31.8543 35.6151 30.747 34.5078C29.6396 33.4004 28.1377 32.7783 26.5717 32.7783H14.7621C13.1961 32.7783 11.6942 33.4004 10.5868 34.5078C9.47952 35.6151 8.85742 37.117 8.85742 38.6831V41.6355" stroke="#32383E" stroke-width="2" stroke-linecap="round" stroke-linejoin="round"/>
<path d="M20.6664 26.8735C23.9275 26.8735 26.5712 24.2298 26.5712 20.9687C26.5712 17.7076 23.9275 15.064 20.6664 15.064C17.4053 15.064 14.7617 17.7076 14.7617 20.9687C14.7617 24.2298 17.4053 26.8735 20.6664 26.8735Z" stroke="#32383E" stroke-width="2" stroke-linecap="round" stroke-linejoin="round"/>
<path d="M41.3339 41.6355V38.6831C41.3329 37.3748 40.8974 36.1038 40.0959 35.0698C39.2943 34.0358 38.172 33.2973 36.9053 32.9702" stroke="#32383E" stroke-width="2" stroke-linecap="round" stroke-linejoin="round"/>
<path d="M31 15.2559C32.2701 15.5811 33.3959 16.3198 34.1998 17.3555C35.0038 18.3912 35.4401 19.665 35.4401 20.9761C35.4401 22.2872 35.0038 23.561 34.1998 24.5967C33.3959 25.6324 32.2701 26.3711 31 26.6963" stroke="#32383E" stroke-width="2" stroke-linecap="round" stroke-linejoin="round"/>
</g>
<defs>
<clipPath id="clip0_308_452">
<rect width="62" height="43" fill="white"/>
</clipPath>
</defs>
</svg>
