<svg width="19" height="13" viewBox="0 0 19 13" fill="none" xmlns="http://www.w3.org/2000/svg">
<path d="M17.9502 2.09074C17.8552 1.71194 17.6619 1.36487 17.3897 1.08458C17.1174 0.804289 16.776 0.600712 16.3997 0.494409C15.0251 0.15918 9.52657 0.15918 9.52657 0.15918C9.52657 0.15918 4.02804 0.15918 2.65341 0.526336C2.27718 0.632639 1.93571 0.836216 1.66347 1.1165C1.39124 1.39679 1.19789 1.74386 1.10295 2.12267C0.851376 3.51591 0.728316 4.92926 0.73532 6.34496C0.726353 7.77132 0.849421 9.19545 1.10295 10.5992C1.20762 10.9662 1.4053 11.3001 1.6769 11.5685C1.9485 11.837 2.28483 12.0309 2.65341 12.1317C4.02804 12.4988 9.52657 12.4988 9.52657 12.4988C9.52657 12.4988 15.0251 12.4988 16.3997 12.1317C16.776 12.0254 17.1174 11.8218 17.3897 11.5415C17.6619 11.2612 17.8552 10.9141 17.9502 10.5353C18.1998 9.15258 18.3229 7.75 18.3178 6.34496C18.3268 4.9186 18.2037 3.49447 17.9502 2.09074V2.09074Z" fill="white"/>
<path d="M12.3237 6.34438L7.72827 8.95438V3.73438L12.3237 6.34438Z" fill="#9B51E0"/>
<path d="M12.3237 6.34438L7.72827 8.95438V3.73438L12.3237 6.34438Z" fill="url(#paint0_linear)"/>
<defs>
<linearGradient id="paint0_linear" x1="7.94847" y1="9.94866" x2="14.2377" y2="0.13413" gradientUnits="userSpaceOnUse">
<stop stop-color="#1AD7D7"/>
<stop offset="1" stop-color="#165FCD"/>
</linearGradient>
</defs>
</svg>
