<svg width="60" height="46" viewBox="0 0 60 46" fill="none" xmlns="http://www.w3.org/2000/svg">
<circle opacity="0.2" cx="15.7143" cy="15.7143" r="15.7143" fill="url(#paint0_linear)"/>
<circle opacity="0.3" cx="40" cy="20" r="20" fill="url(#paint1_linear)"/>
<path d="M28.5715 15.7144H18.5715C17.8137 15.7144 17.087 16.0154 16.5512 16.5512C16.0154 17.087 15.7144 17.8137 15.7144 18.5715V41.4286C15.7144 42.1864 16.0154 42.9131 16.5512 43.4489C17.087 43.9848 17.8137 44.2858 18.5715 44.2858H35.7144C36.4721 44.2858 37.1988 43.9848 37.7347 43.4489C38.2705 42.9131 38.5715 42.1864 38.5715 41.4286V25.7144L28.5715 15.7144Z" stroke="#20356F" stroke-width="2" stroke-linecap="round" stroke-linejoin="round"/>
<path d="M28.5715 15.7144V25.7144H38.5715" stroke="#20356F" stroke-width="2" stroke-linecap="round" stroke-linejoin="round"/>
<defs>
<linearGradient id="paint0_linear" x1="8.7551" y1="19.7015" x2="37.2689" y2="-8.22809" gradientUnits="userSpaceOnUse">
<stop stop-color="#1AD7D7"/>
<stop offset="1" stop-color="#165FCD"/>
</linearGradient>
<linearGradient id="paint1_linear" x1="20" y1="30.806" x2="81.9526" y2="-29.5006" gradientUnits="userSpaceOnUse">
<stop stop-color="#04ADDE"/>
<stop offset="0.303184" stop-color="#83C70B"/>
<stop offset="0.63234" stop-color="#DEC300"/>
</linearGradient>
</defs>
</svg>
