<svg width="60" height="45" viewBox="0 0 60 45" fill="none" xmlns="http://www.w3.org/2000/svg">
<circle opacity="0.3" cx="40.4651" cy="23.7209" r="19.5349" fill="url(#paint0_linear)"/>
<circle opacity="0.2" cx="15.3488" cy="15.3488" r="15.3488" fill="url(#paint1_linear)"/>
<path d="M29.3722 15.3486H17.9303C17.1716 15.3486 16.4441 15.65 15.9076 16.1864C15.3712 16.7229 15.0698 17.4505 15.0698 18.2091V41.0928C15.0698 41.8515 15.3712 42.579 15.9076 43.1155C16.4441 43.6519 17.1716 43.9533 17.9303 43.9533H35.0931C35.8517 43.9533 36.5793 43.6519 37.1157 43.1155C37.6522 42.579 37.9535 41.8515 37.9535 41.0928V23.93L29.3722 15.3486Z" stroke="#20356F" stroke-width="2" stroke-linecap="round" stroke-linejoin="round"/>
<path d="M29.3721 15.3486V23.93H37.9535" stroke="#20356F" stroke-width="2" stroke-linecap="round" stroke-linejoin="round"/>
<path d="M32.2326 31.0811H20.7908" stroke="#20356F" stroke-width="2" stroke-linecap="round" stroke-linejoin="round"/>
<path d="M32.2326 36.8022H20.7908" stroke="#20356F" stroke-width="2" stroke-linecap="round" stroke-linejoin="round"/>
<path d="M23.6512 25.3604H22.221H20.7908" stroke="#20356F" stroke-width="2" stroke-linecap="round" stroke-linejoin="round"/>
<defs>
<linearGradient id="paint0_linear" x1="20.9302" y1="34.2756" x2="81.442" y2="-24.6285" gradientUnits="userSpaceOnUse">
<stop stop-color="#04ADDE"/>
<stop offset="0.303184" stop-color="#83C70B"/>
<stop offset="0.63234" stop-color="#DEC300"/>
</linearGradient>
<linearGradient id="paint1_linear" x1="8.5515" y1="19.2433" x2="36.4022" y2="-8.03674" gradientUnits="userSpaceOnUse">
<stop stop-color="#1AD7D7"/>
<stop offset="1" stop-color="#165FCD"/>
</linearGradient>
</defs>
</svg>
