<svg width="61" height="46" viewBox="0 0 61 46" fill="none" xmlns="http://www.w3.org/2000/svg">
<g opacity="0.65">
<path d="M39.1451 40.2197C38.5093 40.2862 37.8604 40.326 37.1981 40.326C27.1455 40.326 19 32.1797 19 22.133C19 20.7509 19.1589 19.4087 19.4503 18.1063C20.0993 18.0399 20.7483 18 21.4105 18C31.4632 18 39.6087 26.1463 39.6087 36.1931C39.5954 37.5752 39.4365 38.9307 39.1451 40.2197Z" fill="#9DC135"/>
<path d="M58.0497 18.1063C58.3412 19.3954 58.5003 20.7509 58.5003 22.133C58.5003 32.1797 50.3496 40.326 40.2904 40.326C39.6278 40.326 38.9784 40.2862 38.3422 40.2197C38.0506 38.9307 37.8916 37.5752 37.8916 36.1931C37.8916 26.1463 46.0423 18 56.1014 18C56.7508 18 57.4003 18.0399 58.0497 18.1063Z" fill="#6F9323"/>
<path d="M49.5596 28.5373C49.1205 28.1891 48.4686 28.2388 48.096 28.6368L39.0353 38.5247L29.3891 28.6244C29.0032 28.2264 28.3513 28.2015 27.9255 28.5622C27.4998 28.9229 27.4732 29.5323 27.859 29.9303L38.0241 40.3655V43.7609H40.0864V40.353L49.6527 29.9055C50.0386 29.495 49.9853 28.8856 49.5596 28.5373Z" fill="#5C7A26"/>
</g>
<path d="M15.7856 16.2756H5.87846C5.12773 16.2756 4.40776 16.5766 3.87691 17.1124C3.34607 17.6482 3.04785 18.375 3.04785 19.1327V41.9898C3.04785 42.7476 3.34607 43.4743 3.87691 44.0101C4.40776 44.546 5.12773 44.847 5.87846 44.847H22.8622C23.6129 44.847 24.3329 44.546 24.8637 44.0101C25.3946 43.4743 25.6928 42.7476 25.6928 41.9898V26.2756L15.7856 16.2756Z" stroke="#32383E" stroke-width="2" stroke-linecap="round" stroke-linejoin="round"/>
<path d="M15.7852 16.2754V26.2754H25.6924" stroke="#32383E" stroke-width="2" stroke-linecap="round" stroke-linejoin="round"/>
</svg>
