<svg width="19" height="15" viewBox="0 0 19 15" fill="none" xmlns="http://www.w3.org/2000/svg">
<path d="M18.2744 0.167206C17.5091 0.706348 16.6617 1.11871 15.7649 1.3884C15.2836 0.835678 14.6439 0.443923 13.9323 0.266119C13.2208 0.0883154 12.4718 0.133041 11.7865 0.394247C11.1013 0.655452 10.5129 1.12054 10.1009 1.72659C9.68896 2.33265 9.47331 3.05045 9.48314 3.78289V4.58106C8.07865 4.61743 6.68695 4.30634 5.43198 3.6755C4.17702 3.04465 3.09775 2.11364 2.2903 0.965371C2.2903 0.965371 -0.906514 8.14886 6.28633 11.3415C4.64039 12.4573 2.67964 13.0168 0.691895 12.9378C7.88473 16.9287 16.676 12.9378 16.676 3.75895C16.6752 3.53662 16.6538 3.31485 16.612 3.09647C17.4277 2.29311 18.0033 1.27882 18.2744 0.167206V0.167206Z" fill="white"/>
</svg>
