<svg width="19" height="19" viewBox="0 0 19 19" fill="none" xmlns="http://www.w3.org/2000/svg">
<path d="M13.7674 1.5625H5.77532C3.56838 1.5625 1.7793 3.34925 1.7793 5.55333V13.535C1.7793 15.739 3.56838 17.5258 5.77532 17.5258H13.7674C15.9743 17.5258 17.7634 15.739 17.7634 13.535V5.55333C17.7634 3.34925 15.9743 1.5625 13.7674 1.5625Z" stroke="white" stroke-width="1.59633" stroke-linecap="round" stroke-linejoin="round"/>
<path d="M12.9682 9.04125C13.0668 9.70552 12.9532 10.3839 12.6435 10.98C12.3338 11.5761 11.8438 12.0594 11.2432 12.3614C10.6426 12.6633 9.96194 12.7684 9.29807 12.6617C8.63421 12.555 8.02092 12.242 7.54546 11.7671C7.07 11.2923 6.75656 10.6798 6.64974 10.0168C6.54291 9.35377 6.64813 8.67401 6.95044 8.07417C7.25275 7.47433 7.73675 6.98497 8.33359 6.67568C8.93044 6.36639 9.60974 6.25293 10.2749 6.35143C10.9533 6.45191 11.5815 6.76765 12.0664 7.25201C12.5514 7.73637 12.8676 8.36367 12.9682 9.04125Z" stroke="white" stroke-width="1.59633" stroke-linecap="round" stroke-linejoin="round"/>
<path d="M14.167 5.1543H14.1759" stroke="white" stroke-width="1.59633" stroke-linecap="round" stroke-linejoin="round"/>
</svg>
