<svg width="42" height="30" viewBox="0 0 42 30" fill="none" xmlns="http://www.w3.org/2000/svg">
<g opacity="0.65">
<path d="M23.2041 25.9759C22.6612 26.0326 22.1069 26.0667 21.5414 26.0667C12.9563 26.0667 6 19.1096 6 10.5296C6 9.34929 6.13573 8.20302 6.38458 7.09079C6.93882 7.03405 7.49306 7 8.05861 7C16.6437 7 23.6 13.9571 23.6 22.5371C23.5887 23.7174 23.453 24.875 23.2041 25.9759Z" fill="#9DC135"/>
<path d="M39.349 7.09079C39.598 8.19167 39.7338 9.34929 39.7338 10.5296C39.7338 19.1096 32.773 26.0667 24.1824 26.0667C23.6165 26.0667 23.0619 26.0326 22.5186 25.9759C22.2696 24.875 22.1338 23.7174 22.1338 22.5371C22.1338 13.9571 29.0946 7 37.6852 7C38.2398 7 38.7944 7.03405 39.349 7.09079Z" fill="#6F9323"/>
<path d="M32.0979 15.9989C31.7229 15.7015 31.1661 15.744 30.848 16.0839L23.11 24.5283L14.8721 16.0733C14.5426 15.7334 13.9858 15.7121 13.6222 16.0202C13.2586 16.3282 13.2359 16.8487 13.5654 17.1886L22.2464 26.1003V29H24.0077V26.0897L32.1774 17.1673C32.5069 16.8168 32.4615 16.2963 32.0979 15.9989Z" fill="#5C7A26"/>
</g>
<path d="M12 18.3018L15 21.3018L25 11.3018" stroke="#32383E" stroke-width="2" stroke-linecap="round" stroke-linejoin="round"/>
<path d="M24 19.3018V26.3018C24 26.8322 23.7893 27.3409 23.4142 27.716C23.0391 28.091 22.5304 28.3018 22 28.3018H8C7.46957 28.3018 6.96086 28.091 6.58579 27.716C6.21071 27.3409 6 26.8322 6 26.3018V12.3018C6 11.7713 6.21071 11.2626 6.58579 10.8875C6.96086 10.5125 7.46957 10.3018 8 10.3018H19" stroke="#32383E" stroke-width="2" stroke-linecap="round" stroke-linejoin="round"/>
</svg>
