<svg width="25" height="25" viewBox="0 0 25 25" fill="none" xmlns="http://www.w3.org/2000/svg">
<path d="M9.58963 14.4917C6.03563 14.9597 3.47363 16.2647 3.47363 17.8047C3.47363 19.7377 7.50263 21.3047 12.4736 21.3047C17.4446 21.3047 21.4736 19.7377 21.4736 17.8047C21.4736 16.2647 18.9116 14.9597 15.3576 14.4917" stroke="#DA291C" stroke-width="1.5" stroke-linecap="round" stroke-linejoin="round"/>
<path fill-rule="evenodd" clip-rule="evenodd" d="M18.4736 8.13769C18.4736 4.91669 15.7876 2.30469 12.4736 2.30469C9.15963 2.30469 6.47363 4.91669 6.47363 8.13769C6.47363 12.5127 12.4736 17.3047 12.4736 17.3047C12.4736 17.3047 18.4736 12.5127 18.4736 8.13769Z" stroke="#DA291C" stroke-width="1.5" stroke-linecap="round" stroke-linejoin="round"/>
<path d="M13.8878 6.89047C14.6689 7.67152 14.6689 8.93785 13.8878 9.7189C13.1068 10.5 11.8405 10.5 11.0594 9.7189C10.2784 8.93786 10.2784 7.67152 11.0594 6.89047C11.8405 6.10943 13.1068 6.10943 13.8878 6.89047" stroke="#DA291C" stroke-width="1.5" stroke-linecap="round" stroke-linejoin="round"/>
</svg>
