<svg width="25" height="25" viewBox="0 0 25 25" fill="none" xmlns="http://www.w3.org/2000/svg">
<path d="M15.4189 4.10791C16.6904 4.44985 17.8496 5.11987 18.7806 6.05085C19.7116 6.98183 20.3816 8.1411 20.7236 9.41253" stroke="#C91311" stroke-linecap="round" stroke-linejoin="round"/>
<path d="M14.6426 7.00635C15.4054 7.21151 16.101 7.61352 16.6596 8.17211C17.2182 8.7307 17.6202 9.42626 17.8253 10.1891" stroke="#C91311" stroke-linecap="round" stroke-linejoin="round"/>
<path d="M9.14328 12.0593C9.92126 13.6498 11.2105 14.9332 12.8045 15.7039C12.9212 15.7592 13.0502 15.7831 13.1789 15.7734C13.3076 15.7637 13.4315 15.7206 13.5385 15.6484L15.8856 14.0833C15.9894 14.0141 16.1088 13.9719 16.2331 13.9604C16.3573 13.949 16.4824 13.9688 16.5971 14.0179L20.9881 15.8998C21.1372 15.9631 21.2618 16.0733 21.3429 16.2136C21.424 16.3538 21.4574 16.5167 21.4379 16.6776C21.2991 17.7636 20.7693 18.7618 19.9475 19.4852C19.1257 20.2087 18.0685 20.6078 16.9736 20.6079C13.5921 20.6079 10.3491 19.2646 7.95802 16.8735C5.56693 14.4824 4.22363 11.2394 4.22363 7.85788C4.22369 6.76304 4.62281 5.70577 5.34627 4.88401C6.06973 4.06226 7.06791 3.53239 8.15391 3.3936C8.3148 3.37413 8.47766 3.40747 8.61795 3.48861C8.75824 3.56974 8.86836 3.69427 8.93173 3.84343L10.8152 8.23823C10.8639 8.35191 10.8838 8.47587 10.873 8.59907C10.8622 8.72227 10.8211 8.8409 10.7534 8.94438L9.19374 11.3275C9.12275 11.4347 9.08079 11.5585 9.07195 11.6867C9.0631 11.815 9.08768 11.9434 9.14328 12.0593V12.0593Z" stroke="#C91311" stroke-linecap="round" stroke-linejoin="round"/>
</svg>
