<svg width="20" height="20" viewBox="0 0 20 20" fill="none" xmlns="http://www.w3.org/2000/svg">
<path d="M9.61833 13.179C11.2537 13.179 12.5794 11.8533 12.5794 10.2179C12.5794 8.58257 11.2537 7.25684 9.61833 7.25684C7.98296 7.25684 6.65723 8.58257 6.65723 10.2179C6.65723 11.8533 7.98296 13.179 9.61833 13.179Z" stroke="#89143A" stroke-miterlimit="10"/>
<path d="M12.8754 3.40723H6.36094C4.39849 3.40723 2.80762 4.9981 2.80762 6.96055V13.475C2.80762 15.4374 4.39849 17.0283 6.36094 17.0283H12.8754C14.8378 17.0283 16.4287 15.4374 16.4287 13.475V6.96055C16.4287 4.9981 14.8378 3.40723 12.8754 3.40723Z" stroke="#89143A" stroke-linecap="round" stroke-linejoin="round"/>
<path d="M13.4674 7.25664C13.958 7.25664 14.3558 6.85892 14.3558 6.36831C14.3558 5.8777 13.958 5.47998 13.4674 5.47998C12.9768 5.47998 12.5791 5.8777 12.5791 6.36831C12.5791 6.85892 12.9768 7.25664 13.4674 7.25664Z" fill="#831337"/>
</svg>
