<svg width="26" height="26" viewBox="0 0 26 26" fill="none" xmlns="http://www.w3.org/2000/svg">
<path d="M4.29688 17.6035V7.44727C4.29688 7.03286 4.46149 6.63544 4.75452 6.34241C5.04755 6.04939 5.44497 5.88477 5.85938 5.88477H19.9219C20.3363 5.88477 20.7337 6.04939 21.0267 6.34241C21.3198 6.63544 21.4844 7.03286 21.4844 7.44727V17.6035" stroke="#D9A863" stroke-width="2" stroke-linecap="round" stroke-linejoin="round"/>
<path d="M2.73438 17.6035H23.0469V19.166C23.0469 19.5804 22.8823 19.9778 22.5892 20.2709C22.2962 20.5639 21.8988 20.7285 21.4844 20.7285H4.29688C3.88247 20.7285 3.48505 20.5639 3.19202 20.2709C2.89899 19.9778 2.73438 19.5804 2.73438 19.166V17.6035Z" stroke="#D9A863" stroke-width="2" stroke-linecap="round" stroke-linejoin="round"/>
<path d="M14.4531 9.00977H11.3281" stroke="#D9A863" stroke-width="2" stroke-linecap="round" stroke-linejoin="round"/>
</svg>
