<svg xmlns="http://www.w3.org/2000/svg" width="68" height="16" version="1.1" viewBox="0 0 1026 235">
<path fill="#FFFFFF" d="M7 67c0,29 18,51 44,61 21,9 40,13 57,22 6,2 12,5 15,8 0,0 1,1 1,1l0 1c2,3 3,6 3,9 0,3 -1,6 -3,9l0 2c-2,1 -3,2 -5,3 -2,2 -5,3 -9,4 -32,14 -55,-2 -58,-28l-53 17c4,14 13,30 23,38 14,11 32,18 50,20l33 0c52,-7 98,-44 74,-98 -9,-21 -33,-32 -52,-40 -13,-5 -22,-8 -34,-13 -2,-1 -4,-1 -6,-2 -13,-2 -22,-10 -22,-19l0 0 0 -1 0 0c0,-8 7,-16 18,-19 7,-3 15,-4 22,-1 12,2 26,18 27,27l51 -16c0,-7 -12,-25 -28,-37 -12,-9 -29,-14 -47,-16l-26 0c-20,2 -39,8 -51,20 -6,6 -12,11 -16,18 -1,3 -8,26 -8,30z"/>
<path fill="#FFFFFF" d="M208 231l164 0 0 -42c-17,-1 -49,0 -105,0l0 -55 80 0 0 -42 -80 0 0 -50 105 0 0 -38 -164 0 0 226z"/>
<path fill="#FFFFFF" d="M482 223l0 -1 -1 0 0 1zm23 -97c-6,-11 -14,-27 -24,-54l-29 -68 -63 0c8,15 14,34 21,50l52 114c4,11 10,23 14,35l29 -78z"/>
<path fill="#F15A5A" d="M557 55l-45 -50c0,27 0,25 0,50l46 0z"/>
<path fill="#EC1C24" d="M557 55c-10,31 -65,148 -66,173 16,-11 28,-20 44,-31 16,-12 29,-25 47,-33l1 -4c-5,-30 -23,-82 -21,-108l75 -47 -125 0 45 50z"/>
<path fill="#C4161C" d="M583 159l47 -116c6,-16 8,-25 15,-39l-8 0 -75 47c-2,26 16,78 21,108z"/>
<path fill="#F48264" d="M491 228l0 3 64 0c6,-10 10,-22 14,-33 5,-12 9,-19 12,-35 -18,8 -31,21 -47,33 -16,11 -28,20 -44,31z"/>
<polygon fill="#FFFFFF" points="661,231 825,231 825,189 724,189 724,134 804,134 804,92 724,92 724,42 825,42 825,4 661,4 "/>
<path fill="#FFFFFF" d="M846 231l50 0 0 -151 77 150 53 1 0 -226 -46 0 0 130c-1,-1 -2,-3 -2,-2l-15 -27c-6,-11 -12,-22 -16,-34 -9,-22 -25,-46 -30,-67l-71 0 0 226z"/>
</svg>