<svg width="21" height="21" viewBox="0 0 21 21" fill="none" xmlns="http://www.w3.org/2000/svg">
<path d="M10.3477 14.0376C12.0735 14.0376 13.4727 12.6385 13.4727 10.9126C13.4727 9.18671 12.0735 7.7876 10.3477 7.7876C8.62177 7.7876 7.22266 9.18671 7.22266 10.9126C7.22266 12.6385 8.62177 14.0376 10.3477 14.0376Z" stroke="#647093" stroke-width="2" stroke-miterlimit="10"/>
<path d="M13.7852 3.7251H6.91016C4.83909 3.7251 3.16016 5.40403 3.16016 7.4751V14.3501C3.16016 16.4212 4.83909 18.1001 6.91016 18.1001H13.7852C15.8562 18.1001 17.5352 16.4212 17.5352 14.3501V7.4751C17.5352 5.40403 15.8562 3.7251 13.7852 3.7251Z" stroke="#647093" stroke-width="2" stroke-linecap="round" stroke-linejoin="round"/>
<path d="M14.4102 7.7876C14.9279 7.7876 15.3477 7.36786 15.3477 6.8501C15.3477 6.33233 14.9279 5.9126 14.4102 5.9126C13.8924 5.9126 13.4727 6.33233 13.4727 6.8501C13.4727 7.36786 13.8924 7.7876 14.4102 7.7876Z" fill="#647093"/>
</svg>
