<svg width="33" height="33" viewBox="0 0 33 33" fill="none" xmlns="http://www.w3.org/2000/svg">
<path d="M16.3547 22.5078C21.8776 22.5078 26.3547 18.0307 26.3547 12.5078C26.3547 6.98496 21.8776 2.50781 16.3547 2.50781C10.8319 2.50781 6.35474 6.98496 6.35474 12.5078C6.35474 18.0307 10.8319 22.5078 16.3547 22.5078Z" stroke="#90143C" stroke-width="2" stroke-linecap="round" stroke-linejoin="round"/>
<path d="M16.3547 18.5078C19.6684 18.5078 22.3547 15.8215 22.3547 12.5078C22.3547 9.1941 19.6684 6.50781 16.3547 6.50781C13.041 6.50781 10.3547 9.1941 10.3547 12.5078C10.3547 15.8215 13.041 18.5078 16.3547 18.5078Z" stroke="#90143C" stroke-width="2" stroke-linecap="round" stroke-linejoin="round"/>
<path d="M22.3555 20.5073V30.5079L16.3546 27.5079L10.3555 30.5079V20.5082" stroke="#90143C" stroke-width="2" stroke-linecap="round" stroke-linejoin="round"/>
</svg>
