<svg width="21" height="21" viewBox="0 0 21 21" fill="none" xmlns="http://www.w3.org/2000/svg">
<path d="M10.5247 2.51604L4.22354 3.77627L2.96331 10.0774C2.94313 10.1783 2.94817 10.2826 2.97799 10.3811C3.00781 10.4796 3.06147 10.5692 3.13423 10.6419L11.2946 18.8023C11.3526 18.8603 11.4215 18.9064 11.4974 18.9378C11.5732 18.9692 11.6545 18.9853 11.7365 18.9853C11.8186 18.9853 11.8999 18.9692 11.9757 18.9378C12.0516 18.9064 12.1204 18.8603 12.1785 18.8023L19.2496 11.7312C19.3076 11.6732 19.3536 11.6043 19.385 11.5285C19.4164 11.4526 19.4326 11.3714 19.4326 11.2893C19.4326 11.2072 19.4164 11.1259 19.385 11.0501C19.3536 10.9743 19.3076 10.9054 19.2496 10.8473L11.0892 2.68697C11.0164 2.61421 10.9268 2.56054 10.8284 2.53072C10.7299 2.50091 10.6256 2.49586 10.5247 2.51604V2.51604Z" stroke="white" stroke-width="2" stroke-linecap="round" stroke-linejoin="round"/>
<path d="M7.50391 7.99414C8.02167 7.99414 8.44141 7.57441 8.44141 7.05664C8.44141 6.53887 8.02167 6.11914 7.50391 6.11914C6.98614 6.11914 6.56641 6.53887 6.56641 7.05664C6.56641 7.57441 6.98614 7.99414 7.50391 7.99414Z" fill="white"/>
</svg>
