<svg width="19" height="19" viewBox="0 0 19 19" fill="none" xmlns="http://www.w3.org/2000/svg">
<path d="M18.7285 0.453777C18.6273 0.353032 18.4994 0.28328 18.3599 0.252722C18.2204 0.222164 18.0751 0.232071 17.941 0.281277L1.44105 6.28128C1.29875 6.33525 1.17624 6.43124 1.08978 6.55649C1.00333 6.68175 0.957031 6.83034 0.957031 6.98253C0.957031 7.13472 1.00333 7.28331 1.08978 7.40856C1.17624 7.53381 1.29875 7.6298 1.44105 7.68378L7.88354 10.2563L12.6385 5.48628L13.696 6.54378L8.91855 11.3213L11.4985 17.7638C11.5541 17.9033 11.6503 18.023 11.7747 18.1072C11.899 18.1915 12.0458 18.2364 12.196 18.2363C12.3476 18.2332 12.4947 18.1842 12.6178 18.0958C12.741 18.0075 12.8345 17.8839 12.886 17.7413L18.886 1.24128C18.9371 1.10858 18.9495 0.9641 18.9216 0.82467C18.8937 0.68524 18.8267 0.55661 18.7285 0.453777Z" fill="white"/>
</svg>
