<svg width="26" height="26" viewBox="0 0 26 26" fill="none" xmlns="http://www.w3.org/2000/svg">
<path d="M9.86487 12.8625C10.6753 14.5193 12.0182 15.8561 13.6787 16.659C13.8002 16.7165 13.9345 16.7415 14.0686 16.7313C14.2027 16.7212 14.3318 16.6763 14.4432 16.6011L16.8881 14.9708C16.9962 14.8987 17.1206 14.8547 17.25 14.8428C17.3795 14.831 17.5098 14.8515 17.6293 14.9027L22.2032 16.863C22.3586 16.929 22.4883 17.0437 22.5728 17.1898C22.6573 17.336 22.6921 17.5056 22.6718 17.6732C22.5272 18.8045 21.9753 19.8442 21.1193 20.5978C20.2633 21.3514 19.1619 21.7672 18.0215 21.7673C14.4991 21.7673 11.1209 20.368 8.63022 17.8773C6.13951 15.3866 4.74023 12.0084 4.74023 8.48601C4.74029 7.34556 5.15605 6.24423 5.90965 5.38823C6.66325 4.53224 7.70302 3.98029 8.83428 3.83572C9.00187 3.81544 9.17151 3.85017 9.31765 3.93469C9.46378 4.0192 9.5785 4.14892 9.6445 4.3043L11.6065 8.88221C11.6572 9.00062 11.6779 9.12975 11.6667 9.25809C11.6554 9.38642 11.6126 9.50999 11.5421 9.61779L9.91743 12.1002C9.84349 12.2119 9.79977 12.3408 9.79056 12.4744C9.78135 12.608 9.80695 12.7417 9.86487 12.8625V12.8625Z" stroke="#D9A863" stroke-width="2" stroke-linecap="round" stroke-linejoin="round"/>
<path d="M17.2402 5.36133H21.1465V9.26758" stroke="#D9A863" stroke-width="2" stroke-linecap="round" stroke-linejoin="round"/>
<path d="M16.459 10.0488L21.1465 5.36133" stroke="#D9A863" stroke-width="2" stroke-linecap="round" stroke-linejoin="round"/>
</svg>
