<svg width="33" height="33" viewBox="0 0 33 33" fill="none" xmlns="http://www.w3.org/2000/svg">
<path d="M7.1543 29.6611H25.1543" stroke="#E2B63A" stroke-width="2" stroke-linecap="round" stroke-linejoin="round"/>
<path d="M16.1543 17.6611C18.3634 17.6611 20.1543 15.8703 20.1543 13.6611C20.1543 11.452 18.3634 9.66113 16.1543 9.66113C13.9452 9.66113 12.1543 11.452 12.1543 13.6611C12.1543 15.8703 13.9452 17.6611 16.1543 17.6611Z" stroke="#E2B63A" stroke-width="2" stroke-linecap="round" stroke-linejoin="round"/>
<path d="M26.1543 13.6611C26.1543 22.6611 16.1543 29.6611 16.1543 29.6611C16.1543 29.6611 6.1543 22.6611 6.1543 13.6611C6.1543 11.009 7.20787 8.46543 9.08323 6.59007C10.9586 4.7147 13.5021 3.66113 16.1543 3.66113C18.8065 3.66113 21.35 4.7147 23.2254 6.59007C25.1007 8.46543 26.1543 11.009 26.1543 13.6611V13.6611Z" stroke="#E2B63A" stroke-width="2" stroke-linecap="round" stroke-linejoin="round"/>
</svg>
