<svg width="806" height="173" viewBox="0 0 806 173" fill="none" xmlns="http://www.w3.org/2000/svg">
<mask id="mask0" mask-type="alpha" maskUnits="userSpaceOnUse" x="0" y="0" width="806" height="173">
<rect x="0.117676" y="0.19043" width="805" height="172" fill="url(#paint0_linear)"/>
</mask>
<g mask="url(#mask0)">
<path fill-rule="evenodd" clip-rule="evenodd" d="M459.425 -38.3139C309.753 -44.658 237.785 -149.864 290.978 -237.624C295.672 -245.554 301.93 -253.484 309.231 -261.415L309.753 -261.943C310.796 -263.001 311.839 -264.058 312.882 -265.115C313.403 -265.644 313.925 -266.173 314.446 -266.701C315.489 -267.759 316.532 -268.816 317.575 -269.345C318.097 -269.873 319.14 -270.931 319.661 -271.459C320.704 -272.517 321.226 -273.045 322.269 -274.103C323.312 -275.16 323.833 -275.689 324.876 -276.746C325.919 -277.275 326.441 -278.332 327.484 -278.861C328.527 -279.918 329.57 -280.447 330.613 -281.504C331.656 -282.033 332.177 -282.562 333.22 -283.619C334.263 -284.676 335.828 -285.734 336.871 -286.262C337.392 -286.791 338.435 -287.32 338.957 -287.848C340.521 -288.906 341.564 -289.963 343.129 -291.02C343.65 -291.549 344.693 -292.078 345.215 -292.606C346.779 -293.664 348.344 -294.721 349.909 -295.778C350.43 -296.307 351.473 -296.836 351.995 -296.836C353.559 -297.893 355.645 -298.95 357.21 -300.008C357.731 -300.536 358.253 -300.536 358.774 -301.065C360.86 -302.122 362.946 -303.18 365.032 -304.237L366.597 -304.766C369.204 -306.352 371.812 -307.409 374.419 -308.995C464.118 -353.933 586.672 -364.506 686.279 -403.099C689.93 -404.685 693.58 -406.271 697.231 -407.857C698.274 -408.386 699.838 -408.915 700.881 -409.443C703.489 -410.501 705.575 -411.558 707.661 -412.616C709.225 -413.144 710.268 -414.202 711.833 -414.73C713.919 -415.788 716.005 -416.845 718.091 -417.374C719.655 -417.902 721.22 -418.96 722.263 -419.488C724.349 -420.546 725.914 -421.603 728 -422.132C729.564 -422.66 730.607 -423.718 732.172 -424.246C733.736 -425.304 735.822 -426.361 737.387 -427.418C738.951 -427.947 739.994 -429.004 741.559 -429.533C743.123 -430.59 745.209 -431.648 746.774 -432.705C748.338 -433.762 749.381 -434.291 750.946 -435.348C752.51 -436.406 754.596 -437.463 756.161 -438.521C757.204 -439.049 758.247 -440.107 759.811 -440.635C761.897 -442.221 763.983 -443.279 766.069 -444.865C767.112 -445.393 767.634 -445.922 768.677 -446.451C771.285 -448.037 773.371 -450.151 775.978 -451.737C777.021 -452.266 778.064 -453.323 779.107 -453.852C780.672 -454.909 782.236 -456.496 783.801 -457.553C784.844 -458.61 785.887 -459.139 786.93 -460.196C788.494 -461.254 789.537 -462.311 791.102 -463.897C792.145 -464.954 793.188 -465.483 794.231 -466.54C795.274 -467.598 796.838 -468.655 797.881 -470.241C798.924 -471.298 799.967 -471.827 800.489 -472.884C801.532 -473.942 803.096 -475.528 804.139 -476.585C805.182 -477.642 805.704 -478.171 806.747 -479.229C807.79 -480.286 809.354 -481.872 810.397 -482.929C810.919 -483.987 811.962 -484.515 812.483 -485.573C813.526 -487.159 815.091 -488.745 816.134 -489.802C816.655 -490.331 817.177 -491.388 817.698 -491.917C819.263 -494.031 820.828 -496.146 822.392 -498.261L822.914 -498.789C824.478 -500.904 826.043 -503.548 828.129 -505.662L828.65 -506.72C830.215 -508.834 831.258 -510.42 832.301 -512.535C832.822 -513.064 832.822 -513.592 833.344 -514.65C834.387 -516.236 835.43 -518.35 836.473 -519.936C836.994 -520.465 836.994 -521.522 837.516 -522.051C838.559 -523.637 839.602 -525.223 840.123 -527.338C840.645 -527.867 840.645 -528.924 841.166 -529.453C842.209 -531.039 842.731 -533.153 843.774 -534.739C844.295 -535.268 844.295 -536.325 844.817 -536.854C845.86 -538.969 846.381 -540.555 847.424 -542.669C847.424 -543.198 847.946 -543.727 847.946 -544.255C848.989 -546.37 849.51 -548.485 850.553 -550.6L851.075 -551.657C853.682 -559.058 855.768 -566.988 857.333 -574.39V-575.447C857.854 -577.562 858.376 -579.677 858.376 -581.791C858.376 -582.32 858.376 -582.849 858.897 -583.906C859.419 -586.021 859.419 -587.607 859.419 -589.721C859.419 -590.25 859.419 -591.308 859.94 -592.365C859.94 -593.422 859.94 -593.951 860.462 -595.008C861.505 -604.524 861.505 -613.512 860.983 -623.028C858.376 -672.195 836.994 -722.419 801.01 -767.356C805.182 -762.069 808.833 -756.783 812.483 -751.496C774.414 -805.421 716.005 -853.001 642.473 -885.779C592.408 -907.984 535.564 -923.315 473.505 -929.131C468.812 -929.659 464.64 -929.659 459.946 -930.188C458.382 -930.188 456.296 -930.188 454.731 -930.717C452.124 -930.717 448.994 -931.245 446.387 -931.245C445.344 -931.245 444.301 -931.245 443.258 -931.245C439.607 -931.245 436.478 -931.245 432.828 -931.774H431.785C159.559 -934.946 -73.0321 -726.12 -98.5858 -447.508C-107.973 -346.003 -88.1557 -248.726 -46.9568 -164.138C-48.5213 -169.954 -49.5643 -175.769 -50.6073 -181.056C-50.6073 -182.113 -51.1288 -183.171 -51.1288 -184.757C-52.1719 -189.515 -52.6934 -194.802 -53.7364 -199.56C-98.0643 -478.7 101.151 -728.763 351.473 -762.069C481.849 -779.516 545.994 -730.878 542.344 -694.928C537.65 -646.29 444.301 -647.347 324.876 -612.983H324.355C321.747 -612.454 318.618 -611.397 316.011 -610.34C315.489 -610.34 314.446 -609.811 313.925 -609.811C311.839 -609.282 309.231 -608.225 307.145 -607.696C306.102 -607.168 305.059 -607.168 304.016 -606.639C301.93 -606.11 299.844 -605.053 297.758 -604.524C296.715 -603.996 295.672 -603.996 294.107 -603.467C292.021 -602.938 290.457 -602.41 288.371 -601.352C287.328 -600.824 285.763 -600.295 284.72 -600.295C282.634 -599.766 281.07 -599.238 278.984 -598.18C277.419 -597.652 276.376 -597.123 274.812 -596.594C273.247 -596.066 271.161 -595.008 269.597 -594.48C268.032 -593.951 266.989 -593.422 265.425 -592.894C263.86 -592.365 261.774 -591.307 260.21 -590.779C258.645 -590.25 257.081 -589.721 256.038 -589.193C254.473 -588.664 252.387 -587.607 250.823 -587.078C249.258 -586.549 247.694 -586.021 246.129 -585.492C244.043 -584.963 242.478 -583.906 240.392 -583.377C237.785 -582.32 235.699 -581.263 233.091 -580.205C231.005 -579.148 228.919 -578.091 226.833 -577.562C225.269 -577.033 223.704 -575.976 222.14 -575.447C220.575 -574.919 219.011 -573.861 217.446 -573.333C215.882 -572.804 214.317 -571.747 212.753 -570.689C211.188 -570.161 209.624 -569.103 208.059 -568.046C206.495 -566.988 204.93 -566.46 202.844 -565.402C201.28 -564.345 199.715 -563.816 198.151 -562.759C196.586 -561.702 195.022 -561.173 192.936 -560.116C191.371 -559.058 189.806 -558.53 188.242 -557.472C186.677 -556.415 185.113 -555.886 183.548 -554.829C181.984 -553.772 180.419 -553.243 178.855 -552.186C177.29 -551.128 175.726 -550.071 174.161 -549.542C172.597 -548.485 171.032 -547.428 169.468 -546.37C167.903 -545.313 166.339 -544.255 164.774 -543.198C163.21 -542.141 161.645 -541.083 159.559 -540.026C157.995 -538.969 156.43 -537.911 154.866 -536.854C153.301 -535.797 151.215 -534.739 149.651 -533.682C148.086 -532.625 146.522 -531.567 144.957 -530.51C142.871 -529.453 141.307 -527.867 139.22 -526.809C137.656 -525.752 136.613 -524.695 135.048 -523.637C132.962 -522.051 130.876 -520.465 128.79 -519.408C127.747 -518.35 126.183 -517.822 125.14 -516.764C122.011 -514.121 118.882 -512.006 115.231 -509.363C66.2098 -472.356 27.0969 -427.418 2.06468 -376.666L2.58617 -377.723L3.10768 -378.252C6.23671 -383.538 8.84423 -388.825 11.9733 -394.112C8.84423 -388.825 5.7152 -383.01 2.58617 -377.723C-33.3977 -305.823 -41.7418 -223.35 -8.88693 -136.647C-6.27941 -129.775 -3.67189 -123.43 -0.542855 -117.086C-0.0213499 -116.558 -0.0213574 -115.5 0.500148 -114.972C3.10767 -108.628 6.23671 -102.812 9.36574 -96.9968C9.88725 -95.9395 10.4087 -94.8822 10.9303 -94.3535L11.4518 -92.7674L10.9303 -93.296C60.4732 -0.249329 143.914 64.7776 240.392 100.728H240.914L241.957 101.256L240.914 100.728C284.72 117.116 330.613 127.161 377.548 131.919C666.462 158.882 922.521 -57.3462 949.118 -350.232C877.15 -126.074 626.828 -30.9125 459.425 -38.3139Z" fill="url(#paint1_linear)" fill-opacity="0.6"/>
</g>
<defs>
<linearGradient id="paint0_linear" x1="69.4371" y1="166.815" x2="693.531" y2="-488.233" gradientUnits="userSpaceOnUse">
<stop stop-color="#19D7AE"/>
<stop offset="1" stop-color="#1495DD"/>
</linearGradient>
<linearGradient id="paint1_linear" x1="-100.882" y1="-110.83" x2="1097.18" y2="-1399.47" gradientUnits="userSpaceOnUse">
<stop stop-color="#04ADDE"/>
<stop offset="0.356409" stop-color="#83C70B"/>
<stop offset="0.63234" stop-color="#DEC300"/>
</linearGradient>
</defs>
</svg>
