<svg width="28" height="27" viewBox="0 0 28 27" fill="none" xmlns="http://www.w3.org/2000/svg">
<path d="M26.0263 6.39792C25.1078 7.71296 23.9618 8.85339 22.6423 9.7655L22.6423 9.76548C22.5588 12.0722 21.8854 14.319 20.6865 16.2914C19.4876 18.2638 17.8032 19.896 15.794 21.0321C13.7847 22.1683 11.5178 22.7705 9.20967 22.7812C6.90149 22.792 4.62908 22.2109 2.60938 21.0935L2.61006 21.0923C5.24746 21.0558 7.81575 20.2436 9.99465 18.7572L9.99457 18.7573C7.66214 17.1676 5.88568 14.8878 4.91425 12.2375C3.94283 9.5873 3.82515 6.6995 4.5777 3.979L4.57766 3.97903C5.65552 5.63896 7.08521 7.04156 8.76545 8.08746C10.4457 9.13336 12.3354 9.79698 14.3006 10.0313L14.3003 10.0314C14.0934 9.04481 14.2464 8.01677 14.7318 7.13329C15.2171 6.2498 16.0027 5.56925 16.9464 5.2148C17.89 4.86034 18.9294 4.85541 19.8763 5.20088C20.8233 5.54635 21.6153 6.21941 22.109 7.09824L22.1091 7.0987C23.4422 7.05892 24.7621 6.82279 26.0263 6.39792" stroke="#90143C" stroke-width="2" stroke-linecap="round" stroke-linejoin="round"/>
</svg>
