<svg width="28" height="27" viewBox="0 0 28 27" fill="none" xmlns="http://www.w3.org/2000/svg">
<path d="M7.46338 16.875C9.32734 16.875 10.8384 15.364 10.8384 13.5C10.8384 11.636 9.32734 10.125 7.46338 10.125C5.59942 10.125 4.08838 11.636 4.08838 13.5C4.08838 15.364 5.59942 16.875 7.46338 16.875Z" stroke="black" stroke-width="2" stroke-linecap="round" stroke-linejoin="round"/>
<path d="M19.2759 24.4688C21.1398 24.4688 22.6509 22.9577 22.6509 21.0938C22.6509 19.2298 21.1398 17.7188 19.2759 17.7188C17.4119 17.7188 15.9009 19.2298 15.9009 21.0938C15.9009 22.9577 17.4119 24.4688 19.2759 24.4688Z" stroke="black" stroke-width="2" stroke-linecap="round" stroke-linejoin="round"/>
<path d="M19.2759 9.28125C21.1398 9.28125 22.6509 7.77021 22.6509 5.90625C22.6509 4.04229 21.1398 2.53125 19.2759 2.53125C17.4119 2.53125 15.9009 4.04229 15.9009 5.90625C15.9009 7.77021 17.4119 9.28125 19.2759 9.28125Z" stroke="black" stroke-width="2" stroke-linecap="round" stroke-linejoin="round"/>
<path d="M16.437 7.73096L10.3018 11.675" stroke="black" stroke-width="2" stroke-linecap="round" stroke-linejoin="round"/>
<path d="M10.3018 15.3247L16.437 19.2688" stroke="black" stroke-width="2" stroke-linecap="round" stroke-linejoin="round"/>
</svg>
