<svg width="28" height="27" viewBox="0 0 28 27" fill="none" xmlns="http://www.w3.org/2000/svg">
<path d="M14.2134 17.7188C16.5433 17.7188 18.4321 15.83 18.4321 13.5C18.4321 11.17 16.5433 9.28125 14.2134 9.28125C11.8834 9.28125 9.99463 11.17 9.99463 13.5C9.99463 15.83 11.8834 17.7188 14.2134 17.7188Z" stroke="#90143C" stroke-width="2" stroke-miterlimit="10"/>
<path d="M18.854 3.79688H9.57275C6.77681 3.79688 4.51025 6.06343 4.51025 8.85938V18.1406C4.51025 20.9366 6.77681 23.2031 9.57275 23.2031H18.854C21.6499 23.2031 23.9165 20.9366 23.9165 18.1406V8.85938C23.9165 6.06343 21.6499 3.79688 18.854 3.79688Z" stroke="#90143C" stroke-width="2" stroke-linecap="round" stroke-linejoin="round"/>
<path d="M19.6978 9.28125C20.3967 9.28125 20.9634 8.71461 20.9634 8.01562C20.9634 7.31664 20.3967 6.75 19.6978 6.75C18.9988 6.75 18.4321 7.31664 18.4321 8.01562C18.4321 8.71461 18.9988 9.28125 19.6978 9.28125Z" fill="#90143C"/>
</svg>
