<svg width="427" height="89" viewBox="0 0 427 89" fill="none" xmlns="http://www.w3.org/2000/svg">
<path d="M21.8042 19.3792H3.77459V65.7788H15.6396V51.8589H21.8042C31.0841 51.8589 38.3755 45.1641 38.3755 35.6191C38.3755 26.074 31.0841 19.3792 21.8042 19.3792ZM21.8042 40.5904H15.6396V30.7139H21.8042C24.4556 30.7139 26.5104 32.7025 26.5104 35.6191C26.5104 38.5356 24.4556 40.5904 21.8042 40.5904ZM65.4742 66.7731C78.9964 66.7731 89.8008 56.2337 89.8008 42.579C89.8008 28.9242 78.9964 18.3849 65.4742 18.3849C51.952 18.3849 41.1475 28.9242 41.1475 42.579C41.1475 56.2337 51.952 66.7731 65.4742 66.7731ZM65.4742 55.1732C58.3817 55.1732 52.9463 50.0029 52.9463 42.579C52.9463 35.1551 58.3817 29.9848 65.4742 29.9848C72.5667 29.9848 78.0021 35.1551 78.0021 42.579C78.0021 50.0029 72.5667 55.1732 65.4742 55.1732ZM102.652 65.7788H115.18L122.604 39.5962L130.028 65.7788H142.556L155.482 19.3792H142.755L135.53 48.6109L127.244 19.3792H117.898L109.612 48.6109L102.454 19.3792H89.6605L102.652 65.7788ZM171.384 54.6429V47.8155H187.359V36.8785H171.384V30.4488H189.016V19.3792H159.519V65.7788H189.347V54.6429H171.384ZM219.186 65.7788H231.913L222.368 48.6109C227.14 45.9595 230.256 41.1207 230.256 35.4202C230.256 26.074 222.964 19.3792 213.552 19.3792H194.992V65.7788H206.857V50.7984H211.099L219.186 65.7788ZM206.857 30.3162H213.419C216.336 30.3162 218.39 32.5036 218.39 35.5528C218.39 38.6682 216.336 40.7893 213.419 40.723H206.857V30.3162Z" fill="#3C445B"/>
<path d="M315.319 59.1494V24.2171H303.454V70.6167H331.294V59.1494H315.319ZM335.626 24.2171V70.6167H347.491V24.2171H335.626ZM383.289 35.6844V24.2171H354.786V70.6167H366.652V54.7083H382.958V43.2409H366.652V35.6844H383.289ZM400.959 59.4808V52.6534H416.934V41.7164H400.959V35.2867H418.591V24.2171H389.094V70.6167H418.923V59.4808H400.959Z" fill="#3C445B"/>
<path d="M260.027 49.4188C266.591 49.4188 271.855 44.2199 271.855 37.5914C271.855 30.9304 266.591 25.7641 260.027 25.7641C253.464 25.7641 248.232 30.9304 248.232 37.5914C248.232 44.2199 253.464 49.4188 260.027 49.4188ZM260.027 45.0322C255.901 45.0322 252.684 41.9454 252.684 37.5914C252.684 33.2049 255.901 30.1181 260.027 30.1181C264.154 30.1181 267.371 33.2049 267.371 37.5914C267.371 41.9454 264.154 45.0322 260.027 45.0322ZM288.588 30.508V26.219H275.006V48.9639H279.49V40.1908H288.328V35.9018H279.49V30.508H288.588Z" fill="#3C445B"/>
<rect x="247.16" y="57.605" width="43.1969" height="6.49855" fill="#3C445B"/>
</svg>
