<svg width="595" height="149" viewBox="0 0 595 149" fill="none" xmlns="http://www.w3.org/2000/svg">
<path d="M63.75 110.74V124H8.466V52.6H62.424V65.86H24.888V81.364H58.038V94.216H24.888V110.74H63.75ZM121.182 124L103.944 99.214L87.0124 124H68.0404L94.4584 87.688L69.3664 52.6H88.1344L104.556 75.754L120.672 52.6H138.522L113.634 87.076L140.256 124H121.182ZM177.63 52.6C183.954 52.6 189.428 53.654 194.052 55.762C198.744 57.87 202.348 60.862 204.864 64.738C207.38 68.614 208.638 73.204 208.638 78.508C208.638 83.744 207.38 88.334 204.864 92.278C202.348 96.154 198.744 99.146 194.052 101.254C189.428 103.294 183.954 104.314 177.63 104.314H163.248V124H146.724V52.6H177.63ZM176.712 90.85C181.676 90.85 185.45 89.796 188.034 87.688C190.618 85.512 191.91 82.452 191.91 78.508C191.91 74.496 190.618 71.436 188.034 69.328C185.45 67.152 181.676 66.064 176.712 66.064H163.248V90.85H176.712ZM256.009 125.224C248.597 125.224 241.899 123.626 235.915 120.43C229.999 117.234 225.341 112.848 221.941 107.272C218.609 101.628 216.943 95.304 216.943 88.3C216.943 81.296 218.609 75.006 221.941 69.43C225.341 63.786 229.999 59.366 235.915 56.17C241.899 52.974 248.597 51.376 256.009 51.376C263.421 51.376 270.085 52.974 276.001 56.17C281.917 59.366 286.575 63.786 289.975 69.43C293.375 75.006 295.075 81.296 295.075 88.3C295.075 95.304 293.375 101.628 289.975 107.272C286.575 112.848 281.917 117.234 276.001 120.43C270.085 123.626 263.421 125.224 256.009 125.224ZM256.009 111.148C260.225 111.148 264.033 110.196 267.433 108.292C270.833 106.32 273.485 103.6 275.389 100.132C277.361 96.664 278.347 92.72 278.347 88.3C278.347 83.88 277.361 79.936 275.389 76.468C273.485 73 270.833 70.314 267.433 68.41C264.033 66.438 260.225 65.452 256.009 65.452C251.793 65.452 247.985 66.438 244.585 68.41C241.185 70.314 238.499 73 236.527 76.468C234.623 79.936 233.671 83.88 233.671 88.3C233.671 92.72 234.623 96.664 236.527 100.132C238.499 103.6 241.185 106.32 244.585 108.292C247.985 110.196 251.793 111.148 256.009 111.148Z" fill="white"/>
<path d="M363.75 85.74V99H308.466V27.6H362.424V40.86H324.888V56.364H358.038V69.216H324.888V85.74H363.75ZM442.382 27.6V99H428.816L393.218 55.65V99H376.898V27.6H390.566L426.062 70.95V27.6H442.382ZM506.297 83.7H473.147L466.823 99H449.891L481.715 27.6H498.035L529.961 99H512.621L506.297 83.7ZM501.095 71.154L489.773 43.818L478.451 71.154H501.095ZM553.892 40.86V59.73H586.94V72.99H553.892V99H537.368V27.6H591.326V40.86H553.892Z" fill="white"/>
<rect x="308" y="114" width="64" height="10" fill="white"/>
</svg>
