<svg width="372" height="93" viewBox="0 0 372 93" fill="none" xmlns="http://www.w3.org/2000/svg">
<path d="M39.7903 69.3281V77.6045H5.28415V33.0394H38.9626V41.3158H15.5341V50.9928H36.2251V59.0145H15.5341V69.3281H39.7903ZM75.6373 77.6045L64.878 62.134L54.3097 77.6045H42.4682L58.9572 54.94L43.2958 33.0394H55.01L65.26 47.4912L75.319 33.0394H86.4603L70.9262 54.558L87.5426 77.6045H75.6373ZM110.87 33.0394C114.817 33.0394 118.233 33.6973 121.12 35.013C124.048 36.3287 126.298 38.1962 127.868 40.6155C129.438 43.0347 130.224 45.8996 130.224 49.2102C130.224 52.4783 129.438 55.3432 127.868 57.8049C126.298 60.2241 124.048 62.0916 121.12 63.4073C118.233 64.6806 114.817 65.3173 110.87 65.3173H101.893V77.6045H91.5793V33.0394H110.87ZM110.297 56.9136C113.395 56.9136 115.751 56.2557 117.363 54.94C118.976 53.5818 119.783 51.6718 119.783 49.2102C119.783 46.706 118.976 44.7961 117.363 43.4804C115.751 42.1222 113.395 41.4431 110.297 41.4431H101.893V56.9136H110.297ZM159.791 78.3685C155.164 78.3685 150.984 77.3711 147.249 75.3762C143.556 73.3814 140.649 70.6438 138.527 67.1635C136.447 63.6408 135.407 59.6936 135.407 55.3219C135.407 50.9503 136.447 47.0243 138.527 43.544C140.649 40.0213 143.556 37.2625 147.249 35.2676C150.984 33.2728 155.164 32.2754 159.791 32.2754C164.417 32.2754 168.576 33.2728 172.269 35.2676C175.962 37.2625 178.869 40.0213 180.991 43.544C183.113 47.0243 184.174 50.9503 184.174 55.3219C184.174 59.6936 183.113 63.6408 180.991 67.1635C178.869 70.6438 175.962 73.3814 172.269 75.3762C168.576 77.3711 164.417 78.3685 159.791 78.3685ZM159.791 69.5828C162.422 69.5828 164.799 68.9886 166.921 67.8002C169.043 66.5693 170.699 64.8716 171.887 62.707C173.118 60.5424 173.733 58.0807 173.733 55.3219C173.733 52.5631 173.118 50.1015 171.887 47.9369C170.699 45.7723 169.043 44.0958 166.921 42.9074C164.799 41.6765 162.422 41.0611 159.791 41.0611C157.159 41.0611 154.782 41.6765 152.66 42.9074C150.538 44.0958 148.862 45.7723 147.631 47.9369C146.442 50.1015 145.848 52.5631 145.848 55.3219C145.848 58.0807 146.442 60.5424 147.631 62.707C148.862 64.8716 150.538 66.5693 152.66 67.8002C154.782 68.9886 157.159 69.5828 159.791 69.5828Z" fill="#3C445B"/>
<path d="M227.038 53.7236V62H192.532V17.4349H226.211V25.7113H202.782V35.3883H223.473V43.41H202.782V53.7236H227.038ZM276.117 17.4349V62H267.65L245.431 34.9426V62H235.245V17.4349H243.776L265.931 44.4923V17.4349H276.117ZM316.01 52.4503H295.319L291.372 62H280.804L300.667 17.4349H310.854L330.781 62H319.958L316.01 52.4503ZM312.763 44.6196L305.697 27.5575L298.63 44.6196H312.763ZM345.718 25.7113V37.4892H366.345V45.7656H345.718V62H335.404V17.4349H369.083V25.7113H345.718Z" fill="#3C445B"/>
<rect x="192.242" y="71.1553" width="39.9463" height="6.24161" fill="#3C445B"/>
</svg>
