<svg width="631" height="128" viewBox="0 0 631 128" fill="none" xmlns="http://www.w3.org/2000/svg">
<path d="M33.354 27.6H5.61V99H23.868V77.58H33.354C47.634 77.58 58.854 67.278 58.854 52.59C58.854 37.902 47.634 27.6 33.354 27.6ZM33.354 60.24H23.868V45.042H33.354C37.434 45.042 40.596 48.102 40.596 52.59C40.596 57.078 37.434 60.24 33.354 60.24ZM100.554 100.53C121.362 100.53 137.988 84.312 137.988 63.3C137.988 42.288 121.362 26.07 100.554 26.07C79.7457 26.07 63.1197 42.288 63.1197 63.3C63.1197 84.312 79.7457 100.53 100.554 100.53ZM100.554 82.68C89.6397 82.68 81.2757 74.724 81.2757 63.3C81.2757 51.876 89.6397 43.92 100.554 43.92C111.468 43.92 119.832 51.876 119.832 63.3C119.832 74.724 111.468 82.68 100.554 82.68ZM157.764 99H177.042L188.466 58.71L199.89 99H219.168L239.058 27.6H219.474L208.356 72.582L195.606 27.6H181.224L168.474 72.582L157.458 27.6H137.772L157.764 99ZM263.528 81.864V71.358H288.11V54.528H263.528V44.634H290.66V27.6H245.27V99H291.17V81.864H263.528ZM337.086 99H356.67L341.982 72.582C349.326 68.502 354.12 61.056 354.12 52.284C354.12 37.902 342.9 27.6 328.416 27.6H299.856V99H318.114V75.948H324.642L337.086 99ZM318.114 44.43H328.212C332.7 44.43 335.862 47.796 335.862 52.488C335.862 57.282 332.7 60.546 328.212 60.444H318.114V44.43Z" fill="white"/>
<path d="M467.868 82.354V28.6H449.61V100H492.45V82.354H467.868ZM499.116 28.6V100H517.374V28.6H499.116ZM572.46 46.246V28.6H528.6V100H546.858V75.52H571.95V57.874H546.858V46.246H572.46ZM599.651 82.864V72.358H624.233V55.528H599.651V45.634H626.783V28.6H581.393V100H627.293V82.864H599.651Z" fill="white"/>
<path d="M398.7 60.45C395.167 63.95 390.867 65.7 385.8 65.7C380.733 65.7 376.433 63.95 372.9 60.45C369.4 56.9167 367.65 52.6 367.65 47.5C367.65 42.4 369.4 38.1 372.9 34.6C376.433 31.0667 380.733 29.3 385.8 29.3C390.867 29.3 395.167 31.0667 398.7 34.6C402.233 38.1 404 42.4 404 47.5C404 52.6 402.233 56.9167 398.7 60.45ZM377.75 55.75C379.917 57.8833 382.6 58.95 385.8 58.95C389 58.95 391.683 57.8833 393.85 55.75C396.017 53.5833 397.1 50.8333 397.1 47.5C397.1 44.1667 396.017 41.4167 393.85 39.25C391.683 37.0833 389 36 385.8 36C382.6 36 379.917 37.0833 377.75 39.25C375.583 41.4167 374.5 44.1667 374.5 47.5C374.5 50.8333 375.583 53.5833 377.75 55.75ZM429.75 36.6H415.75V44.9H429.35V51.5H415.75V65H408.85V30H429.75V36.6Z" fill="white"/>
<rect x="366" y="81" width="64" height="10" fill="white"/>
</svg>
