<svg width="429" height="88" viewBox="0 0 429 88" fill="none" xmlns="http://www.w3.org/2000/svg">
<path d="M22.6765 19.457H3.81409V68H16.2272V53.4371H22.6765C32.3851 53.4371 40.0133 46.4331 40.0133 36.4471C40.0133 26.4611 32.3851 19.457 22.6765 19.457ZM22.6765 41.6481H16.2272V31.3154H22.6765C25.4504 31.3154 27.6001 33.3958 27.6001 36.4471C27.6001 39.4984 25.4504 41.6481 22.6765 41.6481ZM68.3637 69.0402C82.5106 69.0402 93.8141 58.014 93.8141 43.7285C93.8141 29.443 82.5106 18.4168 68.3637 18.4168C54.2169 18.4168 42.9134 29.443 42.9134 43.7285C42.9134 58.014 54.2169 69.0402 68.3637 69.0402ZM68.3637 56.9045C60.9436 56.9045 55.2572 51.4954 55.2572 43.7285C55.2572 35.9617 60.9436 30.5526 68.3637 30.5526C75.7839 30.5526 81.4703 35.9617 81.4703 43.7285C81.4703 51.4954 75.7839 56.9045 68.3637 56.9045ZM107.259 68H120.366L128.133 40.6079L135.9 68H149.006L162.529 19.457H149.214L141.655 50.0391L132.987 19.457H123.209L114.541 50.0391L107.051 19.457H93.6673L107.259 68ZM179.166 56.3497V49.2069H195.878V37.7647H179.166V31.038H197.612V19.457H166.753V68H197.959V56.3497H179.166ZM229.176 68H242.49L232.504 50.0391C237.497 47.2652 240.757 42.2029 240.757 36.239C240.757 26.4611 233.129 19.457 223.281 19.457H203.864V68H216.277V52.3276H220.715L229.176 68ZM216.277 30.8993H223.143C226.194 30.8993 228.344 33.1878 228.344 36.3777C228.344 39.637 226.194 41.8562 223.143 41.7868H216.277V30.8993Z" fill="white"/>
<path d="M318.09 56.6826V20.1367H305.677V68.6797H334.803V56.6826H318.09ZM339.335 20.1367V68.6797H351.748V20.1367H339.335ZM389.2 32.1338V20.1367H359.381V68.6797H371.794V52.0364H388.853V40.0393H371.794V32.1338H389.2ZM407.686 57.0294V49.8866H424.399V38.4444H407.686V31.7177H426.133V20.1367H395.273V68.6797H426.479V57.0294H407.686Z" fill="white"/>
<path d="M271.068 40.5042C268.666 42.8838 265.742 44.0736 262.297 44.0736C258.853 44.0736 255.929 42.8838 253.527 40.5042C251.148 38.102 249.958 35.1672 249.958 31.6999C249.958 28.2325 251.148 25.3091 253.527 22.9295C255.929 20.5273 258.853 19.3262 262.297 19.3262C265.742 19.3262 268.666 20.5273 271.068 22.9295C273.47 25.3091 274.671 28.2325 274.671 31.6999C274.671 35.1672 273.47 38.102 271.068 40.5042ZM256.824 37.3088C258.298 38.7592 260.122 39.4844 262.297 39.4844C264.473 39.4844 266.297 38.7592 267.77 37.3088C269.243 35.8358 269.98 33.9661 269.98 31.6999C269.98 29.4336 269.243 27.564 267.77 26.0909C266.297 24.6179 264.473 23.8813 262.297 23.8813C260.122 23.8813 258.298 24.6179 256.824 26.0909C255.351 27.564 254.615 29.4336 254.615 31.6999C254.615 33.9661 255.351 35.8358 256.824 37.3088ZM292.178 24.2893H282.659V29.9322H291.906V34.4194H282.659V43.5977H277.968V19.8021H292.178V24.2893Z" fill="white"/>
</svg>
