<svg xmlns="http://www.w3.org/2000/svg" xml:space="preserve" width="141px" height="113px" version="1.1" viewBox="0 0 29.54 23.65">
<path style="fill:#0C0C0C" d="M15.66 21.59c0.44,0.03 1.13,0.21 1.58,0.31 0.52,0.11 1.18,0.2 1.21,0.71 -0.42,0.55 -0.99,0.27 -1.55,-0.03 -1.03,-0.53 -1.07,-0.75 -1.32,-0.91 -0.09,-0.08 -0.07,0.11 -0.07,-0.12l0.15 0.04zm-5.15 0.46c0.2,-0.19 1,-0.34 1.25,-0.39 0.22,-0.04 0.46,-0.08 0.68,-0.11 0.12,-0.01 0.25,-0.02 0.38,-0.04 0.46,-0.04 0.28,0 0.35,0.04 -0.72,0.58 -1.93,1.04 -2.66,0.5zm4.61 -0.74l0.1 0.12 -0.27 -0.06 -1.44 -0.03c0.04,-0.26 0.3,-0.58 0.46,-1.91 0.09,-0.77 0.14,-1.54 0.09,-2.33 -0.18,-3.1 -0.98,-3.33 -1.12,-3.75 0.36,0.11 0.53,0.22 0.99,0.29 0.46,0.07 0.73,-0.01 1.01,0.26 -0.06,0.82 -0.57,-0.17 -0.53,3.76 0.02,1.54 0.07,2.49 0.71,3.65zm-4.38 -14.83c0.49,-0.01 1.09,-0.12 1.64,-0.14 1.43,-0.05 3.89,-0.06 5.17,0.33 -0.78,0.38 -5.63,-0.07 -6.82,-0.07l-0.21 -0.03 0.22 -0.09zm-0.92 -0.07c0.66,-0.39 7.49,-0.73 8.42,0.28 0.83,0.9 -0.45,5.01 -3.65,5.32 -1.51,0.15 -2.67,-0.58 -3.43,-1.27 -0.77,-0.69 -1.26,-1.8 -1.52,-3.2 -0.2,-1.1 0.94,-0.85 1.33,-0.81 1.44,0.15 4.25,0.22 5.73,0.16l0.84 -0.07c0.1,-0.02 0.06,-0.01 0.13,-0.05l0.07 -0.06c-0.18,-0.34 -1.47,-0.39 -1.81,-0.43 -0.68,-0.06 -1.4,-0.09 -2.09,-0.09 -0.71,0 -1.43,0.01 -2.14,0.06 -0.87,0.07 -1.51,0.34 -1.88,0.16zm0.02 0.14l0.12 0.04c0.05,0.19 0.02,0 -0.05,0.08 -0.17,0.05 -0.18,0.04 -0.27,0.2 0,0.11 0.03,0.08 -0.07,0.09l-0.05 -0.16c-0.24,-2.22 0.15,-3.44 0.74,-5.36 0.09,-0.3 0.18,-0.97 0.41,-1.1 0.48,-0.27 3.79,-0.16 4.57,-0.17 0.49,-0.02 0.97,-0.04 1.46,-0.05 1.28,-0.02 1.03,0.15 1.38,1.78 0.39,1.81 1.05,5.37 0.59,7 -0.09,0.66 -0.57,2.11 -1,2.33 -0.1,0.45 -1.28,1.4 -1.83,1.64 -0.46,0.2 -0.89,0.3 -1.44,0.3 -0.62,0.01 -1.02,-0.18 -1.56,-0.03l-1.45 -1.07c-0.09,-0.1 -0.16,-0.14 -0.25,-0.24 -0.8,-0.85 -1.58,-2.29 -1.56,-3.65 -0.1,-0.03 -0.06,-0.37 -0.03,-0.48l0.08 0.3c0.09,1.44 1.25,2.95 2.62,3.67 0.71,0.37 1.66,0.57 2.59,0.43 1.3,-0.2 1.83,-0.91 2.16,-1.03 0.36,-0.59 0.71,-0.61 1.25,-1.91 0.07,-0.18 0.04,-0.18 0.16,-0.31 -0.02,-0.33 0.6,-1.93 -0.29,-2.43 -1.28,-0.72 -6.2,-0.56 -7.91,-0.26 -0.38,0.07 -0.46,0.08 -0.54,0.27 0.08,0.1 0.01,0.06 0.17,0.12zm1.16 5.37l0.61 0.54c0.02,0 1.1,0.66 1.21,0.93 0.25,0.62 0.66,0.34 1.02,2.76 0.19,1.23 0.19,4.41 -0.57,5.21 -0.81,0.06 -2.37,0.23 -2.92,0.61 0.05,0.24 0.03,0.17 0.25,0.27 0.52,0.17 1.12,0.18 1.64,0 0.43,-0.14 0.95,-0.52 1.15,-0.75 0.48,-0.05 0.98,-0.02 1.46,0.01 0.86,0.06 0.42,0.34 1.81,1.1 0.34,0.18 0.67,0.27 0.99,0.44 -1.71,0.59 -4.81,0.46 -6.6,-0.29 -0.3,-0.13 -0.66,-0.2 -0.82,-0.33 -0.57,0.05 -3.36,-1.12 -7.97,0.01 -0.84,0.2 -1.49,0.52 -2.24,0.76 -0.02,0.15 -0.05,0.11 0.09,0.11 3.09,-1.36 7.66,-1.73 10.89,-0.44 1.84,0.75 4.57,0.89 6.57,0.33 0.44,-0.13 0.46,-0.04 0.89,0.07 2.45,0.64 5.36,0.41 7.81,-0.13 0.56,-0.13 3.01,-0.76 3.27,-1.03 -0.12,-0.07 -2.2,0.64 -2.51,0.72 -1.94,0.5 -4.04,0.79 -6.06,0.68 -0.64,-0.04 -2.45,-0.21 -2.87,-0.5 0.2,-0.08 0.36,-0.18 0.46,-0.34 0.07,-0.65 -0.73,-0.76 -1.31,-0.89 -0.64,-0.14 -1.23,-0.26 -1.9,-0.34 -0.75,-1.31 -0.79,-1.91 -0.82,-3.6 -0.01,-0.9 -0.08,-2.3 0.22,-3.13 0.11,-0.3 0.31,-0.5 0.31,-0.8 -0.34,-0.57 -1.38,-0.19 -2.01,-0.67 0.55,-0.25 1.97,0.78 4.04,-1.08l0.62 -0.67c0.18,-0.23 0.37,-0.52 0.53,-0.82 0.32,-0.65 0.52,-1.31 0.61,-2.09 0.29,-2.28 -0.26,-4.82 -0.72,-7.05 -0.41,-1.97 -0.06,-1.46 -3.84,-1.46 -0.89,0 -1.79,-0.03 -2.67,0 -1.31,0.04 -1.11,0.17 -1.44,1.2 -0.22,0.69 -0.42,1.37 -0.59,2.1 -0.18,0.75 -0.3,1.54 -0.29,2.34 0.01,0.42 0.06,0.81 0.12,1.22 0.06,0.42 -0.02,0.77 0.02,1.21 0.1,1.22 0.58,2.75 1.45,3.61 0.03,0.03 0.05,0.04 0.08,0.08 0.06,0.1 0.01,0.01 0.03,0.1z"/>
</svg>
