<svg xmlns="http://www.w3.org/2000/svg"  width="439px" height="199px" version="1.1" style="fill-rule:evenodd;" viewBox="0 0 341.32 154.67">
<path id="tacas.svg" style="fill:black" d="M315.24 127.87l0.43 0 -0.43 0zm-292.32 0.7l9.95 0.16 -9.95 -0.16zm217.34 -10.93c-6.62,0 -6.05,-5.45 -2.37,-8.82 0.83,-0.77 3.09,-2.6 4.35,-2.6 2.09,0 7.45,2.92 7.45,4.95 0,3.81 -5.68,6.47 -9.43,6.47zm75.41 10.93l0 -0.7 0 -0.01 0 -0.47 0.39 0c6.98,0 13.29,2.83 17.86,7.4 4.57,4.57 7.4,10.89 7.4,17.86 0,0.53 -0.02,1.08 -0.05,1.63l-0.03 0.39 -1.09 -0.07 0 -0.78 0.36 0.02c0.02,-0.39 0.03,-0.79 0.03,-1.19 0,-6.76 -2.74,-12.88 -7.17,-17.31 -3.39,-3.39 -7.78,-5.79 -12.68,-6.73l0 -0.04 -0.19 0c-1.32,-0.24 -2.67,-0.38 -4.05,-0.4l0 0.4 -0.78 0zm-287.77 0.51c-7.26,0.09 -14.06,0.5 -21.82,0.5 -3.06,0 -4.94,0.75 -6.08,-1 7.02,0 15.45,0.54 21.68,-0.36 2.08,-0.31 4.16,-0.4 6.22,-0.39l0 0.24c7.31,0.03 15.92,0.52 22.33,-0.36 7.76,-1.08 15.4,0.41 22.69,0.36 7.04,-0.06 14.86,1.11 22.16,-0.19 13.16,-2.34 15,-18.04 6.65,-23.64 -0.39,1.47 -0.21,0.79 -1,1.98 1.06,3.94 2.98,3.05 2.98,9.93 0,5.05 -5.26,9.43 -10.42,9.43 -7.58,0 -15.77,-6.26 -19.22,-12.56 -4.16,-7.59 -2.99,-17.72 8.3,-17.72 9.54,0 12.95,2.83 19.85,7.45 0.81,-3.06 9.33,-15.48 11.63,-18.67 3.21,-4.45 6.26,-8.89 10.09,-12.74 7.09,-7.11 0.13,-7.75 0.13,-29.17 0,-12.34 6.56,-22.45 13.27,-29.43 0.83,-0.88 1.38,-1.37 2.25,-2.22 8.73,-8.73 16.44,-13.82 28.67,-8.09 2.85,1.36 4.66,3 7.04,4.9 5.05,4.02 4.9,7.98 7.01,10.84 2.83,3.81 1.92,3.79 1.34,8.6 1.94,-1.41 2.66,-5.88 5.2,-8.22 7.37,-6.75 24.51,-11.56 27.98,-6.58 1.85,2.68 -1.11,1.7 2.13,4.32 1.28,1.04 2.11,2.13 2.92,3.54 1.66,2.93 2.81,5.64 3.92,9 1.17,3.54 2.23,5.84 3.15,9.76 2.36,9.99 3.45,30.39 -10.54,30.39 -11.03,0 -16.53,-5.8 -22.06,-14.19 -7.56,-11.5 -0.77,-9.94 4.83,-10.99 6.26,-1.19 18.12,-5.38 18.72,-12.56 -1.66,1.11 -2.86,2.66 -4.81,4.13 -8.69,6.48 -30.44,12.04 -30.44,-5.62l-0.49 0c0,10.95 4.14,15.8 9.08,24.17 4.34,7.35 9.02,13.61 17.54,15.74 5.82,1.47 9.23,-0.24 13.23,3.64 5.77,5.6 8.84,14.14 11.92,21.36 6.54,15.27 6.14,7.58 21.21,7.58 11.91,0 10.93,13.4 4.92,19.81 -0.06,0.08 -0.17,0.19 -0.25,0.27 -0.06,0.07 -0.17,0.17 -0.24,0.24 -0.4,0.42 -0.7,0.68 -1.25,1.25 -0.75,0.75 -0.49,0.32 -1.19,1.28 3.85,2.04 8.07,1.96 13.92,1.96 3.15,0.02 4.13,0.55 7.43,0.53l14.91 0.02c2.83,-0.04 3.45,-0.53 6.43,-0.55 5.18,0 8.42,0.53 13.42,0.53l0 0.28 0 0.01 0 0.69c-5.11,0 -9.27,-0.68 -14.91,-0.51 -2.7,0.07 -4.11,0.53 -7.43,0.51 -9.2,-0.04 -24.58,0.9 -32.07,-1.72 -4.69,-1.66 -2.77,-0.79 -8.8,2.06 -2.74,1.3 -6.36,2.03 -10.07,2.15l0 0 -2.24 0c-4.17,-0.14 -8.22,-1.06 -11.05,-2.81 -13.41,-8.26 1.24,-22.61 12.08,-23.51 -1.19,-1.79 -2.5,-3 -3.47,-4.96l-7.78 -16.55c-1.4,-2.83 -2.72,-5.36 -4.7,-7.71l-0.71 -0.78c-5.94,-6.03 -14.71,-0.7 -24.42,-10.35 -4.07,-4.03 -6.9,-9.48 -10.06,-14.27 -0.97,-1.47 -2.17,-3.36 -2.98,-4.96 -3.91,-7.58 -3.59,-9.95 -2.98,-17.38 -1.55,0.56 -0.59,-0.09 -1.53,1.45 -1.79,2.96 -2.81,6.24 -4.62,9.26 -4.64,7.69 -11.01,15.14 -18.25,20.49 -6.65,4.96 -13.18,10.01 -22.77,10.01 -5.22,0 -5.28,-0.39 -5.45,-2.49 6.54,-1.52 13.05,-3.47 19.02,-6.78 4.15,-2.3 11.52,-8.09 13.91,-11.92 3.61,-5.67 0.44,-2.86 -5.37,-3.9 -3.69,-0.68 -6.79,-1.77 -9.5,-3.41 -12.37,-7.53 -14.18,-21.27 -7.15,-23.14 1.53,3.19 -0.64,12.35 13.9,18.88 5.9,2.64 14.42,2.58 19.02,-1.85 3.22,-3.11 3.21,-4.77 4.32,-9.58 -5.45,0 -7.34,-0.43 -10.82,-2.58 -4,-2.43 -17.52,-10.9 -14.97,-16.72 3.03,-7 16.83,1.52 19.64,3.6 2.96,2.2 6.66,7.76 6.66,12.72 0.05,-0.11 0.11,-0.26 0.15,-0.34 0.04,-0.07 0.13,-0.26 0.17,-0.36 1.37,-3.11 0.96,-4.16 -0.83,-7.24 -3.81,-6.52 -11.78,-12.91 -20.34,-12.91 -6.56,0 -9.86,2.81 -13.92,5.94 -3.43,2.66 -6.22,5.88 -9.08,9.29 -2.72,3.23 -5.66,7.21 -7.24,11.15 -3.81,9.42 -4.58,19.28 -2.25,29.43 3.25,14.04 2.15,9.46 -4.9,19.02 -2.26,3.07 -4.37,5.63 -6.67,8.71 -4.51,6.01 -7.92,12.55 -12.07,18.74 1.77,2.62 4.98,6.22 4.98,10.42 0,3.85 -0.44,6.28 -2.62,9.32 -4.47,6.27 -12.93,6.58 -20.23,6.58 -8.62,0 -16.65,-1 -25.32,-1 -8.73,0 -16.65,0.51 -25.83,0.51 -2.71,0 -4.56,0.52 -5.79,-0.33l0 0.34zm64.89 -18.4c-5.99,0 -6.5,-7.44 -1.99,-7.44 3.79,0 6.43,1.2 7.95,3.47 -1,1.49 -3.6,3.97 -5.95,3.97l-0.01 0zm146.98 -4.95l0.13 0.15c0,-0.02 -0.18,-0.12 -0.13,-0.15zm4.47 -0.51c5.03,0.11 8.94,2.03 10.12,6.26 0.68,2.37 0.81,4.28 0.78,7.16 -0.04,3.87 0.51,4.2 2,6.45 -19.03,12.74 -43.63,-0.81 -27.66,-14.25 2.17,-1.83 6.33,-4.34 9.78,-4.62 -2.56,3.5 -4.96,1.81 -4.96,8.93 0,6.04 16.39,3.38 16.39,-3.47 0,-2.73 -2.21,-4.01 -4.36,-5.09 -2.01,-1 -0.81,0.4 -2.09,-1.37l0 0zm2.98 -0.98c4.05,-0.34 18.36,-4.58 18.36,7.44 0,4.64 -4.28,11.43 -7.94,12.41 -3.22,-4.79 -0.17,-5.15 -2.3,-12.59 -0.56,-2.02 -1.39,-3.53 -2.79,-4.66l-5.33 -2.6zm-160.38 1.98c0,1.39 0.86,3.07 1.58,3.86 2.19,2.43 5.49,1.89 8.28,0.04 2.09,-1.4 1.56,-1.83 3.03,-2.9 2.89,4.29 2.98,3.58 2.98,9.42 0,4.28 -5.52,7.96 -8.43,7.96 -12.17,0 -24.35,-14.27 -21.19,-22.17 4.91,-12.18 24.97,-3.43 28.13,1.3l-1.56 1.92c-1.34,-0.88 -1.62,-1.39 -3.55,-2.26 -3.77,-1.72 -9.27,-1.83 -9.27,2.83l0 0zm109.23 -65.54c-7.3,0 -10.42,-4.29 -10.42,-11.42 2.16,0.17 3.16,0.98 5.44,0.98 8.83,0 24.21,-6.96 25.83,-13.9 6.28,1.68 12.43,24.76 12.43,33.77 0,15.1 -5.75,21.72 -20.82,15.84 -5.82,-2.28 -14.33,-14.41 -14.44,-19.82l9.13 -1.79c7.61,-1.75 17.96,-6.3 18.17,-15.59 -2.71,0.23 -2.77,3.73 -10.26,8.13 -3.26,1.9 -10.02,3.8 -15.06,3.8l0 0zm-57.1 -15.4c0,-2.6 -0.14,-4.69 2.48,-6.45 0,5.9 3.29,11.22 7.51,14.33 13.53,9.98 29.77,8.01 31.22,-9.37l1.07 1.45c1.25,1.96 0.85,2.21 -1.07,6 -6.19,12.22 -10.14,16.93 -19.99,25.7 -2.22,1.97 -3.97,3.18 -6.61,4.8 -6.6,4.04 -13.33,7.66 -21.57,5.75 1.73,-1.2 3.17,-0.94 5.09,-1.37 1.62,-0.38 3.41,-0.93 4.99,-1.47 7.62,-2.66 18.63,-10.13 22.99,-16.74 5.65,-8.6 -1.55,-1.44 -14.2,-7.72 -4.54,-2.26 -11.91,-8.42 -11.91,-14.91l0 0zm43.19 -5.47c1.68,1.17 1.09,2.95 0.51,5.47 -2.6,-1.9 -0.76,-2.45 -0.51,-5.47zm5.46 2l0 0zm3.98 7.45c-16.87,0 5.81,-14.89 19.36,-14.89 1.66,0 3.1,0.82 4.96,0.98 -0.15,7.24 -17.72,13.91 -24.32,13.91l0 0zm-3.98 -7.45c1.68,-2.49 2.55,-3.49 5.19,-5.24 4.68,-3.13 23.02,-9.44 23.62,-2.2 -5.79,-0.5 -6.22,-1.93 -15.72,1.16 -3.13,1.02 -7.35,2.59 -10.01,4.38 -1.4,0.94 -1.55,1.49 -3.07,1.9l-0.01 0zm-33.27 -14.4c0,-7.98 14.93,-0.59 19.02,3.34 2.79,2.65 4.79,6.61 5.39,10.61 0.36,2.43 0.31,2.43 -3.05,2.43 -5.35,0 -21.36,-11.27 -21.36,-16.38l0 0z"/>
</svg>
