<svg width="33" height="33" viewBox="0 0 33 33" fill="none" xmlns="http://www.w3.org/2000/svg">
<path d="M12.75 7.61914V25.6191" stroke="#90143C" stroke-width="2" stroke-linecap="round" stroke-linejoin="round"/>
<path d="M3.75 21.5179C3.74996 21.2875 3.82957 21.0642 3.97536 20.8859C4.12114 20.7075 4.32412 20.585 4.5499 20.5391C5.45332 20.3546 6.26527 19.8636 6.84839 19.1493C7.43151 18.435 7.75 17.5412 7.75 16.6191C7.75 15.6971 7.43151 14.8033 6.84839 14.089C6.26527 13.3747 5.45332 12.8837 4.5499 12.6991C4.32412 12.6533 4.12114 12.5308 3.97536 12.3524C3.82957 12.174 3.74996 11.9507 3.75 11.7204V8.61914C3.75 8.35392 3.85536 8.09957 4.04289 7.91203C4.23043 7.7245 4.48478 7.61914 4.75 7.61914H28.75C29.0152 7.61914 29.2696 7.7245 29.4571 7.91203C29.6446 8.09957 29.75 8.35392 29.75 8.61914V11.7204C29.75 11.9507 29.6704 12.174 29.5246 12.3524C29.3789 12.5308 29.1759 12.6533 28.9501 12.6991C28.0467 12.8837 27.2347 13.3747 26.6516 14.089C26.0685 14.8033 25.75 15.6971 25.75 16.6191C25.75 17.5412 26.0685 18.435 26.6516 19.1493C27.2347 19.8636 28.0467 20.3546 28.9501 20.5392C29.1759 20.585 29.3789 20.7075 29.5246 20.8859C29.6704 21.0642 29.75 21.2875 29.75 21.5179V24.6191C29.75 24.8844 29.6446 25.1387 29.4571 25.3262C29.2696 25.5138 29.0152 25.6191 28.75 25.6191H4.75C4.48478 25.6191 4.23043 25.5138 4.04289 25.3262C3.85536 25.1387 3.75 24.8844 3.75 24.6191V21.5179Z" stroke="#90143C" stroke-width="2" stroke-linecap="round" stroke-linejoin="round"/>
</svg>
