<svg width="20" height="22" viewBox="0 0 20 22" fill="none" xmlns="http://www.w3.org/2000/svg">
<path d="M2.22222 21.1111H0V20C0.00489848 15.7065 3.48426 12.2271 7.77778 12.2222H12.2222C16.5157 12.2271 19.9951 15.7065 20 20V21.1111H17.7778V20C17.7741 16.9333 15.2889 14.4481 12.2222 14.4444H7.77778C4.71105 14.4481 2.2259 16.9333 2.22222 20V21.1111ZM10 11.1111C6.93175 11.1111 4.44444 8.6238 4.44444 5.55556C4.44444 2.48731 6.93175 0 10 0C13.0682 0 15.5556 2.48731 15.5556 5.55556C15.5519 8.62228 13.0667 11.1074 10 11.1111ZM10 2.22222C8.15905 2.22222 6.66667 3.71461 6.66667 5.55556C6.66667 7.3965 8.15905 8.88889 10 8.88889C11.841 8.88889 13.3333 7.3965 13.3333 5.55556C13.3333 3.71461 11.841 2.22222 10 2.22222Z" fill="#90143C"/>
</svg>
