<svg width="16" height="17" viewBox="0 0 16 17" fill="none" xmlns="http://www.w3.org/2000/svg">
<path d="M1.77778 17H0V16.1053C0.00391879 12.6479 2.78741 9.84605 6.22222 9.8421H9.77778C13.2126 9.84605 15.9961 12.6479 16 16.1053V17H14.2222V16.1053C14.2193 13.6357 12.2312 11.6345 9.77778 11.6316H6.22222C3.76884 11.6345 1.78072 13.6357 1.77778 16.1053V17ZM8 8.94737C5.5454 8.94737 3.55556 6.94443 3.55556 4.47368C3.55556 2.00294 5.5454 0 8 0C10.4546 0 12.4444 2.00294 12.4444 4.47368C12.4415 6.94321 10.4534 8.94441 8 8.94737ZM8 1.78947C6.52724 1.78947 5.33333 2.99124 5.33333 4.47368C5.33333 5.95613 6.52724 7.15789 8 7.15789C9.47276 7.15789 10.6667 5.95613 10.6667 4.47368C10.6667 2.99124 9.47276 1.78947 8 1.78947Z" fill="#90143C"/>
</svg>
