<svg width="28" height="28" viewBox="0 0 28 28" fill="none" xmlns="http://www.w3.org/2000/svg">
<path d="M5.14483 19.0779C3.88687 16.9573 3.44632 14.4504 3.90591 12.0279C4.3655 9.60549 5.69361 7.43413 7.64086 5.9216C9.58811 4.40907 12.0205 3.65942 14.4814 3.81341C16.9422 3.9674 19.2622 5.01445 21.0057 6.75793C22.7492 8.50142 23.7963 10.8214 23.9503 13.2823C24.1043 15.7431 23.3547 18.1756 21.8421 20.1228C20.3296 22.0701 18.1583 23.3982 15.7358 23.8578C13.3134 24.3174 10.8064 23.8769 8.68582 22.6189L8.68584 22.6188L5.18886 23.6179C5.04418 23.6593 4.89107 23.6612 4.74541 23.6234C4.59975 23.5857 4.46683 23.5097 4.36044 23.4033C4.25404 23.2969 4.17803 23.164 4.14028 23.0183C4.10254 22.8726 4.10443 22.7195 4.14577 22.5749L5.14491 19.0779L5.14483 19.0779Z" stroke="white" stroke-width="2" stroke-linecap="round" stroke-linejoin="round"/>
<path d="M16.3968 19.8164C15.2867 19.818 14.1873 19.6005 13.1614 19.1764C12.1356 18.7524 11.2035 18.13 10.4186 17.3451C9.63363 16.5602 9.01131 15.6281 8.58724 14.6023C8.16317 13.5764 7.9457 12.477 7.94727 11.3669C7.94978 10.5856 8.2621 9.83713 8.81572 9.28576C9.36934 8.73439 10.119 8.42512 10.9004 8.42578V8.42578C11.0285 8.42578 11.1544 8.45966 11.2653 8.52399C11.3761 8.58831 11.468 8.6808 11.5316 8.79207L12.7646 10.9499C12.839 11.08 12.8773 11.2276 12.8757 11.3775C12.8741 11.5273 12.8327 11.6741 12.7555 11.8026L11.7653 13.453C12.2747 14.5836 13.18 15.4889 14.3106 15.9984V15.9984L15.9611 15.0081C16.0896 14.931 16.2363 14.8895 16.3862 14.8879C16.5361 14.8864 16.6837 14.9247 16.8138 14.9991L18.9716 16.2321C19.0829 16.2957 19.1754 16.3876 19.2397 16.4984C19.304 16.6092 19.3379 16.7351 19.3379 16.8633V16.8633C19.3357 17.6437 19.0254 18.3918 18.4747 18.9448C17.924 19.4977 17.1772 19.811 16.3968 19.8164V19.8164Z" stroke="white" stroke-width="2" stroke-linecap="round" stroke-linejoin="round"/>
</svg>
