<svg width="33" height="33" viewBox="0 0 33 33" fill="none" xmlns="http://www.w3.org/2000/svg">
<path d="M6.1786 22.3506C4.68768 19.8372 4.16554 16.8661 4.71024 13.995C5.25494 11.124 6.829 8.55049 9.13685 6.75787C11.4447 4.96524 14.3276 4.07676 17.2441 4.25927C20.1607 4.44178 22.9103 5.68272 24.9767 7.74908C27.0431 9.81543 28.284 12.5651 28.4666 15.4816C28.6491 18.3982 27.7606 21.2811 25.968 23.5889C24.1754 25.8968 21.6019 27.4709 18.7309 28.0156C15.8598 28.5603 12.8887 28.0382 10.3753 26.5473L10.3753 26.5471L6.23078 27.7313C6.0593 27.7803 5.87785 27.7825 5.70521 27.7378C5.53258 27.6931 5.37504 27.603 5.24894 27.4769C5.12284 27.3508 5.03275 27.1932 4.98802 27.0206C4.94329 26.848 4.94553 26.6665 4.99453 26.4951L6.17869 22.3505L6.1786 22.3506Z" stroke="black" stroke-width="2" stroke-linecap="round" stroke-linejoin="round"/>
<path d="M19.5142 23.2256C18.1986 23.2274 16.8956 22.9697 15.6797 22.4671C14.4639 21.9645 13.3592 21.2269 12.4289 20.2967C11.4987 19.3664 10.7611 18.2617 10.2585 17.0459C9.75589 15.83 9.49814 14.527 9.50001 13.2114C9.50299 12.2853 9.87314 11.3983 10.5293 10.7448C11.1854 10.0913 12.074 9.7248 13 9.72559V9.72559C13.1519 9.72559 13.3011 9.76574 13.4325 9.84198C13.5638 9.91822 13.6727 10.0278 13.7481 10.1597L15.2094 12.7171C15.2976 12.8713 15.343 13.0463 15.3411 13.2239C15.3393 13.4015 15.2901 13.5754 15.1987 13.7278L14.0251 15.6838C14.6289 17.0238 15.7018 18.0967 17.0418 18.7005V18.7005L18.9978 17.5269C19.1502 17.4355 19.3241 17.3863 19.5017 17.3845C19.6793 17.3826 19.8542 17.428 20.0085 17.5162L22.5659 18.9775C22.6978 19.0529 22.8074 19.1618 22.8836 19.2931C22.9598 19.4245 23 19.5737 23 19.7256V19.7256C22.9974 20.6506 22.6297 21.5371 21.977 22.1925C21.3242 22.8479 20.4392 23.2192 19.5142 23.2256V23.2256Z" stroke="black" stroke-width="2" stroke-linecap="round" stroke-linejoin="round"/>
</svg>
