<svg width="631" height="128" viewBox="0 0 631 128" fill="none" xmlns="http://www.w3.org/2000/svg">
<path d="M33.354 27.6H5.61V99H23.868V77.58H33.354C47.634 77.58 58.854 67.278 58.854 52.59C58.854 37.902 47.634 27.6 33.354 27.6ZM33.354 60.24H23.868V45.042H33.354C37.434 45.042 40.596 48.102 40.596 52.59C40.596 57.078 37.434 60.24 33.354 60.24ZM100.554 100.53C121.362 100.53 137.988 84.312 137.988 63.3C137.988 42.288 121.362 26.07 100.554 26.07C79.7457 26.07 63.1197 42.288 63.1197 63.3C63.1197 84.312 79.7457 100.53 100.554 100.53ZM100.554 82.68C89.6397 82.68 81.2757 74.724 81.2757 63.3C81.2757 51.876 89.6397 43.92 100.554 43.92C111.468 43.92 119.832 51.876 119.832 63.3C119.832 74.724 111.468 82.68 100.554 82.68ZM157.764 99H177.042L188.466 58.71L199.89 99H219.168L239.058 27.6H219.474L208.356 72.582L195.606 27.6H181.224L168.474 72.582L157.458 27.6H137.772L157.764 99ZM263.528 81.864V71.358H288.11V54.528H263.528V44.634H290.66V27.6H245.27V99H291.17V81.864H263.528ZM337.086 99H356.67L341.982 72.582C349.326 68.502 354.12 61.056 354.12 52.284C354.12 37.902 342.9 27.6 328.416 27.6H299.856V99H318.114V75.948H324.642L337.086 99ZM318.114 44.43H328.212C332.7 44.43 335.862 47.796 335.862 52.488C335.862 57.282 332.7 60.546 328.212 60.444H318.114V44.43Z" fill="white"/>
<path d="M467.868 82.354V28.6H449.61V100H492.45V82.354H467.868ZM499.116 28.6V100H517.374V28.6H499.116ZM572.46 46.246V28.6H528.6V100H546.858V75.52H571.95V57.874H546.858V46.246H572.46ZM599.651 82.864V72.358H624.233V55.528H599.651V45.634H626.783V28.6H581.393V100H627.293V82.864H599.651Z" fill="white"/>
<path d="M385.8 67.7C395.9 67.7 404 59.7 404 49.5C404 39.25 395.9 31.3 385.8 31.3C375.7 31.3 367.65 39.25 367.65 49.5C367.65 59.7 375.7 67.7 385.8 67.7ZM385.8 60.95C379.45 60.95 374.5 56.2 374.5 49.5C374.5 42.75 379.45 38 385.8 38C392.15 38 397.1 42.75 397.1 49.5C397.1 56.2 392.15 60.95 385.8 60.95ZM429.75 38.6V32H408.85V67H415.75V53.5H429.35V46.9H415.75V38.6H429.75Z" fill="white"/>
</svg>
